<svg width="16" height="16" viewBox="0 0 16 16" fill="none" xmlns="http://www.w3.org/2000/svg">
<rect width="16" height="16" fill="white"/>
<path d="M14.5188 4.01161C14.5417 4.02382 14.559 4.04476 14.5667 4.06985C14.5745 4.09494 14.5721 4.12212 14.5602 4.14545L10.6194 11.8303L10.6146 11.8372C10.5353 11.9454 10.4501 12 10.3611 12C10.346 12.0001 10.3309 11.9988 10.3161 11.9959C10.0956 11.9508 9.98971 11.5693 9.96933 11.4855C9.96933 11.4832 9.96821 11.4814 9.96741 11.4791L8.77412 7.83924C8.77003 7.82687 8.76838 7.81381 8.76928 7.80079C8.77018 7.78778 8.77361 7.77508 8.77937 7.76341C8.78512 7.75174 8.79309 7.74135 8.80282 7.73282C8.81255 7.72429 8.82385 7.7178 8.83606 7.71371H8.83783C8.86218 7.70554 8.88872 7.7074 8.91174 7.71888C8.93475 7.73036 8.95241 7.75054 8.96091 7.77509L10.281 11.5868C10.2873 11.605 10.2987 11.6209 10.3138 11.6326C10.3289 11.6443 10.3471 11.6513 10.366 11.6528C10.385 11.6542 10.4039 11.65 10.4206 11.6407C10.4372 11.6313 10.4508 11.6173 10.4597 11.6003L14.3862 4.05297C14.3922 4.04144 14.4004 4.03122 14.4102 4.02289C14.4201 4.01457 14.4315 4.0083 14.4438 4.00444C14.456 4.00059 14.4689 3.99922 14.4817 4.00042C14.4945 4.00163 14.5069 4.00537 14.5183 4.01145L14.5188 4.01161Z" fill="#FB1023"/>
<path d="M9.88008 11.9607L9.85643 11.8856L7.39166 4.12322C7.38028 4.08746 7.35791 4.05625 7.32778 4.0341C7.29764 4.01195 7.26129 4.00001 7.22398 4H4.57159C4.53386 3.99985 4.49707 4.01191 4.46667 4.0344C4.43626 4.05689 4.41384 4.08863 4.40273 4.12492L2.69549 9.70091L2.34273 10.8635L2.11695 11.5979L2.0006 11.9782C1.99571 12.0063 2.02222 11.9985 2.02222 11.9985L4.10569 12C4.15939 12 4.15449 11.972 4.15449 11.972L4.43464 10.9862L4.59017 10.4501C4.59058 10.4464 4.59182 10.4428 4.59379 10.4396C4.59575 10.4364 4.59841 10.4337 4.60155 10.4317C4.60469 10.4297 4.60824 10.4284 4.61194 10.4279C4.61564 10.4275 4.61939 10.4278 4.62293 10.429H7.07926C7.11134 10.4243 7.11624 10.446 7.11624 10.446L7.13161 10.498L7.57488 11.9699C7.584 12.0085 7.63348 11.9986 7.63348 11.9986H9.85711C9.89122 11.9985 9.88008 11.9607 9.88008 11.9607ZM6.69796 8.74384H5.00203C4.94698 8.74384 4.96995 8.69473 4.96995 8.69473L5.77645 5.49279H5.86511L6.70843 8.69524C6.72312 8.75013 6.69796 8.74384 6.69796 8.74384Z" fill="#002A54"/>
</svg>
