<svg width="378" height="118" viewBox="0 0 378 118" fill="none" xmlns="http://www.w3.org/2000/svg">
<path d="M26.1963 40.4082V47H8.22754V40.4082H26.1963ZM11.2793 11.4531V47H2.70996V11.4531H11.2793ZM44.5068 40.5791V20.584H52.7588V47H45.0439L44.5068 40.5791ZM45.2881 35.208L47.4365 35.1592C47.4365 36.9333 47.2249 38.5771 46.8018 40.0908C46.3786 41.5882 45.752 42.8903 44.9219 43.9971C44.1081 45.1038 43.099 45.9665 41.8945 46.585C40.7064 47.1872 39.3311 47.4883 37.7686 47.4883C36.4665 47.4883 35.2702 47.3092 34.1797 46.9512C33.1055 46.5768 32.1777 45.999 31.3965 45.2178C30.6152 44.4202 30.0049 43.403 29.5654 42.166C29.1423 40.9128 28.9307 39.4154 28.9307 37.6738V20.584H37.1582V37.7227C37.1582 38.3086 37.2314 38.8132 37.3779 39.2363C37.5244 39.6595 37.736 40.0176 38.0127 40.3105C38.2894 40.5872 38.6312 40.7988 39.0381 40.9453C39.4613 41.0755 39.9414 41.1406 40.4785 41.1406C41.7155 41.1406 42.6839 40.8802 43.3838 40.3594C44.0837 39.8385 44.5719 39.1305 44.8486 38.2354C45.1416 37.3402 45.2881 36.3311 45.2881 35.208ZM64.2822 20.584L67.9932 27.8594L71.8262 20.584H80.3711L73.4375 33.4502L80.7373 47H72.1191L67.9932 39.1875L63.8916 47H55.2734L62.5732 33.4502L55.6641 20.584H64.2822ZM98.5107 40.5791V20.584H106.763V47H99.0479L98.5107 40.5791ZM99.292 35.208L101.44 35.1592C101.44 36.9333 101.229 38.5771 100.806 40.0908C100.382 41.5882 99.7559 42.8903 98.9258 43.9971C98.112 45.1038 97.1029 45.9665 95.8984 46.585C94.7103 47.1872 93.335 47.4883 91.7725 47.4883C90.4704 47.4883 89.2741 47.3092 88.1836 46.9512C87.1094 46.5768 86.1816 45.999 85.4004 45.2178C84.6191 44.4202 84.0088 43.403 83.5693 42.166C83.1462 40.9128 82.9346 39.4154 82.9346 37.6738V20.584H91.1621V37.7227C91.1621 38.3086 91.2354 38.8132 91.3818 39.2363C91.5283 39.6595 91.7399 40.0176 92.0166 40.3105C92.2933 40.5872 92.6351 40.7988 93.042 40.9453C93.4652 41.0755 93.9453 41.1406 94.4824 41.1406C95.7194 41.1406 96.6878 40.8802 97.3877 40.3594C98.0876 39.8385 98.5758 39.1305 98.8525 38.2354C99.1455 37.3402 99.292 36.3311 99.292 35.208ZM119.604 27.127V47H111.377V20.584H119.067L119.604 27.127ZM127.417 20.3887L127.271 28.0303C126.945 27.9977 126.506 27.957 125.952 27.9082C125.399 27.8594 124.935 27.835 124.561 27.835C123.6 27.835 122.77 27.9489 122.07 28.1768C121.387 28.3883 120.817 28.7139 120.361 29.1533C119.922 29.5765 119.596 30.1136 119.385 30.7646C119.189 31.4157 119.1 32.1725 119.116 33.0352L117.627 32.0586C117.627 30.2845 117.798 28.6732 118.14 27.2246C118.498 25.7598 119.002 24.4984 119.653 23.4404C120.304 22.3662 121.094 21.5443 122.021 20.9746C122.949 20.3887 123.991 20.0957 125.146 20.0957C125.553 20.0957 125.952 20.1201 126.343 20.1689C126.75 20.2178 127.108 20.291 127.417 20.3887ZM138.794 43.8994L145.63 20.584H154.468L143.848 50.9307C143.62 51.598 143.319 52.3141 142.944 53.0791C142.57 53.8604 142.057 54.6009 141.406 55.3008C140.755 56.0007 139.917 56.5703 138.892 57.0098C137.882 57.4492 136.629 57.6689 135.132 57.6689C134.334 57.6689 133.748 57.6283 133.374 57.5469C133.016 57.4818 132.463 57.3597 131.714 57.1807V51.2969C131.925 51.2969 132.104 51.2969 132.251 51.2969C132.414 51.2969 132.593 51.2969 132.788 51.2969C133.667 51.2969 134.367 51.2074 134.888 51.0283C135.425 50.8493 135.832 50.5889 136.108 50.2471C136.401 49.9053 136.629 49.4902 136.792 49.002L138.794 43.8994ZM137.061 20.584L142.261 39.0654L143.164 47.7812H137.646L128.247 20.584H137.061ZM169.141 9.5H177.368V40.5059L176.514 47H169.141V9.5ZM193.579 33.499V34.0117C193.579 36.0137 193.376 37.8366 192.969 39.4805C192.562 41.1243 191.935 42.5485 191.089 43.7529C190.243 44.9411 189.176 45.8607 187.891 46.5117C186.605 47.1628 185.083 47.4883 183.325 47.4883C181.73 47.4883 180.363 47.1465 179.224 46.4629C178.084 45.763 177.132 44.8027 176.367 43.582C175.602 42.3451 174.984 40.9209 174.512 39.3096C174.04 37.682 173.665 35.9404 173.389 34.085V33.4746C173.665 31.6354 174.04 29.9102 174.512 28.2988C174.984 26.6712 175.602 25.2471 176.367 24.0264C177.132 22.7894 178.076 21.8291 179.199 21.1455C180.339 20.4456 181.698 20.0957 183.276 20.0957C185.05 20.0957 186.58 20.4294 187.866 21.0967C189.168 21.764 190.243 22.6999 191.089 23.9043C191.935 25.1087 192.562 26.5247 192.969 28.1523C193.376 29.7799 193.579 31.5622 193.579 33.499ZM185.352 34.0117V33.499C185.352 32.5387 185.295 31.6354 185.181 30.7891C185.067 29.9427 184.863 29.194 184.57 28.543C184.277 27.8919 183.862 27.3792 183.325 27.0049C182.788 26.6305 182.088 26.4434 181.226 26.4434C180.347 26.4434 179.606 26.5898 179.004 26.8828C178.418 27.1758 177.946 27.599 177.588 28.1523C177.246 28.6895 177.002 29.3568 176.855 30.1543C176.709 30.9355 176.644 31.8226 176.66 32.8154V34.7441C176.628 36.0951 176.75 37.2507 177.026 38.2109C177.303 39.1712 177.783 39.9036 178.467 40.4082C179.15 40.9128 180.086 41.165 181.274 41.165C182.153 41.165 182.861 40.9941 183.398 40.6523C183.952 40.3105 184.367 39.8223 184.644 39.1875C184.92 38.5527 185.107 37.7959 185.205 36.917C185.303 36.0381 185.352 35.0697 185.352 34.0117ZM210.962 40.3594V29.4707C210.962 28.722 210.856 28.0791 210.645 27.542C210.433 27.0049 210.099 26.5898 209.644 26.2969C209.188 25.9876 208.577 25.833 207.812 25.833C207.194 25.833 206.665 25.9388 206.226 26.1504C205.786 26.362 205.452 26.6794 205.225 27.1025C204.997 27.5257 204.883 28.0628 204.883 28.7139H196.655C196.655 27.4932 196.924 26.362 197.461 25.3203C198.014 24.2624 198.796 23.3428 199.805 22.5615C200.83 21.7803 202.051 21.1781 203.467 20.7549C204.899 20.3154 206.494 20.0957 208.252 20.0957C210.352 20.0957 212.223 20.4456 213.867 21.1455C215.527 21.8454 216.838 22.8952 217.798 24.2949C218.758 25.6784 219.238 27.4199 219.238 29.5195V40.335C219.238 42.0602 219.336 43.3704 219.531 44.2656C219.727 45.1445 220.003 45.9176 220.361 46.585V47H212.109C211.719 46.1862 211.426 45.1934 211.23 44.0215C211.051 42.8333 210.962 41.6126 210.962 40.3594ZM211.963 30.8623L212.012 35.2568H208.374C207.609 35.2568 206.958 35.3626 206.421 35.5742C205.9 35.7858 205.477 36.0788 205.151 36.4531C204.842 36.8112 204.614 37.2181 204.468 37.6738C204.338 38.1296 204.272 38.6097 204.272 39.1143C204.272 39.6025 204.386 40.042 204.614 40.4326C204.858 40.807 205.184 41.0999 205.591 41.3115C205.998 41.5231 206.453 41.6289 206.958 41.6289C207.869 41.6289 208.643 41.458 209.277 41.1162C209.928 40.7581 210.425 40.3268 210.767 39.8223C211.108 39.3177 211.279 38.8457 211.279 38.4062L213.086 41.7754C212.76 42.4264 212.386 43.0856 211.963 43.7529C211.556 44.4202 211.043 45.0387 210.425 45.6084C209.823 46.1618 209.082 46.6175 208.203 46.9756C207.324 47.3174 206.258 47.4883 205.005 47.4883C203.377 47.4883 201.88 47.1546 200.513 46.4873C199.162 45.82 198.079 44.8923 197.266 43.7041C196.452 42.4997 196.045 41.1162 196.045 39.5537C196.045 38.1865 196.289 36.9658 196.777 35.8916C197.282 34.8174 198.039 33.9059 199.048 33.1572C200.057 32.4085 201.343 31.8389 202.905 31.4482C204.468 31.0576 206.307 30.8623 208.423 30.8623H211.963ZM237.646 39.5781C237.646 39.1224 237.492 38.7318 237.183 38.4062C236.89 38.0645 236.369 37.7552 235.62 37.4785C234.871 37.1855 233.822 36.8926 232.471 36.5996C231.185 36.3229 229.972 35.9567 228.833 35.501C227.71 35.0452 226.725 34.4919 225.879 33.8408C225.033 33.1898 224.365 32.4167 223.877 31.5215C223.405 30.6263 223.169 29.6009 223.169 28.4453C223.169 27.3223 223.405 26.2643 223.877 25.2715C224.365 24.2624 225.073 23.3753 226.001 22.6104C226.945 21.8291 228.092 21.2188 229.443 20.7793C230.794 20.3236 232.332 20.0957 234.058 20.0957C236.434 20.0957 238.485 20.4619 240.21 21.1943C241.935 21.9105 243.262 22.9196 244.189 24.2217C245.133 25.5075 245.605 26.9967 245.605 28.6895H237.378C237.378 28.0221 237.264 27.4525 237.036 26.9805C236.825 26.5085 236.475 26.1504 235.986 25.9062C235.498 25.6458 234.847 25.5156 234.033 25.5156C233.464 25.5156 232.943 25.6214 232.471 25.833C232.015 26.0446 231.649 26.3376 231.372 26.7119C231.095 27.0863 230.957 27.5257 230.957 28.0303C230.957 28.3883 231.038 28.7139 231.201 29.0068C231.38 29.2835 231.649 29.5439 232.007 29.7881C232.365 30.016 232.821 30.2275 233.374 30.4229C233.927 30.6019 234.595 30.7646 235.376 30.9111C237.15 31.2367 238.81 31.7005 240.356 32.3027C241.903 32.9049 243.156 33.7594 244.116 34.8662C245.093 35.973 245.581 37.4622 245.581 39.334C245.581 40.5059 245.312 41.5882 244.775 42.5811C244.238 43.5576 243.465 44.4202 242.456 45.1689C241.447 45.9014 240.234 46.471 238.818 46.8779C237.402 47.2848 235.807 47.4883 234.033 47.4883C231.51 47.4883 229.378 47.0407 227.637 46.1455C225.895 45.234 224.577 44.0947 223.682 42.7275C222.803 41.3441 222.363 39.9443 222.363 38.5283H230.029C230.062 39.3421 230.257 40.0094 230.615 40.5303C230.99 41.0511 231.486 41.4336 232.104 41.6777C232.723 41.9219 233.439 42.0439 234.253 42.0439C235.002 42.0439 235.62 41.9382 236.108 41.7266C236.613 41.515 236.995 41.2301 237.256 40.8721C237.516 40.4977 237.646 40.0664 237.646 39.5781ZM258.13 20.584V47H249.878V20.584H258.13ZM249.39 13.7725C249.39 12.6006 249.813 11.6403 250.659 10.8916C251.506 10.1429 252.604 9.76855 253.955 9.76855C255.306 9.76855 256.405 10.1429 257.251 10.8916C258.097 11.6403 258.521 12.6006 258.521 13.7725C258.521 14.9443 258.097 15.9046 257.251 16.6533C256.405 17.402 255.306 17.7764 253.955 17.7764C252.604 17.7764 251.506 17.402 250.659 16.6533C249.813 15.9046 249.39 14.9443 249.39 13.7725ZM274.365 41.1406C275.13 41.1406 275.781 41.0023 276.318 40.7256C276.872 40.4326 277.287 40.0257 277.563 39.5049C277.856 38.9678 277.995 38.3249 277.979 37.5762H285.718C285.734 39.5618 285.246 41.3034 284.253 42.8008C283.276 44.2819 281.942 45.4375 280.249 46.2676C278.573 47.0814 276.676 47.4883 274.561 47.4883C272.493 47.4883 270.687 47.1546 269.141 46.4873C267.594 45.8037 266.3 44.8597 265.259 43.6553C264.233 42.4346 263.46 41.0104 262.939 39.3828C262.435 37.7552 262.183 35.9893 262.183 34.085V33.5234C262.183 31.6191 262.435 29.8532 262.939 28.2256C263.46 26.5817 264.233 25.1576 265.259 23.9531C266.3 22.7324 267.586 21.7884 269.116 21.1211C270.662 20.4375 272.461 20.0957 274.512 20.0957C276.709 20.0957 278.646 20.5107 280.322 21.3408C282.015 22.1709 283.341 23.3753 284.302 24.9541C285.262 26.5329 285.734 28.4453 285.718 30.6914H277.979C277.995 29.8939 277.873 29.1777 277.612 28.543C277.352 27.9082 276.945 27.4036 276.392 27.0293C275.854 26.6387 275.163 26.4434 274.316 26.4434C273.47 26.4434 272.786 26.6305 272.266 27.0049C271.745 27.3792 271.346 27.9001 271.069 28.5674C270.809 29.2184 270.63 29.9671 270.532 30.8135C270.451 31.6598 270.41 32.5632 270.41 33.5234V34.085C270.41 35.0615 270.451 35.9811 270.532 36.8438C270.63 37.6901 270.817 38.4388 271.094 39.0898C271.37 39.7246 271.769 40.2292 272.29 40.6035C272.811 40.9616 273.503 41.1406 274.365 41.1406ZM303.076 39.5781C303.076 39.1224 302.922 38.7318 302.612 38.4062C302.319 38.0645 301.799 37.7552 301.05 37.4785C300.301 37.1855 299.251 36.8926 297.9 36.5996C296.615 36.3229 295.402 35.9567 294.263 35.501C293.14 35.0452 292.155 34.4919 291.309 33.8408C290.462 33.1898 289.795 32.4167 289.307 31.5215C288.835 30.6263 288.599 29.6009 288.599 28.4453C288.599 27.3223 288.835 26.2643 289.307 25.2715C289.795 24.2624 290.503 23.3753 291.431 22.6104C292.375 21.8291 293.522 21.2188 294.873 20.7793C296.224 20.3236 297.762 20.0957 299.487 20.0957C301.864 20.0957 303.914 20.4619 305.64 21.1943C307.365 21.9105 308.691 22.9196 309.619 24.2217C310.563 25.5075 311.035 26.9967 311.035 28.6895H302.808C302.808 28.0221 302.694 27.4525 302.466 26.9805C302.254 26.5085 301.904 26.1504 301.416 25.9062C300.928 25.6458 300.277 25.5156 299.463 25.5156C298.893 25.5156 298.372 25.6214 297.9 25.833C297.445 26.0446 297.078 26.3376 296.802 26.7119C296.525 27.0863 296.387 27.5257 296.387 28.0303C296.387 28.3883 296.468 28.7139 296.631 29.0068C296.81 29.2835 297.078 29.5439 297.437 29.7881C297.795 30.016 298.25 30.2275 298.804 30.4229C299.357 30.6019 300.024 30.7646 300.806 30.9111C302.58 31.2367 304.24 31.7005 305.786 32.3027C307.332 32.9049 308.586 33.7594 309.546 34.8662C310.522 35.973 311.011 37.4622 311.011 39.334C311.011 40.5059 310.742 41.5882 310.205 42.5811C309.668 43.5576 308.895 44.4202 307.886 45.1689C306.877 45.9014 305.664 46.471 304.248 46.8779C302.832 47.2848 301.237 47.4883 299.463 47.4883C296.94 47.4883 294.808 47.0407 293.066 46.1455C291.325 45.234 290.007 44.0947 289.111 42.7275C288.232 41.3441 287.793 39.9443 287.793 38.5283H295.459C295.492 39.3421 295.687 40.0094 296.045 40.5303C296.419 41.0511 296.916 41.4336 297.534 41.6777C298.153 41.9219 298.869 42.0439 299.683 42.0439C300.431 42.0439 301.05 41.9382 301.538 41.7266C302.043 41.515 302.425 41.2301 302.686 40.8721C302.946 40.4977 303.076 40.0664 303.076 39.5781ZM12.4023 106H4.12598V77.4355C4.12598 75.3848 4.54102 73.6595 5.37109 72.2598C6.20117 70.86 7.37305 69.8021 8.88672 69.0859C10.4004 68.3535 12.1908 67.9873 14.2578 67.9873C14.974 67.9873 15.6494 68.0361 16.2842 68.1338C16.9189 68.2314 17.5374 68.3535 18.1396 68.5L18.1641 74.5547C17.8711 74.4733 17.57 74.4163 17.2607 74.3838C16.9515 74.3512 16.569 74.335 16.1133 74.335C15.3158 74.335 14.6403 74.457 14.0869 74.7012C13.5335 74.929 13.1104 75.279 12.8174 75.751C12.5407 76.2067 12.4023 76.7682 12.4023 77.4355V106ZM17.5293 79.584V85.2969H0.317383V79.584H17.5293ZM19.458 93.0605V92.5479C19.458 90.611 19.7347 88.8288 20.2881 87.2012C20.8415 85.5573 21.6553 84.1331 22.7295 82.9287C23.8037 81.7243 25.1302 80.7884 26.709 80.1211C28.2878 79.4375 30.1107 79.0957 32.1777 79.0957C34.2611 79.0957 36.0921 79.4375 37.6709 80.1211C39.266 80.7884 40.6006 81.7243 41.6748 82.9287C42.749 84.1331 43.5628 85.5573 44.1162 87.2012C44.6696 88.8288 44.9463 90.611 44.9463 92.5479V93.0605C44.9463 94.9811 44.6696 96.7633 44.1162 98.4072C43.5628 100.035 42.749 101.459 41.6748 102.68C40.6006 103.884 39.2741 104.82 37.6953 105.487C36.1165 106.155 34.2936 106.488 32.2266 106.488C30.1595 106.488 28.3285 106.155 26.7334 105.487C25.1383 104.82 23.8037 103.884 22.7295 102.68C21.6553 101.459 20.8415 100.035 20.2881 98.4072C19.7347 96.7633 19.458 94.9811 19.458 93.0605ZM27.6855 92.5479V93.0605C27.6855 94.0534 27.7588 94.9811 27.9053 95.8438C28.0518 96.7064 28.2959 97.4632 28.6377 98.1143C28.9795 98.749 29.4434 99.2454 30.0293 99.6035C30.6152 99.9616 31.3477 100.141 32.2266 100.141C33.0892 100.141 33.8053 99.9616 34.375 99.6035C34.9609 99.2454 35.4248 98.749 35.7666 98.1143C36.1084 97.4632 36.3525 96.7064 36.499 95.8438C36.6455 94.9811 36.7188 94.0534 36.7188 93.0605V92.5479C36.7188 91.5876 36.6455 90.6842 36.499 89.8379C36.3525 88.9753 36.1084 88.2184 35.7666 87.5674C35.4248 86.9001 34.9609 86.3792 34.375 86.0049C33.7891 85.6305 33.0566 85.4434 32.1777 85.4434C31.3151 85.4434 30.5908 85.6305 30.0049 86.0049C29.4352 86.3792 28.9795 86.9001 28.6377 87.5674C28.2959 88.2184 28.0518 88.9753 27.9053 89.8379C27.7588 90.6842 27.6855 91.5876 27.6855 92.5479ZM56.9092 86.127V106H48.6816V79.584H56.3721L56.9092 86.127ZM64.7217 79.3887L64.5752 87.0303C64.2497 86.9977 63.8102 86.957 63.2568 86.9082C62.7035 86.8594 62.2396 86.835 61.8652 86.835C60.9049 86.835 60.0749 86.9489 59.375 87.1768C58.6914 87.3883 58.1217 87.7139 57.666 88.1533C57.2266 88.5765 56.901 89.1136 56.6895 89.7646C56.4941 90.4157 56.4046 91.1725 56.4209 92.0352L54.9316 91.0586C54.9316 89.2845 55.1025 87.6732 55.4443 86.2246C55.8024 84.7598 56.307 83.4984 56.958 82.4404C57.609 81.3662 58.3984 80.5443 59.3262 79.9746C60.2539 79.3887 61.2956 79.0957 62.4512 79.0957C62.8581 79.0957 63.2568 79.1201 63.6475 79.1689C64.0544 79.2178 64.4124 79.291 64.7217 79.3887ZM88.1104 102.899L94.9463 79.584H103.784L93.1641 109.931C92.9362 110.598 92.6351 111.314 92.2607 112.079C91.8864 112.86 91.3737 113.601 90.7227 114.301C90.0716 115.001 89.2334 115.57 88.208 116.01C87.1989 116.449 85.9456 116.669 84.4482 116.669C83.6507 116.669 83.0648 116.628 82.6904 116.547C82.3324 116.482 81.779 116.36 81.0303 116.181V110.297C81.2419 110.297 81.4209 110.297 81.5674 110.297C81.7301 110.297 81.9092 110.297 82.1045 110.297C82.9834 110.297 83.6833 110.207 84.2041 110.028C84.7412 109.849 85.1481 109.589 85.4248 109.247C85.7178 108.905 85.9456 108.49 86.1084 108.002L88.1104 102.899ZM86.377 79.584L91.5771 98.0654L92.4805 106.781H86.9629L77.5635 79.584H86.377ZM104.517 93.0605V92.5479C104.517 90.611 104.793 88.8288 105.347 87.2012C105.9 85.5573 106.714 84.1331 107.788 82.9287C108.862 81.7243 110.189 80.7884 111.768 80.1211C113.346 79.4375 115.169 79.0957 117.236 79.0957C119.32 79.0957 121.151 79.4375 122.729 80.1211C124.325 80.7884 125.659 81.7243 126.733 82.9287C127.808 84.1331 128.621 85.5573 129.175 87.2012C129.728 88.8288 130.005 90.611 130.005 92.5479V93.0605C130.005 94.9811 129.728 96.7633 129.175 98.4072C128.621 100.035 127.808 101.459 126.733 102.68C125.659 103.884 124.333 104.82 122.754 105.487C121.175 106.155 119.352 106.488 117.285 106.488C115.218 106.488 113.387 106.155 111.792 105.487C110.197 104.82 108.862 103.884 107.788 102.68C106.714 101.459 105.9 100.035 105.347 98.4072C104.793 96.7633 104.517 94.9811 104.517 93.0605ZM112.744 92.5479V93.0605C112.744 94.0534 112.817 94.9811 112.964 95.8438C113.11 96.7064 113.354 97.4632 113.696 98.1143C114.038 98.749 114.502 99.2454 115.088 99.6035C115.674 99.9616 116.406 100.141 117.285 100.141C118.148 100.141 118.864 99.9616 119.434 99.6035C120.02 99.2454 120.483 98.749 120.825 98.1143C121.167 97.4632 121.411 96.7064 121.558 95.8438C121.704 94.9811 121.777 94.0534 121.777 93.0605V92.5479C121.777 91.5876 121.704 90.6842 121.558 89.8379C121.411 88.9753 121.167 88.2184 120.825 87.5674C120.483 86.9001 120.02 86.3792 119.434 86.0049C118.848 85.6305 118.115 85.4434 117.236 85.4434C116.374 85.4434 115.649 85.6305 115.063 86.0049C114.494 86.3792 114.038 86.9001 113.696 87.5674C113.354 88.2184 113.11 88.9753 112.964 89.8379C112.817 90.6842 112.744 91.5876 112.744 92.5479ZM149.097 99.5791V79.584H157.349V106H149.634L149.097 99.5791ZM149.878 94.208L152.026 94.1592C152.026 95.9333 151.815 97.5771 151.392 99.0908C150.968 100.588 150.342 101.89 149.512 102.997C148.698 104.104 147.689 104.966 146.484 105.585C145.296 106.187 143.921 106.488 142.358 106.488C141.056 106.488 139.86 106.309 138.77 105.951C137.695 105.577 136.768 104.999 135.986 104.218C135.205 103.42 134.595 102.403 134.155 101.166C133.732 99.9128 133.521 98.4154 133.521 96.6738V79.584H141.748V96.7227C141.748 97.3086 141.821 97.8132 141.968 98.2363C142.114 98.6595 142.326 99.0176 142.603 99.3105C142.879 99.5872 143.221 99.7988 143.628 99.9453C144.051 100.076 144.531 100.141 145.068 100.141C146.305 100.141 147.274 99.8802 147.974 99.3594C148.674 98.8385 149.162 98.1305 149.438 97.2354C149.731 96.3402 149.878 95.3311 149.878 94.208ZM170.19 86.127V106H161.963V79.584H169.653L170.19 86.127ZM178.003 79.3887L177.856 87.0303C177.531 86.9977 177.091 86.957 176.538 86.9082C175.985 86.8594 175.521 86.835 175.146 86.835C174.186 86.835 173.356 86.9489 172.656 87.1768C171.973 87.3883 171.403 87.7139 170.947 88.1533C170.508 88.5765 170.182 89.1136 169.971 89.7646C169.775 90.4157 169.686 91.1725 169.702 92.0352L168.213 91.0586C168.213 89.2845 168.384 87.6732 168.726 86.2246C169.084 84.7598 169.588 83.4984 170.239 82.4404C170.89 81.3662 171.68 80.5443 172.607 79.9746C173.535 79.3887 174.577 79.0957 175.732 79.0957C176.139 79.0957 176.538 79.1201 176.929 79.1689C177.336 79.2178 177.694 79.291 178.003 79.3887ZM193.359 68.5H201.587V99.5059L200.732 106H193.359V68.5ZM217.798 92.499V93.0117C217.798 95.0137 217.594 96.8366 217.188 98.4805C216.781 100.124 216.154 101.549 215.308 102.753C214.461 103.941 213.395 104.861 212.109 105.512C210.824 106.163 209.302 106.488 207.544 106.488C205.949 106.488 204.582 106.146 203.442 105.463C202.303 104.763 201.351 103.803 200.586 102.582C199.821 101.345 199.202 99.9209 198.73 98.3096C198.258 96.682 197.884 94.9404 197.607 93.085V92.4746C197.884 90.6354 198.258 88.9102 198.73 87.2988C199.202 85.6712 199.821 84.2471 200.586 83.0264C201.351 81.7894 202.295 80.8291 203.418 80.1455C204.557 79.4456 205.916 79.0957 207.495 79.0957C209.269 79.0957 210.799 79.4294 212.085 80.0967C213.387 80.764 214.461 81.6999 215.308 82.9043C216.154 84.1087 216.781 85.5247 217.188 87.1523C217.594 88.7799 217.798 90.5622 217.798 92.499ZM209.57 93.0117V92.499C209.57 91.5387 209.513 90.6354 209.399 89.7891C209.285 88.9427 209.082 88.194 208.789 87.543C208.496 86.8919 208.081 86.3792 207.544 86.0049C207.007 85.6305 206.307 85.4434 205.444 85.4434C204.565 85.4434 203.825 85.5898 203.223 85.8828C202.637 86.1758 202.165 86.599 201.807 87.1523C201.465 87.6895 201.221 88.3568 201.074 89.1543C200.928 89.9355 200.863 90.8226 200.879 91.8154V93.7441C200.846 95.0951 200.968 96.2507 201.245 97.2109C201.522 98.1712 202.002 98.9036 202.686 99.4082C203.369 99.9128 204.305 100.165 205.493 100.165C206.372 100.165 207.08 99.9941 207.617 99.6523C208.171 99.3105 208.586 98.8223 208.862 98.1875C209.139 97.5527 209.326 96.7959 209.424 95.917C209.521 95.0381 209.57 94.0697 209.57 93.0117ZM229.761 86.127V106H221.533V79.584H229.224L229.761 86.127ZM237.573 79.3887L237.427 87.0303C237.101 86.9977 236.662 86.957 236.108 86.9082C235.555 86.8594 235.091 86.835 234.717 86.835C233.757 86.835 232.926 86.9489 232.227 87.1768C231.543 87.3883 230.973 87.7139 230.518 88.1533C230.078 88.5765 229.753 89.1136 229.541 89.7646C229.346 90.4157 229.256 91.1725 229.272 92.0352L227.783 91.0586C227.783 89.2845 227.954 87.6732 228.296 86.2246C228.654 84.7598 229.159 83.4984 229.81 82.4404C230.461 81.3662 231.25 80.5443 232.178 79.9746C233.105 79.3887 234.147 79.0957 235.303 79.0957C235.71 79.0957 236.108 79.1201 236.499 79.1689C236.906 79.2178 237.264 79.291 237.573 79.3887ZM253.394 99.3594V88.4707C253.394 87.722 253.288 87.0791 253.076 86.542C252.865 86.0049 252.531 85.5898 252.075 85.2969C251.619 84.9876 251.009 84.833 250.244 84.833C249.626 84.833 249.097 84.9388 248.657 85.1504C248.218 85.362 247.884 85.6794 247.656 86.1025C247.428 86.5257 247.314 87.0628 247.314 87.7139H239.087C239.087 86.4932 239.355 85.362 239.893 84.3203C240.446 83.2624 241.227 82.3428 242.236 81.5615C243.262 80.7803 244.482 80.1781 245.898 79.7549C247.331 79.3154 248.926 79.0957 250.684 79.0957C252.783 79.0957 254.655 79.4456 256.299 80.1455C257.959 80.8454 259.269 81.8952 260.229 83.2949C261.19 84.6784 261.67 86.4199 261.67 88.5195V99.335C261.67 101.06 261.768 102.37 261.963 103.266C262.158 104.145 262.435 104.918 262.793 105.585V106H254.541C254.15 105.186 253.857 104.193 253.662 103.021C253.483 101.833 253.394 100.613 253.394 99.3594ZM254.395 89.8623L254.443 94.2568H250.806C250.041 94.2568 249.39 94.3626 248.853 94.5742C248.332 94.7858 247.909 95.0788 247.583 95.4531C247.274 95.8112 247.046 96.2181 246.899 96.6738C246.769 97.1296 246.704 97.6097 246.704 98.1143C246.704 98.6025 246.818 99.042 247.046 99.4326C247.29 99.807 247.616 100.1 248.022 100.312C248.429 100.523 248.885 100.629 249.39 100.629C250.301 100.629 251.074 100.458 251.709 100.116C252.36 99.7581 252.856 99.3268 253.198 98.8223C253.54 98.3177 253.711 97.8457 253.711 97.4062L255.518 100.775C255.192 101.426 254.818 102.086 254.395 102.753C253.988 103.42 253.475 104.039 252.856 104.608C252.254 105.162 251.514 105.618 250.635 105.976C249.756 106.317 248.69 106.488 247.437 106.488C245.809 106.488 244.312 106.155 242.944 105.487C241.593 104.82 240.511 103.892 239.697 102.704C238.883 101.5 238.477 100.116 238.477 98.5537C238.477 97.1865 238.721 95.9658 239.209 94.8916C239.714 93.8174 240.47 92.9059 241.479 92.1572C242.489 91.4085 243.774 90.8389 245.337 90.4482C246.899 90.0576 248.739 89.8623 250.854 89.8623H254.395ZM274.316 85.2236V106H266.089V79.584H273.804L274.316 85.2236ZM273.34 91.8887L271.411 91.9375C271.411 89.9193 271.655 88.1208 272.144 86.542C272.632 84.9469 273.324 83.596 274.219 82.4893C275.114 81.3825 276.18 80.5443 277.417 79.9746C278.67 79.3887 280.062 79.0957 281.592 79.0957C282.812 79.0957 283.927 79.2747 284.937 79.6328C285.962 79.9909 286.841 80.5687 287.573 81.3662C288.322 82.1637 288.892 83.2217 289.282 84.54C289.689 85.8421 289.893 87.4535 289.893 89.374V106H281.616V89.3496C281.616 88.2917 281.47 87.486 281.177 86.9326C280.884 86.363 280.461 85.9723 279.907 85.7607C279.354 85.5492 278.678 85.4434 277.881 85.4434C277.035 85.4434 276.318 85.6061 275.732 85.9316C275.146 86.2572 274.674 86.7129 274.316 87.2988C273.975 87.8685 273.722 88.5439 273.56 89.3252C273.413 90.1064 273.34 90.9609 273.34 91.8887ZM309.644 99.9453V68.5H317.92V106H310.498L309.644 99.9453ZM293.433 93.1094V92.5967C293.433 90.5947 293.652 88.7718 294.092 87.1279C294.531 85.4678 295.182 84.0436 296.045 82.8555C296.908 81.651 297.982 80.7233 299.268 80.0723C300.553 79.4212 302.035 79.0957 303.711 79.0957C305.208 79.0957 306.519 79.4456 307.642 80.1455C308.765 80.8291 309.725 81.7894 310.522 83.0264C311.32 84.2633 311.971 85.7119 312.476 87.3721C312.98 89.016 313.363 90.79 313.623 92.6943V93.3047C313.363 95.0951 312.98 96.7878 312.476 98.3828C311.971 99.9616 311.32 101.361 310.522 102.582C309.725 103.803 308.757 104.763 307.617 105.463C306.494 106.146 305.176 106.488 303.662 106.488C301.986 106.488 300.505 106.155 299.219 105.487C297.949 104.82 296.883 103.884 296.021 102.68C295.174 101.475 294.531 100.059 294.092 98.4316C293.652 96.804 293.433 95.0299 293.433 93.1094ZM301.66 92.5967V93.1094C301.66 94.1022 301.725 95.0218 301.855 95.8682C301.986 96.7145 302.205 97.4632 302.515 98.1143C302.84 98.749 303.263 99.2454 303.784 99.6035C304.321 99.9616 304.98 100.141 305.762 100.141C306.82 100.141 307.69 99.8883 308.374 99.3838C309.074 98.8792 309.587 98.1631 309.912 97.2354C310.254 96.3076 310.4 95.2171 310.352 93.9639V92.0352C310.384 90.9609 310.311 90.0169 310.132 89.2031C309.953 88.373 309.668 87.6813 309.277 87.1279C308.903 86.5745 308.423 86.1595 307.837 85.8828C307.267 85.5898 306.592 85.4434 305.811 85.4434C305.046 85.4434 304.395 85.6224 303.857 85.9805C303.337 86.3385 302.913 86.8431 302.588 87.4941C302.262 88.1289 302.026 88.8857 301.88 89.7646C301.733 90.6273 301.66 91.5713 301.66 92.5967Z" fill="#004E93"/>
<path d="M325.908 72.798C300.541 62.3857 239.38 47.8085 197.666 72.798C179.346 88.091 166.944 117.896 263.901 114.772C285.979 114.772 332.108 106.377 340 72.798" stroke="#FFE700" stroke-width="3"/>
</svg>
