<svg width="429" height="154" viewBox="0 0 429 154" fill="none" xmlns="http://www.w3.org/2000/svg">
<path d="M51.0552 51.4307V60H27.6958V51.4307H51.0552ZM31.6631 13.7891V60H20.5229V13.7891H31.6631ZM74.8589 51.6528V25.6592H85.5864V60H75.5571L74.8589 51.6528ZM75.8745 44.6704L78.6675 44.6069C78.6675 46.9132 78.3924 49.0503 77.8423 51.0181C77.2922 52.9647 76.4775 54.6574 75.3984 56.0962C74.3405 57.535 73.0286 58.6564 71.4629 59.4604C69.9183 60.2433 68.1304 60.6348 66.0991 60.6348C64.4064 60.6348 62.8512 60.402 61.4336 59.9365C60.0371 59.4499 58.8311 58.6987 57.8154 57.6831C56.7998 56.6463 56.0063 55.3239 55.4351 53.7158C54.8849 52.0866 54.6099 50.14 54.6099 47.876V25.6592H65.3057V47.9395C65.3057 48.7012 65.4009 49.3571 65.5913 49.9072C65.7817 50.4574 66.0568 50.9229 66.4165 51.3037C66.7762 51.6634 67.2205 51.9385 67.7495 52.1289C68.2996 52.2982 68.9238 52.3828 69.6221 52.3828C71.2301 52.3828 72.4891 52.0443 73.3989 51.3672C74.3088 50.6901 74.9435 49.7697 75.3032 48.606C75.6841 47.4422 75.8745 46.1304 75.8745 44.6704ZM100.567 25.6592L105.391 35.1172L110.374 25.6592H121.482L112.469 42.3853L121.958 60H110.755L105.391 49.8438L100.059 60H88.8555L98.3452 42.3853L89.3633 25.6592H100.567ZM145.064 51.6528V25.6592H155.792V60H145.762L145.064 51.6528ZM146.08 44.6704L148.873 44.6069C148.873 46.9132 148.597 49.0503 148.047 51.0181C147.497 52.9647 146.683 54.6574 145.604 56.0962C144.546 57.535 143.234 58.6564 141.668 59.4604C140.123 60.2433 138.335 60.6348 136.304 60.6348C134.611 60.6348 133.056 60.402 131.639 59.9365C130.242 59.4499 129.036 58.6987 128.021 57.6831C127.005 56.6463 126.211 55.3239 125.64 53.7158C125.09 52.0866 124.815 50.14 124.815 47.876V25.6592H135.511V47.9395C135.511 48.7012 135.606 49.3571 135.796 49.9072C135.987 50.4574 136.262 50.9229 136.622 51.3037C136.981 51.6634 137.426 51.9385 137.955 52.1289C138.505 52.2982 139.129 52.3828 139.827 52.3828C141.435 52.3828 142.694 52.0443 143.604 51.3672C144.514 50.6901 145.149 49.7697 145.508 48.606C145.889 47.4422 146.08 46.1304 146.08 44.6704ZM172.486 34.165V60H161.79V25.6592H171.788L172.486 34.165ZM182.642 25.4053L182.452 35.3394C182.028 35.297 181.457 35.2441 180.738 35.1807C180.018 35.1172 179.415 35.0854 178.929 35.0854C177.68 35.0854 176.601 35.2336 175.691 35.5298C174.803 35.8049 174.062 36.228 173.47 36.7993C172.898 37.3494 172.475 38.0477 172.2 38.894C171.946 39.7404 171.83 40.7243 171.851 41.8457L169.915 40.5762C169.915 38.2699 170.137 36.1751 170.582 34.292C171.047 32.3877 171.703 30.7479 172.549 29.3726C173.396 27.9761 174.422 26.9076 175.628 26.167C176.834 25.4053 178.188 25.0244 179.69 25.0244C180.219 25.0244 180.738 25.0562 181.246 25.1196C181.775 25.1831 182.24 25.2783 182.642 25.4053ZM197.432 55.9692L206.319 25.6592H217.808L204.002 65.1099C203.706 65.9774 203.314 66.9084 202.828 67.9028C202.341 68.9185 201.674 69.8812 200.828 70.791C199.982 71.7008 198.892 72.4414 197.559 73.0127C196.247 73.584 194.618 73.8696 192.671 73.8696C191.635 73.8696 190.873 73.8167 190.386 73.7109C189.921 73.6263 189.201 73.4676 188.228 73.2349V65.5859C188.503 65.5859 188.736 65.5859 188.926 65.5859C189.138 65.5859 189.371 65.5859 189.625 65.5859C190.767 65.5859 191.677 65.4696 192.354 65.2368C193.052 65.0041 193.581 64.6655 193.941 64.2212C194.322 63.7769 194.618 63.2373 194.83 62.6025L197.432 55.9692ZM195.179 25.6592L201.939 49.6851L203.113 61.0156H195.94L183.721 25.6592H195.179ZM236.883 11.25H247.579V51.5576L246.468 60H236.883V11.25ZM268.653 42.4487V43.1152C268.653 45.7178 268.388 48.0876 267.859 50.2246C267.33 52.3617 266.516 54.2131 265.416 55.7788C264.315 57.3234 262.929 58.5189 261.258 59.3652C259.586 60.2116 257.608 60.6348 255.323 60.6348C253.249 60.6348 251.472 60.1904 249.991 59.3018C248.51 58.3919 247.272 57.1436 246.277 55.5566C245.283 53.9486 244.479 52.0972 243.865 50.0024C243.252 47.8866 242.765 45.6226 242.405 43.2104V42.417C242.765 40.026 243.252 37.7832 243.865 35.6885C244.479 33.5726 245.283 31.7212 246.277 30.1343C247.272 28.5262 248.499 27.2778 249.959 26.3892C251.44 25.4793 253.207 25.0244 255.259 25.0244C257.566 25.0244 259.555 25.4582 261.226 26.3257C262.919 27.1932 264.315 28.4098 265.416 29.9756C266.516 31.5413 267.33 33.3822 267.859 35.498C268.388 37.6139 268.653 39.9308 268.653 42.4487ZM257.957 43.1152V42.4487C257.957 41.2004 257.883 40.026 257.735 38.9258C257.587 37.8255 257.322 36.8522 256.941 36.0059C256.561 35.1595 256.021 34.493 255.323 34.0063C254.625 33.5197 253.715 33.2764 252.593 33.2764C251.451 33.2764 250.488 33.4668 249.705 33.8477C248.943 34.2285 248.33 34.7786 247.864 35.498C247.42 36.1963 247.103 37.0638 246.912 38.1006C246.722 39.1162 246.637 40.2694 246.658 41.5601V44.0674C246.616 45.8236 246.775 47.3258 247.134 48.5742C247.494 49.8226 248.118 50.7747 249.007 51.4307C249.896 52.0866 251.112 52.4146 252.657 52.4146C253.799 52.4146 254.72 52.1924 255.418 51.748C256.137 51.3037 256.677 50.6689 257.037 49.8438C257.396 49.0186 257.64 48.0347 257.767 46.8921C257.894 45.7495 257.957 44.4906 257.957 43.1152ZM284.712 11.25V60H273.985V11.25H284.712ZM309.151 51.3672V37.2119C309.151 36.2386 309.013 35.4028 308.738 34.7046C308.463 34.0063 308.029 33.4668 307.437 33.0859C306.845 32.6839 306.051 32.4829 305.057 32.4829C304.253 32.4829 303.565 32.6204 302.994 32.8955C302.422 33.1706 301.989 33.5832 301.692 34.1333C301.396 34.6834 301.248 35.3817 301.248 36.228H290.552C290.552 34.6411 290.901 33.1706 291.6 31.8164C292.319 30.4411 293.335 29.2456 294.646 28.23C295.979 27.2144 297.566 26.4315 299.407 25.8813C301.269 25.3101 303.343 25.0244 305.628 25.0244C308.357 25.0244 310.791 25.4793 312.928 26.3892C315.086 27.299 316.789 28.6637 318.038 30.4834C319.286 32.2819 319.91 34.5459 319.91 37.2754V51.3354C319.91 53.5783 320.037 55.2816 320.291 56.4453C320.545 57.5879 320.905 58.5929 321.37 59.4604V60H310.643C310.135 58.9421 309.754 57.6514 309.5 56.1279C309.267 54.5833 309.151 52.9964 309.151 51.3672ZM310.452 39.021L310.516 44.7339H305.787C304.792 44.7339 303.946 44.8714 303.248 45.1465C302.57 45.4215 302.02 45.8024 301.597 46.2891C301.195 46.7546 300.899 47.2835 300.708 47.876C300.539 48.4684 300.455 49.0926 300.455 49.7485C300.455 50.3833 300.603 50.9546 300.899 51.4624C301.216 51.9491 301.639 52.3299 302.168 52.605C302.697 52.88 303.29 53.0176 303.946 53.0176C305.131 53.0176 306.136 52.7954 306.961 52.3511C307.807 51.8856 308.453 51.3249 308.897 50.6689C309.341 50.013 309.563 49.3994 309.563 48.8281L311.912 53.208C311.489 54.0544 311.002 54.9113 310.452 55.7788C309.923 56.6463 309.257 57.4504 308.453 58.1909C307.67 58.9103 306.707 59.5028 305.564 59.9683C304.422 60.4126 303.036 60.6348 301.407 60.6348C299.291 60.6348 297.344 60.201 295.567 59.3335C293.811 58.466 292.404 57.2599 291.346 55.7153C290.288 54.1496 289.759 52.3511 289.759 50.3198C289.759 48.5425 290.076 46.9556 290.711 45.5591C291.367 44.1626 292.351 42.9777 293.663 42.0044C294.974 41.0311 296.646 40.2905 298.677 39.7827C300.708 39.2749 303.099 39.021 305.85 39.021H310.452ZM336.351 32.9907V60H325.655V25.6592H335.684L336.351 32.9907ZM335.081 41.6553L332.574 41.7188C332.574 39.0951 332.891 36.757 333.526 34.7046C334.161 32.631 335.06 30.8748 336.224 29.436C337.387 27.9972 338.773 26.9076 340.381 26.167C342.011 25.4053 343.82 25.0244 345.809 25.0244C347.396 25.0244 348.845 25.2572 350.157 25.7227C351.49 26.1882 352.632 26.9393 353.584 27.9761C354.558 29.0129 355.298 30.3882 355.806 32.1021C356.335 33.7948 356.6 35.8895 356.6 38.3862V60H345.84V38.3545C345.84 36.9792 345.65 35.9318 345.269 35.2124C344.888 34.4718 344.338 33.964 343.619 33.689C342.899 33.4139 342.021 33.2764 340.984 33.2764C339.884 33.2764 338.953 33.488 338.191 33.9111C337.43 34.3343 336.816 34.9268 336.351 35.6885C335.906 36.429 335.578 37.3071 335.367 38.3228C335.176 39.3384 335.081 40.4492 335.081 41.6553ZM373.326 11.2183V60H362.63V11.2183H373.326ZM395.289 25.6592L380.372 43.147L372.564 50.9546L367.898 44.1626L374.405 35.6885L382.466 25.6592H395.289ZM383.831 60L374.659 44.353L382.562 38.7354L396.082 60H383.831ZM416.077 50.3516C416.077 49.7591 415.876 49.2513 415.474 48.8281C415.093 48.3838 414.416 47.9818 413.443 47.6221C412.47 47.2412 411.105 46.8604 409.349 46.4795C407.677 46.1198 406.101 45.6437 404.62 45.0513C403.16 44.4588 401.88 43.7394 400.779 42.8931C399.679 42.0467 398.812 41.0417 398.177 39.8779C397.563 38.7142 397.256 37.3812 397.256 35.8789C397.256 34.4189 397.563 33.0436 398.177 31.7529C398.812 30.4411 399.732 29.2879 400.938 28.2935C402.165 27.2778 403.657 26.4844 405.413 25.9131C407.169 25.3206 409.169 25.0244 411.412 25.0244C414.501 25.0244 417.167 25.5005 419.41 26.4526C421.653 27.3836 423.377 28.6955 424.583 30.3882C425.81 32.0597 426.424 33.9958 426.424 36.1963H415.728C415.728 35.3288 415.58 34.5882 415.284 33.9746C415.009 33.361 414.554 32.8955 413.919 32.5781C413.284 32.2396 412.438 32.0703 411.38 32.0703C410.639 32.0703 409.962 32.2078 409.349 32.4829C408.756 32.758 408.28 33.1388 407.92 33.6255C407.561 34.1121 407.381 34.6834 407.381 35.3394C407.381 35.8049 407.487 36.228 407.698 36.6089C407.931 36.9686 408.28 37.3071 408.746 37.6245C409.211 37.9207 409.804 38.1958 410.523 38.4497C411.242 38.6825 412.11 38.894 413.125 39.0845C415.432 39.5076 417.59 40.1107 419.6 40.8936C421.61 41.6764 423.239 42.7873 424.488 44.2261C425.757 45.6649 426.392 47.6009 426.392 50.0342C426.392 51.5576 426.043 52.9647 425.345 54.2554C424.646 55.5249 423.641 56.6463 422.33 57.6196C421.018 58.5718 419.441 59.3123 417.601 59.8413C415.76 60.3703 413.686 60.6348 411.38 60.6348C408.1 60.6348 405.328 60.0529 403.064 58.8892C400.8 57.7043 399.087 56.2231 397.923 54.4458C396.78 52.6473 396.209 50.8276 396.209 48.9868H406.175C406.217 50.0448 406.471 50.9123 406.937 51.5894C407.423 52.2664 408.069 52.7637 408.873 53.0811C409.677 53.3984 410.608 53.5571 411.666 53.5571C412.639 53.5571 413.443 53.4196 414.078 53.1445C414.734 52.8695 415.231 52.4992 415.569 52.0337C415.908 51.547 416.077 50.9863 416.077 50.3516ZM30.8062 108.927V136H20.1104V101.659H30.1396L30.8062 108.927ZM29.5049 117.655L27.061 117.719C27.061 115.307 27.3467 113.085 27.918 111.054C28.4893 109.022 29.3356 107.256 30.457 105.753C31.5785 104.251 32.9538 103.087 34.583 102.262C36.2334 101.437 38.1377 101.024 40.2959 101.024C41.7982 101.024 43.1629 101.257 44.3901 101.723C45.6174 102.167 46.6753 102.876 47.564 103.849C48.4526 104.801 49.1297 106.05 49.5952 107.594C50.0819 109.118 50.3252 110.948 50.3252 113.085V136H39.6294V114.45C39.6294 112.99 39.4601 111.889 39.1216 111.149C38.8042 110.408 38.3387 109.911 37.7251 109.657C37.1115 109.403 36.3604 109.276 35.4717 109.276C34.5407 109.276 33.7049 109.488 32.9644 109.911C32.2238 110.334 31.589 110.927 31.0601 111.688C30.5522 112.429 30.1608 113.307 29.8857 114.323C29.6318 115.338 29.5049 116.449 29.5049 117.655ZM49.1191 117.655L46.1357 117.719C46.1357 115.307 46.4002 113.085 46.9292 111.054C47.4793 109.022 48.2939 107.256 49.373 105.753C50.4733 104.251 51.8381 103.087 53.4673 102.262C55.0965 101.437 56.9902 101.024 59.1484 101.024C60.7142 101.024 62.153 101.257 63.4648 101.723C64.7767 102.188 65.9087 102.939 66.8608 103.976C67.813 105.013 68.5535 106.388 69.0825 108.102C69.6115 109.795 69.876 111.889 69.876 114.386V136H59.1484V114.386C59.1484 112.969 58.9792 111.9 58.6406 111.181C58.3232 110.44 57.8577 109.943 57.2441 109.689C56.6305 109.414 55.9006 109.276 55.0542 109.276C54.0386 109.276 53.1605 109.488 52.4199 109.911C51.6794 110.334 51.0552 110.927 50.5474 111.688C50.0607 112.429 49.701 113.307 49.4683 114.323C49.2355 115.338 49.1191 116.449 49.1191 117.655ZM93.8384 127.367V113.212C93.8384 112.239 93.7008 111.403 93.4258 110.705C93.1507 110.006 92.717 109.467 92.1245 109.086C91.5321 108.684 90.7386 108.483 89.7441 108.483C88.9401 108.483 88.2524 108.62 87.6812 108.896C87.1099 109.171 86.6761 109.583 86.3799 110.133C86.0837 110.683 85.9355 111.382 85.9355 112.228H75.2397C75.2397 110.641 75.5889 109.171 76.2871 107.816C77.0065 106.441 78.0221 105.246 79.334 104.23C80.667 103.214 82.2539 102.431 84.0947 101.881C85.9567 101.31 88.0303 101.024 90.3154 101.024C93.0449 101.024 95.4782 101.479 97.6152 102.389C99.7734 103.299 101.477 104.664 102.725 106.483C103.973 108.282 104.598 110.546 104.598 113.275V127.335C104.598 129.578 104.725 131.282 104.979 132.445C105.232 133.588 105.592 134.593 106.058 135.46V136H95.3301C94.8223 134.942 94.4414 133.651 94.1875 132.128C93.9548 130.583 93.8384 128.996 93.8384 127.367ZM95.1396 115.021L95.2031 120.734H90.4741C89.4797 120.734 88.6333 120.871 87.9351 121.146C87.258 121.422 86.7078 121.802 86.2847 122.289C85.8826 122.755 85.5864 123.284 85.396 123.876C85.2267 124.468 85.1421 125.093 85.1421 125.749C85.1421 126.383 85.2902 126.955 85.5864 127.462C85.9038 127.949 86.327 128.33 86.856 128.605C87.3849 128.88 87.9774 129.018 88.6333 129.018C89.8182 129.018 90.8232 128.795 91.6484 128.351C92.4948 127.886 93.1401 127.325 93.5845 126.669C94.0288 126.013 94.251 125.399 94.251 124.828L96.5996 129.208C96.1764 130.054 95.6898 130.911 95.1396 131.779C94.6107 132.646 93.9442 133.45 93.1401 134.191C92.3573 134.91 91.3945 135.503 90.252 135.968C89.1094 136.413 87.7235 136.635 86.0942 136.635C83.9784 136.635 82.0317 136.201 80.2544 135.333C78.4982 134.466 77.0911 133.26 76.0332 131.715C74.9753 130.15 74.4463 128.351 74.4463 126.32C74.4463 124.542 74.7637 122.956 75.3984 121.559C76.0544 120.163 77.0382 118.978 78.3501 118.004C79.6619 117.031 81.3335 116.291 83.3647 115.783C85.396 115.275 87.7869 115.021 90.5376 115.021H95.1396ZM130.274 128.129V87.25H141.033V136H131.385L130.274 128.129ZM109.2 119.242V118.576C109.2 115.973 109.485 113.603 110.057 111.466C110.628 109.308 111.474 107.457 112.596 105.912C113.717 104.346 115.114 103.14 116.785 102.294C118.457 101.448 120.382 101.024 122.562 101.024C124.508 101.024 126.211 101.479 127.671 102.389C129.131 103.278 130.38 104.526 131.417 106.134C132.453 107.742 133.3 109.625 133.956 111.784C134.611 113.921 135.109 116.227 135.447 118.703V119.496C135.109 121.824 134.611 124.024 133.956 126.098C133.3 128.15 132.453 129.97 131.417 131.557C130.38 133.144 129.121 134.392 127.64 135.302C126.18 136.19 124.466 136.635 122.498 136.635C120.319 136.635 118.393 136.201 116.722 135.333C115.071 134.466 113.685 133.249 112.564 131.684C111.464 130.118 110.628 128.277 110.057 126.161C109.485 124.045 109.2 121.739 109.2 119.242ZM119.896 118.576V119.242C119.896 120.533 119.98 121.728 120.149 122.829C120.319 123.929 120.604 124.902 121.006 125.749C121.43 126.574 121.98 127.219 122.657 127.685C123.355 128.15 124.212 128.383 125.228 128.383C126.603 128.383 127.735 128.055 128.624 127.399C129.533 126.743 130.2 125.812 130.623 124.606C131.067 123.4 131.258 121.982 131.194 120.353V117.846C131.237 116.449 131.141 115.222 130.909 114.164C130.676 113.085 130.306 112.186 129.798 111.466C129.311 110.747 128.687 110.207 127.925 109.848C127.185 109.467 126.307 109.276 125.291 109.276C124.297 109.276 123.45 109.509 122.752 109.975C122.075 110.44 121.525 111.096 121.102 111.942C120.678 112.768 120.372 113.751 120.181 114.894C119.991 116.015 119.896 117.243 119.896 118.576ZM163.726 136.635C160.933 136.635 158.436 136.201 156.236 135.333C154.035 134.445 152.173 133.228 150.65 131.684C149.148 130.139 147.994 128.362 147.19 126.352C146.408 124.341 146.016 122.215 146.016 119.972V118.766C146.016 116.248 146.365 113.921 147.063 111.784C147.762 109.625 148.799 107.742 150.174 106.134C151.549 104.526 153.274 103.278 155.347 102.389C157.421 101.479 159.833 101.024 162.583 101.024C165.017 101.024 167.196 101.416 169.122 102.199C171.047 102.982 172.676 104.103 174.009 105.563C175.363 107.023 176.39 108.79 177.088 110.863C177.807 112.937 178.167 115.264 178.167 117.846V122.194H150.11V115.497H167.725V114.672C167.746 113.529 167.545 112.556 167.122 111.752C166.72 110.948 166.128 110.334 165.345 109.911C164.562 109.488 163.61 109.276 162.488 109.276C161.325 109.276 160.362 109.53 159.6 110.038C158.86 110.546 158.278 111.244 157.854 112.133C157.452 113 157.167 114.005 156.998 115.148C156.828 116.291 156.744 117.497 156.744 118.766V119.972C156.744 121.242 156.913 122.395 157.251 123.432C157.611 124.468 158.119 125.357 158.775 126.098C159.452 126.817 160.256 127.378 161.187 127.78C162.139 128.182 163.218 128.383 164.424 128.383C165.884 128.383 167.323 128.108 168.741 127.558C170.158 127.007 171.375 126.098 172.391 124.828L177.247 130.604C176.548 131.599 175.554 132.562 174.263 133.493C172.994 134.424 171.47 135.185 169.693 135.778C167.916 136.349 165.927 136.635 163.726 136.635ZM216.792 101.659V109.086H196.099V101.659H216.792ZM200.447 93.1216H211.143V124.796C211.143 125.706 211.249 126.415 211.46 126.923C211.672 127.41 212.032 127.759 212.54 127.97C213.069 128.161 213.767 128.256 214.634 128.256C215.248 128.256 215.756 128.245 216.158 128.224C216.56 128.182 216.941 128.129 217.3 128.065V135.714C216.39 136.011 215.438 136.233 214.444 136.381C213.449 136.55 212.391 136.635 211.27 136.635C208.985 136.635 207.028 136.275 205.398 135.556C203.79 134.836 202.563 133.704 201.717 132.16C200.87 130.615 200.447 128.605 200.447 126.129V93.1216ZM218.76 119.179V118.512C218.76 115.994 219.12 113.677 219.839 111.562C220.559 109.424 221.617 107.573 223.013 106.007C224.41 104.442 226.134 103.225 228.187 102.357C230.239 101.469 232.609 101.024 235.296 101.024C238.004 101.024 240.385 101.469 242.437 102.357C244.511 103.225 246.246 104.442 247.642 106.007C249.039 107.573 250.097 109.424 250.816 111.562C251.535 113.677 251.895 115.994 251.895 118.512V119.179C251.895 121.675 251.535 123.992 250.816 126.129C250.097 128.245 249.039 130.097 247.642 131.684C246.246 133.249 244.521 134.466 242.469 135.333C240.416 136.201 238.047 136.635 235.359 136.635C232.672 136.635 230.292 136.201 228.218 135.333C226.145 134.466 224.41 133.249 223.013 131.684C221.617 130.097 220.559 128.245 219.839 126.129C219.12 123.992 218.76 121.675 218.76 119.179ZM229.456 118.512V119.179C229.456 120.469 229.551 121.675 229.742 122.797C229.932 123.918 230.25 124.902 230.694 125.749C231.138 126.574 231.741 127.219 232.503 127.685C233.265 128.15 234.217 128.383 235.359 128.383C236.481 128.383 237.412 128.15 238.152 127.685C238.914 127.219 239.517 126.574 239.961 125.749C240.406 124.902 240.723 123.918 240.914 122.797C241.104 121.675 241.199 120.469 241.199 119.179V118.512C241.199 117.264 241.104 116.09 240.914 114.989C240.723 113.868 240.406 112.884 239.961 112.038C239.517 111.17 238.914 110.493 238.152 110.006C237.391 109.52 236.438 109.276 235.296 109.276C234.174 109.276 233.233 109.52 232.471 110.006C231.731 110.493 231.138 111.17 230.694 112.038C230.25 112.884 229.932 113.868 229.742 114.989C229.551 116.09 229.456 117.264 229.456 118.512ZM271.509 119.179V118.512C271.509 115.994 271.869 113.677 272.588 111.562C273.308 109.424 274.366 107.573 275.762 106.007C277.159 104.442 278.883 103.225 280.936 102.357C282.988 101.469 285.358 101.024 288.045 101.024C290.753 101.024 293.134 101.469 295.186 102.357C297.26 103.225 298.995 104.442 300.391 106.007C301.788 107.573 302.846 109.424 303.565 111.562C304.284 113.677 304.644 115.994 304.644 118.512V119.179C304.644 121.675 304.284 123.992 303.565 126.129C302.846 128.245 301.788 130.097 300.391 131.684C298.995 133.249 297.27 134.466 295.218 135.333C293.165 136.201 290.796 136.635 288.108 136.635C285.421 136.635 283.041 136.201 280.967 135.333C278.894 134.466 277.159 133.249 275.762 131.684C274.366 130.097 273.308 128.245 272.588 126.129C271.869 123.992 271.509 121.675 271.509 119.179ZM282.205 118.512V119.179C282.205 120.469 282.3 121.675 282.491 122.797C282.681 123.918 282.999 124.902 283.443 125.749C283.887 126.574 284.49 127.219 285.252 127.685C286.014 128.15 286.966 128.383 288.108 128.383C289.23 128.383 290.161 128.15 290.901 127.685C291.663 127.219 292.266 126.574 292.71 125.749C293.155 124.902 293.472 123.918 293.663 122.797C293.853 121.675 293.948 120.469 293.948 119.179V118.512C293.948 117.264 293.853 116.09 293.663 114.989C293.472 113.868 293.155 112.884 292.71 112.038C292.266 111.17 291.663 110.493 290.901 110.006C290.14 109.52 289.188 109.276 288.045 109.276C286.924 109.276 285.982 109.52 285.22 110.006C284.48 110.493 283.887 111.17 283.443 112.038C282.999 112.884 282.681 113.868 282.491 114.989C282.3 116.09 282.205 117.264 282.205 118.512ZM320.196 110.165V136H309.5V101.659H319.498L320.196 110.165ZM330.352 101.405L330.162 111.339C329.738 111.297 329.167 111.244 328.448 111.181C327.728 111.117 327.125 111.085 326.639 111.085C325.39 111.085 324.311 111.234 323.401 111.53C322.513 111.805 321.772 112.228 321.18 112.799C320.608 113.349 320.185 114.048 319.91 114.894C319.656 115.74 319.54 116.724 319.561 117.846L317.625 116.576C317.625 114.27 317.847 112.175 318.292 110.292C318.757 108.388 319.413 106.748 320.259 105.373C321.106 103.976 322.132 102.908 323.338 102.167C324.544 101.405 325.898 101.024 327.4 101.024C327.929 101.024 328.448 101.056 328.956 101.12C329.485 101.183 329.95 101.278 330.352 101.405ZM353.14 128.129V87.25H363.899V136H354.251L353.14 128.129ZM332.066 119.242V118.576C332.066 115.973 332.352 113.603 332.923 111.466C333.494 109.308 334.34 107.457 335.462 105.912C336.583 104.346 337.98 103.14 339.651 102.294C341.323 101.448 343.248 101.024 345.428 101.024C347.374 101.024 349.078 101.479 350.538 102.389C351.998 103.278 353.246 104.526 354.283 106.134C355.319 107.742 356.166 109.625 356.822 111.784C357.478 113.921 357.975 116.227 358.313 118.703V119.496C357.975 121.824 357.478 124.024 356.822 126.098C356.166 128.15 355.319 129.97 354.283 131.557C353.246 133.144 351.987 134.392 350.506 135.302C349.046 136.19 347.332 136.635 345.364 136.635C343.185 136.635 341.259 136.201 339.588 135.333C337.938 134.466 336.552 133.249 335.43 131.684C334.33 130.118 333.494 128.277 332.923 126.161C332.352 124.045 332.066 121.739 332.066 119.242ZM342.762 118.576V119.242C342.762 120.533 342.846 121.728 343.016 122.829C343.185 123.929 343.471 124.902 343.873 125.749C344.296 126.574 344.846 127.219 345.523 127.685C346.221 128.15 347.078 128.383 348.094 128.383C349.469 128.383 350.601 128.055 351.49 127.399C352.4 126.743 353.066 125.812 353.489 124.606C353.934 123.4 354.124 121.982 354.061 120.353V117.846C354.103 116.449 354.008 115.222 353.775 114.164C353.542 113.085 353.172 112.186 352.664 111.466C352.177 110.747 351.553 110.207 350.792 109.848C350.051 109.467 349.173 109.276 348.157 109.276C347.163 109.276 346.316 109.509 345.618 109.975C344.941 110.44 344.391 111.096 343.968 111.942C343.545 112.768 343.238 113.751 343.047 114.894C342.857 116.015 342.762 117.243 342.762 118.576ZM386.592 136.635C383.799 136.635 381.303 136.201 379.102 135.333C376.902 134.445 375.04 133.228 373.516 131.684C372.014 130.139 370.861 128.362 370.057 126.352C369.274 124.341 368.882 122.215 368.882 119.972V118.766C368.882 116.248 369.231 113.921 369.93 111.784C370.628 109.625 371.665 107.742 373.04 106.134C374.415 104.526 376.14 103.278 378.213 102.389C380.287 101.479 382.699 101.024 385.45 101.024C387.883 101.024 390.062 101.416 391.988 102.199C393.913 102.982 395.542 104.103 396.875 105.563C398.23 107.023 399.256 108.79 399.954 110.863C400.674 112.937 401.033 115.264 401.033 117.846V122.194H372.977V115.497H390.591V114.672C390.612 113.529 390.411 112.556 389.988 111.752C389.586 110.948 388.994 110.334 388.211 109.911C387.428 109.488 386.476 109.276 385.354 109.276C384.191 109.276 383.228 109.53 382.466 110.038C381.726 110.546 381.144 111.244 380.721 112.133C380.319 113 380.033 114.005 379.864 115.148C379.694 116.291 379.61 117.497 379.61 118.766V119.972C379.61 121.242 379.779 122.395 380.118 123.432C380.477 124.468 380.985 125.357 381.641 126.098C382.318 126.817 383.122 127.378 384.053 127.78C385.005 128.182 386.084 128.383 387.291 128.383C388.75 128.383 390.189 128.108 391.607 127.558C393.025 127.007 394.241 126.098 395.257 124.828L400.113 130.604C399.415 131.599 398.42 132.562 397.129 133.493C395.86 134.424 394.336 135.185 392.559 135.778C390.782 136.349 388.793 136.635 386.592 136.635ZM416.172 110.165V136H405.477V101.659H415.474L416.172 110.165ZM426.329 101.405L426.138 111.339C425.715 111.297 425.144 111.244 424.424 111.181C423.705 111.117 423.102 111.085 422.615 111.085C421.367 111.085 420.288 111.234 419.378 111.53C418.489 111.805 417.749 112.228 417.156 112.799C416.585 113.349 416.162 114.048 415.887 114.894C415.633 115.74 415.516 116.724 415.538 117.846L413.602 116.576C413.602 114.27 413.824 112.175 414.268 110.292C414.734 108.388 415.389 106.748 416.236 105.373C417.082 103.976 418.108 102.908 419.314 102.167C420.521 101.405 421.875 101.024 423.377 101.024C423.906 101.024 424.424 101.056 424.932 101.12C425.461 101.183 425.927 101.278 426.329 101.405Z" fill="#004E93"/>
<path d="M178.453 92.2186C146.867 77.7158 70.7115 57.4119 18.7711 92.2186C-4.04052 113.52 -19.4822 155.034 101.244 150.683C128.735 150.683 186.173 138.99 196 92.2186" stroke="#FFE700" stroke-width="5"/>
</svg>
