<svg width="433" height="147" viewBox="0 0 433 147" fill="none" xmlns="http://www.w3.org/2000/svg">
<path d="M49.5962 13.7891H60.7363V43.9722C60.7363 47.5692 59.9852 50.616 58.4829 53.1128C56.9806 55.5884 54.8753 57.4609 52.167 58.7305C49.4587 60 46.2743 60.6348 42.6138 60.6348C38.9956 60.6348 35.8112 60 33.0605 58.7305C30.3311 57.4609 28.194 55.5884 26.6494 53.1128C25.126 50.616 24.3643 47.5692 24.3643 43.9722V13.7891H35.5361V43.9722C35.5361 45.8765 35.8112 47.4316 36.3613 48.6377C36.9115 49.8226 37.7155 50.6901 38.7734 51.2402C39.8314 51.7904 41.1115 52.0654 42.6138 52.0654C44.1372 52.0654 45.4173 51.7904 46.4541 51.2402C47.4909 50.6901 48.2738 49.8226 48.8027 48.6377C49.3317 47.4316 49.5962 45.8765 49.5962 43.9722V13.7891ZM91.5542 47.7173C91.5542 46.9979 91.4484 46.3525 91.2368 45.7812C91.0252 45.1888 90.6338 44.6387 90.0625 44.1309C89.4912 43.623 88.666 43.1152 87.5869 42.6074C86.529 42.0785 85.1325 41.5283 83.3975 40.957C81.3662 40.2799 79.409 39.5182 77.5259 38.6719C75.6427 37.8044 73.9606 36.7993 72.4795 35.6567C70.9984 34.493 69.8241 33.1388 68.9565 31.5942C68.089 30.0285 67.6553 28.2088 67.6553 26.1353C67.6553 24.1463 68.0996 22.3584 68.9883 20.7715C69.877 19.1634 71.1147 17.7987 72.7017 16.6772C74.3097 15.5347 76.1929 14.6672 78.3511 14.0747C80.5093 13.4611 82.8685 13.1543 85.4287 13.1543C88.8141 13.1543 91.7975 13.7467 94.3789 14.9316C96.9814 16.0954 99.0127 17.7563 100.473 19.9146C101.954 22.0516 102.694 24.5801 102.694 27.5H91.6177C91.6177 26.3363 91.3743 25.3101 90.8877 24.4214C90.4222 23.5327 89.7134 22.8345 88.7612 22.3267C87.8091 21.8188 86.6136 21.5649 85.1748 21.5649C83.7783 21.5649 82.604 21.7765 81.6519 22.1997C80.6997 22.6229 79.9803 23.1942 79.4937 23.9136C79.007 24.6118 78.7637 25.3841 78.7637 26.2305C78.7637 26.9287 78.9541 27.5635 79.335 28.1348C79.737 28.6849 80.2977 29.2033 81.0171 29.6899C81.7576 30.1766 82.6463 30.6421 83.6831 31.0864C84.741 31.5308 85.9259 31.9645 87.2378 32.3877C89.6922 33.1706 91.8716 34.0487 93.7759 35.022C95.7013 35.9741 97.32 37.0638 98.6318 38.291C99.9648 39.4971 100.97 40.8724 101.647 42.417C102.345 43.9616 102.694 45.7072 102.694 47.6538C102.694 49.7274 102.292 51.5682 101.488 53.1763C100.684 54.7843 99.5311 56.1491 98.0288 57.2705C96.5265 58.3708 94.728 59.2065 92.6333 59.7778C90.5386 60.3491 88.2005 60.6348 85.6191 60.6348C83.2493 60.6348 80.9113 60.3385 78.605 59.7461C76.3198 59.1325 74.2463 58.2015 72.3843 56.9531C70.5223 55.6836 69.0306 54.0649 67.9092 52.0972C66.8089 50.1082 66.2588 47.749 66.2588 45.0195H77.4307C77.4307 46.3737 77.6105 47.5163 77.9702 48.4473C78.3299 49.3783 78.8589 50.1294 79.5571 50.7007C80.2554 51.2508 81.1123 51.6528 82.1279 51.9067C83.1436 52.1395 84.3073 52.2559 85.6191 52.2559C87.0368 52.2559 88.1794 52.0549 89.0469 51.6528C89.9144 51.2297 90.5492 50.6795 90.9512 50.0024C91.3532 49.3042 91.5542 48.5425 91.5542 47.7173ZM128.021 23.501L116.754 60H104.789L121.769 13.7891H129.354L128.021 23.501ZM137.353 60L126.054 23.501L124.594 13.7891H132.274L149.35 60H137.353ZM136.908 42.7661V51.3672H113.2V42.7661H136.908ZM195.211 44.353H206.32C206.172 47.5692 205.304 50.4045 203.717 52.8589C202.13 55.3133 199.93 57.2282 197.116 58.6035C194.323 59.9577 191.022 60.6348 187.213 60.6348C184.124 60.6348 181.363 60.1164 178.93 59.0796C176.518 58.0428 174.465 56.5511 172.772 54.6045C171.101 52.6579 169.821 50.2987 168.932 47.5269C168.065 44.755 167.631 41.6341 167.631 38.1641V35.6567C167.631 32.1867 168.086 29.0658 168.996 26.2939C169.927 23.501 171.238 21.1312 172.931 19.1846C174.645 17.2168 176.697 15.7145 179.088 14.6777C181.479 13.641 184.135 13.1226 187.055 13.1226C191.075 13.1226 194.471 13.842 197.243 15.2808C200.014 16.7196 202.162 18.6979 203.686 21.2158C205.209 23.7126 206.108 26.5584 206.383 29.7534H195.275C195.233 28.0184 194.936 26.569 194.386 25.4053C193.836 24.2204 192.969 23.3317 191.784 22.7393C190.599 22.1468 189.022 21.8506 187.055 21.8506C185.679 21.8506 184.484 22.1045 183.468 22.6123C182.453 23.1201 181.606 23.9242 180.929 25.0244C180.252 26.1247 179.744 27.5529 179.406 29.3091C179.088 31.0441 178.93 33.1388 178.93 35.5933V38.1641C178.93 40.6185 179.078 42.7132 179.374 44.4482C179.67 46.1833 180.146 47.6009 180.802 48.7012C181.458 49.8014 182.305 50.616 183.341 51.145C184.399 51.6528 185.69 51.9067 187.213 51.9067C188.906 51.9067 190.334 51.6423 191.498 51.1133C192.662 50.5632 193.561 49.738 194.196 48.6377C194.831 47.5163 195.169 46.0881 195.211 44.353ZM222.379 11.25V60H211.652V11.25H222.379ZM227.648 43.1787V42.5122C227.648 39.9943 228.008 37.6774 228.727 35.5615C229.446 33.4245 230.504 31.5731 231.901 30.0073C233.297 28.4416 235.022 27.2249 237.074 26.3574C239.127 25.4688 241.496 25.0244 244.184 25.0244C246.892 25.0244 249.272 25.4688 251.325 26.3574C253.398 27.2249 255.133 28.4416 256.53 30.0073C257.926 31.5731 258.984 33.4245 259.704 35.5615C260.423 37.6774 260.783 39.9943 260.783 42.5122V43.1787C260.783 45.6755 260.423 47.9924 259.704 50.1294C258.984 52.2453 257.926 54.0967 256.53 55.6836C255.133 57.2493 253.409 58.466 251.356 59.3335C249.304 60.201 246.934 60.6348 244.247 60.6348C241.56 60.6348 239.18 60.201 237.106 59.3335C235.032 58.466 233.297 57.2493 231.901 55.6836C230.504 54.0967 229.446 52.2453 228.727 50.1294C228.008 47.9924 227.648 45.6755 227.648 43.1787ZM238.344 42.5122V43.1787C238.344 44.4694 238.439 45.6755 238.629 46.7969C238.82 47.9183 239.137 48.9022 239.582 49.7485C240.026 50.5737 240.629 51.2191 241.391 51.6846C242.152 52.1501 243.104 52.3828 244.247 52.3828C245.368 52.3828 246.299 52.1501 247.04 51.6846C247.802 51.2191 248.405 50.5737 248.849 49.7485C249.293 48.9022 249.611 47.9183 249.801 46.7969C249.992 45.6755 250.087 44.4694 250.087 43.1787V42.5122C250.087 41.2638 249.992 40.0895 249.801 38.9893C249.611 37.8678 249.293 36.884 248.849 36.0376C248.405 35.1701 247.802 34.493 247.04 34.0063C246.278 33.5197 245.326 33.2764 244.184 33.2764C243.062 33.2764 242.121 33.5197 241.359 34.0063C240.618 34.493 240.026 35.1701 239.582 36.0376C239.137 36.884 238.82 37.8678 238.629 38.9893C238.439 40.0895 238.344 41.2638 238.344 42.5122ZM283.634 25.6592V33.0859H262.941V25.6592H283.634ZM267.289 17.1216H277.985V48.7964C277.985 49.7062 278.091 50.415 278.302 50.9229C278.514 51.4095 278.874 51.7586 279.381 51.9702C279.91 52.1606 280.609 52.2559 281.476 52.2559C282.09 52.2559 282.597 52.2453 283 52.2241C283.402 52.1818 283.782 52.1289 284.142 52.0654V59.7144C283.232 60.0106 282.28 60.2327 281.286 60.3809C280.291 60.5501 279.233 60.6348 278.112 60.6348C275.827 60.6348 273.869 60.2751 272.24 59.5557C270.632 58.8363 269.405 57.7043 268.559 56.1597C267.712 54.6151 267.289 52.605 267.289 50.1294V17.1216ZM298.361 11.25V60H287.665V11.25H298.361ZM297.091 41.6553L294.584 41.7188C294.584 39.3066 294.88 37.085 295.473 35.0537C296.065 33.0225 296.911 31.2557 298.012 29.7534C299.112 28.2511 300.434 27.0874 301.979 26.2622C303.524 25.437 305.237 25.0244 307.121 25.0244C308.813 25.0244 310.358 25.2677 311.754 25.7544C313.172 26.241 314.389 27.0239 315.404 28.103C316.441 29.1821 317.235 30.5892 317.785 32.3242C318.356 34.0592 318.642 36.1751 318.642 38.6719V60H307.882V38.6084C307.882 37.2119 307.681 36.1328 307.279 35.3711C306.898 34.5882 306.348 34.0487 305.629 33.7524C304.91 33.4351 304.031 33.2764 302.995 33.2764C301.746 33.2764 300.731 33.488 299.948 33.9111C299.165 34.3343 298.562 34.9268 298.139 35.6885C297.737 36.429 297.462 37.3071 297.313 38.3228C297.165 39.3384 297.091 40.4492 297.091 41.6553ZM335.875 25.6592V60H325.148V25.6592H335.875ZM324.513 16.8042C324.513 15.2808 325.063 14.0324 326.164 13.0591C327.264 12.0858 328.692 11.5991 330.448 11.5991C332.204 11.5991 333.633 12.0858 334.733 13.0591C335.833 14.0324 336.383 15.2808 336.383 16.8042C336.383 18.3276 335.833 19.576 334.733 20.5493C333.633 21.5226 332.204 22.0093 330.448 22.0093C328.692 22.0093 327.264 21.5226 326.164 20.5493C325.063 19.576 324.513 18.3276 324.513 16.8042ZM352.982 32.9907V60H342.287V25.6592H352.316L352.982 32.9907ZM351.713 41.6553L349.206 41.7188C349.206 39.0951 349.523 36.757 350.158 34.7046C350.792 32.631 351.692 30.8748 352.855 29.436C354.019 27.9972 355.405 26.9076 357.013 26.167C358.642 25.4053 360.451 25.0244 362.44 25.0244C364.027 25.0244 365.477 25.2572 366.789 25.7227C368.122 26.1882 369.264 26.9393 370.216 27.9761C371.19 29.0129 371.93 30.3882 372.438 32.1021C372.967 33.7948 373.231 35.8895 373.231 38.3862V60H362.472V38.3545C362.472 36.9792 362.282 35.9318 361.901 35.2124C361.52 34.4718 360.97 33.964 360.25 33.689C359.531 33.4139 358.653 33.2764 357.616 33.2764C356.516 33.2764 355.585 33.488 354.823 33.9111C354.062 34.3343 353.448 34.9268 352.982 35.6885C352.538 36.429 352.21 37.3071 351.999 38.3228C351.808 39.3384 351.713 40.4492 351.713 41.6553ZM400.749 25.6592H410.46V58.667C410.46 61.8408 409.73 64.528 408.271 66.7285C406.811 68.9502 404.769 70.6323 402.145 71.7749C399.542 72.9386 396.496 73.5205 393.004 73.5205C391.46 73.5205 389.883 73.3195 388.275 72.9175C386.667 72.5366 385.165 71.9653 383.769 71.2036C382.372 70.4419 381.198 69.5003 380.246 68.3789L384.721 62.0947C385.588 63.068 386.678 63.8932 387.99 64.5703C389.302 65.2686 390.846 65.6177 392.624 65.6177C394.168 65.6177 395.459 65.3426 396.496 64.7925C397.554 64.2424 398.358 63.4383 398.908 62.3804C399.458 61.3436 399.733 60.0846 399.733 58.6035V33.7842L400.749 25.6592ZM377.929 43.2422V42.5757C377.929 39.9731 378.246 37.6034 378.881 35.4663C379.537 33.3081 380.468 31.4567 381.674 29.9121C382.901 28.3464 384.382 27.1403 386.117 26.2939C387.852 25.4476 389.809 25.0244 391.989 25.0244C394.337 25.0244 396.263 25.4793 397.765 26.3892C399.289 27.2778 400.505 28.5262 401.415 30.1343C402.346 31.7424 403.065 33.6255 403.573 35.7837C404.102 37.9207 404.547 40.2271 404.906 42.7026V43.4961C404.547 45.8236 404.049 48.0241 403.415 50.0977C402.801 52.1501 401.997 53.9697 401.002 55.5566C400.008 57.1436 398.76 58.3919 397.257 59.3018C395.776 60.1904 393.999 60.6348 391.925 60.6348C389.767 60.6348 387.82 60.201 386.085 59.3335C384.372 58.466 382.901 57.2493 381.674 55.6836C380.468 54.1178 379.537 52.277 378.881 50.1611C378.246 48.0452 377.929 45.7389 377.929 43.2422ZM388.625 42.5757V43.2422C388.625 44.5329 388.741 45.7284 388.974 46.8286C389.228 47.9289 389.608 48.9022 390.116 49.7485C390.624 50.5737 391.248 51.2191 391.989 51.6846C392.75 52.1501 393.639 52.3828 394.655 52.3828C396.199 52.3828 397.448 52.0549 398.4 51.3989C399.352 50.743 400.04 49.812 400.463 48.606C400.886 47.3999 401.066 45.9823 401.002 44.353V41.8457C401.045 40.4492 400.95 39.222 400.717 38.1641C400.484 37.085 400.114 36.1857 399.606 35.4663C399.119 34.7469 398.463 34.2074 397.638 33.8477C396.834 33.4668 395.861 33.2764 394.718 33.2764C393.724 33.2764 392.846 33.5091 392.084 33.9746C391.322 34.4401 390.688 35.096 390.18 35.9424C389.672 36.7676 389.28 37.7515 389.005 38.894C388.751 40.0155 388.625 41.2427 388.625 42.5757ZM34.8062 108.927V136H24.1104V101.659H34.1396L34.8062 108.927ZM33.5049 117.655L31.061 117.719C31.061 115.307 31.3467 113.085 31.918 111.054C32.4893 109.022 33.3356 107.256 34.457 105.753C35.5785 104.251 36.9538 103.087 38.583 102.262C40.2334 101.437 42.1377 101.024 44.2959 101.024C45.7982 101.024 47.1629 101.257 48.3901 101.723C49.6174 102.167 50.6753 102.876 51.564 103.849C52.4526 104.801 53.1297 106.05 53.5952 107.594C54.0819 109.118 54.3252 110.948 54.3252 113.085V136H43.6294V114.45C43.6294 112.99 43.4601 111.889 43.1216 111.149C42.8042 110.408 42.3387 109.911 41.7251 109.657C41.1115 109.403 40.3604 109.276 39.4717 109.276C38.5407 109.276 37.7049 109.488 36.9644 109.911C36.2238 110.334 35.589 110.927 35.0601 111.688C34.5522 112.429 34.1608 113.307 33.8857 114.323C33.6318 115.338 33.5049 116.449 33.5049 117.655ZM53.1191 117.655L50.1357 117.719C50.1357 115.307 50.4002 113.085 50.9292 111.054C51.4793 109.022 52.2939 107.256 53.373 105.753C54.4733 104.251 55.8381 103.087 57.4673 102.262C59.0965 101.437 60.9902 101.024 63.1484 101.024C64.7142 101.024 66.153 101.257 67.4648 101.723C68.7767 102.188 69.9087 102.939 70.8608 103.976C71.813 105.013 72.5535 106.388 73.0825 108.102C73.6115 109.795 73.876 111.889 73.876 114.386V136H63.1484V114.386C63.1484 112.969 62.9792 111.9 62.6406 111.181C62.3232 110.44 61.8577 109.943 61.2441 109.689C60.6305 109.414 59.9006 109.276 59.0542 109.276C58.0386 109.276 57.1605 109.488 56.4199 109.911C55.6794 110.334 55.0552 110.927 54.5474 111.688C54.0607 112.429 53.701 113.307 53.4683 114.323C53.2355 115.338 53.1191 116.449 53.1191 117.655ZM97.8384 127.367V113.212C97.8384 112.239 97.7008 111.403 97.4258 110.705C97.1507 110.006 96.717 109.467 96.1245 109.086C95.5321 108.684 94.7386 108.483 93.7441 108.483C92.9401 108.483 92.2524 108.62 91.6812 108.896C91.1099 109.171 90.6761 109.583 90.3799 110.133C90.0837 110.683 89.9355 111.382 89.9355 112.228H79.2397C79.2397 110.641 79.5889 109.171 80.2871 107.816C81.0065 106.441 82.0221 105.246 83.334 104.23C84.667 103.214 86.2539 102.431 88.0947 101.881C89.9567 101.31 92.0303 101.024 94.3154 101.024C97.0449 101.024 99.4782 101.479 101.615 102.389C103.773 103.299 105.477 104.664 106.725 106.483C107.973 108.282 108.598 110.546 108.598 113.275V127.335C108.598 129.578 108.725 131.282 108.979 132.445C109.232 133.588 109.592 134.593 110.058 135.46V136H99.3301C98.8223 134.942 98.4414 133.651 98.1875 132.128C97.9548 130.583 97.8384 128.996 97.8384 127.367ZM99.1396 115.021L99.2031 120.734H94.4741C93.4797 120.734 92.6333 120.871 91.9351 121.146C91.258 121.422 90.7078 121.802 90.2847 122.289C89.8826 122.755 89.5864 123.284 89.396 123.876C89.2267 124.468 89.1421 125.093 89.1421 125.749C89.1421 126.383 89.2902 126.955 89.5864 127.462C89.9038 127.949 90.327 128.33 90.856 128.605C91.3849 128.88 91.9774 129.018 92.6333 129.018C93.8182 129.018 94.8232 128.795 95.6484 128.351C96.4948 127.886 97.1401 127.325 97.5845 126.669C98.0288 126.013 98.251 125.399 98.251 124.828L100.6 129.208C100.176 130.054 99.6898 130.911 99.1396 131.779C98.6107 132.646 97.9442 133.45 97.1401 134.191C96.3573 134.91 95.3945 135.503 94.252 135.968C93.1094 136.413 91.7235 136.635 90.0942 136.635C87.9784 136.635 86.0317 136.201 84.2544 135.333C82.4982 134.466 81.0911 133.26 80.0332 131.715C78.9753 130.15 78.4463 128.351 78.4463 126.32C78.4463 124.542 78.7637 122.956 79.3984 121.559C80.0544 120.163 81.0382 118.978 82.3501 118.004C83.6619 117.031 85.3335 116.291 87.3647 115.783C89.396 115.275 91.7869 115.021 94.5376 115.021H99.1396ZM125.038 108.991V136H114.342V101.659H124.372L125.038 108.991ZM123.769 117.655L121.261 117.719C121.261 115.095 121.579 112.757 122.213 110.705C122.848 108.631 123.747 106.875 124.911 105.436C126.075 103.997 127.461 102.908 129.069 102.167C130.698 101.405 132.507 101.024 134.496 101.024C136.083 101.024 137.532 101.257 138.844 101.723C140.177 102.188 141.32 102.939 142.272 103.976C143.245 105.013 143.986 106.388 144.494 108.102C145.023 109.795 145.287 111.889 145.287 114.386V136H134.528V114.354C134.528 112.979 134.337 111.932 133.957 111.212C133.576 110.472 133.026 109.964 132.306 109.689C131.587 109.414 130.709 109.276 129.672 109.276C128.572 109.276 127.641 109.488 126.879 109.911C126.117 110.334 125.504 110.927 125.038 111.688C124.594 112.429 124.266 113.307 124.054 114.323C123.864 115.338 123.769 116.449 123.769 117.655ZM171.281 127.653V101.659H182.008V136H171.979L171.281 127.653ZM172.296 120.67L175.089 120.607C175.089 122.913 174.814 125.05 174.264 127.018C173.714 128.965 172.899 130.657 171.82 132.096C170.762 133.535 169.451 134.656 167.885 135.46C166.34 136.243 164.552 136.635 162.521 136.635C160.828 136.635 159.273 136.402 157.855 135.937C156.459 135.45 155.253 134.699 154.237 133.683C153.222 132.646 152.428 131.324 151.857 129.716C151.307 128.087 151.032 126.14 151.032 123.876V101.659H161.728V123.939C161.728 124.701 161.823 125.357 162.013 125.907C162.204 126.457 162.479 126.923 162.838 127.304C163.198 127.663 163.642 127.938 164.171 128.129C164.722 128.298 165.346 128.383 166.044 128.383C167.652 128.383 168.911 128.044 169.821 127.367C170.731 126.69 171.365 125.77 171.725 124.606C172.106 123.442 172.296 122.13 172.296 120.67ZM201.02 136H190.26V98.8662C190.26 96.2002 190.8 93.9574 191.879 92.1377C192.958 90.318 194.481 88.9427 196.449 88.0117C198.417 87.0596 200.744 86.5835 203.432 86.5835C204.363 86.5835 205.241 86.647 206.066 86.7739C206.891 86.9009 207.695 87.0596 208.478 87.25L208.51 95.1211C208.129 95.0153 207.737 94.9412 207.335 94.8989C206.933 94.8566 206.436 94.8354 205.844 94.8354C204.807 94.8354 203.929 94.9941 203.209 95.3115C202.49 95.6077 201.94 96.0627 201.559 96.6763C201.199 97.2687 201.02 97.9987 201.02 98.8662V136ZM207.685 101.659V109.086H185.309V101.659H207.685ZM229.362 127.367V113.212C229.362 112.239 229.224 111.403 228.949 110.705C228.674 110.006 228.24 109.467 227.648 109.086C227.056 108.684 226.262 108.483 225.268 108.483C224.464 108.483 223.776 108.62 223.205 108.896C222.633 109.171 222.2 109.583 221.903 110.133C221.607 110.683 221.459 111.382 221.459 112.228H210.763C210.763 110.641 211.112 109.171 211.811 107.816C212.53 106.441 213.546 105.246 214.857 104.23C216.19 103.214 217.777 102.431 219.618 101.881C221.48 101.31 223.554 101.024 225.839 101.024C228.568 101.024 231.002 101.479 233.139 102.389C235.297 103.299 237 104.664 238.249 106.483C239.497 108.282 240.121 110.546 240.121 113.275V127.335C240.121 129.578 240.248 131.282 240.502 132.445C240.756 133.588 241.116 134.593 241.581 135.46V136H230.854C230.346 134.942 229.965 133.651 229.711 132.128C229.478 130.583 229.362 128.996 229.362 127.367ZM230.663 115.021L230.727 120.734H225.998C225.003 120.734 224.157 120.871 223.458 121.146C222.781 121.422 222.231 121.802 221.808 122.289C221.406 122.755 221.11 123.284 220.919 123.876C220.75 124.468 220.666 125.093 220.666 125.749C220.666 126.383 220.814 126.955 221.11 127.462C221.427 127.949 221.85 128.33 222.379 128.605C222.908 128.88 223.501 129.018 224.157 129.018C225.342 129.018 226.347 128.795 227.172 128.351C228.018 127.886 228.664 127.325 229.108 126.669C229.552 126.013 229.774 125.399 229.774 124.828L232.123 129.208C231.7 130.054 231.213 130.911 230.663 131.779C230.134 132.646 229.468 133.45 228.664 134.191C227.881 134.91 226.918 135.503 225.775 135.968C224.633 136.413 223.247 136.635 221.618 136.635C219.502 136.635 217.555 136.201 215.778 135.333C214.022 134.466 212.615 133.26 211.557 131.715C210.499 130.15 209.97 128.351 209.97 126.32C209.97 124.542 210.287 122.956 210.922 121.559C211.578 120.163 212.562 118.978 213.874 118.004C215.185 117.031 216.857 116.291 218.888 115.783C220.919 115.275 223.31 115.021 226.061 115.021H230.663ZM260.561 128.383C261.555 128.383 262.401 128.203 263.1 127.843C263.819 127.462 264.359 126.933 264.718 126.256C265.099 125.558 265.279 124.722 265.258 123.749H275.319C275.34 126.33 274.705 128.594 273.415 130.541C272.145 132.466 270.41 133.969 268.209 135.048C266.03 136.106 263.565 136.635 260.814 136.635C258.127 136.635 255.779 136.201 253.769 135.333C251.758 134.445 250.076 133.218 248.722 131.652C247.389 130.065 246.384 128.214 245.707 126.098C245.051 123.982 244.723 121.686 244.723 119.21V118.48C244.723 116.005 245.051 113.709 245.707 111.593C246.384 109.456 247.389 107.605 248.722 106.039C250.076 104.452 251.748 103.225 253.737 102.357C255.747 101.469 258.085 101.024 260.751 101.024C263.607 101.024 266.125 101.564 268.305 102.643C270.505 103.722 272.23 105.288 273.478 107.34C274.726 109.393 275.34 111.879 275.319 114.799H265.258C265.279 113.762 265.12 112.831 264.782 112.006C264.443 111.181 263.914 110.525 263.195 110.038C262.497 109.53 261.597 109.276 260.497 109.276C259.397 109.276 258.508 109.52 257.831 110.006C257.154 110.493 256.636 111.17 256.276 112.038C255.937 112.884 255.705 113.857 255.578 114.958C255.472 116.058 255.419 117.232 255.419 118.48V119.21C255.419 120.48 255.472 121.675 255.578 122.797C255.705 123.897 255.948 124.87 256.308 125.717C256.667 126.542 257.186 127.198 257.863 127.685C258.54 128.15 259.439 128.383 260.561 128.383ZM297.98 101.659V109.086H277.287V101.659H297.98ZM281.635 93.1216H292.331V124.796C292.331 125.706 292.436 126.415 292.648 126.923C292.86 127.41 293.219 127.759 293.727 127.97C294.256 128.161 294.954 128.256 295.822 128.256C296.435 128.256 296.943 128.245 297.345 128.224C297.747 128.182 298.128 128.129 298.488 128.065V135.714C297.578 136.011 296.626 136.233 295.631 136.381C294.637 136.55 293.579 136.635 292.458 136.635C290.172 136.635 288.215 136.275 286.586 135.556C284.978 134.836 283.751 133.704 282.904 132.16C282.058 130.615 281.635 128.605 281.635 126.129V93.1216ZM322.292 127.653V101.659H333.019V136H322.99L322.292 127.653ZM323.307 120.67L326.1 120.607C326.1 122.913 325.825 125.05 325.275 127.018C324.725 128.965 323.91 130.657 322.831 132.096C321.773 133.535 320.461 134.656 318.896 135.46C317.351 136.243 315.563 136.635 313.532 136.635C311.839 136.635 310.284 136.402 308.866 135.937C307.47 135.45 306.264 134.699 305.248 133.683C304.232 132.646 303.439 131.324 302.868 129.716C302.318 128.087 302.042 126.14 302.042 123.876V101.659H312.738V123.939C312.738 124.701 312.833 125.357 313.024 125.907C313.214 126.457 313.489 126.923 313.849 127.304C314.209 127.663 314.653 127.938 315.182 128.129C315.732 128.298 316.356 128.383 317.055 128.383C318.663 128.383 319.922 128.044 320.832 127.367C321.741 126.69 322.376 125.77 322.736 124.606C323.117 123.442 323.307 122.13 323.307 120.67ZM349.713 110.165V136H339.018V101.659H349.015L349.713 110.165ZM359.87 101.405L359.679 111.339C359.256 111.297 358.685 111.244 357.965 111.181C357.246 111.117 356.643 111.085 356.156 111.085C354.908 111.085 353.829 111.234 352.919 111.53C352.03 111.805 351.29 112.228 350.697 112.799C350.126 113.349 349.703 114.048 349.428 114.894C349.174 115.74 349.057 116.724 349.079 117.846L347.143 116.576C347.143 114.27 347.365 112.175 347.809 110.292C348.275 108.388 348.931 106.748 349.777 105.373C350.623 103.976 351.649 102.908 352.855 102.167C354.062 101.405 355.416 101.024 356.918 101.024C357.447 101.024 357.965 101.056 358.473 101.12C359.002 101.183 359.468 101.278 359.87 101.405ZM379.547 136.635C376.754 136.635 374.258 136.201 372.057 135.333C369.857 134.445 367.995 133.228 366.471 131.684C364.969 130.139 363.816 128.362 363.012 126.352C362.229 124.341 361.837 122.215 361.837 119.972V118.766C361.837 116.248 362.187 113.921 362.885 111.784C363.583 109.625 364.62 107.742 365.995 106.134C367.37 104.526 369.095 103.278 371.168 102.389C373.242 101.479 375.654 101.024 378.405 101.024C380.838 101.024 383.017 101.416 384.943 102.199C386.868 102.982 388.498 104.103 389.831 105.563C391.185 107.023 392.211 108.79 392.909 110.863C393.629 112.937 393.988 115.264 393.988 117.846V122.194H365.932V115.497H383.546V114.672C383.568 113.529 383.367 112.556 382.943 111.752C382.541 110.948 381.949 110.334 381.166 109.911C380.383 109.488 379.431 109.276 378.31 109.276C377.146 109.276 376.183 109.53 375.421 110.038C374.681 110.546 374.099 111.244 373.676 112.133C373.274 113 372.988 114.005 372.819 115.148C372.65 116.291 372.565 117.497 372.565 118.766V119.972C372.565 121.242 372.734 122.395 373.073 123.432C373.432 124.468 373.94 125.357 374.596 126.098C375.273 126.817 376.077 127.378 377.008 127.78C377.96 128.182 379.04 128.383 380.246 128.383C381.706 128.383 383.144 128.108 384.562 127.558C385.98 127.007 387.196 126.098 388.212 124.828L393.068 130.604C392.37 131.599 391.375 132.562 390.084 133.493C388.815 134.424 387.292 135.185 385.514 135.778C383.737 136.349 381.748 136.635 379.547 136.635ZM409.127 110.165V136H398.432V101.659H408.429L409.127 110.165ZM419.284 101.405L419.093 111.339C418.67 111.297 418.099 111.244 417.379 111.181C416.66 111.117 416.057 111.085 415.57 111.085C414.322 111.085 413.243 111.234 412.333 111.53C411.444 111.805 410.704 112.228 410.111 112.799C409.54 113.349 409.117 114.048 408.842 114.894C408.588 115.74 408.472 116.724 408.493 117.846L406.557 116.576C406.557 114.27 406.779 112.175 407.223 110.292C407.689 108.388 408.345 106.748 409.191 105.373C410.037 103.976 411.063 102.908 412.27 102.167C413.476 101.405 414.83 101.024 416.332 101.024C416.861 101.024 417.379 101.056 417.887 101.12C418.416 101.183 418.882 101.278 419.284 101.405Z" fill="#004E93"/>
<path d="M166.635 20.2763C137.177 8.74845 66.1506 -7.39056 17.7088 20.2763C-3.56629 37.2079 -17.9679 70.2064 94.6265 66.748C120.266 66.748 173.835 57.4536 183 20.2763" stroke="#FFE700" stroke-width="5"/>
</svg>
