<svg width="334" height="118" viewBox="0 0 334 118" fill="none" xmlns="http://www.w3.org/2000/svg">
<path d="M26.1963 40.4082V47H8.22754V40.4082H26.1963ZM11.2793 11.4531V47H2.70996V11.4531H11.2793ZM44.5068 40.5791V20.584H52.7588V47H45.0439L44.5068 40.5791ZM45.2881 35.208L47.4365 35.1592C47.4365 36.9333 47.2249 38.5771 46.8018 40.0908C46.3786 41.5882 45.752 42.8903 44.9219 43.9971C44.1081 45.1038 43.099 45.9665 41.8945 46.585C40.7064 47.1872 39.3311 47.4883 37.7686 47.4883C36.4665 47.4883 35.2702 47.3092 34.1797 46.9512C33.1055 46.5768 32.1777 45.999 31.3965 45.2178C30.6152 44.4202 30.0049 43.403 29.5654 42.166C29.1423 40.9128 28.9307 39.4154 28.9307 37.6738V20.584H37.1582V37.7227C37.1582 38.3086 37.2314 38.8132 37.3779 39.2363C37.5244 39.6595 37.736 40.0176 38.0127 40.3105C38.2894 40.5872 38.6312 40.7988 39.0381 40.9453C39.4613 41.0755 39.9414 41.1406 40.4785 41.1406C41.7155 41.1406 42.6839 40.8802 43.3838 40.3594C44.0837 39.8385 44.5719 39.1305 44.8486 38.2354C45.1416 37.3402 45.2881 36.3311 45.2881 35.208ZM64.2822 20.584L67.9932 27.8594L71.8262 20.584H80.3711L73.4375 33.4502L80.7373 47H72.1191L67.9932 39.1875L63.8916 47H55.2734L62.5732 33.4502L55.6641 20.584H64.2822ZM98.5107 40.5791V20.584H106.763V47H99.0479L98.5107 40.5791ZM99.292 35.208L101.44 35.1592C101.44 36.9333 101.229 38.5771 100.806 40.0908C100.382 41.5882 99.7559 42.8903 98.9258 43.9971C98.112 45.1038 97.1029 45.9665 95.8984 46.585C94.7103 47.1872 93.335 47.4883 91.7725 47.4883C90.4704 47.4883 89.2741 47.3092 88.1836 46.9512C87.1094 46.5768 86.1816 45.999 85.4004 45.2178C84.6191 44.4202 84.0088 43.403 83.5693 42.166C83.1462 40.9128 82.9346 39.4154 82.9346 37.6738V20.584H91.1621V37.7227C91.1621 38.3086 91.2354 38.8132 91.3818 39.2363C91.5283 39.6595 91.7399 40.0176 92.0166 40.3105C92.2933 40.5872 92.6351 40.7988 93.042 40.9453C93.4652 41.0755 93.9453 41.1406 94.4824 41.1406C95.7194 41.1406 96.6878 40.8802 97.3877 40.3594C98.0876 39.8385 98.5758 39.1305 98.8525 38.2354C99.1455 37.3402 99.292 36.3311 99.292 35.208ZM119.604 27.127V47H111.377V20.584H119.067L119.604 27.127ZM127.417 20.3887L127.271 28.0303C126.945 27.9977 126.506 27.957 125.952 27.9082C125.399 27.8594 124.935 27.835 124.561 27.835C123.6 27.835 122.77 27.9489 122.07 28.1768C121.387 28.3883 120.817 28.7139 120.361 29.1533C119.922 29.5765 119.596 30.1136 119.385 30.7646C119.189 31.4157 119.1 32.1725 119.116 33.0352L117.627 32.0586C117.627 30.2845 117.798 28.6732 118.14 27.2246C118.498 25.7598 119.002 24.4984 119.653 23.4404C120.304 22.3662 121.094 21.5443 122.021 20.9746C122.949 20.3887 123.991 20.0957 125.146 20.0957C125.553 20.0957 125.952 20.1201 126.343 20.1689C126.75 20.2178 127.108 20.291 127.417 20.3887ZM138.794 43.8994L145.63 20.584H154.468L143.848 50.9307C143.62 51.598 143.319 52.3141 142.944 53.0791C142.57 53.8604 142.057 54.6009 141.406 55.3008C140.755 56.0007 139.917 56.5703 138.892 57.0098C137.882 57.4492 136.629 57.6689 135.132 57.6689C134.334 57.6689 133.748 57.6283 133.374 57.5469C133.016 57.4818 132.463 57.3597 131.714 57.1807V51.2969C131.925 51.2969 132.104 51.2969 132.251 51.2969C132.414 51.2969 132.593 51.2969 132.788 51.2969C133.667 51.2969 134.367 51.2074 134.888 51.0283C135.425 50.8493 135.832 50.5889 136.108 50.2471C136.401 49.9053 136.629 49.4902 136.792 49.002L138.794 43.8994ZM137.061 20.584L142.261 39.0654L143.164 47.7812H137.646L128.247 20.584H137.061ZM182.91 39.5781C182.91 39.1224 182.756 38.7318 182.446 38.4062C182.153 38.0645 181.632 37.7552 180.884 37.4785C180.135 37.1855 179.085 36.8926 177.734 36.5996C176.449 36.3229 175.236 35.9567 174.097 35.501C172.974 35.0452 171.989 34.4919 171.143 33.8408C170.296 33.1898 169.629 32.4167 169.141 31.5215C168.669 30.6263 168.433 29.6009 168.433 28.4453C168.433 27.3223 168.669 26.2643 169.141 25.2715C169.629 24.2624 170.337 23.3753 171.265 22.6104C172.209 21.8291 173.356 21.2188 174.707 20.7793C176.058 20.3236 177.596 20.0957 179.321 20.0957C181.698 20.0957 183.748 20.4619 185.474 21.1943C187.199 21.9105 188.525 22.9196 189.453 24.2217C190.397 25.5075 190.869 26.9967 190.869 28.6895H182.642C182.642 28.0221 182.528 27.4525 182.3 26.9805C182.088 26.5085 181.738 26.1504 181.25 25.9062C180.762 25.6458 180.111 25.5156 179.297 25.5156C178.727 25.5156 178.206 25.6214 177.734 25.833C177.279 26.0446 176.912 26.3376 176.636 26.7119C176.359 27.0863 176.221 27.5257 176.221 28.0303C176.221 28.3883 176.302 28.7139 176.465 29.0068C176.644 29.2835 176.912 29.5439 177.271 29.7881C177.629 30.016 178.084 30.2275 178.638 30.4229C179.191 30.6019 179.858 30.7646 180.64 30.9111C182.414 31.2367 184.074 31.7005 185.62 32.3027C187.166 32.9049 188.42 33.7594 189.38 34.8662C190.356 35.973 190.845 37.4622 190.845 39.334C190.845 40.5059 190.576 41.5882 190.039 42.5811C189.502 43.5576 188.729 44.4202 187.72 45.1689C186.711 45.9014 185.498 46.471 184.082 46.8779C182.666 47.2848 181.071 47.4883 179.297 47.4883C176.774 47.4883 174.642 47.0407 172.9 46.1455C171.159 45.234 169.84 44.0947 168.945 42.7275C168.066 41.3441 167.627 39.9443 167.627 38.5283H175.293C175.326 39.3421 175.521 40.0094 175.879 40.5303C176.253 41.0511 176.75 41.4336 177.368 41.6777C177.987 41.9219 178.703 42.0439 179.517 42.0439C180.265 42.0439 180.884 41.9382 181.372 41.7266C181.877 41.515 182.259 41.2301 182.52 40.8721C182.78 40.4977 182.91 40.0664 182.91 39.5781ZM208.618 20.584V26.2969H192.7V20.584H208.618ZM196.045 14.0166H204.272V38.3818C204.272 39.0817 204.354 39.627 204.517 40.0176C204.679 40.3919 204.956 40.6605 205.347 40.8232C205.754 40.9697 206.291 41.043 206.958 41.043C207.43 41.043 207.821 41.0348 208.13 41.0186C208.439 40.986 208.732 40.9453 209.009 40.8965V46.7803C208.309 47.0081 207.576 47.179 206.812 47.293C206.047 47.4232 205.233 47.4883 204.37 47.4883C202.612 47.4883 201.107 47.2116 199.854 46.6582C198.617 46.1048 197.673 45.234 197.021 44.0459C196.37 42.8577 196.045 41.3115 196.045 39.4072V14.0166ZM225.61 40.3594V29.4707C225.61 28.722 225.505 28.0791 225.293 27.542C225.081 27.0049 224.748 26.5898 224.292 26.2969C223.836 25.9876 223.226 25.833 222.461 25.833C221.842 25.833 221.313 25.9388 220.874 26.1504C220.435 26.362 220.101 26.6794 219.873 27.1025C219.645 27.5257 219.531 28.0628 219.531 28.7139H211.304C211.304 27.4932 211.572 26.362 212.109 25.3203C212.663 24.2624 213.444 23.3428 214.453 22.5615C215.479 21.7803 216.699 21.1781 218.115 20.7549C219.548 20.3154 221.143 20.0957 222.9 20.0957C225 20.0957 226.872 20.4456 228.516 21.1455C230.176 21.8454 231.486 22.8952 232.446 24.2949C233.407 25.6784 233.887 27.4199 233.887 29.5195V40.335C233.887 42.0602 233.984 43.3704 234.18 44.2656C234.375 45.1445 234.652 45.9176 235.01 46.585V47H226.758C226.367 46.1862 226.074 45.1934 225.879 44.0215C225.7 42.8333 225.61 41.6126 225.61 40.3594ZM226.611 30.8623L226.66 35.2568H223.022C222.257 35.2568 221.606 35.3626 221.069 35.5742C220.549 35.7858 220.125 36.0788 219.8 36.4531C219.491 36.8112 219.263 37.2181 219.116 37.6738C218.986 38.1296 218.921 38.6097 218.921 39.1143C218.921 39.6025 219.035 40.042 219.263 40.4326C219.507 40.807 219.832 41.0999 220.239 41.3115C220.646 41.5231 221.102 41.6289 221.606 41.6289C222.518 41.6289 223.291 41.458 223.926 41.1162C224.577 40.7581 225.073 40.3268 225.415 39.8223C225.757 39.3177 225.928 38.8457 225.928 38.4062L227.734 41.7754C227.409 42.4264 227.035 43.0856 226.611 43.7529C226.204 44.4202 225.692 45.0387 225.073 45.6084C224.471 46.1618 223.73 46.6175 222.852 46.9756C221.973 47.3174 220.907 47.4883 219.653 47.4883C218.026 47.4883 216.528 47.1546 215.161 46.4873C213.81 45.82 212.728 44.8923 211.914 43.7041C211.1 42.4997 210.693 41.1162 210.693 39.5537C210.693 38.1865 210.938 36.9658 211.426 35.8916C211.93 34.8174 212.687 33.9059 213.696 33.1572C214.705 32.4085 215.991 31.8389 217.554 31.4482C219.116 31.0576 220.955 30.8623 223.071 30.8623H226.611ZM246.753 25.6621V57.1562H238.525V20.584H246.191L246.753 25.6621ZM262.964 33.4746V33.9873C262.964 35.9079 262.744 37.6901 262.305 39.334C261.865 40.9779 261.214 42.4102 260.352 43.6309C259.489 44.8516 258.415 45.8037 257.129 46.4873C255.859 47.1546 254.386 47.4883 252.71 47.4883C251.131 47.4883 249.772 47.1383 248.633 46.4385C247.493 45.7386 246.541 44.7702 245.776 43.5332C245.011 42.2962 244.393 40.8802 243.921 39.2852C243.449 37.6901 243.075 36.0055 242.798 34.2314V33.5723C243.075 31.668 243.449 29.902 243.921 28.2744C244.393 26.6305 245.011 25.1982 245.776 23.9775C246.541 22.7568 247.485 21.8047 248.608 21.1211C249.748 20.4375 251.107 20.0957 252.686 20.0957C254.362 20.0957 255.835 20.4131 257.104 21.0479C258.39 21.6826 259.465 22.5941 260.327 23.7822C261.206 24.9541 261.865 26.362 262.305 28.0059C262.744 29.6497 262.964 31.4727 262.964 33.4746ZM254.736 33.9873V33.4746C254.736 32.4492 254.663 31.5133 254.517 30.667C254.37 29.8044 254.134 29.0557 253.809 28.4209C253.499 27.7861 253.084 27.2979 252.563 26.9561C252.043 26.6143 251.4 26.4434 250.635 26.4434C249.756 26.4434 249.015 26.5817 248.413 26.8584C247.827 27.1188 247.355 27.5257 246.997 28.0791C246.655 28.6162 246.411 29.2917 246.265 30.1055C246.134 30.903 246.077 31.8389 246.094 32.9131V34.915C246.061 36.152 246.183 37.2425 246.46 38.1865C246.737 39.1143 247.217 39.8385 247.9 40.3594C248.584 40.8802 249.512 41.1406 250.684 41.1406C251.465 41.1406 252.116 40.9616 252.637 40.6035C253.158 40.2292 253.573 39.7165 253.882 39.0654C254.191 38.3981 254.411 37.6331 254.541 36.7705C254.671 35.9079 254.736 34.9801 254.736 33.9873ZM275.317 9.5V47H267.065V9.5H275.317ZM293.188 47.4883C291.04 47.4883 289.119 47.1546 287.427 46.4873C285.734 45.8037 284.302 44.8678 283.13 43.6797C281.974 42.4915 281.087 41.1243 280.469 39.5781C279.867 38.0319 279.565 36.3962 279.565 34.6709V33.7432C279.565 31.8063 279.834 30.016 280.371 28.3721C280.908 26.7119 281.706 25.2633 282.764 24.0264C283.822 22.7894 285.148 21.8291 286.743 21.1455C288.338 20.4456 290.194 20.0957 292.31 20.0957C294.181 20.0957 295.858 20.3968 297.339 20.999C298.82 21.6012 300.073 22.4639 301.099 23.5869C302.14 24.71 302.93 26.069 303.467 27.6641C304.02 29.2591 304.297 31.0495 304.297 33.0352V36.3799H282.715V31.2285H296.265V30.5938C296.281 29.7148 296.126 28.9661 295.801 28.3477C295.492 27.7292 295.036 27.2572 294.434 26.9316C293.831 26.6061 293.099 26.4434 292.236 26.4434C291.341 26.4434 290.601 26.6387 290.015 27.0293C289.445 27.4199 288.997 27.957 288.672 28.6406C288.363 29.3079 288.143 30.0811 288.013 30.96C287.882 31.8389 287.817 32.7666 287.817 33.7432V34.6709C287.817 35.6475 287.948 36.5345 288.208 37.332C288.485 38.1296 288.875 38.8132 289.38 39.3828C289.901 39.9362 290.519 40.3675 291.235 40.6768C291.968 40.986 292.798 41.1406 293.726 41.1406C294.849 41.1406 295.955 40.929 297.046 40.5059C298.136 40.0827 299.072 39.3828 299.854 38.4062L303.589 42.8496C303.052 43.6146 302.287 44.3551 301.294 45.0713C300.317 45.7874 299.146 46.3734 297.778 46.8291C296.411 47.2686 294.881 47.4883 293.188 47.4883ZM321.484 39.5781C321.484 39.1224 321.33 38.7318 321.021 38.4062C320.728 38.0645 320.207 37.7552 319.458 37.4785C318.709 37.1855 317.66 36.8926 316.309 36.5996C315.023 36.3229 313.81 35.9567 312.671 35.501C311.548 35.0452 310.563 34.4919 309.717 33.8408C308.87 33.1898 308.203 32.4167 307.715 31.5215C307.243 30.6263 307.007 29.6009 307.007 28.4453C307.007 27.3223 307.243 26.2643 307.715 25.2715C308.203 24.2624 308.911 23.3753 309.839 22.6104C310.783 21.8291 311.93 21.2188 313.281 20.7793C314.632 20.3236 316.17 20.0957 317.896 20.0957C320.272 20.0957 322.323 20.4619 324.048 21.1943C325.773 21.9105 327.1 22.9196 328.027 24.2217C328.971 25.5075 329.443 26.9967 329.443 28.6895H321.216C321.216 28.0221 321.102 27.4525 320.874 26.9805C320.662 26.5085 320.312 26.1504 319.824 25.9062C319.336 25.6458 318.685 25.5156 317.871 25.5156C317.301 25.5156 316.781 25.6214 316.309 25.833C315.853 26.0446 315.487 26.3376 315.21 26.7119C314.933 27.0863 314.795 27.5257 314.795 28.0303C314.795 28.3883 314.876 28.7139 315.039 29.0068C315.218 29.2835 315.487 29.5439 315.845 29.7881C316.203 30.016 316.659 30.2275 317.212 30.4229C317.765 30.6019 318.433 30.7646 319.214 30.9111C320.988 31.2367 322.648 31.7005 324.194 32.3027C325.741 32.9049 326.994 33.7594 327.954 34.8662C328.931 35.973 329.419 37.4622 329.419 39.334C329.419 40.5059 329.15 41.5882 328.613 42.5811C328.076 43.5576 327.303 44.4202 326.294 45.1689C325.285 45.9014 324.072 46.471 322.656 46.8779C321.24 47.2848 319.645 47.4883 317.871 47.4883C315.348 47.4883 313.216 47.0407 311.475 46.1455C309.733 45.234 308.415 44.0947 307.52 42.7275C306.641 41.3441 306.201 39.9443 306.201 38.5283H313.867C313.9 39.3421 314.095 40.0094 314.453 40.5303C314.827 41.0511 315.324 41.4336 315.942 41.6777C316.561 41.9219 317.277 42.0439 318.091 42.0439C318.84 42.0439 319.458 41.9382 319.946 41.7266C320.451 41.515 320.833 41.2301 321.094 40.8721C321.354 40.4977 321.484 40.0664 321.484 39.5781ZM12.4023 106H4.12598V77.4355C4.12598 75.3848 4.54102 73.6595 5.37109 72.2598C6.20117 70.86 7.37305 69.8021 8.88672 69.0859C10.4004 68.3535 12.1908 67.9873 14.2578 67.9873C14.974 67.9873 15.6494 68.0361 16.2842 68.1338C16.9189 68.2314 17.5374 68.3535 18.1396 68.5L18.1641 74.5547C17.8711 74.4733 17.57 74.4163 17.2607 74.3838C16.9515 74.3512 16.569 74.335 16.1133 74.335C15.3158 74.335 14.6403 74.457 14.0869 74.7012C13.5335 74.929 13.1104 75.279 12.8174 75.751C12.5407 76.2067 12.4023 76.7682 12.4023 77.4355V106ZM17.5293 79.584V85.2969H0.317383V79.584H17.5293ZM19.458 93.0605V92.5479C19.458 90.611 19.7347 88.8288 20.2881 87.2012C20.8415 85.5573 21.6553 84.1331 22.7295 82.9287C23.8037 81.7243 25.1302 80.7884 26.709 80.1211C28.2878 79.4375 30.1107 79.0957 32.1777 79.0957C34.2611 79.0957 36.0921 79.4375 37.6709 80.1211C39.266 80.7884 40.6006 81.7243 41.6748 82.9287C42.749 84.1331 43.5628 85.5573 44.1162 87.2012C44.6696 88.8288 44.9463 90.611 44.9463 92.5479V93.0605C44.9463 94.9811 44.6696 96.7633 44.1162 98.4072C43.5628 100.035 42.749 101.459 41.6748 102.68C40.6006 103.884 39.2741 104.82 37.6953 105.487C36.1165 106.155 34.2936 106.488 32.2266 106.488C30.1595 106.488 28.3285 106.155 26.7334 105.487C25.1383 104.82 23.8037 103.884 22.7295 102.68C21.6553 101.459 20.8415 100.035 20.2881 98.4072C19.7347 96.7633 19.458 94.9811 19.458 93.0605ZM27.6855 92.5479V93.0605C27.6855 94.0534 27.7588 94.9811 27.9053 95.8438C28.0518 96.7064 28.2959 97.4632 28.6377 98.1143C28.9795 98.749 29.4434 99.2454 30.0293 99.6035C30.6152 99.9616 31.3477 100.141 32.2266 100.141C33.0892 100.141 33.8053 99.9616 34.375 99.6035C34.9609 99.2454 35.4248 98.749 35.7666 98.1143C36.1084 97.4632 36.3525 96.7064 36.499 95.8438C36.6455 94.9811 36.7188 94.0534 36.7188 93.0605V92.5479C36.7188 91.5876 36.6455 90.6842 36.499 89.8379C36.3525 88.9753 36.1084 88.2184 35.7666 87.5674C35.4248 86.9001 34.9609 86.3792 34.375 86.0049C33.7891 85.6305 33.0566 85.4434 32.1777 85.4434C31.3151 85.4434 30.5908 85.6305 30.0049 86.0049C29.4352 86.3792 28.9795 86.9001 28.6377 87.5674C28.2959 88.2184 28.0518 88.9753 27.9053 89.8379C27.7588 90.6842 27.6855 91.5876 27.6855 92.5479ZM56.9092 86.127V106H48.6816V79.584H56.3721L56.9092 86.127ZM64.7217 79.3887L64.5752 87.0303C64.2497 86.9977 63.8102 86.957 63.2568 86.9082C62.7035 86.8594 62.2396 86.835 61.8652 86.835C60.9049 86.835 60.0749 86.9489 59.375 87.1768C58.6914 87.3883 58.1217 87.7139 57.666 88.1533C57.2266 88.5765 56.901 89.1136 56.6895 89.7646C56.4941 90.4157 56.4046 91.1725 56.4209 92.0352L54.9316 91.0586C54.9316 89.2845 55.1025 87.6732 55.4443 86.2246C55.8024 84.7598 56.307 83.4984 56.958 82.4404C57.609 81.3662 58.3984 80.5443 59.3262 79.9746C60.2539 79.3887 61.2956 79.0957 62.4512 79.0957C62.8581 79.0957 63.2568 79.1201 63.6475 79.1689C64.0544 79.2178 64.4124 79.291 64.7217 79.3887ZM88.1104 102.899L94.9463 79.584H103.784L93.1641 109.931C92.9362 110.598 92.6351 111.314 92.2607 112.079C91.8864 112.86 91.3737 113.601 90.7227 114.301C90.0716 115.001 89.2334 115.57 88.208 116.01C87.1989 116.449 85.9456 116.669 84.4482 116.669C83.6507 116.669 83.0648 116.628 82.6904 116.547C82.3324 116.482 81.779 116.36 81.0303 116.181V110.297C81.2419 110.297 81.4209 110.297 81.5674 110.297C81.7301 110.297 81.9092 110.297 82.1045 110.297C82.9834 110.297 83.6833 110.207 84.2041 110.028C84.7412 109.849 85.1481 109.589 85.4248 109.247C85.7178 108.905 85.9456 108.49 86.1084 108.002L88.1104 102.899ZM86.377 79.584L91.5771 98.0654L92.4805 106.781H86.9629L77.5635 79.584H86.377ZM104.517 93.0605V92.5479C104.517 90.611 104.793 88.8288 105.347 87.2012C105.9 85.5573 106.714 84.1331 107.788 82.9287C108.862 81.7243 110.189 80.7884 111.768 80.1211C113.346 79.4375 115.169 79.0957 117.236 79.0957C119.32 79.0957 121.151 79.4375 122.729 80.1211C124.325 80.7884 125.659 81.7243 126.733 82.9287C127.808 84.1331 128.621 85.5573 129.175 87.2012C129.728 88.8288 130.005 90.611 130.005 92.5479V93.0605C130.005 94.9811 129.728 96.7633 129.175 98.4072C128.621 100.035 127.808 101.459 126.733 102.68C125.659 103.884 124.333 104.82 122.754 105.487C121.175 106.155 119.352 106.488 117.285 106.488C115.218 106.488 113.387 106.155 111.792 105.487C110.197 104.82 108.862 103.884 107.788 102.68C106.714 101.459 105.9 100.035 105.347 98.4072C104.793 96.7633 104.517 94.9811 104.517 93.0605ZM112.744 92.5479V93.0605C112.744 94.0534 112.817 94.9811 112.964 95.8438C113.11 96.7064 113.354 97.4632 113.696 98.1143C114.038 98.749 114.502 99.2454 115.088 99.6035C115.674 99.9616 116.406 100.141 117.285 100.141C118.148 100.141 118.864 99.9616 119.434 99.6035C120.02 99.2454 120.483 98.749 120.825 98.1143C121.167 97.4632 121.411 96.7064 121.558 95.8438C121.704 94.9811 121.777 94.0534 121.777 93.0605V92.5479C121.777 91.5876 121.704 90.6842 121.558 89.8379C121.411 88.9753 121.167 88.2184 120.825 87.5674C120.483 86.9001 120.02 86.3792 119.434 86.0049C118.848 85.6305 118.115 85.4434 117.236 85.4434C116.374 85.4434 115.649 85.6305 115.063 86.0049C114.494 86.3792 114.038 86.9001 113.696 87.5674C113.354 88.2184 113.11 88.9753 112.964 89.8379C112.817 90.6842 112.744 91.5876 112.744 92.5479ZM149.097 99.5791V79.584H157.349V106H149.634L149.097 99.5791ZM149.878 94.208L152.026 94.1592C152.026 95.9333 151.815 97.5771 151.392 99.0908C150.968 100.588 150.342 101.89 149.512 102.997C148.698 104.104 147.689 104.966 146.484 105.585C145.296 106.187 143.921 106.488 142.358 106.488C141.056 106.488 139.86 106.309 138.77 105.951C137.695 105.577 136.768 104.999 135.986 104.218C135.205 103.42 134.595 102.403 134.155 101.166C133.732 99.9128 133.521 98.4154 133.521 96.6738V79.584H141.748V96.7227C141.748 97.3086 141.821 97.8132 141.968 98.2363C142.114 98.6595 142.326 99.0176 142.603 99.3105C142.879 99.5872 143.221 99.7988 143.628 99.9453C144.051 100.076 144.531 100.141 145.068 100.141C146.305 100.141 147.274 99.8802 147.974 99.3594C148.674 98.8385 149.162 98.1305 149.438 97.2354C149.731 96.3402 149.878 95.3311 149.878 94.208ZM170.19 86.127V106H161.963V79.584H169.653L170.19 86.127ZM178.003 79.3887L177.856 87.0303C177.531 86.9977 177.091 86.957 176.538 86.9082C175.985 86.8594 175.521 86.835 175.146 86.835C174.186 86.835 173.356 86.9489 172.656 87.1768C171.973 87.3883 171.403 87.7139 170.947 88.1533C170.508 88.5765 170.182 89.1136 169.971 89.7646C169.775 90.4157 169.686 91.1725 169.702 92.0352L168.213 91.0586C168.213 89.2845 168.384 87.6732 168.726 86.2246C169.084 84.7598 169.588 83.4984 170.239 82.4404C170.89 81.3662 171.68 80.5443 172.607 79.9746C173.535 79.3887 174.577 79.0957 175.732 79.0957C176.139 79.0957 176.538 79.1201 176.929 79.1689C177.336 79.2178 177.694 79.291 178.003 79.3887ZM193.359 68.5H201.587V99.5059L200.732 106H193.359V68.5ZM217.798 92.499V93.0117C217.798 95.0137 217.594 96.8366 217.188 98.4805C216.781 100.124 216.154 101.549 215.308 102.753C214.461 103.941 213.395 104.861 212.109 105.512C210.824 106.163 209.302 106.488 207.544 106.488C205.949 106.488 204.582 106.146 203.442 105.463C202.303 104.763 201.351 103.803 200.586 102.582C199.821 101.345 199.202 99.9209 198.73 98.3096C198.258 96.682 197.884 94.9404 197.607 93.085V92.4746C197.884 90.6354 198.258 88.9102 198.73 87.2988C199.202 85.6712 199.821 84.2471 200.586 83.0264C201.351 81.7894 202.295 80.8291 203.418 80.1455C204.557 79.4456 205.916 79.0957 207.495 79.0957C209.269 79.0957 210.799 79.4294 212.085 80.0967C213.387 80.764 214.461 81.6999 215.308 82.9043C216.154 84.1087 216.781 85.5247 217.188 87.1523C217.594 88.7799 217.798 90.5622 217.798 92.499ZM209.57 93.0117V92.499C209.57 91.5387 209.513 90.6354 209.399 89.7891C209.285 88.9427 209.082 88.194 208.789 87.543C208.496 86.8919 208.081 86.3792 207.544 86.0049C207.007 85.6305 206.307 85.4434 205.444 85.4434C204.565 85.4434 203.825 85.5898 203.223 85.8828C202.637 86.1758 202.165 86.599 201.807 87.1523C201.465 87.6895 201.221 88.3568 201.074 89.1543C200.928 89.9355 200.863 90.8226 200.879 91.8154V93.7441C200.846 95.0951 200.968 96.2507 201.245 97.2109C201.522 98.1712 202.002 98.9036 202.686 99.4082C203.369 99.9128 204.305 100.165 205.493 100.165C206.372 100.165 207.08 99.9941 207.617 99.6523C208.171 99.3105 208.586 98.8223 208.862 98.1875C209.139 97.5527 209.326 96.7959 209.424 95.917C209.521 95.0381 209.57 94.0697 209.57 93.0117ZM229.761 86.127V106H221.533V79.584H229.224L229.761 86.127ZM237.573 79.3887L237.427 87.0303C237.101 86.9977 236.662 86.957 236.108 86.9082C235.555 86.8594 235.091 86.835 234.717 86.835C233.757 86.835 232.926 86.9489 232.227 87.1768C231.543 87.3883 230.973 87.7139 230.518 88.1533C230.078 88.5765 229.753 89.1136 229.541 89.7646C229.346 90.4157 229.256 91.1725 229.272 92.0352L227.783 91.0586C227.783 89.2845 227.954 87.6732 228.296 86.2246C228.654 84.7598 229.159 83.4984 229.81 82.4404C230.461 81.3662 231.25 80.5443 232.178 79.9746C233.105 79.3887 234.147 79.0957 235.303 79.0957C235.71 79.0957 236.108 79.1201 236.499 79.1689C236.906 79.2178 237.264 79.291 237.573 79.3887ZM253.394 99.3594V88.4707C253.394 87.722 253.288 87.0791 253.076 86.542C252.865 86.0049 252.531 85.5898 252.075 85.2969C251.619 84.9876 251.009 84.833 250.244 84.833C249.626 84.833 249.097 84.9388 248.657 85.1504C248.218 85.362 247.884 85.6794 247.656 86.1025C247.428 86.5257 247.314 87.0628 247.314 87.7139H239.087C239.087 86.4932 239.355 85.362 239.893 84.3203C240.446 83.2624 241.227 82.3428 242.236 81.5615C243.262 80.7803 244.482 80.1781 245.898 79.7549C247.331 79.3154 248.926 79.0957 250.684 79.0957C252.783 79.0957 254.655 79.4456 256.299 80.1455C257.959 80.8454 259.269 81.8952 260.229 83.2949C261.19 84.6784 261.67 86.4199 261.67 88.5195V99.335C261.67 101.06 261.768 102.37 261.963 103.266C262.158 104.145 262.435 104.918 262.793 105.585V106H254.541C254.15 105.186 253.857 104.193 253.662 103.021C253.483 101.833 253.394 100.613 253.394 99.3594ZM254.395 89.8623L254.443 94.2568H250.806C250.041 94.2568 249.39 94.3626 248.853 94.5742C248.332 94.7858 247.909 95.0788 247.583 95.4531C247.274 95.8112 247.046 96.2181 246.899 96.6738C246.769 97.1296 246.704 97.6097 246.704 98.1143C246.704 98.6025 246.818 99.042 247.046 99.4326C247.29 99.807 247.616 100.1 248.022 100.312C248.429 100.523 248.885 100.629 249.39 100.629C250.301 100.629 251.074 100.458 251.709 100.116C252.36 99.7581 252.856 99.3268 253.198 98.8223C253.54 98.3177 253.711 97.8457 253.711 97.4062L255.518 100.775C255.192 101.426 254.818 102.086 254.395 102.753C253.988 103.42 253.475 104.039 252.856 104.608C252.254 105.162 251.514 105.618 250.635 105.976C249.756 106.317 248.69 106.488 247.437 106.488C245.809 106.488 244.312 106.155 242.944 105.487C241.593 104.82 240.511 103.892 239.697 102.704C238.883 101.5 238.477 100.116 238.477 98.5537C238.477 97.1865 238.721 95.9658 239.209 94.8916C239.714 93.8174 240.47 92.9059 241.479 92.1572C242.489 91.4085 243.774 90.8389 245.337 90.4482C246.899 90.0576 248.739 89.8623 250.854 89.8623H254.395ZM274.316 85.2236V106H266.089V79.584H273.804L274.316 85.2236ZM273.34 91.8887L271.411 91.9375C271.411 89.9193 271.655 88.1208 272.144 86.542C272.632 84.9469 273.324 83.596 274.219 82.4893C275.114 81.3825 276.18 80.5443 277.417 79.9746C278.67 79.3887 280.062 79.0957 281.592 79.0957C282.812 79.0957 283.927 79.2747 284.937 79.6328C285.962 79.9909 286.841 80.5687 287.573 81.3662C288.322 82.1637 288.892 83.2217 289.282 84.54C289.689 85.8421 289.893 87.4535 289.893 89.374V106H281.616V89.3496C281.616 88.2917 281.47 87.486 281.177 86.9326C280.884 86.363 280.461 85.9723 279.907 85.7607C279.354 85.5492 278.678 85.4434 277.881 85.4434C277.035 85.4434 276.318 85.6061 275.732 85.9316C275.146 86.2572 274.674 86.7129 274.316 87.2988C273.975 87.8685 273.722 88.5439 273.56 89.3252C273.413 90.1064 273.34 90.9609 273.34 91.8887ZM309.644 99.9453V68.5H317.92V106H310.498L309.644 99.9453ZM293.433 93.1094V92.5967C293.433 90.5947 293.652 88.7718 294.092 87.1279C294.531 85.4678 295.182 84.0436 296.045 82.8555C296.908 81.651 297.982 80.7233 299.268 80.0723C300.553 79.4212 302.035 79.0957 303.711 79.0957C305.208 79.0957 306.519 79.4456 307.642 80.1455C308.765 80.8291 309.725 81.7894 310.522 83.0264C311.32 84.2633 311.971 85.7119 312.476 87.3721C312.98 89.016 313.363 90.79 313.623 92.6943V93.3047C313.363 95.0951 312.98 96.7878 312.476 98.3828C311.971 99.9616 311.32 101.361 310.522 102.582C309.725 103.803 308.757 104.763 307.617 105.463C306.494 106.146 305.176 106.488 303.662 106.488C301.986 106.488 300.505 106.155 299.219 105.487C297.949 104.82 296.883 103.884 296.021 102.68C295.174 101.475 294.531 100.059 294.092 98.4316C293.652 96.804 293.433 95.0299 293.433 93.1094ZM301.66 92.5967V93.1094C301.66 94.1022 301.725 95.0218 301.855 95.8682C301.986 96.7145 302.205 97.4632 302.515 98.1143C302.84 98.749 303.263 99.2454 303.784 99.6035C304.321 99.9616 304.98 100.141 305.762 100.141C306.82 100.141 307.69 99.8883 308.374 99.3838C309.074 98.8792 309.587 98.1631 309.912 97.2354C310.254 96.3076 310.4 95.2171 310.352 93.9639V92.0352C310.384 90.9609 310.311 90.0169 310.132 89.2031C309.953 88.373 309.668 87.6813 309.277 87.1279C308.903 86.5745 308.423 86.1595 307.837 85.8828C307.267 85.5898 306.592 85.4434 305.811 85.4434C305.046 85.4434 304.395 85.6224 303.857 85.9805C303.337 86.3385 302.913 86.8431 302.588 87.4941C302.262 88.1289 302.026 88.8857 301.88 89.7646C301.733 90.6273 301.66 91.5713 301.66 92.5967Z" fill="#004E93"/>
<path d="M317.362 72.798C294.614 62.3857 239.766 47.8085 202.358 72.798C185.929 88.091 174.808 117.896 261.756 114.772C281.555 114.772 322.923 106.377 330 72.798" stroke="#FFE700" stroke-width="3"/>
</svg>
