<svg width="415" height="147" viewBox="0 0 415 147" fill="none" xmlns="http://www.w3.org/2000/svg">
<path d="M31.5962 13.7891H42.7363V43.9722C42.7363 47.5692 41.9852 50.616 40.4829 53.1128C38.9806 55.5884 36.8753 57.4609 34.167 58.7305C31.4587 60 28.2743 60.6348 24.6138 60.6348C20.9956 60.6348 17.8112 60 15.0605 58.7305C12.3311 57.4609 10.194 55.5884 8.64941 53.1128C7.12598 50.616 6.36426 47.5692 6.36426 43.9722V13.7891H17.5361V43.9722C17.5361 45.8765 17.8112 47.4316 18.3613 48.6377C18.9115 49.8226 19.7155 50.6901 20.7734 51.2402C21.8314 51.7904 23.1115 52.0654 24.6138 52.0654C26.1372 52.0654 27.4173 51.7904 28.4541 51.2402C29.4909 50.6901 30.2738 49.8226 30.8027 48.6377C31.3317 47.4316 31.5962 45.8765 31.5962 43.9722V13.7891ZM73.5542 47.7173C73.5542 46.9979 73.4484 46.3525 73.2368 45.7812C73.0252 45.1888 72.6338 44.6387 72.0625 44.1309C71.4912 43.623 70.666 43.1152 69.5869 42.6074C68.529 42.0785 67.1325 41.5283 65.3975 40.957C63.3662 40.2799 61.409 39.5182 59.5259 38.6719C57.6427 37.8044 55.9606 36.7993 54.4795 35.6567C52.9984 34.493 51.8241 33.1388 50.9565 31.5942C50.089 30.0285 49.6553 28.2088 49.6553 26.1353C49.6553 24.1463 50.0996 22.3584 50.9883 20.7715C51.877 19.1634 53.1147 17.7987 54.7017 16.6772C56.3097 15.5347 58.1929 14.6672 60.3511 14.0747C62.5093 13.4611 64.8685 13.1543 67.4287 13.1543C70.8141 13.1543 73.7975 13.7467 76.3789 14.9316C78.9814 16.0954 81.0127 17.7563 82.4727 19.9146C83.9538 22.0516 84.6943 24.5801 84.6943 27.5H73.6177C73.6177 26.3363 73.3743 25.3101 72.8877 24.4214C72.4222 23.5327 71.7134 22.8345 70.7612 22.3267C69.8091 21.8188 68.6136 21.5649 67.1748 21.5649C65.7783 21.5649 64.604 21.7765 63.6519 22.1997C62.6997 22.6229 61.9803 23.1942 61.4937 23.9136C61.007 24.6118 60.7637 25.3841 60.7637 26.2305C60.7637 26.9287 60.9541 27.5635 61.335 28.1348C61.737 28.6849 62.2977 29.2033 63.0171 29.6899C63.7576 30.1766 64.6463 30.6421 65.6831 31.0864C66.741 31.5308 67.9259 31.9645 69.2378 32.3877C71.6922 33.1706 73.8716 34.0487 75.7759 35.022C77.7013 35.9741 79.32 37.0638 80.6318 38.291C81.9648 39.4971 82.9699 40.8724 83.647 42.417C84.3452 43.9616 84.6943 45.7072 84.6943 47.6538C84.6943 49.7274 84.2923 51.5682 83.4883 53.1763C82.6842 54.7843 81.5311 56.1491 80.0288 57.2705C78.5265 58.3708 76.728 59.2065 74.6333 59.7778C72.5386 60.3491 70.2005 60.6348 67.6191 60.6348C65.2493 60.6348 62.9113 60.3385 60.605 59.7461C58.3198 59.1325 56.2463 58.2015 54.3843 56.9531C52.5223 55.6836 51.0306 54.0649 49.9092 52.0972C48.8089 50.1082 48.2588 47.749 48.2588 45.0195H59.4307C59.4307 46.3737 59.6105 47.5163 59.9702 48.4473C60.3299 49.3783 60.8589 50.1294 61.5571 50.7007C62.2554 51.2508 63.1123 51.6528 64.1279 51.9067C65.1436 52.1395 66.3073 52.2559 67.6191 52.2559C69.0368 52.2559 70.1794 52.0549 71.0469 51.6528C71.9144 51.2297 72.5492 50.6795 72.9512 50.0024C73.3532 49.3042 73.5542 48.5425 73.5542 47.7173ZM110.021 23.501L98.7544 60H86.7891L103.769 13.7891H111.354L110.021 23.501ZM119.353 60L108.054 23.501L106.594 13.7891H114.274L131.35 60H119.353ZM118.908 42.7661V51.3672H95.1997V42.7661H118.908ZM177.211 44.353H188.32C188.172 47.5692 187.304 50.4045 185.717 52.8589C184.13 55.3133 181.93 57.2282 179.116 58.6035C176.323 59.9577 173.022 60.6348 169.213 60.6348C166.124 60.6348 163.363 60.1164 160.93 59.0796C158.518 58.0428 156.465 56.5511 154.772 54.6045C153.101 52.6579 151.821 50.2987 150.932 47.5269C150.065 44.755 149.631 41.6341 149.631 38.1641V35.6567C149.631 32.1867 150.086 29.0658 150.996 26.2939C151.927 23.501 153.238 21.1312 154.931 19.1846C156.645 17.2168 158.697 15.7145 161.088 14.6777C163.479 13.641 166.135 13.1226 169.055 13.1226C173.075 13.1226 176.471 13.842 179.243 15.2808C182.014 16.7196 184.162 18.6979 185.686 21.2158C187.209 23.7126 188.108 26.5584 188.383 29.7534H177.275C177.233 28.0184 176.936 26.569 176.386 25.4053C175.836 24.2204 174.969 23.3317 173.784 22.7393C172.599 22.1468 171.022 21.8506 169.055 21.8506C167.679 21.8506 166.484 22.1045 165.468 22.6123C164.453 23.1201 163.606 23.9242 162.929 25.0244C162.252 26.1247 161.744 27.5529 161.406 29.3091C161.088 31.0441 160.93 33.1388 160.93 35.5933V38.1641C160.93 40.6185 161.078 42.7132 161.374 44.4482C161.67 46.1833 162.146 47.6009 162.802 48.7012C163.458 49.8014 164.305 50.616 165.341 51.145C166.399 51.6528 167.69 51.9067 169.213 51.9067C170.906 51.9067 172.334 51.6423 173.498 51.1133C174.662 50.5632 175.561 49.738 176.196 48.6377C176.831 47.5163 177.169 46.0881 177.211 44.353ZM204.379 11.25V60H193.652V11.25H204.379ZM209.648 43.1787V42.5122C209.648 39.9943 210.008 37.6774 210.727 35.5615C211.446 33.4245 212.504 31.5731 213.901 30.0073C215.297 28.4416 217.022 27.2249 219.074 26.3574C221.127 25.4688 223.496 25.0244 226.184 25.0244C228.892 25.0244 231.272 25.4688 233.325 26.3574C235.398 27.2249 237.133 28.4416 238.53 30.0073C239.926 31.5731 240.984 33.4245 241.704 35.5615C242.423 37.6774 242.783 39.9943 242.783 42.5122V43.1787C242.783 45.6755 242.423 47.9924 241.704 50.1294C240.984 52.2453 239.926 54.0967 238.53 55.6836C237.133 57.2493 235.409 58.466 233.356 59.3335C231.304 60.201 228.934 60.6348 226.247 60.6348C223.56 60.6348 221.18 60.201 219.106 59.3335C217.032 58.466 215.297 57.2493 213.901 55.6836C212.504 54.0967 211.446 52.2453 210.727 50.1294C210.008 47.9924 209.648 45.6755 209.648 43.1787ZM220.344 42.5122V43.1787C220.344 44.4694 220.439 45.6755 220.629 46.7969C220.82 47.9183 221.137 48.9022 221.582 49.7485C222.026 50.5737 222.629 51.2191 223.391 51.6846C224.152 52.1501 225.104 52.3828 226.247 52.3828C227.368 52.3828 228.299 52.1501 229.04 51.6846C229.802 51.2191 230.405 50.5737 230.849 49.7485C231.293 48.9022 231.611 47.9183 231.801 46.7969C231.992 45.6755 232.087 44.4694 232.087 43.1787V42.5122C232.087 41.2638 231.992 40.0895 231.801 38.9893C231.611 37.8678 231.293 36.884 230.849 36.0376C230.405 35.1701 229.802 34.493 229.04 34.0063C228.278 33.5197 227.326 33.2764 226.184 33.2764C225.062 33.2764 224.121 33.5197 223.359 34.0063C222.618 34.493 222.026 35.1701 221.582 36.0376C221.137 36.884 220.82 37.8678 220.629 38.9893C220.439 40.0895 220.344 41.2638 220.344 42.5122ZM265.634 25.6592V33.0859H244.941V25.6592H265.634ZM249.289 17.1216H259.985V48.7964C259.985 49.7062 260.091 50.415 260.302 50.9229C260.514 51.4095 260.874 51.7586 261.381 51.9702C261.91 52.1606 262.609 52.2559 263.476 52.2559C264.09 52.2559 264.597 52.2453 265 52.2241C265.402 52.1818 265.782 52.1289 266.142 52.0654V59.7144C265.232 60.0106 264.28 60.2327 263.286 60.3809C262.291 60.5501 261.233 60.6348 260.112 60.6348C257.827 60.6348 255.869 60.2751 254.24 59.5557C252.632 58.8363 251.405 57.7043 250.559 56.1597C249.712 54.6151 249.289 52.605 249.289 50.1294V17.1216ZM280.361 11.25V60H269.665V11.25H280.361ZM279.091 41.6553L276.584 41.7188C276.584 39.3066 276.88 37.085 277.473 35.0537C278.065 33.0225 278.911 31.2557 280.012 29.7534C281.112 28.2511 282.434 27.0874 283.979 26.2622C285.524 25.437 287.237 25.0244 289.121 25.0244C290.813 25.0244 292.358 25.2677 293.754 25.7544C295.172 26.241 296.389 27.0239 297.404 28.103C298.441 29.1821 299.235 30.5892 299.785 32.3242C300.356 34.0592 300.642 36.1751 300.642 38.6719V60H289.882V38.6084C289.882 37.2119 289.681 36.1328 289.279 35.3711C288.898 34.5882 288.348 34.0487 287.629 33.7524C286.91 33.4351 286.031 33.2764 284.995 33.2764C283.746 33.2764 282.731 33.488 281.948 33.9111C281.165 34.3343 280.562 34.9268 280.139 35.6885C279.737 36.429 279.462 37.3071 279.313 38.3228C279.165 39.3384 279.091 40.4492 279.091 41.6553ZM317.875 25.6592V60H307.148V25.6592H317.875ZM306.513 16.8042C306.513 15.2808 307.063 14.0324 308.164 13.0591C309.264 12.0858 310.692 11.5991 312.448 11.5991C314.204 11.5991 315.633 12.0858 316.733 13.0591C317.833 14.0324 318.383 15.2808 318.383 16.8042C318.383 18.3276 317.833 19.576 316.733 20.5493C315.633 21.5226 314.204 22.0093 312.448 22.0093C310.692 22.0093 309.264 21.5226 308.164 20.5493C307.063 19.576 306.513 18.3276 306.513 16.8042ZM334.982 32.9907V60H324.287V25.6592H334.316L334.982 32.9907ZM333.713 41.6553L331.206 41.7188C331.206 39.0951 331.523 36.757 332.158 34.7046C332.792 32.631 333.692 30.8748 334.855 29.436C336.019 27.9972 337.405 26.9076 339.013 26.167C340.642 25.4053 342.451 25.0244 344.44 25.0244C346.027 25.0244 347.477 25.2572 348.789 25.7227C350.122 26.1882 351.264 26.9393 352.216 27.9761C353.19 29.0129 353.93 30.3882 354.438 32.1021C354.967 33.7948 355.231 35.8895 355.231 38.3862V60H344.472V38.3545C344.472 36.9792 344.282 35.9318 343.901 35.2124C343.52 34.4718 342.97 33.964 342.25 33.689C341.531 33.4139 340.653 33.2764 339.616 33.2764C338.516 33.2764 337.585 33.488 336.823 33.9111C336.062 34.3343 335.448 34.9268 334.982 35.6885C334.538 36.429 334.21 37.3071 333.999 38.3228C333.808 39.3384 333.713 40.4492 333.713 41.6553ZM382.749 25.6592H392.46V58.667C392.46 61.8408 391.73 64.528 390.271 66.7285C388.811 68.9502 386.769 70.6323 384.145 71.7749C381.542 72.9386 378.496 73.5205 375.004 73.5205C373.46 73.5205 371.883 73.3195 370.275 72.9175C368.667 72.5366 367.165 71.9653 365.769 71.2036C364.372 70.4419 363.198 69.5003 362.246 68.3789L366.721 62.0947C367.588 63.068 368.678 63.8932 369.99 64.5703C371.302 65.2686 372.846 65.6177 374.624 65.6177C376.168 65.6177 377.459 65.3426 378.496 64.7925C379.554 64.2424 380.358 63.4383 380.908 62.3804C381.458 61.3436 381.733 60.0846 381.733 58.6035V33.7842L382.749 25.6592ZM359.929 43.2422V42.5757C359.929 39.9731 360.246 37.6034 360.881 35.4663C361.537 33.3081 362.468 31.4567 363.674 29.9121C364.901 28.3464 366.382 27.1403 368.117 26.2939C369.852 25.4476 371.809 25.0244 373.989 25.0244C376.337 25.0244 378.263 25.4793 379.765 26.3892C381.289 27.2778 382.505 28.5262 383.415 30.1343C384.346 31.7424 385.065 33.6255 385.573 35.7837C386.102 37.9207 386.547 40.2271 386.906 42.7026V43.4961C386.547 45.8236 386.049 48.0241 385.415 50.0977C384.801 52.1501 383.997 53.9697 383.002 55.5566C382.008 57.1436 380.76 58.3919 379.257 59.3018C377.776 60.1904 375.999 60.6348 373.925 60.6348C371.767 60.6348 369.82 60.201 368.085 59.3335C366.372 58.466 364.901 57.2493 363.674 55.6836C362.468 54.1178 361.537 52.277 360.881 50.1611C360.246 48.0452 359.929 45.7389 359.929 43.2422ZM370.625 42.5757V43.2422C370.625 44.5329 370.741 45.7284 370.974 46.8286C371.228 47.9289 371.608 48.9022 372.116 49.7485C372.624 50.5737 373.248 51.2191 373.989 51.6846C374.75 52.1501 375.639 52.3828 376.655 52.3828C378.199 52.3828 379.448 52.0549 380.4 51.3989C381.352 50.743 382.04 49.812 382.463 48.606C382.886 47.3999 383.066 45.9823 383.002 44.353V41.8457C383.045 40.4492 382.95 39.222 382.717 38.1641C382.484 37.085 382.114 36.1857 381.606 35.4663C381.119 34.7469 380.463 34.2074 379.638 33.8477C378.834 33.4668 377.861 33.2764 376.718 33.2764C375.724 33.2764 374.846 33.5091 374.084 33.9746C373.322 34.4401 372.688 35.096 372.18 35.9424C371.672 36.7676 371.28 37.7515 371.005 38.894C370.751 40.0155 370.625 41.2427 370.625 42.5757ZM16.8062 108.927V136H6.11035V101.659H16.1396L16.8062 108.927ZM15.5049 117.655L13.061 117.719C13.061 115.307 13.3467 113.085 13.918 111.054C14.4893 109.022 15.3356 107.256 16.457 105.753C17.5785 104.251 18.9538 103.087 20.583 102.262C22.2334 101.437 24.1377 101.024 26.2959 101.024C27.7982 101.024 29.1629 101.257 30.3901 101.723C31.6174 102.167 32.6753 102.876 33.564 103.849C34.4526 104.801 35.1297 106.05 35.5952 107.594C36.0819 109.118 36.3252 110.948 36.3252 113.085V136H25.6294V114.45C25.6294 112.99 25.4601 111.889 25.1216 111.149C24.8042 110.408 24.3387 109.911 23.7251 109.657C23.1115 109.403 22.3604 109.276 21.4717 109.276C20.5407 109.276 19.7049 109.488 18.9644 109.911C18.2238 110.334 17.589 110.927 17.0601 111.688C16.5522 112.429 16.1608 113.307 15.8857 114.323C15.6318 115.338 15.5049 116.449 15.5049 117.655ZM35.1191 117.655L32.1357 117.719C32.1357 115.307 32.4002 113.085 32.9292 111.054C33.4793 109.022 34.2939 107.256 35.373 105.753C36.4733 104.251 37.8381 103.087 39.4673 102.262C41.0965 101.437 42.9902 101.024 45.1484 101.024C46.7142 101.024 48.153 101.257 49.4648 101.723C50.7767 102.188 51.9087 102.939 52.8608 103.976C53.813 105.013 54.5535 106.388 55.0825 108.102C55.6115 109.795 55.876 111.889 55.876 114.386V136H45.1484V114.386C45.1484 112.969 44.9792 111.9 44.6406 111.181C44.3232 110.44 43.8577 109.943 43.2441 109.689C42.6305 109.414 41.9006 109.276 41.0542 109.276C40.0386 109.276 39.1605 109.488 38.4199 109.911C37.6794 110.334 37.0552 110.927 36.5474 111.688C36.0607 112.429 35.701 113.307 35.4683 114.323C35.2355 115.338 35.1191 116.449 35.1191 117.655ZM79.8384 127.367V113.212C79.8384 112.239 79.7008 111.403 79.4258 110.705C79.1507 110.006 78.717 109.467 78.1245 109.086C77.5321 108.684 76.7386 108.483 75.7441 108.483C74.9401 108.483 74.2524 108.62 73.6812 108.896C73.1099 109.171 72.6761 109.583 72.3799 110.133C72.0837 110.683 71.9355 111.382 71.9355 112.228H61.2397C61.2397 110.641 61.5889 109.171 62.2871 107.816C63.0065 106.441 64.0221 105.246 65.334 104.23C66.667 103.214 68.2539 102.431 70.0947 101.881C71.9567 101.31 74.0303 101.024 76.3154 101.024C79.0449 101.024 81.4782 101.479 83.6152 102.389C85.7734 103.299 87.4767 104.664 88.7251 106.483C89.9735 108.282 90.5977 110.546 90.5977 113.275V127.335C90.5977 129.578 90.7246 131.282 90.9785 132.445C91.2324 133.588 91.5921 134.593 92.0576 135.46V136H81.3301C80.8223 134.942 80.4414 133.651 80.1875 132.128C79.9548 130.583 79.8384 128.996 79.8384 127.367ZM81.1396 115.021L81.2031 120.734H76.4741C75.4797 120.734 74.6333 120.871 73.9351 121.146C73.258 121.422 72.7078 121.802 72.2847 122.289C71.8826 122.755 71.5864 123.284 71.396 123.876C71.2267 124.468 71.1421 125.093 71.1421 125.749C71.1421 126.383 71.2902 126.955 71.5864 127.462C71.9038 127.949 72.327 128.33 72.856 128.605C73.3849 128.88 73.9774 129.018 74.6333 129.018C75.8182 129.018 76.8232 128.795 77.6484 128.351C78.4948 127.886 79.1401 127.325 79.5845 126.669C80.0288 126.013 80.251 125.399 80.251 124.828L82.5996 129.208C82.1764 130.054 81.6898 130.911 81.1396 131.779C80.6107 132.646 79.9442 133.45 79.1401 134.191C78.3573 134.91 77.3945 135.503 76.252 135.968C75.1094 136.413 73.7235 136.635 72.0942 136.635C69.9784 136.635 68.0317 136.201 66.2544 135.333C64.4982 134.466 63.0911 133.26 62.0332 131.715C60.9753 130.15 60.4463 128.351 60.4463 126.32C60.4463 124.542 60.7637 122.956 61.3984 121.559C62.0544 120.163 63.0382 118.978 64.3501 118.004C65.6619 117.031 67.3335 116.291 69.3647 115.783C71.396 115.275 73.7869 115.021 76.5376 115.021H81.1396ZM107.038 108.991V136H96.3423V101.659H106.372L107.038 108.991ZM105.769 117.655L103.261 117.719C103.261 115.095 103.579 112.757 104.213 110.705C104.848 108.631 105.747 106.875 106.911 105.436C108.075 103.997 109.461 102.908 111.069 102.167C112.698 101.405 114.507 101.024 116.496 101.024C118.083 101.024 119.532 101.257 120.844 101.723C122.177 102.188 123.32 102.939 124.272 103.976C125.245 105.013 125.986 106.388 126.494 108.102C127.023 109.795 127.287 111.889 127.287 114.386V136H116.528V114.354C116.528 112.979 116.337 111.932 115.957 111.212C115.576 110.472 115.026 109.964 114.306 109.689C113.587 109.414 112.709 109.276 111.672 109.276C110.572 109.276 109.641 109.488 108.879 109.911C108.117 110.334 107.504 110.927 107.038 111.688C106.594 112.429 106.266 113.307 106.054 114.323C105.864 115.338 105.769 116.449 105.769 117.655ZM153.281 127.653V101.659H164.008V136H153.979L153.281 127.653ZM154.296 120.67L157.089 120.607C157.089 122.913 156.814 125.05 156.264 127.018C155.714 128.965 154.899 130.657 153.82 132.096C152.762 133.535 151.451 134.656 149.885 135.46C148.34 136.243 146.552 136.635 144.521 136.635C142.828 136.635 141.273 136.402 139.855 135.937C138.459 135.45 137.253 134.699 136.237 133.683C135.222 132.646 134.428 131.324 133.857 129.716C133.307 128.087 133.032 126.14 133.032 123.876V101.659H143.728V123.939C143.728 124.701 143.823 125.357 144.013 125.907C144.204 126.457 144.479 126.923 144.838 127.304C145.198 127.663 145.642 127.938 146.171 128.129C146.722 128.298 147.346 128.383 148.044 128.383C149.652 128.383 150.911 128.044 151.821 127.367C152.731 126.69 153.365 125.77 153.725 124.606C154.106 123.442 154.296 122.13 154.296 120.67ZM183.02 136H172.26V98.8662C172.26 96.2002 172.8 93.9574 173.879 92.1377C174.958 90.318 176.481 88.9427 178.449 88.0117C180.417 87.0596 182.744 86.5835 185.432 86.5835C186.363 86.5835 187.241 86.647 188.066 86.7739C188.891 86.9009 189.695 87.0596 190.478 87.25L190.51 95.1211C190.129 95.0153 189.737 94.9412 189.335 94.8989C188.933 94.8566 188.436 94.8354 187.844 94.8354C186.807 94.8354 185.929 94.9941 185.209 95.3115C184.49 95.6077 183.94 96.0627 183.559 96.6763C183.199 97.2687 183.02 97.9987 183.02 98.8662V136ZM189.685 101.659V109.086H167.309V101.659H189.685ZM211.362 127.367V113.212C211.362 112.239 211.224 111.403 210.949 110.705C210.674 110.006 210.24 109.467 209.648 109.086C209.056 108.684 208.262 108.483 207.268 108.483C206.464 108.483 205.776 108.62 205.205 108.896C204.633 109.171 204.2 109.583 203.903 110.133C203.607 110.683 203.459 111.382 203.459 112.228H192.763C192.763 110.641 193.112 109.171 193.811 107.816C194.53 106.441 195.546 105.246 196.857 104.23C198.19 103.214 199.777 102.431 201.618 101.881C203.48 101.31 205.554 101.024 207.839 101.024C210.568 101.024 213.002 101.479 215.139 102.389C217.297 103.299 219 104.664 220.249 106.483C221.497 108.282 222.121 110.546 222.121 113.275V127.335C222.121 129.578 222.248 131.282 222.502 132.445C222.756 133.588 223.116 134.593 223.581 135.46V136H212.854C212.346 134.942 211.965 133.651 211.711 132.128C211.478 130.583 211.362 128.996 211.362 127.367ZM212.663 115.021L212.727 120.734H207.998C207.003 120.734 206.157 120.871 205.458 121.146C204.781 121.422 204.231 121.802 203.808 122.289C203.406 122.755 203.11 123.284 202.919 123.876C202.75 124.468 202.666 125.093 202.666 125.749C202.666 126.383 202.814 126.955 203.11 127.462C203.427 127.949 203.85 128.33 204.379 128.605C204.908 128.88 205.501 129.018 206.157 129.018C207.342 129.018 208.347 128.795 209.172 128.351C210.018 127.886 210.664 127.325 211.108 126.669C211.552 126.013 211.774 125.399 211.774 124.828L214.123 129.208C213.7 130.054 213.213 130.911 212.663 131.779C212.134 132.646 211.468 133.45 210.664 134.191C209.881 134.91 208.918 135.503 207.775 135.968C206.633 136.413 205.247 136.635 203.618 136.635C201.502 136.635 199.555 136.201 197.778 135.333C196.022 134.466 194.615 133.26 193.557 131.715C192.499 130.15 191.97 128.351 191.97 126.32C191.97 124.542 192.287 122.956 192.922 121.559C193.578 120.163 194.562 118.978 195.874 118.004C197.185 117.031 198.857 116.291 200.888 115.783C202.919 115.275 205.31 115.021 208.061 115.021H212.663ZM242.561 128.383C243.555 128.383 244.401 128.203 245.1 127.843C245.819 127.462 246.359 126.933 246.718 126.256C247.099 125.558 247.279 124.722 247.258 123.749H257.319C257.34 126.33 256.705 128.594 255.415 130.541C254.145 132.466 252.41 133.969 250.209 135.048C248.03 136.106 245.565 136.635 242.814 136.635C240.127 136.635 237.779 136.201 235.769 135.333C233.758 134.445 232.076 133.218 230.722 131.652C229.389 130.065 228.384 128.214 227.707 126.098C227.051 123.982 226.723 121.686 226.723 119.21V118.48C226.723 116.005 227.051 113.709 227.707 111.593C228.384 109.456 229.389 107.605 230.722 106.039C232.076 104.452 233.748 103.225 235.737 102.357C237.747 101.469 240.085 101.024 242.751 101.024C245.607 101.024 248.125 101.564 250.305 102.643C252.505 103.722 254.23 105.288 255.478 107.34C256.726 109.393 257.34 111.879 257.319 114.799H247.258C247.279 113.762 247.12 112.831 246.782 112.006C246.443 111.181 245.914 110.525 245.195 110.038C244.497 109.53 243.597 109.276 242.497 109.276C241.397 109.276 240.508 109.52 239.831 110.006C239.154 110.493 238.636 111.17 238.276 112.038C237.937 112.884 237.705 113.857 237.578 114.958C237.472 116.058 237.419 117.232 237.419 118.48V119.21C237.419 120.48 237.472 121.675 237.578 122.797C237.705 123.897 237.948 124.87 238.308 125.717C238.667 126.542 239.186 127.198 239.863 127.685C240.54 128.15 241.439 128.383 242.561 128.383ZM279.98 101.659V109.086H259.287V101.659H279.98ZM263.635 93.1216H274.331V124.796C274.331 125.706 274.436 126.415 274.648 126.923C274.86 127.41 275.219 127.759 275.727 127.97C276.256 128.161 276.954 128.256 277.822 128.256C278.435 128.256 278.943 128.245 279.345 128.224C279.747 128.182 280.128 128.129 280.488 128.065V135.714C279.578 136.011 278.626 136.233 277.631 136.381C276.637 136.55 275.579 136.635 274.458 136.635C272.172 136.635 270.215 136.275 268.586 135.556C266.978 134.836 265.751 133.704 264.904 132.16C264.058 130.615 263.635 128.605 263.635 126.129V93.1216ZM304.292 127.653V101.659H315.019V136H304.99L304.292 127.653ZM305.307 120.67L308.1 120.607C308.1 122.913 307.825 125.05 307.275 127.018C306.725 128.965 305.91 130.657 304.831 132.096C303.773 133.535 302.461 134.656 300.896 135.46C299.351 136.243 297.563 136.635 295.532 136.635C293.839 136.635 292.284 136.402 290.866 135.937C289.47 135.45 288.264 134.699 287.248 133.683C286.232 132.646 285.439 131.324 284.868 129.716C284.318 128.087 284.042 126.14 284.042 123.876V101.659H294.738V123.939C294.738 124.701 294.833 125.357 295.024 125.907C295.214 126.457 295.489 126.923 295.849 127.304C296.209 127.663 296.653 127.938 297.182 128.129C297.732 128.298 298.356 128.383 299.055 128.383C300.663 128.383 301.922 128.044 302.832 127.367C303.741 126.69 304.376 125.77 304.736 124.606C305.117 123.442 305.307 122.13 305.307 120.67ZM331.713 110.165V136H321.018V101.659H331.015L331.713 110.165ZM341.87 101.405L341.679 111.339C341.256 111.297 340.685 111.244 339.965 111.181C339.246 111.117 338.643 111.085 338.156 111.085C336.908 111.085 335.829 111.234 334.919 111.53C334.03 111.805 333.29 112.228 332.697 112.799C332.126 113.349 331.703 114.048 331.428 114.894C331.174 115.74 331.057 116.724 331.079 117.846L329.143 116.576C329.143 114.27 329.365 112.175 329.809 110.292C330.275 108.388 330.931 106.748 331.777 105.373C332.623 103.976 333.649 102.908 334.855 102.167C336.062 101.405 337.416 101.024 338.918 101.024C339.447 101.024 339.965 101.056 340.473 101.12C341.002 101.183 341.468 101.278 341.87 101.405ZM361.547 136.635C358.754 136.635 356.258 136.201 354.057 135.333C351.857 134.445 349.995 133.228 348.471 131.684C346.969 130.139 345.816 128.362 345.012 126.352C344.229 124.341 343.837 122.215 343.837 119.972V118.766C343.837 116.248 344.187 113.921 344.885 111.784C345.583 109.625 346.62 107.742 347.995 106.134C349.37 104.526 351.095 103.278 353.168 102.389C355.242 101.479 357.654 101.024 360.405 101.024C362.838 101.024 365.017 101.416 366.943 102.199C368.868 102.982 370.498 104.103 371.831 105.563C373.185 107.023 374.211 108.79 374.909 110.863C375.629 112.937 375.988 115.264 375.988 117.846V122.194H347.932V115.497H365.546V114.672C365.568 113.529 365.367 112.556 364.943 111.752C364.541 110.948 363.949 110.334 363.166 109.911C362.383 109.488 361.431 109.276 360.31 109.276C359.146 109.276 358.183 109.53 357.421 110.038C356.681 110.546 356.099 111.244 355.676 112.133C355.274 113 354.988 114.005 354.819 115.148C354.65 116.291 354.565 117.497 354.565 118.766V119.972C354.565 121.242 354.734 122.395 355.073 123.432C355.432 124.468 355.94 125.357 356.596 126.098C357.273 126.817 358.077 127.378 359.008 127.78C359.96 128.182 361.04 128.383 362.246 128.383C363.706 128.383 365.144 128.108 366.562 127.558C367.98 127.007 369.196 126.098 370.212 124.828L375.068 130.604C374.37 131.599 373.375 132.562 372.084 133.493C370.815 134.424 369.292 135.185 367.514 135.778C365.737 136.349 363.748 136.635 361.547 136.635ZM391.127 110.165V136H380.432V101.659H390.429L391.127 110.165ZM401.284 101.405L401.093 111.339C400.67 111.297 400.099 111.244 399.379 111.181C398.66 111.117 398.057 111.085 397.57 111.085C396.322 111.085 395.243 111.234 394.333 111.53C393.444 111.805 392.704 112.228 392.111 112.799C391.54 113.349 391.117 114.048 390.842 114.894C390.588 115.74 390.472 116.724 390.493 117.846L388.557 116.576C388.557 114.27 388.779 112.175 389.223 110.292C389.689 108.388 390.345 106.748 391.191 105.373C392.037 103.976 393.063 102.908 394.27 102.167C395.476 101.405 396.83 101.024 398.332 101.024C398.861 101.024 399.379 101.056 399.887 101.12C400.416 101.183 400.882 101.278 401.284 101.405Z" fill="#004E93"/>
<path d="M139.362 19.7835C114.814 8.62753 55.6255 -6.99086 15.2573 19.7835C-2.4719 36.1689 -14.4732 68.103 79.3554 64.7562C100.721 64.7561 145.363 55.7616 153 19.7835" stroke="#FFE700" stroke-width="5"/>
</svg>
