<svg width="49" height="32" viewBox="0 0 49 32" fill="none" xmlns="http://www.w3.org/2000/svg">
<path d="M48.4884 0.0455596C48.5794 0.0934317 48.6477 0.175588 48.6785 0.274011C48.7093 0.372435 48.6999 0.479093 48.6525 0.570596L33.0352 30.7187L33.0161 30.7455C32.7019 31.1703 32.3642 31.3843 32.0113 31.3843C31.9516 31.3848 31.8919 31.3795 31.8332 31.3683C30.9594 31.1914 30.5397 29.6948 30.4589 29.3659C30.4589 29.3569 30.4545 29.3499 30.4513 29.341L25.7223 15.0615C25.706 15.013 25.6995 14.9617 25.7031 14.9107C25.7067 14.8596 25.7202 14.8098 25.7431 14.764C25.7659 14.7182 25.7975 14.6774 25.836 14.644C25.8746 14.6105 25.9194 14.585 25.9677 14.569H25.9747C26.0712 14.537 26.1764 14.5443 26.2676 14.5893C26.3589 14.6343 26.4288 14.7135 26.4625 14.8098L31.6939 29.7632C31.719 29.8345 31.7642 29.897 31.8241 29.943C31.8839 29.9889 31.9558 30.0164 32.0309 30.022C32.1061 30.0276 32.1812 30.0112 32.2472 29.9746C32.3131 29.9381 32.3671 29.883 32.4024 29.8162L47.9631 0.207797C47.9868 0.162572 48.0191 0.122481 48.0583 0.0898159C48.0974 0.0571511 48.1426 0.0325527 48.1912 0.0174265C48.2398 0.00230036 48.2909 -0.00305687 48.3416 0.00166073C48.3922 0.00637834 48.4415 0.0210783 48.4865 0.0449207L48.4884 0.0455596Z" fill="#FB1023"/>
<path d="M29.6768 31.0243L29.5878 30.742L20.3053 1.57051C20.2625 1.43608 20.1782 1.3188 20.0647 1.23557C19.9512 1.15235 19.8143 1.10747 19.6738 1.10743H9.68478C9.54266 1.10685 9.40413 1.15216 9.28962 1.2367C9.1751 1.32123 9.09069 1.4405 9.04882 1.57689L2.61925 22.5317L1.29073 26.9006L0.44045 29.6606L0.00227305 31.0901C-0.0161698 31.1955 0.0836759 31.1661 0.0836759 31.1661L7.93016 31.1718C8.1324 31.1718 8.11395 31.0664 8.11395 31.0664L9.16901 27.3618L9.75473 25.3473C9.75628 25.3332 9.76094 25.3198 9.76835 25.3078C9.77577 25.2958 9.78576 25.2857 9.79759 25.2781C9.80942 25.2705 9.82279 25.2656 9.83672 25.2639C9.85065 25.2622 9.86479 25.2636 9.87811 25.2681H19.1288C19.2496 25.2502 19.2681 25.3319 19.2681 25.3319L19.3259 25.5274L20.9953 31.0588C21.0297 31.2038 21.216 31.1667 21.216 31.1667H29.5903C29.7188 31.1661 29.6768 31.0243 29.6768 31.0243ZM17.6928 18.935H11.3058C11.0985 18.935 11.185 18.7504 11.185 18.7504L14.2224 6.7174H14.5562L17.7322 18.7524C17.7876 18.9587 17.6928 18.935 17.6928 18.935Z" fill="#184F92"/>
</svg>
