<?xml version="1.0" encoding="utf-8"?>
<!-- Generator: Adobe Illustrator 25.4.1, SVG Export Plug-In . SVG Version: 6.00 Build 0)  -->
<svg version="1.1" id="Layer_1" xmlns="http://www.w3.org/2000/svg" xmlns:xlink="http://www.w3.org/1999/xlink" x="0px" y="0px"
	 viewBox="0 0 2113.9 513.4" style="enable-background:new 0 0 2113.9 513.4;" xml:space="preserve">
<style type="text/css">
	.st0{fill:#184F92;}
	.st1{fill:#FB1023;}
</style>
<path class="st0" d="M2091.6,397.6c0,29.3-11,51.7-32.7,66.6c-18.3,12.6-43.8,19.2-73.7,19.2c-38.1,0-75.1-13.7-99-36.6
	c-2-1.9-3.1-4.5-3.1-7.3c0-2.7,1.2-5.3,3.2-7.2l30.7-28.8c4-3.7,10.4-3.5,14.1,0.5c14.6,15.8,35.1,24.7,56.6,24.7
	c6.1,0,36.3-1.2,36.3-26c0-17.8-16.5-23.5-54.1-32.3c-37.5-9-75.8-24.7-75.8-73.3c0-26.5,11.2-48.2,32.3-62.8
	c18-12.5,42.7-19.4,69.5-19.4c36.7,0,70.6,12.5,90.6,33.5c3.8,4,3.6,10.3-0.4,14.1c-0.1,0.1-0.1,0.1-0.2,0.2l-30.2,26.7
	c-4,3.6-10.2,3.3-13.9-0.7c-12.1-12.8-30.3-20.8-47.5-20.8c-17.6,0-36.3,6.2-36.3,23.5c0,16.3,16.6,21,51,29.2
	c15.4,3.7,37.8,10,54.9,22.5C2082.3,356.6,2091.6,374.8,2091.6,397.6z"/>
<path class="st1" d="M785.3,9.7c3,1.6,4.1,5.2,2.6,8.2l-245.6,472l-0.3,0.4c-4.9,6.7-10.2,10-15.8,10c-0.9,0-1.9-0.1-2.8-0.2
	c-13.7-2.8-20.3-26.2-21.6-31.4c0-0.1-0.1-0.2-0.1-0.4l-74.4-223.6c-1.1-3.2,0.6-6.6,3.8-7.7c0,0,0,0,0,0h0.1c3.2-1,6.6,0.6,7.7,3.8
	L521.2,475c1.1,3.2,4.6,4.8,7.8,3.7c1.4-0.5,2.6-1.5,3.4-2.9L777,12.3C778.6,9.3,782.3,8.1,785.3,9.7C785.2,9.7,785.2,9.7,785.3,9.7
	L785.3,9.7z"/>
<path class="st0" d="M1665.4,271.9c-27.8-49.9-79.7-51.5-79.7-51.5c-80.8-9.5-115.1,43.1-115.1,43.1c-48.8,76.2-15.7,151-15.7,151
	c31.7,80.4,115.5,71.3,115.5,71.3c90.8-4.6,109.4-86.2,109.4-86.2C1699.8,321.1,1665.4,271.9,1665.4,271.9z M1609,396.6
	c0,0-17.1,47.3-61,28.6c0,0-37.7-10.3-34.3-83.9c0,0,0-27.1,15.2-51c0,0,20.2-25.2,56.1-11.5c0,0,22.4,9.1,27.8,40
	C1612.8,318.8,1622.7,360.4,1609,396.6z"/>
<path class="st0" d="M869,272.9c-45.2-78.3-133.7-49.3-133.7-49.3c-98.6,30.1-82.8,141.7-82.8,141.7c10.7,146.9,136.2,121,136.2,121
	c63.6-10.2,88.7-68.4,88.7-68.4c8.4-15,2-14.5,2-14.5l-58.2,1c-9.1,0-9.1,2-9.1,2l-1,4.1c-16.8,27-50.9,19.3-50.9,19.3
	c-38.6-9.7-37.6-61.7-37.6-61.7h156.8c7.1,0,6-11.3,6-11.3C889.1,305.9,869,272.9,869,272.9z M815.9,324.9h-92.3
	c-0.2-58.1,46.5-54.6,46.5-54.6C819.7,271.5,815.9,324.9,815.9,324.9L815.9,324.9z"/>
<path class="st0" d="M489.5,494.7l-1.4-4.4l-146-456.7c-1.4-4.3-5.4-7.2-9.9-7.2H175.1c-4.6,0-8.6,3-10,7.3L64,361.8l-20.9,68.4
	l-13.4,43.2l-6.9,22.4c-0.3,1.7,1.3,1.2,1.3,1.2l123.4,0.1c3.2,0,2.9-1.7,2.9-1.7l16.6-58l9.2-31.5c0.1-0.8,0.8-1.4,1.6-1.3
	c0.1,0,0.2,0,0.3,0.1h145.5c1.9-0.3,2.2,1,2.2,1l0.9,3.1l26.2,86.6c0.5,2.3,3.5,1.7,3.5,1.7h131.7
	C490.1,496.9,489.5,494.7,489.5,494.7z M301,305.4H200.6c-3.3,0-1.9-2.9-1.9-2.9l47.8-188.4h5.2l49.9,188.4
	C302.5,305.8,301,305.4,301,305.4z"/>
<path class="st0" d="M1865.4,224.6v58.1c0,0,0,5.2-4.8,4.8c0,0-32-3-52.4,14.4s-21.3,54.3-20.9,74.1l-0.4,101.9c0,0,0.3,2.1-1.1,2.1
	h-64.6c0,0-2,0.6-1.7-1.9V235.7c0-5.8,4.7-10.4,10.4-10.4l0,0h45.8c5.8,0,10.5,4.6,10.5,10.4c0,0,0,0,0,0.1V250l0.7,21.1
	c0,0,9-29.8,40-43.3c9.4-4.2,19.6-6.8,29.9-7.5C1856.9,220.3,1865.4,219.7,1865.4,224.6z"/>
<path class="st0" d="M1137.9,308.5V480h-66.6V323.2c0,0,1-46.2-38.6-46.2c0,0-46.4-6.1-46.4,46.2V480h-69.5V234.7
	c0-5.8,4.7-10.4,10.4-10.4h48.6c5.8,0,10.4,4.7,10.4,10.4c0,0,0,0,0,0v23.4c0,0,18-46.8,84.1-38.1
	C1070.3,220,1137.9,226.6,1137.9,308.5z"/>
<path class="st0" d="M1410.4,162.3v-30c0-5.8-4.7-10.4-10.4-10.4c0,0,0,0,0,0h-47.2c-5.8,0-10.4,4.7-10.4,10.4c0,0,0,0,0,0v112.2
	c0,0-14.1-30.5-76.6-23.2c0,0-58.4,3.7-83.6,71.5c0,0-20.3,47.5-3.3,117.4c0,0,19,74.4,91.5,76.5c0,0,52.9,3.5,71.9-32.3l1.7,18.6
	c0,0,0.2,7,2.5,7h60.2c0,0,4,1.2,4-5.3L1410.4,162.3z M1292,431.5c-29.4,0-53.4-35.3-53.4-78.8s24-78.8,53.4-78.8
	s53.4,35.2,53.4,78.8S1321.5,431.5,1292,431.5z"/>
</svg>
