<svg width="132" height="43" viewBox="0 0 132 43" fill="none" xmlns="http://www.w3.org/2000/svg">
<g clip-path="url(#clip0_273_2)">
<path d="M131.568 24.8199C131.568 26.6888 130.868 28.1202 129.489 29.0738C128.327 29.8761 126.706 30.3008 124.8 30.3008C122.377 30.3008 120.024 29.4264 118.504 27.9612C118.442 27.9009 118.392 27.8286 118.358 27.7486C118.325 27.6686 118.307 27.5825 118.308 27.4955C118.308 27.4094 118.326 27.3243 118.361 27.2454C118.395 27.1665 118.445 27.0955 118.508 27.0369L120.462 25.198C120.586 25.0831 120.75 25.0222 120.918 25.0287C121.087 25.0352 121.246 25.1085 121.36 25.2325C121.82 25.7309 122.377 26.1284 122.997 26.4003C123.617 26.6721 124.286 26.8123 124.962 26.8121C125.348 26.8121 127.273 26.7323 127.273 25.1514C127.273 24.0119 126.224 23.6472 123.832 23.0877C121.449 22.5128 119.014 21.51 119.014 18.4032C119.014 16.7125 119.724 15.3239 121.068 14.3888C122.213 13.5916 123.781 13.1528 125.486 13.1528C127.821 13.1528 129.976 13.9525 131.251 15.2913C131.31 15.3533 131.356 15.4264 131.386 15.5064C131.416 15.5865 131.429 15.6717 131.426 15.7571C131.422 15.8425 131.402 15.9264 131.366 16.0037C131.329 16.081 131.278 16.1502 131.215 16.2072L129.292 17.9152C129.169 18.0252 129.007 18.0824 128.843 18.0744C128.678 18.0664 128.523 17.9939 128.411 17.8724C127.642 17.0523 126.484 16.5426 125.388 16.5426C124.271 16.5426 123.077 16.9367 123.077 18.041C123.077 19.0828 124.131 19.3824 126.32 19.9068C127.298 20.1418 128.724 20.5455 129.809 21.3452C130.977 22.2011 131.568 23.3674 131.568 24.8199Z" fill="#184F92"/>
<path d="M48.4888 0.0453155C48.5798 0.0931875 48.6482 0.175343 48.6789 0.273767C48.7097 0.372191 48.7003 0.478849 48.6529 0.570352L33.0356 30.7185L33.0165 30.7453C32.7024 31.17 32.3647 31.384 32.0117 31.384C31.952 31.3846 31.8923 31.3792 31.8336 31.368C30.9598 31.1911 30.5401 29.6946 30.4593 29.3656C30.4593 29.3567 30.4549 29.3497 30.4517 29.3407L25.7227 15.0612C25.7065 15.0127 25.7 14.9615 25.7035 14.9104C25.7071 14.8594 25.7207 14.8095 25.7435 14.7637C25.7663 14.718 25.7979 14.6772 25.8365 14.6437C25.875 14.6103 25.9198 14.5848 25.9682 14.5688H25.9752C26.0717 14.5367 26.1768 14.544 26.2681 14.589C26.3593 14.6341 26.4293 14.7133 26.463 14.8096L31.6944 29.7629C31.7194 29.8343 31.7647 29.8967 31.8245 29.9427C31.8844 29.9887 31.9562 30.0162 32.0314 30.0218C32.1065 30.0274 32.1816 30.0109 32.2476 29.9744C32.3136 29.9378 32.3675 29.8828 32.4028 29.8159L47.9635 0.207553C47.9872 0.162327 48.0196 0.122237 48.0587 0.0895718C48.0978 0.056907 48.143 0.0323086 48.1916 0.0171824C48.2402 0.00205622 48.2913 -0.00330101 48.342 0.00141659C48.3927 0.0061342 48.4419 0.0208341 48.4869 0.0446766L48.4888 0.0453155Z" fill="#FB1023"/>
<path d="M104.462 16.7948C102.693 13.6043 99.3956 13.5072 99.3956 13.5072C94.2564 12.8991 92.0763 16.2576 92.0763 16.2576C88.9728 21.1273 91.0791 25.9024 91.0791 25.9024C93.0925 31.041 98.4257 30.4566 98.4257 30.4566C104.198 30.164 105.385 24.9514 105.385 24.9514C106.647 19.9354 104.462 16.7948 104.462 16.7948ZM100.875 24.7559C100.875 24.7559 99.7848 27.7752 96.9954 26.5827C96.9954 26.5827 94.5979 25.9241 94.8154 21.2256C94.8154 21.2256 94.8154 19.496 95.7852 17.9681C95.7852 17.9681 97.0692 16.3591 99.3498 17.2361C99.3498 17.2361 100.777 17.8206 101.118 19.791C101.119 19.7872 101.748 22.4443 100.875 24.7559Z" fill="#184F92"/>
<path d="M53.815 16.8573C50.9373 11.8547 45.3122 13.7096 45.3122 13.7096C39.0404 15.6303 40.0445 22.7636 40.0445 22.7636C40.7237 32.1485 48.7063 30.4923 48.7063 30.4923C52.7485 29.842 54.3479 26.1259 54.3479 26.1259C54.8834 25.1678 54.4751 25.1985 54.4751 25.1985L50.7745 25.2623C50.1932 25.2623 50.1932 25.3901 50.1932 25.3901L50.1296 25.6507C49.0631 27.3752 46.8945 26.886 46.8945 26.886C44.439 26.2664 44.5052 22.9469 44.5052 22.9469H54.4751C54.9292 22.9469 54.8567 22.2226 54.8567 22.2226C55.0952 18.9612 53.815 16.8573 53.815 16.8573ZM50.4368 20.1787H44.5675C44.5522 16.4657 47.5272 16.6918 47.5272 16.6918C50.6772 16.764 50.4368 20.1767 50.4368 20.1767V20.1787Z" fill="#184F92"/>
<path d="M29.6771 31.0238L29.5881 30.7415L20.3056 1.57002C20.2627 1.4356 20.1785 1.31831 20.065 1.23509C19.9515 1.15186 19.8146 1.10699 19.6741 1.10694H9.68505C9.54294 1.10636 9.4044 1.15168 9.28989 1.23621C9.17538 1.32074 9.09096 1.44001 9.04909 1.57641L2.61953 22.5312L1.291 26.9002L0.440725 29.6601L0.0025477 31.0896C-0.0158952 31.195 0.0839506 31.1656 0.0839506 31.1656L7.93043 31.1714C8.13267 31.1714 8.11423 31.066 8.11423 31.066L9.16929 27.3613L9.75501 25.3468C9.75656 25.3328 9.76121 25.3193 9.76863 25.3073C9.77604 25.2953 9.78603 25.2852 9.79786 25.2776C9.80969 25.27 9.82306 25.2651 9.83699 25.2634C9.85093 25.2617 9.86507 25.2631 9.87838 25.2676H19.1291C19.2499 25.2497 19.2683 25.3314 19.2683 25.3314L19.3262 25.5269L20.9956 31.0583C21.03 31.2033 21.2163 31.1662 21.2163 31.1662H29.5906C29.7191 31.1656 29.6771 31.0238 29.6771 31.0238ZM17.6931 18.9345H11.3061C11.0988 18.9345 11.1853 18.75 11.1853 18.75L14.2226 6.71691H14.5565L17.7325 18.7519C17.7878 18.9582 17.6931 18.9345 17.6931 18.9345Z" fill="#184F92"/>
<path d="M117.184 13.7698V17.4821C117.184 17.4821 117.184 17.8168 116.882 17.7855C116.882 17.7855 114.847 17.5938 113.548 18.7052C112.25 19.8166 112.191 22.1755 112.22 23.4408L112.196 29.9475C112.196 29.9475 112.215 30.0823 112.128 30.0823H108.023C108.023 30.0823 107.896 30.1194 107.916 29.9635V14.4781C107.916 14.3014 107.985 14.132 108.11 14.007C108.234 13.8821 108.403 13.8119 108.579 13.8119H111.489C111.576 13.8113 111.663 13.8281 111.744 13.8613C111.825 13.8946 111.899 13.9435 111.961 14.0055C112.023 14.0674 112.072 14.141 112.106 14.2221C112.139 14.3033 112.157 14.3903 112.157 14.4781V15.3941L112.199 16.7411C112.199 16.7411 112.771 14.8345 114.743 13.9754C115.343 13.7058 115.986 13.5435 116.643 13.4958C116.643 13.4958 117.184 13.4561 117.184 13.7698Z" fill="#184F92"/>
<path d="M70.9128 19.1275V30.0849H66.6786V20.0684C66.6786 20.0684 66.7422 17.1155 64.2212 17.1155C64.2212 17.1155 61.2684 16.7252 61.2684 20.0684V30.0849H56.8498V14.4175C56.8498 14.2408 56.9197 14.0714 57.0441 13.9464C57.1685 13.8215 57.3372 13.7513 57.5131 13.7513H60.6045C60.6917 13.7512 60.778 13.7684 60.8585 13.8018C60.9391 13.8353 61.0123 13.8843 61.0739 13.9462C61.1356 14.0081 61.1845 14.0815 61.2179 14.1624C61.2513 14.2433 61.2684 14.33 61.2684 14.4175V15.9134C61.2684 15.9134 62.4132 12.9261 66.6156 13.4798C66.6156 13.4798 70.9128 13.9014 70.9128 19.1275Z" fill="#184F92"/>
<path d="M88.2446 9.78844V7.87225C88.2446 7.69556 88.1747 7.52611 88.0503 7.40118C87.9259 7.27624 87.7572 7.20605 87.5813 7.20605H84.5796C84.4037 7.20605 84.2349 7.27624 84.1106 7.40118C83.9862 7.52611 83.9163 7.69556 83.9163 7.87225V15.0375C83.9163 15.0375 83.0208 13.0894 79.0435 13.5531C79.0435 13.5531 75.3289 13.7882 73.7275 18.1226C73.7275 18.1226 72.4334 21.1572 73.5177 25.6239C73.5177 25.6239 74.726 30.3747 79.3348 30.5095C79.3348 30.5095 82.6978 30.7331 83.908 28.4477L84.0129 29.6364C84.0129 29.6364 84.0263 30.0835 84.1732 30.0835H88.0004C88.0004 30.0835 88.2548 30.1576 88.2548 29.7437L88.2446 9.78844ZM80.7155 26.9869C78.8439 26.9869 77.3207 24.7296 77.3207 21.9537C77.3207 19.1778 78.847 16.9205 80.7155 16.9205C82.5839 16.9205 84.1096 19.172 84.1096 21.9537C84.1096 24.7354 82.5897 26.9869 80.7155 26.9869Z" fill="#184F92"/>
<path d="M0.333889 36.9122C0.333889 36.3597 0.323078 35.9069 0.290009 35.4649H1.13711L1.18099 36.3265H1.21406C1.51105 35.8187 2.00647 35.3435 2.886 35.3435C3.61227 35.3435 4.16237 35.7855 4.39323 36.4153H4.41549C4.56269 36.144 4.76507 35.9068 5.00947 35.7191C5.32745 35.4764 5.68041 35.3435 6.18664 35.3435C6.89064 35.3435 7.93553 35.8072 7.93553 37.6634V40.8123H6.98922V37.786C6.98922 36.7583 6.61527 36.1394 5.83431 36.1394C5.28421 36.1394 4.85557 36.5482 4.68958 37.0234C4.63926 37.1805 4.6133 37.3444 4.61263 37.5094V40.813H3.66759V37.6084C3.66759 36.7577 3.29301 36.1394 2.55657 36.1394C1.95114 36.1394 1.51105 36.6261 1.35715 37.1122C1.30334 37.2644 1.27728 37.4252 1.2802 37.5867V40.813H0.333889V36.9122Z" fill="#1D5091"/>
<path d="M20.0474 40.8122L19.9704 40.1384H19.9374C19.6404 40.558 19.068 40.9336 18.3093 40.9336C17.2314 40.9336 16.6812 40.1716 16.6812 39.4006C16.6812 38.1079 17.826 37.4008 19.882 37.4123V37.3018C19.882 36.8598 19.7612 36.0639 18.6737 36.0639C18.1839 36.0656 17.7041 36.2033 17.2873 36.4618L17.0673 35.8231C17.5074 35.5357 18.1484 35.3479 18.8168 35.3479C20.4449 35.3479 20.8404 36.4638 20.8404 37.5356V39.5354C20.8334 39.9643 20.863 40.3929 20.9288 40.8167L20.0474 40.8122ZM19.9043 38.0836C18.848 38.0612 17.6492 38.249 17.6492 39.2876C17.6492 39.9174 18.067 40.2157 18.5624 40.2157C18.8437 40.223 19.12 40.1404 19.3514 39.9796C19.5828 39.8189 19.7573 39.5884 19.8496 39.3214C19.8834 39.2218 19.9018 39.1175 19.9043 39.0123V38.0836Z" fill="#1D5091"/>
<path d="M29.9906 37.1333C29.9906 36.5036 29.9798 35.9625 29.9467 35.465H30.7938L30.8269 36.515H30.8708C31.1125 35.7965 31.6975 35.3436 32.345 35.3436C32.4376 35.3423 32.53 35.3534 32.6197 35.3768V36.294C32.5113 36.2702 32.4006 36.2591 32.2896 36.2608C31.6079 36.2608 31.1239 36.7801 30.9916 37.5089C30.9644 37.6586 30.9497 37.8103 30.9477 37.9624V40.8124H29.9906V37.1333Z" fill="#1D5091"/>
<path d="M42.1807 37.9175H42.2011C42.3334 37.7298 42.5191 37.4979 42.6742 37.3101L44.2362 35.4648H45.4025L43.3458 37.6633L45.6893 40.8123H44.5128L42.6755 38.249L42.1807 38.8015V40.8123H41.2268V32.968H42.1807V37.9175Z" fill="#1D5091"/>
<path d="M54.512 38.3155C54.5343 39.63 55.3705 40.1717 56.3385 40.1717C57.031 40.1717 57.4495 40.0503 57.8126 39.8957L57.9774 40.5913C57.6365 40.7459 57.0533 40.9228 56.2062 40.9228C54.5673 40.9228 53.588 39.837 53.588 38.2274C53.588 36.6178 54.5343 35.3435 56.0854 35.3435C57.8234 35.3435 58.2852 36.8765 58.2852 37.8627C58.2837 38.0142 58.2726 38.1654 58.2521 38.3155H54.512ZM57.3503 37.6193C57.3611 37.001 57.0959 36.0397 56.0084 36.0397C55.029 36.0397 54.6004 36.9454 54.5235 37.6193H57.3503Z" fill="#1D5091"/>
<path d="M68.2411 33.9294V35.4624H69.6269V36.2027H68.2411V39.0891C68.2411 39.7521 68.4281 40.1277 68.9667 40.1277C69.1559 40.1312 69.3447 40.1098 69.5283 40.0638L69.5722 40.7932C69.3852 40.8705 69.0882 40.9255 68.7143 40.9255C68.2627 40.9255 67.9002 40.7817 67.6687 40.5167C67.394 40.2292 67.2948 39.7547 67.2948 39.1249V36.2052H66.468V35.465H67.2948V34.1837L68.2411 33.9294Z" fill="#1D5091"/>
<path d="M78.3065 37.2112C78.3065 36.5265 78.2849 35.974 78.2626 35.4656H79.1313L79.1758 36.3828H79.1975C79.5937 35.7307 80.2207 35.3442 81.0894 35.3442C82.3766 35.3442 83.3446 36.4377 83.3446 38.062C83.3446 39.9846 82.1788 40.9363 80.9279 40.9363C80.2239 40.9363 79.6077 40.6272 79.289 40.097H79.2668V43.0026H78.3128L78.3065 37.2112ZM79.2604 38.6369C79.2631 38.7704 79.2778 38.9034 79.3043 39.0342C79.3849 39.3596 79.5717 39.6485 79.8348 39.8548C80.098 40.0611 80.4224 40.1729 80.7562 40.1724C81.7795 40.1724 82.3734 39.3325 82.3734 38.1061C82.3734 37.035 81.8125 36.1177 80.7893 36.1177C80.1291 36.1177 79.5135 36.593 79.3266 37.3217C79.2885 37.4511 79.2671 37.5848 79.263 37.7197L79.2604 38.6369Z" fill="#1D5091"/>
<path d="M92.1564 32.968H93.1243V40.8123H92.1564V32.968Z" fill="#1D5091"/>
<path d="M105.288 40.8122L105.211 40.1384H105.178C104.881 40.558 104.309 40.9336 103.55 40.9336C102.469 40.9336 101.922 40.1716 101.922 39.4006C101.922 38.1079 103.067 37.4008 105.123 37.4123V37.3018C105.123 36.8598 105.002 36.0639 103.915 36.0639C103.425 36.0656 102.945 36.2033 102.528 36.4618L102.308 35.8231C102.748 35.5357 103.386 35.3479 104.058 35.3479C105.686 35.3479 106.081 36.4638 106.081 37.5356V39.5354C106.074 39.9643 106.104 40.3929 106.17 40.8167L105.288 40.8122ZM105.145 38.0836C104.089 38.0612 102.89 38.249 102.89 39.2876C102.89 39.9174 103.308 40.2157 103.803 40.2157C104.085 40.2231 104.361 40.1405 104.592 39.9798C104.824 39.819 104.998 39.5884 105.091 39.3214C105.124 39.2218 105.143 39.1175 105.145 39.0123V38.0836Z" fill="#1D5091"/>
<path d="M119.031 40.6138C118.776 40.746 118.217 40.9229 117.505 40.9229C115.899 40.9229 114.854 39.8294 114.854 38.1943C114.854 36.5476 115.976 35.3545 117.716 35.3545C118.288 35.3545 118.797 35.4982 119.058 35.6311L118.834 36.3809C118.603 36.2481 118.24 36.1254 117.712 36.1254C116.491 36.1254 115.831 37.0318 115.831 38.1477C115.831 39.3849 116.623 40.1469 117.679 40.1469C118.09 40.149 118.496 40.0584 118.867 39.8818L119.031 40.6138Z" fill="#1D5091"/>
<path d="M128.227 38.3155C128.249 39.63 129.085 40.1717 130.053 40.1717C130.746 40.1717 131.164 40.0503 131.527 39.8957L131.692 40.5913C131.351 40.7459 130.768 40.9228 129.921 40.9228C128.282 40.9228 127.303 39.837 127.303 38.2274C127.303 36.6178 128.249 35.3435 129.8 35.3435C131.538 35.3435 132.001 36.8765 132.001 37.8627C131.999 38.0142 131.988 38.1654 131.967 38.3155H128.227ZM131.065 37.6193C131.077 37.001 130.811 36.0397 129.723 36.0397C128.744 36.0397 128.315 36.9454 128.238 37.6193H131.065Z" fill="#1D5091"/>
</g>
<defs>
<clipPath id="clip0_273_2">
<rect width="132" height="43" fill="white"/>
</clipPath>
</defs>
</svg>
