<?xml version="1.0" encoding="utf-8"?>
<!-- Generator: Adobe Illustrator 26.2.1, SVG Export Plug-In . SVG Version: 6.00 Build 0)  -->
<svg version="1.1" id="Layer_1" xmlns="http://www.w3.org/2000/svg" xmlns:xlink="http://www.w3.org/1999/xlink" x="0px" y="0px"
	 viewBox="0 0 3069.3 769.6" style="enable-background:new 0 0 3069.3 769.6;" xml:space="preserve">
<style type="text/css">
	.st0{display:none;}
	.st1{display:inline;}
	.st2{fill:#0B4E90;}
	.st3{display:inline;fill:#EE2C43;}
	.st4{display:inline;fill:#0B4E90;}
	.st5{fill:#EE2C43;}
</style>
<g id="L-1" class="st0">
	<g class="st1">
		<g>
			<path class="st2" d="M2729.4,890.8c0,14.1-5.3,25-15.8,32.2c-8.8,6.1-21.1,9.3-35.6,9.3c-18.4,0-36.3-6.6-47.8-17.7
				c-1-0.9-1.5-2.2-1.5-3.5c0-1.3,0.6-2.6,1.5-3.5l14.9-13.9c0.9-0.9,2.2-1.3,3.5-1.3c1.3,0.1,2.5,0.6,3.4,1.6c7,7.6,17,12,27.4,12
				c2.9,0,17.6-0.6,17.6-12.6c0-8.6-8-11.4-26.1-15.6c-18.1-4.3-36.6-11.9-36.6-35.4c0-12.8,5.4-23.3,15.6-30.4
				c8.7-6,20.6-9.3,33.6-9.3c17.8,0,34.1,6.1,43.8,16.2c0.9,0.9,1.4,2.2,1.3,3.5c-0.1,1.3-0.6,2.5-1.6,3.4l-14.6,12.9
				c-2,1.7-4.9,1.6-6.7-0.3c-5.8-6.2-14.6-10.1-23-10.1c-8.5,0-17.6,3-17.6,11.3c0,7.9,8,10.1,24.7,14.1c7.4,1.8,18.3,4.8,26.5,10.9
				C2724.9,871,2729.4,879.9,2729.4,890.8z"/>
		</g>
	</g>
	<path class="st3" d="M2097.9,703.4c1.4,0.8,2,2.5,1.2,4l-118.7,228.2l-0.2,0.2c-2.4,3.2-4.9,4.8-7.6,4.8c-0.4,0-0.9,0-1.4-0.1
		c-6.6-1.3-9.8-12.7-10.4-15.2c0-0.1,0-0.1-0.1-0.2L1924.8,817c-0.5-1.6,0.3-3.2,1.9-3.7l0.1,0c1.5-0.5,3.2,0.3,3.7,1.8l39.8,113.2
		c0.8,2.4,4.2,2.7,5.4,0.4l118.3-224.1C2094.7,703.1,2096.4,702.6,2097.9,703.4L2097.9,703.4z"/>
	<path class="st4" d="M2523.3,830.1c-13.4-24.2-38.5-24.9-38.5-24.9c-39.1-4.6-55.6,20.8-55.6,20.8c-23.6,36.8-7.6,73-7.6,73
		c15.3,38.9,55.8,34.5,55.8,34.5c43.9-2.2,52.9-41.7,52.9-41.7C2539.9,853.9,2523.3,830.1,2523.3,830.1z M2496.1,890.3
		c0,0-8.3,22.8-29.5,13.8c0,0-18.2-5-16.6-40.5c0,0,0-13.1,7.4-24.7c0,0,9.8-12.2,27.1-5.5c0,0,10.9,4.4,13.4,19.3
		C2497.9,852.8,2502.7,872.9,2496.1,890.3z"/>
	<path class="st4" d="M2138.4,830.6c-21.9-37.9-64.6-23.8-64.6-23.8c-47.7,14.5-40,68.5-40,68.5c5.2,71,65.8,58.5,65.8,58.5
		c30.7-4.9,42.9-33.1,42.9-33.1c4.1-7.2,1-7,1-7l-28.1,0.5c-4.4,0-4.4,1-4.4,1l-0.5,2c-8.1,13-24.6,9.3-24.6,9.3
		c-18.7-4.7-18.2-29.8-18.2-29.8h75.8c3.4,0,2.9-5.5,2.9-5.5C2148.1,846.5,2138.4,830.6,2138.4,830.6z M2112.7,855.7h-44.6
		c-0.1-28.1,22.5-26.4,22.5-26.4C2114.5,829.9,2112.7,855.7,2112.7,855.7z"/>
	<path class="st4" d="M1954.9,937.8l-0.7-2.1l-70.6-220.8c-0.7-2.1-2.6-3.5-4.8-3.5H1803c-2.2,0-4.2,1.4-4.8,3.6l-48.9,158.6
		l-10.1,33.1l-6.5,20.9l-3.3,10.8c-0.1,0.8,0.6,0.6,0.6,0.6l59.6,0c1.5,0,1.4-0.8,1.4-0.8l8-28l4.4-15.2c0.2-0.8,0.9-0.6,0.9-0.6
		h70.3c0.9-0.1,1.1,0.5,1.1,0.5l0.4,1.5l12.7,41.9c0.3,1.1,1.7,0.8,1.7,0.8h63.7C1955.2,938.9,1954.9,937.8,1954.9,937.8z
		 M1863.8,846.3h-48.6c-1.6,0-0.9-1.4-0.9-1.4l23.1-91.1h2.5l24.1,91.1C1864.6,846.5,1863.8,846.3,1863.8,846.3z"/>
	<path class="st4" d="M2620,807.2v28.1c0,0,0,2.5-2.3,2.3c0,0-15.5-1.5-25.3,7c-9.9,8.4-10.3,26.3-10.1,35.8l-0.2,49.2
		c0,0,0.1,1-0.5,1h-31.2c0,0-1,0.3-0.8-0.9V812.6c0-2.8,2.3-5,5-5h22.1c2.8,0,5,2.3,5,5v6.9l0.3,10.2c0,0,4.3-14.4,19.3-20.9
		c0,0,6.5-3.1,14.4-3.6C2615.9,805.1,2620,804.8,2620,807.2z"/>
	<path class="st4" d="M2268.3,847.8v82.9h-32.2v-75.8c0,0,0.5-22.3-18.7-22.3c0,0-22.4-2.9-22.4,22.3v75.8h-33.6V812.1
		c0-2.8,2.3-5,5-5h23.5c2.8,0,5,2.3,5,5v11.3c0,0,8.7-22.6,40.6-18.4C2235.7,805,2268.3,808.2,2268.3,847.8z"/>
	<path class="st4" d="M2400.1,777.1v-14.5c0-2.8-2.3-5-5-5h-22.8c-2.8,0-5,2.3-5,5v14.5c0,16.2,0,39.7,0,39.7s-6.8-14.7-37-11.2
		c0,0-28.2,1.8-40.4,34.6c0,0-9.8,23-1.6,56.8c0,0,9.2,36,44.2,37c0,0,25.6,1.7,34.8-15.6l0.8,9c0,0,0.1,3.4,1.2,3.4h29.1
		c0,0,2,0.6,2-2.6L2400.1,777.1z M2342.8,907.2c-14.2,0-25.8-17.1-25.8-38.1c0-21.1,11.6-38.1,25.8-38.1c14.2,0,25.8,17,25.8,38.1
		C2368.6,890.2,2357.1,907.2,2342.8,907.2z"/>
	<path class="st4" d="M1774.2,1030.3h-0.2c-3.1,5.8-10.3,10.4-19.4,10.4c-14.1,0-25.2-11.6-25.2-27c0-15.6,10.7-27,26.5-27
		c7.3,0,13.5,3.3,18.1,8.8h0.2v-39.1h8.4v83h-8.4L1774.2,1030.3L1774.2,1030.3z M1756.3,994.6c-10.9,0-17.9,8.3-17.9,19.1
		c0,10.8,7,19.1,17.9,19.1s17.9-8.3,17.9-19.1C1774.2,1003,1767.2,994.6,1756.3,994.6z"/>
	<path class="st4" d="M1872.7,1030.1c-5.9,7.8-13,10.7-22.4,10.7c-15.8,0-25.5-12.1-25.5-27c0-15.9,11-27,25.8-27
		c14.2,0,23.9,9.9,23.9,26.9v2.7h-40.7c0.7,8.9,7.3,16.5,16.5,16.5c7.2,0,12.1-2.6,16.1-7.8L1872.7,1030.1z M1865.5,1009.1
		c-0.3-8.7-5.9-14.5-15.2-14.5s-15.4,5.8-16.5,14.5H1865.5z"/>
	<path class="st4" d="M1918.3,1025.9c3.3,4.2,7,6.9,12.9,6.9c5.3,0,11.1-2.3,11.1-7.9c0-5.5-5.4-6.9-10.8-8.1
		c-9.6-2.2-17.8-4.3-17.8-14.9c0-10,9.5-15.2,18.8-15.2c7.1,0,13.7,2.8,17.1,9.3l-7,4.7c-2.2-3.6-5.7-6.2-10.7-6.2
		c-4.6,0-9.9,2.3-9.9,7.1c0,4.3,6,6.2,12.7,7.5c8.9,1.8,16.5,5.1,16.5,15.4c0,11.6-10.1,16.2-20.1,16.2c-8.5,0-14.7-2.3-19.6-9.6
		L1918.3,1025.9z"/>
	<path class="st4" d="M1997.6,961.7c3.4,0,6.1,2.9,6.1,6.3c0,3.6-2.6,6.3-6.1,6.3s-6.1-2.6-6.1-6.3
		C1991.5,964.5,1994.2,961.7,1997.6,961.7z M1993.4,988h8.4v51.4h-8.4V988z"/>
	<path class="st4" d="M2098.5,1037.1c0,18.6-9.8,28.7-27.5,28.7c-9.8,0-17.7-2.6-24.8-9.8l6-7c5.3,5.8,11,8.9,18.7,8.9
		c15.1,0,19.1-9.9,19.1-20.8v-6.6h-0.2c-4,6.6-11.1,9.6-17.8,9.6c-15.8,0-26.8-11.2-26.8-26.4c0-16.8,10.8-27,26.8-27
		c6.8,0,14.4,3.3,17.8,10.1h0.2V988h8.4V1037.1z M2072.1,1032.2c11.5,0,18-8.8,18-18.7c0-11.1-7.3-18.9-18-18.9
		c-10.6,0-17.8,8.3-17.8,19.1C2054.3,1024.2,2062.3,1032.2,2072.1,1032.2z"/>
	<path class="st4" d="M2143.6,1000.2c0-4.7-0.4-8.8-0.4-12.2h8c0,2.8,0.2,5.6,0.2,8.5h0.2c2.3-5.1,8.5-9.8,16.8-9.8
		c13.2,0,19.2,8.6,19.2,21v31.7h-8.4v-30.9c0-8.6-3.7-13.9-11.5-13.9c-10.9,0-15.6,8-15.6,19.8v25h-8.4V1000.2z"/>
	<path class="st4" d="M2293.7,1025.9c3.3,4.2,7,6.9,12.9,6.9c5.3,0,11.1-2.3,11.1-7.9c0-5.5-5.4-6.9-10.8-8.1
		c-9.6-2.2-17.8-4.3-17.8-14.9c0-10,9.5-15.2,18.9-15.2c7.1,0,13.7,2.8,17.1,9.3l-7,4.7c-2.1-3.6-5.7-6.2-10.7-6.2
		c-4.6,0-9.9,2.3-9.9,7.1c0,4.3,6,6.2,12.7,7.5c8.9,1.8,16.5,5.1,16.5,15.4c0,11.6-10.1,16.2-20.1,16.2c-8.5,0-14.6-2.3-19.6-9.6
		L2293.7,1025.9z"/>
	<path class="st4" d="M2395.7,995.3h-14.9v25.7c0,6.6,0.1,11.9,7.5,11.9c2.5,0,5.2-0.6,7.4-1.8l0.3,7.8c-2.9,1.3-6.7,1.9-9.8,1.9
		c-12,0-13.9-6.6-13.9-17.2v-28.2h-11V988h11v-14.6h8.4V988h14.9V995.3z"/>
	<path class="st4" d="M2479.6,1027.2c0,4.7,0.4,8.8,0.4,12.2h-8c0-2.8-0.2-5.6-0.2-8.5h-0.2c-2.3,5.1-8.5,9.8-16.8,9.8
		c-13.2,0-19.2-8.6-19.2-21V988h8.4v30.9c0,8.6,3.7,13.9,11.5,13.9c10.9,0,15.6-8,15.6-19.8v-25h8.4L2479.6,1027.2L2479.6,1027.2z"
		/>
	<path class="st4" d="M2567.1,1030.3h-0.2c-3.1,5.8-10.3,10.4-19.4,10.4c-14.1,0-25.2-11.6-25.2-27c0-15.6,10.7-27,26.5-27
		c7.3,0,13.5,3.3,18.1,8.8h0.2v-39.1h8.4v83h-8.4L2567.1,1030.3L2567.1,1030.3z M2549.2,994.6c-10.9,0-17.9,8.3-17.9,19.1
		c0,10.8,7,19.1,17.9,19.1s17.9-8.3,17.9-19.1C2567.1,1003,2560.1,994.6,2549.2,994.6z"/>
	<path class="st4" d="M2625.5,961.7c3.4,0,6.1,2.9,6.1,6.3c0,3.6-2.6,6.3-6.1,6.3s-6.1-2.6-6.1-6.3
		C2619.4,964.5,2622.1,961.7,2625.5,961.7z M2621.3,988h8.4v51.4h-8.4V988z"/>
	<path class="st4" d="M2700.1,986.7c15.5,0,26.9,11,26.9,27c0,16-11.4,27-26.9,27s-26.9-11-26.9-27
		C2673.1,997.7,2684.6,986.7,2700.1,986.7z M2700.1,1032.8c10.9,0,17.9-8.3,17.9-19.1c0-10.8-7-19.1-17.9-19.1s-17.9,8.3-17.9,19.1
		C2682.2,1024.5,2689.2,1032.8,2700.1,1032.8z"/>
	<circle class="st4" cx="2238" cy="1011.1" r="10"/>
</g>
<g id="L-2" class="st0">
	<g class="st1">
		<g>
			<path class="st2" d="M1342.7,912.1c0,14.2-5.3,25-15.8,32.2c-8.8,6.1-21.2,9.3-35.7,9.3c-18.4,0-36.4-6.6-47.9-17.7
				c-1-0.9-1.5-2.2-1.5-3.5c0-1.3,0.6-2.6,1.5-3.5l14.9-13.9c0.9-0.9,2.2-1.3,3.5-1.3c1.3,0.1,2.5,0.6,3.4,1.6c7,7.6,17,12,27.4,12
				c2.9,0,17.6-0.6,17.6-12.6c0-8.6-8-11.4-26.2-15.6c-18.2-4.3-36.7-12-36.7-35.5c0-12.8,5.4-23.3,15.6-30.4
				c8.7-6,20.7-9.4,33.6-9.4c17.8,0,34.2,6.1,43.9,16.2c0.9,1,1.4,2.2,1.3,3.5c-0.1,1.3-0.6,2.5-1.6,3.4l-14.6,12.9
				c-2,1.7-4.9,1.6-6.7-0.3c-5.8-6.2-14.7-10.1-23-10.1c-8.5,0-17.6,3-17.6,11.3c0,7.9,8,10.2,24.7,14.1c7.4,1.8,18.3,4.8,26.6,10.9
				C1338.2,892.3,1342.7,901.2,1342.7,912.1z"/>
		</g>
	</g>
	<path class="st3" d="M711.8,724.4c1.4,0.8,2,2.5,1.2,4L594.1,956.9l-0.2,0.2c-2.4,3.2-5,4.8-7.7,4.8c-0.4,0-0.9,0-1.4-0.1
		c-6.7-1.3-9.8-12.7-10.5-15.2c0-0.1,0-0.1-0.1-0.2l-36-108.2c-0.5-1.6,0.3-3.2,1.9-3.7l0,0c1.5-0.5,3.2,0.3,3.7,1.8l39.8,113.3
		c0.8,2.4,4.2,2.7,5.4,0.4l118.5-224.4C708.5,724.2,710.3,723.6,711.8,724.4L711.8,724.4z"/>
	<path class="st4" d="M1137.9,851.3c-13.5-24.2-38.6-24.9-38.6-24.9c-39.1-4.6-55.7,20.8-55.7,20.8c-23.6,36.9-7.6,73.1-7.6,73.1
		c15.3,38.9,55.9,34.5,55.9,34.5c43.9-2.2,53-41.7,53-41.7C1154.5,875.1,1137.9,851.3,1137.9,851.3z M1110.6,911.7
		c0,0-8.3,22.9-29.5,13.8c0,0-18.2-5-16.6-40.6c0,0,0-13.1,7.4-24.7c0,0,9.8-12.2,27.1-5.6c0,0,10.9,4.4,13.5,19.4
		C1112.4,874,1117.2,894.2,1110.6,911.7z"/>
	<path class="st4" d="M752.3,851.8c-21.9-37.9-64.7-23.9-64.7-23.9c-47.8,14.6-40.1,68.6-40.1,68.6c5.2,71.1,65.9,58.6,65.9,58.6
		c30.8-4.9,42.9-33.1,42.9-33.1c4.1-7.3,1-7,1-7l-28.2,0.5c-4.4,0-4.4,1-4.4,1l-0.5,2c-8.1,13.1-24.6,9.4-24.6,9.4
		c-18.7-4.7-18.2-29.8-18.2-29.8h75.9c3.5,0,2.9-5.5,2.9-5.5C762.1,867.8,752.3,851.8,752.3,851.8z M726.6,877h-44.7
		c-0.1-28.1,22.5-26.4,22.5-26.4C728.4,851.1,726.6,877,726.6,877z"/>
	<path class="st4" d="M568.6,959.2l-0.7-2.1l-70.7-221.1c-0.7-2.1-2.6-3.5-4.8-3.5h-76c-2.2,0-4.2,1.4-4.8,3.6l-49,158.8l-10.1,33.1
		l-6.5,20.9l-3.3,10.8c-0.1,0.8,0.6,0.6,0.6,0.6l59.7,0c1.5,0,1.4-0.8,1.4-0.8l8-28.1l4.5-15.3c0.2-0.8,0.9-0.6,0.9-0.6h70.4
		c0.9-0.1,1.1,0.5,1.1,0.5l0.4,1.5l12.7,41.9c0.3,1.1,1.7,0.8,1.7,0.8h63.8C568.9,960.3,568.6,959.2,568.6,959.2z M477.3,867.6
		h-48.6c-1.6,0-0.9-1.4-0.9-1.4l23.1-91.2h2.5l24.2,91.2C478.1,867.7,477.3,867.6,477.3,867.6z"/>
	<path class="st4" d="M1234.7,828.4v28.1c0,0,0,2.5-2.3,2.3c0,0-15.5-1.5-25.4,7c-9.9,8.4-10.3,26.3-10.1,35.9l-0.2,49.3
		c0,0,0.1,1-0.5,1H1165c0,0-1,0.3-0.8-0.9V833.8c0-2.8,2.3-5.1,5.1-5.1h22.2c2.8,0,5.1,2.3,5.1,5.1v6.9l0.3,10.2
		c0,0,4.3-14.4,19.3-21c0,0,6.5-3.1,14.5-3.6C1230.5,826.3,1234.7,826,1234.7,828.4z"/>
	<path class="st4" d="M882.5,869v83.1h-32.2v-75.9c0,0,0.5-22.4-18.7-22.4c0,0-22.5-3-22.5,22.4v75.9h-33.6V833.3
		c0-2.8,2.3-5.1,5-5.1H804c2.8,0,5,2.3,5,5.1v11.3c0,0,8.7-22.6,40.7-18.4C849.8,826.2,882.5,829.4,882.5,869z"/>
	<path class="st4" d="M1014.4,798.2v-14.5c0-2.8-2.3-5.1-5-5.1h-22.9c-2.8,0-5,2.3-5,5.1v14.5c0,16.2,0,39.8,0,39.8
		s-6.8-14.8-37.1-11.2c0,0-28.3,1.8-40.5,34.6c0,0-9.8,23-1.6,56.8c0,0,9.2,36,44.3,37c0,0,25.6,1.7,34.8-15.6l0.8,9
		c0,0,0.1,3.4,1.2,3.4h29.1c0,0,2,0.6,2-2.6L1014.4,798.2z M957.1,928.6c-14.2,0-25.8-17.1-25.8-38.2c0-21.1,11.6-38.2,25.8-38.2
		c14.3,0,25.8,17.1,25.8,38.2C982.9,911.5,971.4,928.6,957.1,928.6z"/>
	<path class="st4" d="M343.1,979.5h24c12.2,0,30.6,8.4,30.6,31.8c0,23.5-18.3,31.8-30.6,31.8h-24V979.5z M350.5,1036.1h14.1
		c14.3,0,25.1-7.4,25.1-24.8c0-17.4-10.8-24.8-25.1-24.8h-14.1V1036.1z"/>
	<path class="st4" d="M437.5,979.5h39.2v7h-31.8v20h29.7v7h-29.7v22.7h33.4v7h-40.8V979.5z"/>
	<path class="st4" d="M547.2,990.7c-2.5-4.1-6.9-5.8-11.4-5.8c-6.5,0-13.3,3.2-13.3,10.7c0,5.8,3.2,8.4,13.1,11.7
		c9.7,3.2,18.7,6.4,18.7,18.9c0,12.7-10.7,18.6-22,18.6c-7.2,0-15-2.4-19.2-8.8l6.4-5.3c2.6,4.7,7.9,7.1,13.3,7.1
		c6.3,0,13.6-3.8,13.6-11.1c0-7.8-5.2-9.2-16.3-12.9c-8.8-3-15.5-6.9-15.5-17.5c0-12.2,10.3-18.3,21.2-18.3c7,0,12.9,2,17.5,7.5
		L547.2,990.7z"/>
	<path class="st4" d="M594.5,979.5h7.4v63.7h-7.4V979.5z"/>
	<path class="st4" d="M698.3,1038.8c-7.1,4.1-15.2,5.9-23.4,5.9c-19.4,0-33.3-13.5-33.3-33.4c0-20.1,14.9-33.4,33.6-33.4
		c8.2,0,16.1,2.2,22,8.4l-5.5,5.9c-4.2-4.7-10.7-7.3-17-7.3c-14.3,0-25.1,11-25.1,26.4c0,15.2,10.5,26.4,25.8,26.4
		c5,0,10.9-1.3,15.5-3.7v-19.5h-14.4v-7h21.8L698.3,1038.8L698.3,1038.8z"/>
	<path class="st4" d="M741.7,979.5h9.3l36.1,52.9h0.2v-52.9h7.4v63.7h-9.3l-36.1-52.9h-0.2v52.9h-7.4V979.5z"/>
	<path class="st4" d="M920.1,990.7c-2.5-4.1-6.9-5.8-11.4-5.8c-6.5,0-13.3,3.2-13.3,10.7c0,5.8,3.2,8.4,13.1,11.7
		c9.7,3.2,18.7,6.4,18.7,18.9c0,12.7-10.7,18.6-22,18.6c-7.2,0-15-2.4-19.2-8.8l6.3-5.3c2.6,4.7,7.9,7.1,13.3,7.1
		c6.3,0,13.6-3.8,13.6-11.1c0-7.8-5.2-9.2-16.3-12.9c-8.8-3-15.5-6.9-15.5-17.5c0-12.2,10.3-18.3,21.2-18.3c7,0,12.9,2,17.5,7.5
		L920.1,990.7z"/>
	<path class="st4" d="M1009.3,986.5h-20.6v56.6h-7.4v-56.6h-20.6v-7h48.7L1009.3,986.5L1009.3,986.5z"/>
	<path class="st4" d="M1092.7,1018.9c0,13.8-6.3,25.9-23.5,25.9c-17.2,0-23.5-12.1-23.5-25.9v-39.4h7.4v38.3c0,10.2,3.7,20,16.1,20
		c12.4,0,16.1-9.7,16.1-20v-38.3h7.4L1092.7,1018.9L1092.7,1018.9z"/>
	<path class="st4" d="M1134.6,979.5h24c12.2,0,30.6,8.4,30.6,31.8c0,23.5-18.3,31.8-30.6,31.8h-24V979.5z M1142,1036.1h14.1
		c14.3,0,25.1-7.4,25.1-24.8c0-17.4-10.8-24.8-25.1-24.8H1142V1036.1z"/>
	<path class="st4" d="M1229,979.5h7.4v63.7h-7.4V979.5z"/>
	<path class="st4" d="M1276.1,1011.3c0-19.2,13.7-33.4,32.6-33.4s32.6,14.2,32.6,33.4c0,19.2-13.7,33.4-32.6,33.4
		S1276.1,1030.6,1276.1,1011.3z M1333.4,1011.3c0-14.7-10.1-26.4-24.7-26.4s-24.7,11.8-24.7,26.4c0,14.7,10.1,26.4,24.7,26.4
		C1323.4,1037.8,1333.4,1026,1333.4,1011.3z"/>
	<circle class="st4" cx="841.2" cy="1011.3" r="10"/>
</g>
<g id="L-3" class="st0">
	<g class="st1">
		<g>
			<path class="st2" d="M2729.4,260.5c0,14.2-5.3,25-15.8,32.2c-8.8,6.1-21.2,9.3-35.7,9.3c-18.4,0-36.4-6.6-47.9-17.7
				c-1-0.9-1.5-2.2-1.5-3.5c0-1.3,0.6-2.6,1.5-3.5l14.9-13.9c0.9-0.9,2.2-1.3,3.5-1.3c1.3,0,2.5,0.6,3.4,1.5c7,7.6,17,12,27.4,12
				c2.9,0,17.6-0.6,17.6-12.6c0-8.6-8-11.4-26.2-15.6c-18.1-4.3-36.7-12-36.7-35.5c0-12.8,5.4-23.3,15.6-30.4
				c8.7-6,20.7-9.4,33.6-9.4c17.8,0,34.2,6.1,43.9,16.2c0.9,1,1.4,2.2,1.3,3.5c-0.1,1.3-0.6,2.5-1.6,3.4l-14.6,13
				c-2,1.7-4.9,1.6-6.7-0.3c-5.9-6.2-14.7-10.1-23-10.1c-8.5,0-17.6,3-17.6,11.3c0,7.9,8,10.2,24.7,14.1c7.4,1.8,18.3,4.8,26.6,10.9
				C2724.9,240.6,2729.4,249.5,2729.4,260.5z"/>
		</g>
	</g>
	<g class="st1">
		<path class="st5" d="M2098.5,72.7c1.4,0.8,2,2.5,1.2,4l-118.9,228.5l-0.2,0.2c-2.4,3.2-5,4.8-7.7,4.8c-0.4,0-0.9,0-1.4-0.1
			c-6.7-1.3-9.8-12.7-10.5-15.2c0-0.1,0-0.1-0.1-0.2l-36-108.2c-0.5-1.5,0.3-3.2,1.9-3.7l0.1,0c1.5-0.5,3.2,0.3,3.7,1.8l39.8,113.3
			c0.8,2.4,4.2,2.7,5.4,0.4l118.5-224.4C2095.2,72.5,2097,71.9,2098.5,72.7L2098.5,72.7z"/>
	</g>
	<path class="st4" d="M2524.6,199.7c-13.5-24.2-38.6-24.9-38.6-24.9c-39.1-4.6-55.7,20.8-55.7,20.8c-23.6,36.9-7.6,73.1-7.6,73.1
		c15.3,39,55.9,34.5,55.9,34.5c43.9-2.2,53-41.7,53-41.7C2541.2,223.5,2524.6,199.7,2524.6,199.7z M2497.3,260
		c0,0-8.3,22.9-29.5,13.8c0,0-18.2-5-16.6-40.6c0,0,0-13.1,7.4-24.7c0,0,9.8-12.2,27.1-5.5c0,0,10.9,4.4,13.5,19.4
		C2499.1,222.3,2503.9,242.5,2497.3,260z"/>
	<path class="st4" d="M2139,200.1c-21.9-37.9-64.7-23.9-64.7-23.9c-47.8,14.6-40.1,68.6-40.1,68.6c5.2,71.1,65.9,58.6,65.9,58.6
		c30.8-4.9,42.9-33.1,42.9-33.1c4.1-7.3,1-7,1-7l-28.2,0.5c-4.4,0-4.4,1-4.4,1l-0.5,2c-8.1,13-24.6,9.4-24.6,9.4
		c-18.7-4.7-18.2-29.8-18.2-29.8h75.9c3.4,0,2.9-5.5,2.9-5.5C2148.8,216.1,2139,200.1,2139,200.1z M2113.3,225.3h-44.7
		c-0.1-28.1,22.5-26.4,22.5-26.4C2115.1,199.4,2113.3,225.3,2113.3,225.3z"/>
	<path class="st4" d="M1955.3,307.5l-0.7-2.1l-70.7-221.1c-0.7-2.1-2.6-3.5-4.8-3.5h-76c-2.2,0-4.2,1.4-4.8,3.6l-49,158.9
		l-10.1,33.1l-6.5,20.9l-3.3,10.8c-0.1,0.8,0.6,0.6,0.6,0.6l59.7,0c1.5,0,1.4-0.8,1.4-0.8l8-28.1l4.5-15.3c0.2-0.8,0.9-0.6,0.9-0.6
		h70.4c0.9-0.1,1.1,0.5,1.1,0.5l0.4,1.5l12.7,41.9c0.3,1.1,1.7,0.8,1.7,0.8h63.8C1955.6,308.6,1955.3,307.5,1955.3,307.5z
		 M1864,215.9h-48.6c-1.6,0-0.9-1.4-0.9-1.4l23.1-91.2h2.5l24.2,91.2C1864.8,216.1,1864,215.9,1864,215.9z"/>
	<path class="st4" d="M2621.4,176.7v28.1c0,0,0,2.5-2.3,2.3c0,0-15.5-1.5-25.4,7c-9.9,8.5-10.3,26.3-10.1,35.9l-0.2,49.3
		c0,0,0.1,1-0.5,1h-31.2c0,0-1,0.3-0.8-0.9V182.1c0-2.8,2.3-5,5.1-5h22.1c2.8,0,5.1,2.3,5.1,5v6.9l0.3,10.2c0,0,4.3-14.5,19.3-21
		c0,0,6.5-3.1,14.5-3.6C2617.3,174.6,2621.4,174.3,2621.4,176.7z"/>
	<path class="st4" d="M2269.2,217.3v83.1H2237v-75.9c0,0,0.5-22.4-18.7-22.4c0,0-22.5-3-22.5,22.4v75.9h-33.6V181.6
		c0-2.8,2.3-5,5.1-5h23.5c2.8,0,5.1,2.3,5.1,5V193c0,0,8.7-22.6,40.7-18.5C2236.5,174.5,2269.2,177.7,2269.2,217.3z"/>
	<path class="st4" d="M2401.1,146.6V132c0-2.8-2.3-5-5.1-5h-22.9c-2.8,0-5.1,2.3-5.1,5v14.5c0,16.2,0,39.8,0,39.8
		s-6.8-14.8-37.1-11.2c0,0-28.3,1.8-40.5,34.6c0,0-9.9,23-1.6,56.8c0,0,9.2,36,44.3,37c0,0,25.6,1.7,34.8-15.6l0.8,9
		c0,0,0.1,3.4,1.2,3.4h29.1c0,0,2,0.6,2-2.6L2401.1,146.6z M2343.8,276.9c-14.2,0-25.8-17.1-25.8-38.2c0-21.1,11.6-38.2,25.8-38.2
		c14.3,0,25.8,17.1,25.8,38.2C2369.6,259.8,2358.1,276.9,2343.8,276.9z"/>
	<g class="st1">
		<path class="st2" d="M1729.4,329.1h27.7c14.2,0,35.4,9.7,35.4,36.8s-21.2,36.8-35.4,36.8h-27.7V329.1z M1738,394.7h16.3
			c16.5,0,29.1-8.5,29.1-28.7c0-20.2-12.6-28.7-29.1-28.7H1738V394.7z"/>
		<path class="st2" d="M1878.1,393.9c-5.6,7.4-12.3,10.1-21.2,10.1c-15,0-24.2-11.4-24.2-25.6c0-15.1,10.4-25.6,24.5-25.6
			c13.5,0,22.6,9.4,22.6,25.5v2.6h-38.6c0.6,8.4,6.9,15.6,15.6,15.6c6.8,0,11.4-2.5,15.2-7.4L1878.1,393.9z M1871.3,374.1
			c-0.3-8.2-5.6-13.7-14.4-13.7s-14.6,5.5-15.6,13.7H1871.3z"/>
		<path class="st2" d="M1923.8,390c3.2,4,6.6,6.6,12.2,6.6c5,0,10.5-2.2,10.5-7.5c0-5.2-5.1-6.6-10.2-7.7
			c-9.1-2.1-16.8-4.1-16.8-14.2c0-9.5,9-14.4,17.8-14.4c6.7,0,12.9,2.6,16.2,8.8l-6.6,4.5c-2-3.4-5.4-5.8-10.1-5.8
			c-4.4,0-9.4,2.2-9.4,6.8c0,4.1,5.7,5.8,12,7.1c8.5,1.7,15.6,4.8,15.6,14.6c0,11-9.6,15.3-19.1,15.3c-8.1,0-13.9-2.2-18.6-9
			L1923.8,390z"/>
		<path class="st2" d="M2001.6,329.1c3.3,0,5.8,2.7,5.8,5.9c0,3.4-2.4,5.9-5.8,5.9c-3.4,0-5.8-2.5-5.8-5.9
			C1995.7,331.8,1998.3,329.1,2001.6,329.1z M1997.6,354.1h8v48.7h-8V354.1z"/>
		<path class="st2" d="M2099.6,400.6c0,17.6-9.3,27.2-26,27.2c-9.3,0-16.7-2.5-23.5-9.3l5.7-6.7c5,5.5,10.4,8.4,17.8,8.4
			c14.3,0,18.1-9.4,18.1-19.7v-6.2h-0.2c-3.8,6.2-10.5,9-16.8,9c-15,0-25.4-10.6-25.4-25c0-15.9,10.2-25.6,25.4-25.6
			c6.4,0,13.7,3.1,16.8,9.6h0.2v-8.3h8V400.6z M2074.6,395.9c10.9,0,17-8.3,17-17.7c0-10.5-6.9-17.9-17-17.9
			c-10,0-16.8,7.9-16.8,18.1C2057.8,388.3,2065.3,395.9,2074.6,395.9z"/>
		<path class="st2" d="M2144.9,365.6c0-4.5-0.4-8.3-0.4-11.5h7.6c0,2.6,0.2,5.3,0.2,8h0.2c2.1-4.8,8.1-9.3,15.9-9.3
			c12.5,0,18.2,8.1,18.2,19.9v30.1h-8v-29.2c0-8.1-3.5-13.2-10.9-13.2c-10.3,0-14.8,7.6-14.8,18.7v23.7h-8L2144.9,365.6
			L2144.9,365.6z"/>
		<path class="st2" d="M2326.8,342.1c-2.9-4.7-8-6.8-13.2-6.8c-7.6,0-15.4,3.6-15.4,12.4c0,6.8,3.7,9.8,15.2,13.5
			c11.2,3.6,21.6,7.4,21.6,21.8c0,14.7-12.3,21.5-25.4,21.5c-8.4,0-17.3-2.8-22.2-10.2l7.3-6.1c3.1,5.4,9.2,8.2,15.4,8.2
			c7.3,0,15.7-4.4,15.7-12.8c0-9-6-10.6-18.9-15c-10.2-3.4-17.9-8-17.9-20.3c0-14.2,11.9-21.2,24.6-21.2c8.1,0,14.9,2.3,20.2,8.6
			L2326.8,342.1z"/>
		<path class="st2" d="M2404.5,361h-14.1v24.3c0,6.2,0.1,11.2,7.1,11.2c2.4,0,4.9-0.5,7-1.7l0.3,7.4c-2.8,1.2-6.3,1.8-9.3,1.8
			c-11.3,0-13.2-6.2-13.2-16.3V361h-10.4v-6.9h10.4v-13.8h8v13.8h14.1L2404.5,361L2404.5,361z"/>
		<path class="st2" d="M2486.5,391.2c0,4.5,0.4,8.3,0.4,11.5h-7.6c0-2.6-0.2-5.3-0.2-8h-0.2c-2.1,4.8-8.1,9.3-15.9,9.3
			c-12.6,0-18.2-8.1-18.2-19.9v-30.1h8v29.2c0,8.1,3.5,13.2,10.9,13.2c10.3,0,14.8-7.6,14.8-18.7v-23.7h8V391.2z"/>
		<path class="st2" d="M2571.9,394.2h-0.2c-3,5.5-9.8,9.9-18.4,9.9c-13.4,0-23.9-11-23.9-25.6c0-14.8,10.1-25.6,25.1-25.6
			c6.9,0,12.8,3.1,17.1,8.3h0.2v-37h8v78.7h-8L2571.9,394.2L2571.9,394.2z M2555,360.3c-10.3,0-16.9,7.9-16.9,18.1
			c0,10.2,6.6,18.1,16.9,18.1s16.9-7.9,16.9-18.1C2571.9,368.2,2565.3,360.3,2555,360.3z"/>
		<path class="st2" d="M2629.9,329.1c3.3,0,5.8,2.7,5.8,5.9c0,3.4-2.4,5.9-5.8,5.9s-5.8-2.5-5.8-5.9
			C2624,331.8,2626.6,329.1,2629.9,329.1z M2625.9,354.1h8v48.7h-8V354.1z"/>
		<path class="st2" d="M2703,352.9c14.7,0,25.5,10.4,25.5,25.6c0,15.2-10.8,25.6-25.5,25.6s-25.5-10.4-25.5-25.6
			C2677.5,363.3,2688.3,352.9,2703,352.9z M2703,396.5c10.3,0,16.9-7.9,16.9-18.1c0-10.2-6.6-18.1-16.9-18.1s-16.9,7.9-16.9,18.1
			C2686.1,388.6,2692.7,396.5,2703,396.5z"/>
	</g>
	<circle class="st4" cx="2237.8" cy="375.9" r="10"/>
</g>
<g>
	<g>
		<path class="st2" d="M3033.5,588.4c0,42.4-15.9,74.9-47.4,96.6c-26.5,18.2-63.5,27.8-106.9,27.8c-55.3,0-108.9-19.8-143.6-53.1
			c-2.9-2.8-4.5-6.6-4.5-10.6c0-4,1.6-7.7,4.6-10.4l44.6-41.8c2.8-2.7,6.5-4,10.4-3.9c3.9,0.1,7.5,1.8,10.1,4.7
			c21,22.8,50.9,35.9,82.1,35.9c8.8,0,52.7-1.8,52.7-37.8c0-25.9-23.9-34.2-78.5-46.9c-54.4-13-109.9-35.8-109.9-106.4
			c0-38.4,16.2-69.9,46.9-91.2c26.1-18.1,61.9-28.1,100.8-28.1c53.2,0,102.4,18.2,131.5,48.6c2.7,2.9,4.2,6.6,4,10.6
			c-0.2,4-1.9,7.6-4.9,10.2l-43.8,38.8c-5.9,5.2-14.7,4.8-20.1-1c-17.5-18.6-43.9-30.2-68.9-30.2c-25.5,0-52.7,9-52.7,34
			c0,23.7,24,30.4,74,42.4c22.3,5.3,54.8,14.5,79.6,32.7C3020,528.9,3033.5,555.5,3033.5,588.4z"/>
	</g>
</g>
<g>
	<path class="st5" d="M1144,26.1c4.3,2.3,6,7.6,3.7,11.9l-356,684.4l-0.4,0.6c-7.2,9.6-14.9,14.5-22.9,14.5c-1.3,0-2.7-0.1-4.1-0.3
		c-19.9-4-29.5-38-31.3-45.5c0-0.2-0.1-0.4-0.2-0.6L624.9,366.9c-1.5-4.6,1-9.7,5.6-11.2l0.2,0c4.6-1.5,9.5,0.9,11.1,5.5
		l119.3,339.4c2.6,7.3,12.6,8,16.2,1.2l354.8-672C1134.3,25.4,1139.6,23.8,1144,26.1L1144,26.1z"/>
</g>
<path class="st2" d="M2420.1,406.3c-40.3-72.4-115.5-74.6-115.5-74.6c-117.2-13.8-166.9,62.4-166.9,62.4
	C2067,504.6,2115,613,2115,613c45.9,116.7,167.5,103.4,167.5,103.4c131.6-6.6,158.7-125,158.7-125
	C2469.9,477.6,2420.1,406.3,2420.1,406.3z M2338.3,586.9c0,0-24.9,68.5-88.4,41.5c0,0-54.6-14.9-49.7-121.6c0,0,0-39.3,22.1-74
	c0,0,29.3-36.5,81.3-16.6c0,0,32.5,13.3,40.3,58C2343.9,474.2,2358.2,534.5,2338.3,586.9z"/>
<path class="st2" d="M1265.4,407.7c-65.6-113.5-193.8-71.5-193.8-71.5c-143,43.6-120.1,205.5-120.1,205.5
	C967,754.8,1149,717.2,1149,717.2c92.2-14.8,128.6-99.1,128.6-99.1c12.2-21.8,2.9-21.1,2.9-21.1l-84.4,1.5
	c-13.3,0-13.3,2.9-13.3,2.9l-1.4,5.9c-24.3,39.1-73.8,28-73.8,28c-56-14.1-54.5-89.4-54.5-89.4h227.3c10.3,0,8.7-16.5,8.7-16.5
	C1294.6,455.4,1265.4,407.7,1265.4,407.7z M1188.4,483h-133.8c-0.3-84.3,67.5-79.2,67.5-79.2C1193.9,405.6,1188.4,483,1188.4,483z"
	/>
<path class="st2" d="M715.1,729.3l-2-6.4L501.4,60.6c-2-6.3-7.8-10.5-14.4-10.5H259.3c-6.6,0-12.5,4.3-14.5,10.7L98.2,536.5
	l-30.3,99.2l-19.4,62.7l-10,32.4c-0.4,2.4,1.9,1.7,1.9,1.7l178.9,0.1c4.6,0,4.2-2.4,4.2-2.4l24.1-84.1l13.4-45.7
	c0.5-2.5,2.8-1.8,2.8-1.8h210.9c2.8-0.4,3.2,1.4,3.2,1.4l1.3,4.4L517.2,730c0.8,3.3,5,2.4,5,2.4h190.9
	C716.1,732.5,715.1,729.3,715.1,729.3z M441.9,454.8H296.3c-4.7,0-2.8-4.2-2.8-4.2l69.2-273.2h7.6l72.4,273.2
	C444,455.4,441.9,454.8,441.9,454.8z"/>
<path class="st2" d="M2710.2,337.7v84.3c0,0,0,7.6-6.9,6.9c0,0-46.4-4.4-76,20.9c-29.6,25.3-30.9,78.8-30.3,107.5l-0.5,147.7
	c0,0,0.4,3.1-1.6,3.1h-93.6c0,0-2.9,0.8-2.4-2.7V353.7c0-8.3,6.8-15.1,15.1-15.1h66.4c8.4,0,15.1,6.8,15.1,15.1v20.8l1,30.6
	c0,0,13-43.3,57.9-62.8c0,0,19.4-9.4,43.3-10.9C2697.7,331.4,2710.2,330.5,2710.2,337.7z"/>
<path class="st2" d="M1655.2,459.2V708h-96.5V480.6c0,0,1.5-67-56-67c0,0-67.3-8.9-67.3,67V708h-100.7V352.3
	c0-8.3,6.8-15.1,15.1-15.1h70.5c8.3,0,15.1,6.8,15.1,15.1v34c0,0,26.1-67.8,121.9-55.2C1557.3,331,1655.2,340.6,1655.2,459.2z"/>
<path class="st2" d="M2050.4,247.2v-43.5c0-8.3-6.8-15.1-15.1-15.1h-68.4c-8.3,0-15.1,6.8-15.1,15.1v43.5c0,48.5,0,119.2,0,119.2
	s-20.4-44.2-111.1-33.7c0,0-84.7,5.3-121.2,103.7c0,0-29.5,68.9-4.8,170.3c0,0,27.6,107.8,132.6,110.9c0,0,76.7,5.1,104.3-46.8
	l2.4,27c0,0,0.3,10.2,3.7,10.2h87.3c0,0,5.9,1.7,5.9-7.7L2050.4,247.2z M1878.7,637.6c-42.7,0-77.4-51.2-77.4-114.2
	c0-63.1,34.7-114.2,77.4-114.2c42.7,0,77.4,51.1,77.4,114.2C1956.1,586.4,1921.4,637.6,1878.7,637.6z"/>
</svg>
