<svg width="132" height="43" viewBox="0 0 132 43" fill="none" xmlns="http://www.w3.org/2000/svg">
<g clip-path="url(#clip0_273_2)">
<path d="M131.568 24.8199C131.568 26.6888 130.868 28.1202 129.489 29.0738C128.327 29.8761 126.706 30.3008 124.8 30.3008C122.377 30.3008 120.024 29.4264 118.504 27.9612C118.442 27.9009 118.392 27.8286 118.358 27.7486C118.325 27.6686 118.307 27.5825 118.308 27.4955C118.308 27.4094 118.326 27.3243 118.361 27.2454C118.395 27.1665 118.445 27.0955 118.508 27.0369L120.462 25.198C120.586 25.0831 120.75 25.0222 120.918 25.0287C121.087 25.0352 121.246 25.1085 121.36 25.2325C121.82 25.7309 122.377 26.1284 122.997 26.4003C123.617 26.6721 124.286 26.8123 124.962 26.8121C125.348 26.8121 127.273 26.7323 127.273 25.1514C127.273 24.0119 126.224 23.6472 123.832 23.0877C121.449 22.5128 119.014 21.51 119.014 18.4032C119.014 16.7125 119.724 15.3239 121.068 14.3888C122.213 13.5916 123.781 13.1528 125.486 13.1528C127.821 13.1528 129.976 13.9525 131.251 15.2913C131.31 15.3533 131.356 15.4264 131.386 15.5064C131.416 15.5865 131.429 15.6717 131.426 15.7571C131.422 15.8425 131.402 15.9264 131.366 16.0037C131.329 16.081 131.278 16.1502 131.215 16.2072L129.292 17.9152C129.169 18.0252 129.007 18.0824 128.843 18.0744C128.678 18.0664 128.523 17.9939 128.411 17.8724C127.642 17.0523 126.484 16.5426 125.388 16.5426C124.271 16.5426 123.077 16.9367 123.077 18.041C123.077 19.0828 124.131 19.3824 126.32 19.9068C127.298 20.1418 128.724 20.5455 129.809 21.3452C130.977 22.2011 131.568 23.3674 131.568 24.8199Z" fill="#184F92"/>
<path d="M48.4888 0.0455596C48.5798 0.0934317 48.6482 0.175588 48.6789 0.274011C48.7097 0.372435 48.7003 0.479093 48.6529 0.570596L33.0356 30.7187L33.0165 30.7455C32.7024 31.1703 32.3647 31.3843 32.0117 31.3843C31.952 31.3848 31.8923 31.3795 31.8336 31.3683C30.9598 31.1914 30.5401 29.6948 30.4593 29.3659C30.4593 29.3569 30.4549 29.3499 30.4517 29.341L25.7227 15.0615C25.7065 15.013 25.7 14.9617 25.7035 14.9107C25.7071 14.8596 25.7207 14.8098 25.7435 14.764C25.7663 14.7182 25.7979 14.6774 25.8365 14.644C25.875 14.6105 25.9198 14.585 25.9682 14.569H25.9752C26.0717 14.537 26.1768 14.5443 26.2681 14.5893C26.3593 14.6343 26.4293 14.7135 26.463 14.8098L31.6944 29.7632C31.7194 29.8345 31.7647 29.897 31.8245 29.943C31.8844 29.9889 31.9562 30.0164 32.0314 30.022C32.1065 30.0276 32.1816 30.0112 32.2476 29.9746C32.3136 29.9381 32.3675 29.883 32.4028 29.8162L47.9635 0.207797C47.9872 0.162572 48.0196 0.122481 48.0587 0.0898159C48.0978 0.0571511 48.143 0.0325527 48.1916 0.0174265C48.2402 0.00230036 48.2913 -0.00305687 48.342 0.00166073C48.3927 0.00637834 48.4419 0.0210783 48.4869 0.0449207L48.4888 0.0455596Z" fill="#FB1023"/>
<path d="M104.462 16.7948C102.693 13.6043 99.3956 13.5072 99.3956 13.5072C94.2564 12.8991 92.0763 16.2576 92.0763 16.2576C88.9728 21.1273 91.0791 25.9024 91.0791 25.9024C93.0925 31.041 98.4257 30.4566 98.4257 30.4566C104.198 30.164 105.385 24.9514 105.385 24.9514C106.647 19.9354 104.462 16.7948 104.462 16.7948ZM100.875 24.7559C100.875 24.7559 99.7848 27.7752 96.9954 26.5827C96.9954 26.5827 94.5979 25.9241 94.8154 21.2256C94.8154 21.2256 94.8154 19.496 95.7852 17.9681C95.7852 17.9681 97.0692 16.3591 99.3498 17.2361C99.3498 17.2361 100.777 17.8206 101.118 19.791C101.119 19.7872 101.748 22.4443 100.875 24.7559Z" fill="#184F92"/>
<path d="M53.815 16.8575C50.9373 11.855 45.3122 13.7098 45.3122 13.7098C39.0404 15.6305 40.0445 22.7639 40.0445 22.7639C40.7237 32.1487 48.7063 30.4925 48.7063 30.4925C52.7485 29.8423 54.3479 26.1261 54.3479 26.1261C54.8834 25.168 54.4751 25.1987 54.4751 25.1987L50.7745 25.2626C50.1932 25.2626 50.1932 25.3903 50.1932 25.3903L50.1296 25.6509C49.0631 27.3755 46.8945 26.8862 46.8945 26.8862C44.439 26.2667 44.5052 22.9472 44.5052 22.9472H54.4751C54.9292 22.9472 54.8567 22.2228 54.8567 22.2228C55.0952 18.9615 53.815 16.8575 53.815 16.8575ZM50.4368 20.1789H44.5675C44.5522 16.466 47.5272 16.6921 47.5272 16.6921C50.6772 16.7643 50.4368 20.177 50.4368 20.177V20.1789Z" fill="#184F92"/>
<path d="M29.6771 31.0238L29.5881 30.7415L20.3056 1.57002C20.2627 1.4356 20.1785 1.31831 20.065 1.23509C19.9515 1.15186 19.8146 1.10699 19.6741 1.10694H9.68505C9.54294 1.10636 9.4044 1.15168 9.28989 1.23621C9.17538 1.32074 9.09096 1.44001 9.04909 1.57641L2.61953 22.5312L1.291 26.9002L0.440725 29.6601L0.0025477 31.0896C-0.0158952 31.195 0.0839506 31.1656 0.0839506 31.1656L7.93043 31.1714C8.13267 31.1714 8.11423 31.066 8.11423 31.066L9.16929 27.3613L9.75501 25.3468C9.75656 25.3328 9.76121 25.3193 9.76863 25.3073C9.77604 25.2953 9.78603 25.2852 9.79786 25.2776C9.80969 25.27 9.82306 25.2651 9.83699 25.2634C9.85093 25.2617 9.86507 25.2631 9.87838 25.2676H19.1291C19.2499 25.2497 19.2683 25.3314 19.2683 25.3314L19.3262 25.5269L20.9956 31.0583C21.03 31.2033 21.2163 31.1662 21.2163 31.1662H29.5906C29.7191 31.1656 29.6771 31.0238 29.6771 31.0238ZM17.6931 18.9345H11.3061C11.0988 18.9345 11.1853 18.75 11.1853 18.75L14.2226 6.71691H14.5565L17.7325 18.7519C17.7878 18.9582 17.6931 18.9345 17.6931 18.9345Z" fill="#184F92"/>
<path d="M117.184 13.7698V17.4821C117.184 17.4821 117.184 17.8168 116.882 17.7855C116.882 17.7855 114.847 17.5938 113.548 18.7052C112.25 19.8166 112.191 22.1755 112.22 23.4408L112.196 29.9475C112.196 29.9475 112.215 30.0823 112.128 30.0823H108.023C108.023 30.0823 107.896 30.1194 107.916 29.9635V14.4781C107.916 14.3014 107.985 14.132 108.11 14.007C108.234 13.8821 108.403 13.8119 108.579 13.8119H111.489C111.576 13.8113 111.663 13.8281 111.744 13.8613C111.825 13.8946 111.899 13.9435 111.961 14.0055C112.023 14.0674 112.072 14.141 112.106 14.2221C112.139 14.3033 112.157 14.3903 112.157 14.4781V15.3941L112.199 16.7411C112.199 16.7411 112.771 14.8345 114.743 13.9754C115.343 13.7058 115.986 13.5435 116.643 13.4958C116.643 13.4958 117.184 13.4561 117.184 13.7698Z" fill="#184F92"/>
<path d="M70.9128 19.1273V30.0847H66.6786V20.0681C66.6786 20.0681 66.7422 17.1153 64.2212 17.1153C64.2212 17.1153 61.2684 16.725 61.2684 20.0681V30.0847H56.8498V14.4173C56.8498 14.2406 56.9197 14.0711 57.0441 13.9462C57.1685 13.8213 57.3372 13.7511 57.5131 13.7511H60.6045C60.6917 13.751 60.778 13.7681 60.8585 13.8016C60.9391 13.835 61.0123 13.8841 61.0739 13.946C61.1356 14.0078 61.1845 14.0813 61.2179 14.1622C61.2513 14.243 61.2684 14.3297 61.2684 14.4173V15.9132C61.2684 15.9132 62.4132 12.9258 66.6156 13.4796C66.6156 13.4796 70.9128 13.9012 70.9128 19.1273Z" fill="#184F92"/>
<path d="M88.2446 9.78844V7.87225C88.2446 7.69556 88.1747 7.52611 88.0503 7.40118C87.9259 7.27624 87.7572 7.20605 87.5813 7.20605H84.5796C84.4037 7.20605 84.2349 7.27624 84.1106 7.40118C83.9862 7.52611 83.9163 7.69556 83.9163 7.87225V15.0375C83.9163 15.0375 83.0208 13.0894 79.0435 13.5531C79.0435 13.5531 75.3289 13.7882 73.7275 18.1226C73.7275 18.1226 72.4334 21.1572 73.5177 25.6239C73.5177 25.6239 74.726 30.3747 79.3348 30.5095C79.3348 30.5095 82.6978 30.7331 83.908 28.4477L84.0129 29.6364C84.0129 29.6364 84.0263 30.0835 84.1732 30.0835H88.0004C88.0004 30.0835 88.2548 30.1576 88.2548 29.7437L88.2446 9.78844ZM80.7155 26.9869C78.8439 26.9869 77.3207 24.7296 77.3207 21.9537C77.3207 19.1778 78.847 16.9205 80.7155 16.9205C82.5839 16.9205 84.1096 19.172 84.1096 21.9537C84.1096 24.7354 82.5897 26.9869 80.7155 26.9869Z" fill="#184F92"/>
<path d="M0.333889 36.9125C0.333889 36.36 0.323078 35.9071 0.290009 35.4651H1.13711L1.18099 36.3268H1.21406C1.51105 35.819 2.00647 35.3438 2.886 35.3438C3.61227 35.3438 4.16237 35.7857 4.39323 36.4155H4.41549C4.56269 36.1442 4.76507 35.907 5.00947 35.7193C5.32745 35.4766 5.68041 35.3438 6.18664 35.3438C6.89064 35.3438 7.93553 35.8075 7.93553 37.6636V40.8126H6.98922V37.7863C6.98922 36.7585 6.61527 36.1396 5.83431 36.1396C5.28421 36.1396 4.85557 36.5484 4.68958 37.0236C4.63926 37.1807 4.6133 37.3447 4.61263 37.5097V40.8132H3.66759V37.6087C3.66759 36.7579 3.29301 36.1396 2.55657 36.1396C1.95114 36.1396 1.51105 36.6263 1.35715 37.1124C1.30334 37.2647 1.27728 37.4254 1.2802 37.587V40.8132H0.333889V36.9125Z" fill="#1D5091"/>
<path d="M20.0474 40.8125L19.9704 40.1386H19.9374C19.6404 40.5583 19.068 40.9338 18.3093 40.9338C17.2314 40.9338 16.6812 40.1718 16.6812 39.4009C16.6812 38.1081 17.826 37.401 19.882 37.4125V37.302C19.882 36.86 19.7612 36.0642 18.6737 36.0642C18.1839 36.0659 17.7041 36.2036 17.2873 36.4621L17.0673 35.8234C17.5074 35.5359 18.1484 35.3481 18.8168 35.3481C20.4449 35.3481 20.8404 36.464 20.8404 37.5358V39.5357C20.8334 39.9645 20.863 40.3932 20.9288 40.817L20.0474 40.8125ZM19.9043 38.0838C18.848 38.0615 17.6492 38.2493 17.6492 39.2878C17.6492 39.9176 18.067 40.2159 18.5624 40.2159C18.8437 40.2233 19.12 40.1406 19.3514 39.9799C19.5828 39.8191 19.7573 39.5886 19.8496 39.3217C19.8834 39.222 19.9018 39.1178 19.9043 39.0125V38.0838Z" fill="#1D5091"/>
<path d="M29.9906 37.1331C29.9906 36.5033 29.9798 35.9623 29.9467 35.4647H30.7938L30.8269 36.5148H30.8708C31.1125 35.7962 31.6975 35.3434 32.345 35.3434C32.4376 35.342 32.53 35.3532 32.6197 35.3766V36.2938C32.5113 36.27 32.4006 36.2588 32.2896 36.2606C31.6079 36.2606 31.1239 36.7799 30.9916 37.5087C30.9644 37.6583 30.9497 37.81 30.9477 37.9622V40.8122H29.9906V37.1331Z" fill="#1D5091"/>
<path d="M42.1807 37.9178H42.2011C42.3334 37.73 42.5191 37.4981 42.6742 37.3104L44.2362 35.4651H45.4025L43.3458 37.6636L45.6893 40.8125H44.5128L42.6755 38.2493L42.1807 38.8018V40.8125H41.2268V32.9683H42.1807V37.9178Z" fill="#1D5091"/>
<path d="M54.512 38.3158C54.5343 39.6303 55.3705 40.1719 56.3385 40.1719C57.031 40.1719 57.4495 40.0506 57.8126 39.896L57.9774 40.5916C57.6365 40.7461 57.0533 40.9231 56.2062 40.9231C54.5673 40.9231 53.588 39.8372 53.588 38.2276C53.588 36.618 54.5343 35.3438 56.0854 35.3438C57.8234 35.3438 58.2852 36.8767 58.2852 37.8629C58.2837 38.0144 58.2726 38.1657 58.2521 38.3158H54.512ZM57.3503 37.6195C57.3611 37.0013 57.0959 36.04 56.0084 36.04C55.029 36.04 54.6004 36.9457 54.5235 37.6195H57.3503Z" fill="#1D5091"/>
<path d="M68.2411 33.9292V35.4622H69.6269V36.2024H68.2411V39.0889C68.2411 39.7519 68.4281 40.1274 68.9667 40.1274C69.1559 40.131 69.3447 40.1095 69.5283 40.0636L69.5722 40.793C69.3852 40.8703 69.0882 40.9252 68.7143 40.9252C68.2627 40.9252 67.9002 40.7815 67.6687 40.5164C67.394 40.229 67.2948 39.7544 67.2948 39.1246V36.205H66.468V35.4647H67.2948V34.1834L68.2411 33.9292Z" fill="#1D5091"/>
<path d="M78.3065 37.2112C78.3065 36.5265 78.2849 35.974 78.2626 35.4656H79.1313L79.1758 36.3828H79.1975C79.5937 35.7307 80.2207 35.3442 81.0894 35.3442C82.3766 35.3442 83.3446 36.4377 83.3446 38.062C83.3446 39.9846 82.1788 40.9363 80.9279 40.9363C80.2239 40.9363 79.6077 40.6272 79.289 40.097H79.2668V43.0026H78.3128L78.3065 37.2112ZM79.2604 38.6369C79.2631 38.7704 79.2778 38.9034 79.3043 39.0342C79.3849 39.3596 79.5717 39.6485 79.8348 39.8548C80.098 40.0611 80.4224 40.1729 80.7562 40.1724C81.7795 40.1724 82.3734 39.3325 82.3734 38.1061C82.3734 37.035 81.8125 36.1177 80.7893 36.1177C80.1291 36.1177 79.5135 36.593 79.3266 37.3217C79.2885 37.4511 79.2671 37.5848 79.263 37.7197L79.2604 38.6369Z" fill="#1D5091"/>
<path d="M92.1564 32.9683H93.1243V40.8125H92.1564V32.9683Z" fill="#1D5091"/>
<path d="M105.288 40.8125L105.211 40.1386H105.178C104.881 40.5583 104.309 40.9338 103.55 40.9338C102.469 40.9338 101.922 40.1718 101.922 39.4009C101.922 38.1081 103.067 37.401 105.123 37.4125V37.302C105.123 36.86 105.002 36.0642 103.915 36.0642C103.425 36.0659 102.945 36.2036 102.528 36.4621L102.308 35.8234C102.748 35.5359 103.386 35.3481 104.058 35.3481C105.686 35.3481 106.081 36.464 106.081 37.5358V39.5357C106.074 39.9645 106.104 40.3932 106.17 40.817L105.288 40.8125ZM105.145 38.0838C104.089 38.0615 102.89 38.2493 102.89 39.2878C102.89 39.9176 103.308 40.2159 103.803 40.2159C104.085 40.2234 104.361 40.1408 104.592 39.98C104.824 39.8192 104.998 39.5887 105.091 39.3217C105.124 39.222 105.143 39.1178 105.145 39.0125V38.0838Z" fill="#1D5091"/>
<path d="M119.031 40.6138C118.776 40.746 118.217 40.9229 117.505 40.9229C115.899 40.9229 114.854 39.8294 114.854 38.1943C114.854 36.5476 115.976 35.3545 117.716 35.3545C118.288 35.3545 118.797 35.4982 119.058 35.6311L118.834 36.3809C118.603 36.2481 118.24 36.1254 117.712 36.1254C116.491 36.1254 115.831 37.0318 115.831 38.1477C115.831 39.3849 116.623 40.1469 117.679 40.1469C118.09 40.149 118.496 40.0584 118.867 39.8818L119.031 40.6138Z" fill="#1D5091"/>
<path d="M128.227 38.3158C128.249 39.6303 129.085 40.1719 130.053 40.1719C130.746 40.1719 131.164 40.0506 131.527 39.896L131.692 40.5916C131.351 40.7461 130.768 40.9231 129.921 40.9231C128.282 40.9231 127.303 39.8372 127.303 38.2276C127.303 36.618 128.249 35.3438 129.8 35.3438C131.538 35.3438 132.001 36.8767 132.001 37.8629C131.999 38.0144 131.988 38.1656 131.967 38.3158H128.227ZM131.065 37.6195C131.077 37.0013 130.811 36.04 129.723 36.04C128.744 36.04 128.315 36.9457 128.238 37.6195H131.065Z" fill="#1D5091"/>
</g>
<defs>
<clipPath id="clip0_273_2">
<rect width="132" height="43" fill="white"/>
</clipPath>
</defs>
</svg>
