<svg width="635" height="89" viewBox="0 0 635 89" fill="none" xmlns="http://www.w3.org/2000/svg">
<path d="M92.2803 11.4531H100.85V34.6709C100.85 37.4378 100.272 39.7816 99.1162 41.7021C97.9606 43.6064 96.3411 45.0469 94.2578 46.0234C92.1745 47 89.7249 47.4883 86.9092 47.4883C84.126 47.4883 81.6764 47 79.5605 46.0234C77.4609 45.0469 75.8171 43.6064 74.6289 41.7021C73.457 39.7816 72.8711 37.4378 72.8711 34.6709V11.4531H81.4648V34.6709C81.4648 36.1357 81.6764 37.332 82.0996 38.2598C82.5228 39.1712 83.1413 39.8385 83.9551 40.2617C84.7689 40.6849 85.7536 40.8965 86.9092 40.8965C88.0811 40.8965 89.0658 40.6849 89.8633 40.2617C90.6608 39.8385 91.263 39.1712 91.6699 38.2598C92.0768 37.332 92.2803 36.1357 92.2803 34.6709V11.4531ZM113.936 26.2236V47H105.708V20.584H113.423L113.936 26.2236ZM112.959 32.8887L111.03 32.9375C111.03 30.9193 111.274 29.1208 111.763 27.542C112.251 25.9469 112.943 24.596 113.838 23.4893C114.733 22.3825 115.799 21.5443 117.036 20.9746C118.289 20.3887 119.681 20.0957 121.211 20.0957C122.432 20.0957 123.547 20.2747 124.556 20.6328C125.581 20.9909 126.46 21.5687 127.192 22.3662C127.941 23.1637 128.511 24.2217 128.901 25.54C129.308 26.8421 129.512 28.4535 129.512 30.374V47H121.235V30.3496C121.235 29.2917 121.089 28.486 120.796 27.9326C120.503 27.363 120.08 26.9723 119.526 26.7607C118.973 26.5492 118.298 26.4434 117.5 26.4434C116.654 26.4434 115.938 26.6061 115.352 26.9316C114.766 27.2572 114.294 27.7129 113.936 28.2988C113.594 28.8685 113.341 29.5439 113.179 30.3252C113.032 31.1064 112.959 31.9609 112.959 32.8887ZM142.769 9.5V47H134.517V9.5H142.769ZM146.821 34.0605V33.5479C146.821 31.611 147.098 29.8288 147.651 28.2012C148.205 26.5573 149.019 25.1331 150.093 23.9287C151.167 22.7243 152.493 21.7884 154.072 21.1211C155.651 20.4375 157.474 20.0957 159.541 20.0957C161.624 20.0957 163.455 20.4375 165.034 21.1211C166.629 21.7884 167.964 22.7243 169.038 23.9287C170.112 25.1331 170.926 26.5573 171.479 28.2012C172.033 29.8288 172.31 31.611 172.31 33.5479V34.0605C172.31 35.9811 172.033 37.7633 171.479 39.4072C170.926 41.0348 170.112 42.459 169.038 43.6797C167.964 44.8841 166.637 45.82 165.059 46.4873C163.48 47.1546 161.657 47.4883 159.59 47.4883C157.523 47.4883 155.692 47.1546 154.097 46.4873C152.502 45.82 151.167 44.8841 150.093 43.6797C149.019 42.459 148.205 41.0348 147.651 39.4072C147.098 37.7633 146.821 35.9811 146.821 34.0605ZM155.049 33.5479V34.0605C155.049 35.0534 155.122 35.9811 155.269 36.8438C155.415 37.7064 155.659 38.4632 156.001 39.1143C156.343 39.749 156.807 40.2454 157.393 40.6035C157.979 40.9616 158.711 41.1406 159.59 41.1406C160.452 41.1406 161.169 40.9616 161.738 40.6035C162.324 40.2454 162.788 39.749 163.13 39.1143C163.472 38.4632 163.716 37.7064 163.862 36.8438C164.009 35.9811 164.082 35.0534 164.082 34.0605V33.5479C164.082 32.5876 164.009 31.6842 163.862 30.8379C163.716 29.9753 163.472 29.2184 163.13 28.5674C162.788 27.9001 162.324 27.3792 161.738 27.0049C161.152 26.6305 160.42 26.4434 159.541 26.4434C158.678 26.4434 157.954 26.6305 157.368 27.0049C156.799 27.3792 156.343 27.9001 156.001 28.5674C155.659 29.2184 155.415 29.9753 155.269 30.8379C155.122 31.6842 155.049 32.5876 155.049 33.5479ZM187.129 41.1406C187.894 41.1406 188.545 41.0023 189.082 40.7256C189.635 40.4326 190.05 40.0257 190.327 39.5049C190.62 38.9678 190.758 38.3249 190.742 37.5762H198.481C198.498 39.5618 198.009 41.3034 197.017 42.8008C196.04 44.2819 194.705 45.4375 193.013 46.2676C191.336 47.0814 189.44 47.4883 187.324 47.4883C185.257 47.4883 183.451 47.1546 181.904 46.4873C180.358 45.8037 179.064 44.8597 178.022 43.6553C176.997 42.4346 176.224 41.0104 175.703 39.3828C175.199 37.7552 174.946 35.9893 174.946 34.085V33.5234C174.946 31.6191 175.199 29.8532 175.703 28.2256C176.224 26.5817 176.997 25.1576 178.022 23.9531C179.064 22.7324 180.35 21.7884 181.88 21.1211C183.426 20.4375 185.225 20.0957 187.275 20.0957C189.473 20.0957 191.41 20.5107 193.086 21.3408C194.779 22.1709 196.105 23.3753 197.065 24.9541C198.026 26.5329 198.498 28.4453 198.481 30.6914H190.742C190.758 29.8939 190.636 29.1777 190.376 28.543C190.116 27.9082 189.709 27.4036 189.155 27.0293C188.618 26.6387 187.926 26.4434 187.08 26.4434C186.234 26.4434 185.55 26.6305 185.029 27.0049C184.508 27.3792 184.11 27.9001 183.833 28.5674C183.573 29.2184 183.394 29.9671 183.296 30.8135C183.215 31.6598 183.174 32.5632 183.174 33.5234V34.085C183.174 35.0615 183.215 35.9811 183.296 36.8438C183.394 37.6901 183.581 38.4388 183.857 39.0898C184.134 39.7246 184.533 40.2292 185.054 40.6035C185.575 40.9616 186.266 41.1406 187.129 41.1406ZM210.298 9.47559V47H202.07V9.47559H210.298ZM227.192 20.584L215.718 34.0361L209.712 40.042L206.123 34.8174L211.128 28.2988L217.329 20.584H227.192ZM218.379 47L211.323 34.9639L217.402 30.6426L227.803 47H218.379ZM249.897 43.8994L256.733 20.584H265.571L254.951 50.9307C254.723 51.598 254.422 52.3141 254.048 53.0791C253.674 53.8604 253.161 54.6009 252.51 55.3008C251.859 56.0007 251.021 56.5703 249.995 57.0098C248.986 57.4492 247.733 57.6689 246.235 57.6689C245.438 57.6689 244.852 57.6283 244.478 57.5469C244.119 57.4818 243.566 57.3597 242.817 57.1807V51.2969C243.029 51.2969 243.208 51.2969 243.354 51.2969C243.517 51.2969 243.696 51.2969 243.892 51.2969C244.771 51.2969 245.47 51.2074 245.991 51.0283C246.528 50.8493 246.935 50.5889 247.212 50.2471C247.505 49.9053 247.733 49.4902 247.896 49.002L249.897 43.8994ZM248.164 20.584L253.364 39.0654L254.268 47.7812H248.75L239.351 20.584H248.164ZM266.304 34.0605V33.5479C266.304 31.611 266.58 29.8288 267.134 28.2012C267.687 26.5573 268.501 25.1331 269.575 23.9287C270.649 22.7243 271.976 21.7884 273.555 21.1211C275.133 20.4375 276.956 20.0957 279.023 20.0957C281.107 20.0957 282.938 20.4375 284.517 21.1211C286.112 21.7884 287.446 22.7243 288.521 23.9287C289.595 25.1331 290.409 26.5573 290.962 28.2012C291.515 29.8288 291.792 31.611 291.792 33.5479V34.0605C291.792 35.9811 291.515 37.7633 290.962 39.4072C290.409 41.0348 289.595 42.459 288.521 43.6797C287.446 44.8841 286.12 45.82 284.541 46.4873C282.962 47.1546 281.139 47.4883 279.072 47.4883C277.005 47.4883 275.174 47.1546 273.579 46.4873C271.984 45.82 270.649 44.8841 269.575 43.6797C268.501 42.459 267.687 41.0348 267.134 39.4072C266.58 37.7633 266.304 35.9811 266.304 34.0605ZM274.531 33.5479V34.0605C274.531 35.0534 274.604 35.9811 274.751 36.8438C274.897 37.7064 275.142 38.4632 275.483 39.1143C275.825 39.749 276.289 40.2454 276.875 40.6035C277.461 40.9616 278.193 41.1406 279.072 41.1406C279.935 41.1406 280.651 40.9616 281.221 40.6035C281.807 40.2454 282.271 39.749 282.612 39.1143C282.954 38.4632 283.198 37.7064 283.345 36.8438C283.491 35.9811 283.564 35.0534 283.564 34.0605V33.5479C283.564 32.5876 283.491 31.6842 283.345 30.8379C283.198 29.9753 282.954 29.2184 282.612 28.5674C282.271 27.9001 281.807 27.3792 281.221 27.0049C280.635 26.6305 279.902 26.4434 279.023 26.4434C278.161 26.4434 277.437 26.6305 276.851 27.0049C276.281 27.3792 275.825 27.9001 275.483 28.5674C275.142 29.2184 274.897 29.9753 274.751 30.8379C274.604 31.6842 274.531 32.5876 274.531 33.5479ZM310.884 40.5791V20.584H319.136V47H311.421L310.884 40.5791ZM311.665 35.208L313.813 35.1592C313.813 36.9333 313.602 38.5771 313.179 40.0908C312.756 41.5882 312.129 42.8903 311.299 43.9971C310.485 45.1038 309.476 45.9665 308.271 46.585C307.083 47.1872 305.708 47.4883 304.146 47.4883C302.843 47.4883 301.647 47.3092 300.557 46.9512C299.482 46.5768 298.555 45.999 297.773 45.2178C296.992 44.4202 296.382 43.403 295.942 42.166C295.519 40.9128 295.308 39.4154 295.308 37.6738V20.584H303.535V37.7227C303.535 38.3086 303.608 38.8132 303.755 39.2363C303.901 39.6595 304.113 40.0176 304.39 40.3105C304.666 40.5872 305.008 40.7988 305.415 40.9453C305.838 41.0755 306.318 41.1406 306.855 41.1406C308.092 41.1406 309.061 40.8802 309.761 40.3594C310.461 39.8385 310.949 39.1305 311.226 38.2354C311.519 37.3402 311.665 36.3311 311.665 35.208ZM331.978 27.127V47H323.75V20.584H331.44L331.978 27.127ZM339.79 20.3887L339.644 28.0303C339.318 27.9977 338.879 27.957 338.325 27.9082C337.772 27.8594 337.308 27.835 336.934 27.835C335.973 27.835 335.143 27.9489 334.443 28.1768C333.76 28.3883 333.19 28.7139 332.734 29.1533C332.295 29.5765 331.969 30.1136 331.758 30.7646C331.562 31.4157 331.473 32.1725 331.489 33.0352L330 32.0586C330 30.2845 330.171 28.6732 330.513 27.2246C330.871 25.7598 331.375 24.4984 332.026 23.4404C332.677 22.3662 333.467 21.5443 334.395 20.9746C335.322 20.3887 336.364 20.0957 337.52 20.0957C337.926 20.0957 338.325 20.1201 338.716 20.1689C339.123 20.2178 339.481 20.291 339.79 20.3887ZM366.23 41.1406C366.995 41.1406 367.646 41.0023 368.184 40.7256C368.737 40.4326 369.152 40.0257 369.429 39.5049C369.722 38.9678 369.86 38.3249 369.844 37.5762H377.583C377.599 39.5618 377.111 41.3034 376.118 42.8008C375.142 44.2819 373.807 45.4375 372.114 46.2676C370.438 47.0814 368.542 47.4883 366.426 47.4883C364.359 47.4883 362.552 47.1546 361.006 46.4873C359.46 45.8037 358.166 44.8597 357.124 43.6553C356.099 42.4346 355.326 41.0104 354.805 39.3828C354.3 37.7552 354.048 35.9893 354.048 34.085V33.5234C354.048 31.6191 354.3 29.8532 354.805 28.2256C355.326 26.5817 356.099 25.1576 357.124 23.9531C358.166 22.7324 359.451 21.7884 360.981 21.1211C362.528 20.4375 364.326 20.0957 366.377 20.0957C368.574 20.0957 370.511 20.5107 372.188 21.3408C373.88 22.1709 375.207 23.3753 376.167 24.9541C377.127 26.5329 377.599 28.4453 377.583 30.6914H369.844C369.86 29.8939 369.738 29.1777 369.478 28.543C369.217 27.9082 368.81 27.4036 368.257 27.0293C367.72 26.6387 367.028 26.4434 366.182 26.4434C365.335 26.4434 364.652 26.6305 364.131 27.0049C363.61 27.3792 363.211 27.9001 362.935 28.5674C362.674 29.2184 362.495 29.9671 362.397 30.8135C362.316 31.6598 362.275 32.5632 362.275 33.5234V34.085C362.275 35.0615 362.316 35.9811 362.397 36.8438C362.495 37.6901 362.682 38.4388 362.959 39.0898C363.236 39.7246 363.634 40.2292 364.155 40.6035C364.676 40.9616 365.368 41.1406 366.23 41.1406ZM389.399 27.127V47H381.172V20.584H388.862L389.399 27.127ZM397.212 20.3887L397.065 28.0303C396.74 27.9977 396.3 27.957 395.747 27.9082C395.194 27.8594 394.73 27.835 394.355 27.835C393.395 27.835 392.565 27.9489 391.865 28.1768C391.182 28.3883 390.612 28.7139 390.156 29.1533C389.717 29.5765 389.391 30.1136 389.18 30.7646C388.984 31.4157 388.895 32.1725 388.911 33.0352L387.422 32.0586C387.422 30.2845 387.593 28.6732 387.935 27.2246C388.293 25.7598 388.797 24.4984 389.448 23.4404C390.099 22.3662 390.889 21.5443 391.816 20.9746C392.744 20.3887 393.786 20.0957 394.941 20.0957C395.348 20.0957 395.747 20.1201 396.138 20.1689C396.545 20.2178 396.903 20.291 397.212 20.3887ZM412.349 47.4883C410.2 47.4883 408.28 47.1546 406.587 46.4873C404.894 45.8037 403.462 44.8678 402.29 43.6797C401.134 42.4915 400.247 41.1243 399.629 39.5781C399.027 38.0319 398.726 36.3962 398.726 34.6709V33.7432C398.726 31.8063 398.994 30.016 399.531 28.3721C400.068 26.7119 400.866 25.2633 401.924 24.0264C402.982 22.7894 404.308 21.8291 405.903 21.1455C407.498 20.4456 409.354 20.0957 411.47 20.0957C413.341 20.0957 415.018 20.3968 416.499 20.999C417.98 21.6012 419.233 22.4639 420.259 23.5869C421.3 24.71 422.09 26.069 422.627 27.6641C423.18 29.2591 423.457 31.0495 423.457 33.0352V36.3799H401.875V31.2285H415.425V30.5938C415.441 29.7148 415.286 28.9661 414.961 28.3477C414.652 27.7292 414.196 27.2572 413.594 26.9316C412.992 26.6061 412.259 26.4434 411.396 26.4434C410.501 26.4434 409.761 26.6387 409.175 27.0293C408.605 27.4199 408.158 27.957 407.832 28.6406C407.523 29.3079 407.303 30.0811 407.173 30.96C407.043 31.8389 406.978 32.7666 406.978 33.7432V34.6709C406.978 35.6475 407.108 36.5345 407.368 37.332C407.645 38.1296 408.035 38.8132 408.54 39.3828C409.061 39.9362 409.679 40.3675 410.396 40.6768C411.128 40.986 411.958 41.1406 412.886 41.1406C414.009 41.1406 415.116 40.929 416.206 40.5059C417.297 40.0827 418.232 39.3828 419.014 38.4062L422.749 42.8496C422.212 43.6146 421.447 44.3551 420.454 45.0713C419.478 45.7874 418.306 46.3734 416.938 46.8291C415.571 47.2686 414.041 47.4883 412.349 47.4883ZM440.522 40.3594V29.4707C440.522 28.722 440.417 28.0791 440.205 27.542C439.993 27.0049 439.66 26.5898 439.204 26.2969C438.748 25.9876 438.138 25.833 437.373 25.833C436.755 25.833 436.226 25.9388 435.786 26.1504C435.347 26.362 435.013 26.6794 434.785 27.1025C434.557 27.5257 434.443 28.0628 434.443 28.7139H426.216C426.216 27.4932 426.484 26.362 427.021 25.3203C427.575 24.2624 428.356 23.3428 429.365 22.5615C430.391 21.7803 431.611 21.1781 433.027 20.7549C434.46 20.3154 436.055 20.0957 437.812 20.0957C439.912 20.0957 441.784 20.4456 443.428 21.1455C445.088 21.8454 446.398 22.8952 447.358 24.2949C448.319 25.6784 448.799 27.4199 448.799 29.5195V40.335C448.799 42.0602 448.896 43.3704 449.092 44.2656C449.287 45.1445 449.564 45.9176 449.922 46.585V47H441.67C441.279 46.1862 440.986 45.1934 440.791 44.0215C440.612 42.8333 440.522 41.6126 440.522 40.3594ZM441.523 30.8623L441.572 35.2568H437.935C437.17 35.2568 436.519 35.3626 435.981 35.5742C435.461 35.7858 435.037 36.0788 434.712 36.4531C434.403 36.8112 434.175 37.2181 434.028 37.6738C433.898 38.1296 433.833 38.6097 433.833 39.1143C433.833 39.6025 433.947 40.042 434.175 40.4326C434.419 40.807 434.744 41.0999 435.151 41.3115C435.558 41.5231 436.014 41.6289 436.519 41.6289C437.43 41.6289 438.203 41.458 438.838 41.1162C439.489 40.7581 439.985 40.3268 440.327 39.8223C440.669 39.3177 440.84 38.8457 440.84 38.4062L442.646 41.7754C442.321 42.4264 441.947 43.0856 441.523 43.7529C441.117 44.4202 440.604 45.0387 439.985 45.6084C439.383 46.1618 438.643 46.6175 437.764 46.9756C436.885 47.3174 435.819 47.4883 434.565 47.4883C432.938 47.4883 431.44 47.1546 430.073 46.4873C428.722 45.82 427.64 44.8923 426.826 43.7041C426.012 42.4997 425.605 41.1162 425.605 39.5537C425.605 38.1865 425.85 36.9658 426.338 35.8916C426.842 34.8174 427.599 33.9059 428.608 33.1572C429.618 32.4085 430.903 31.8389 432.466 31.4482C434.028 31.0576 435.868 30.8623 437.983 30.8623H441.523ZM467.28 20.584V26.2969H451.362V20.584H467.28ZM454.707 14.0166H462.935V38.3818C462.935 39.0817 463.016 39.627 463.179 40.0176C463.341 40.3919 463.618 40.6605 464.009 40.8232C464.416 40.9697 464.953 41.043 465.62 41.043C466.092 41.043 466.483 41.0348 466.792 41.0186C467.101 40.986 467.394 40.9453 467.671 40.8965V46.7803C466.971 47.0081 466.239 47.179 465.474 47.293C464.709 47.4232 463.895 47.4883 463.032 47.4883C461.274 47.4883 459.769 47.2116 458.516 46.6582C457.279 46.1048 456.335 45.234 455.684 44.0459C455.033 42.8577 454.707 41.3115 454.707 39.4072V14.0166ZM479.243 20.584V47H470.991V20.584H479.243ZM470.503 13.7725C470.503 12.6006 470.926 11.6403 471.772 10.8916C472.619 10.1429 473.717 9.76855 475.068 9.76855C476.419 9.76855 477.518 10.1429 478.364 10.8916C479.211 11.6403 479.634 12.6006 479.634 13.7725C479.634 14.9443 479.211 15.9046 478.364 16.6533C477.518 17.402 476.419 17.7764 475.068 17.7764C473.717 17.7764 472.619 17.402 471.772 16.6533C470.926 15.9046 470.503 14.9443 470.503 13.7725ZM493.843 41.3604L499.043 20.584H507.71L499.067 47H493.94L493.843 41.3604ZM490.767 20.584L495.894 41.3604L495.845 47H490.693L482.075 20.584H490.767ZM518.843 20.584V47H510.591V20.584H518.843ZM510.103 13.7725C510.103 12.6006 510.526 11.6403 511.372 10.8916C512.218 10.1429 513.317 9.76855 514.668 9.76855C516.019 9.76855 517.118 10.1429 517.964 10.8916C518.81 11.6403 519.233 12.6006 519.233 13.7725C519.233 14.9443 518.81 15.9046 517.964 16.6533C517.118 17.402 516.019 17.7764 514.668 17.7764C513.317 17.7764 512.218 17.402 511.372 16.6533C510.526 15.9046 510.103 14.9443 510.103 13.7725ZM537.837 20.584V26.2969H521.919V20.584H537.837ZM525.264 14.0166H533.491V38.3818C533.491 39.0817 533.573 39.627 533.735 40.0176C533.898 40.3919 534.175 40.6605 534.565 40.8232C534.972 40.9697 535.509 41.043 536.177 41.043C536.649 41.043 537.039 41.0348 537.349 41.0186C537.658 40.986 537.951 40.9453 538.228 40.8965V46.7803C537.528 47.0081 536.795 47.179 536.03 47.293C535.265 47.4232 534.451 47.4883 533.589 47.4883C531.831 47.4883 530.326 47.2116 529.072 46.6582C527.835 46.1048 526.891 45.234 526.24 44.0459C525.589 42.8577 525.264 41.3115 525.264 39.4072V14.0166ZM549.214 43.8994L556.05 20.584H564.888L554.268 50.9307C554.04 51.598 553.739 52.3141 553.364 53.0791C552.99 53.8604 552.477 54.6009 551.826 55.3008C551.175 56.0007 550.337 56.5703 549.312 57.0098C548.302 57.4492 547.049 57.6689 545.552 57.6689C544.754 57.6689 544.168 57.6283 543.794 57.5469C543.436 57.4818 542.882 57.3597 542.134 57.1807V51.2969C542.345 51.2969 542.524 51.2969 542.671 51.2969C542.834 51.2969 543.013 51.2969 543.208 51.2969C544.087 51.2969 544.787 51.2074 545.308 51.0283C545.845 50.8493 546.252 50.5889 546.528 50.2471C546.821 49.9053 547.049 49.4902 547.212 49.002L549.214 43.8994ZM547.48 20.584L552.681 39.0654L553.584 47.7812H548.066L538.667 20.584H547.48Z" fill="#03488B"/>
<path d="M357.007 61.5995C361.146 63.4327 369.786 65.4894 374.668 63.7718C376.899 62.9867 379.681 63.0281 382.044 62.1965C383.793 61.5812 385.757 60.1289 387.189 61.0035C393.343 64.762 407.046 67.8298 414.887 63.9854C416.619 63.1357 418.504 62.0384 420.571 61.6581C422.476 61.3078 424.292 62.5529 426.147 63.5714C430.176 65.7844 436.753 65.6492 441.983 65.6145C448.534 65.571 450.929 64.5883 456.326 62.5797C459.476 61.4074 464.099 65.2808 468.018 65.4417C471.643 65.5904 481.541 67.7182 484.252 65.5883C485.501 64.6074 488.891 64.7456 489.984 63.5434C490.575 62.8938 494.638 61.4209 495.715 61.4138C496.443 61.4089 498.581 63.2578 499.195 63.5953C501.293 64.7474 503.792 64.6993 506.002 65.4439C511.394 67.261 515.536 66.3859 520.777 65.6285C522.257 65.4145 525.081 64.5841 526.099 63.7842C526.515 63.458 529.824 61.5848 529.826 61.8657C529.829 62.3899 536.503 64.9493 538.834 65.7348C542.77 67.0612 549.403 66.0719 553.006 64.2557C556.338 62.5754 567.286 59.1863 563.004 59.2147" stroke="#CBD2D8" stroke-width="3"/>
</svg>
