<svg width="333" height="44" viewBox="0 0 333 44" fill="none" xmlns="http://www.w3.org/2000/svg">
<path d="M10.832 34H3.73486L3.77881 28.0674H10.832C12.2969 28.0674 13.5347 27.7158 14.5454 27.0127C15.5708 26.3096 16.3472 25.2622 16.8745 23.8706C17.4165 22.4644 17.6875 20.7358 17.6875 18.6851V17.3008C17.6875 15.7627 17.5337 14.415 17.2261 13.2578C16.9331 12.0859 16.4937 11.1118 15.9077 10.3354C15.3218 9.54443 14.5894 8.95117 13.7104 8.55566C12.8462 8.16016 11.8501 7.9624 10.7222 7.9624H3.60303V2.00781H10.7222C12.8901 2.00781 14.875 2.38135 16.6768 3.12842C18.4932 3.86084 20.0605 4.91553 21.3789 6.29248C22.7119 7.65479 23.7373 9.27344 24.4551 11.1484C25.1875 13.0088 25.5537 15.0742 25.5537 17.3447V18.6851C25.5537 20.9409 25.1875 23.0063 24.4551 24.8813C23.7373 26.7563 22.7192 28.375 21.4009 29.7373C20.0825 31.0996 18.5225 32.1543 16.7207 32.9014C14.9336 33.6338 12.9707 34 10.832 34ZM8.15137 2.00781V34H0.438965V2.00781H8.15137ZM40.7368 34.4395C38.8032 34.4395 37.0747 34.1392 35.5513 33.5386C34.0278 32.9233 32.7388 32.0811 31.6841 31.0117C30.644 29.9424 29.8457 28.7119 29.2891 27.3203C28.7471 25.9287 28.4761 24.4565 28.4761 22.9038V22.0688C28.4761 20.3257 28.7178 18.7144 29.2012 17.2349C29.6846 15.7407 30.4023 14.437 31.3545 13.3237C32.3066 12.2104 33.5005 11.3462 34.936 10.731C36.3716 10.1011 38.0415 9.78613 39.9458 9.78613C41.6304 9.78613 43.1392 10.0571 44.4722 10.5991C45.8052 11.1411 46.9331 11.9175 47.856 12.9282C48.7935 13.939 49.5039 15.1621 49.9873 16.5977C50.4854 18.0332 50.7344 19.6445 50.7344 21.4316V24.4419H31.3105V19.8057H43.5054V19.2344C43.52 18.4434 43.3809 17.7695 43.0879 17.2129C42.8096 16.6562 42.3994 16.2314 41.8574 15.9385C41.3154 15.6455 40.6562 15.499 39.8799 15.499C39.0742 15.499 38.4077 15.6748 37.8804 16.0264C37.3677 16.3779 36.9648 16.8613 36.6719 17.4766C36.3936 18.0771 36.1958 18.7729 36.0786 19.564C35.9614 20.355 35.9028 21.1899 35.9028 22.0688V22.9038C35.9028 23.7827 36.02 24.5811 36.2544 25.2988C36.5034 26.0166 36.855 26.6318 37.3091 27.1445C37.7778 27.6426 38.3345 28.0308 38.979 28.3091C39.6382 28.5874 40.3853 28.7266 41.2202 28.7266C42.231 28.7266 43.2271 28.5361 44.2085 28.1553C45.1899 27.7744 46.0322 27.1445 46.7354 26.2656L50.0972 30.2646C49.6138 30.9531 48.9253 31.6196 48.0317 32.2642C47.1528 32.9087 46.0981 33.436 44.8677 33.8462C43.6372 34.2417 42.2603 34.4395 40.7368 34.4395ZM66.2031 27.3203C66.2031 26.9102 66.064 26.5586 65.7856 26.2656C65.522 25.958 65.0532 25.6797 64.3794 25.4307C63.7056 25.167 62.7607 24.9033 61.5449 24.6396C60.3877 24.3906 59.2964 24.061 58.271 23.6509C57.2603 23.2407 56.374 22.7427 55.6123 22.1567C54.8506 21.5708 54.25 20.875 53.8105 20.0693C53.3857 19.2637 53.1733 18.3408 53.1733 17.3008C53.1733 16.29 53.3857 15.3379 53.8105 14.4443C54.25 13.5361 54.8872 12.7378 55.7222 12.0493C56.5718 11.3462 57.6045 10.7969 58.8203 10.4014C60.0361 9.99121 61.4204 9.78613 62.9731 9.78613C65.1118 9.78613 66.9575 10.1157 68.5103 10.7749C70.063 11.4194 71.2568 12.3276 72.0918 13.4995C72.9414 14.6567 73.3662 15.9971 73.3662 17.5205H65.9614C65.9614 16.9199 65.8589 16.4072 65.6538 15.9824C65.4634 15.5576 65.1484 15.2354 64.709 15.0156C64.2695 14.7812 63.6836 14.6641 62.9512 14.6641C62.4385 14.6641 61.9697 14.7593 61.5449 14.9497C61.1348 15.1401 60.8052 15.4038 60.5562 15.7407C60.3071 16.0776 60.1826 16.4731 60.1826 16.9272C60.1826 17.2495 60.2559 17.5425 60.4023 17.8062C60.5635 18.0552 60.8052 18.2896 61.1274 18.5093C61.4497 18.7144 61.8599 18.9048 62.3579 19.0806C62.856 19.2417 63.4565 19.3882 64.1597 19.52C65.7563 19.813 67.2505 20.2305 68.6421 20.7725C70.0337 21.3145 71.1616 22.0835 72.0259 23.0796C72.9048 24.0757 73.3442 25.416 73.3442 27.1006C73.3442 28.1553 73.1025 29.1294 72.6191 30.0229C72.1357 30.9019 71.4399 31.6782 70.5317 32.3521C69.6235 33.0112 68.5322 33.5239 67.2578 33.8901C65.9834 34.2563 64.5479 34.4395 62.9512 34.4395C60.6807 34.4395 58.7617 34.0366 57.1943 33.231C55.627 32.4106 54.4404 31.3853 53.6348 30.1548C52.8438 28.9097 52.4482 27.6499 52.4482 26.3755H59.3477C59.377 27.1079 59.5527 27.7085 59.875 28.1772C60.2119 28.646 60.6587 28.9902 61.2153 29.21C61.772 29.4297 62.4165 29.5396 63.1489 29.5396C63.8228 29.5396 64.3794 29.4443 64.8188 29.2539C65.2729 29.0635 65.6172 28.8071 65.8516 28.4849C66.0859 28.1479 66.2031 27.7598 66.2031 27.3203ZM84.6382 10.2256V34H77.2114V10.2256H84.6382ZM76.772 4.09521C76.772 3.04053 77.1528 2.17627 77.9146 1.50244C78.6763 0.828613 79.665 0.491699 80.8809 0.491699C82.0967 0.491699 83.0854 0.828613 83.8472 1.50244C84.6089 2.17627 84.9897 3.04053 84.9897 4.09521C84.9897 5.1499 84.6089 6.01416 83.8472 6.68799C83.0854 7.36182 82.0967 7.69873 80.8809 7.69873C79.665 7.69873 78.6763 7.36182 77.9146 6.68799C77.1528 6.01416 76.772 5.1499 76.772 4.09521ZM104.15 10.2256H110.874V33.0771C110.874 35.2744 110.368 37.1348 109.357 38.6582C108.347 40.1963 106.933 41.3608 105.117 42.1519C103.315 42.9575 101.206 43.3604 98.7886 43.3604C97.7192 43.3604 96.6279 43.2212 95.5146 42.9429C94.4014 42.6792 93.3613 42.2837 92.3945 41.7563C91.4277 41.229 90.6147 40.5771 89.9556 39.8008L93.0537 35.4502C93.6543 36.124 94.4087 36.6953 95.3169 37.1641C96.2251 37.6475 97.2944 37.8892 98.5249 37.8892C99.5942 37.8892 100.488 37.6987 101.206 37.3179C101.938 36.937 102.495 36.3804 102.875 35.6479C103.256 34.9302 103.447 34.0586 103.447 33.0332V15.8506L104.15 10.2256ZM88.3516 22.3984V21.937C88.3516 20.1353 88.5713 18.4946 89.0107 17.0151C89.4648 15.521 90.1094 14.2393 90.9443 13.1699C91.7939 12.0859 92.8193 11.251 94.0205 10.665C95.2217 10.0791 96.5767 9.78613 98.0854 9.78613C99.7114 9.78613 101.044 10.1011 102.084 10.731C103.139 11.3462 103.981 12.2104 104.611 13.3237C105.256 14.437 105.754 15.7407 106.105 17.2349C106.472 18.7144 106.779 20.311 107.028 22.0249V22.5742C106.779 24.1855 106.435 25.709 105.996 27.1445C105.571 28.5654 105.014 29.8252 104.326 30.9238C103.637 32.0225 102.773 32.8867 101.733 33.5166C100.708 34.1318 99.4771 34.4395 98.0415 34.4395C96.5474 34.4395 95.1997 34.1392 93.9985 33.5386C92.812 32.938 91.7939 32.0957 90.9443 31.0117C90.1094 29.9277 89.4648 28.6533 89.0107 27.1885C88.5713 25.7236 88.3516 24.127 88.3516 22.3984ZM95.7563 21.937V22.3984C95.7563 23.292 95.8369 24.1196 95.998 24.8813C96.1738 25.6431 96.4375 26.3169 96.7891 26.9028C97.1406 27.4741 97.5728 27.9209 98.0854 28.2432C98.6128 28.5654 99.228 28.7266 99.9312 28.7266C101 28.7266 101.865 28.4995 102.524 28.0454C103.183 27.5913 103.659 26.9468 103.952 26.1118C104.245 25.2769 104.37 24.2954 104.326 23.1675V21.4316C104.355 20.4648 104.289 19.6152 104.128 18.8828C103.967 18.1357 103.71 17.5132 103.359 17.0151C103.022 16.5171 102.568 16.1436 101.997 15.8945C101.44 15.6309 100.766 15.499 99.9751 15.499C99.2866 15.499 98.6787 15.6602 98.1514 15.9824C97.624 16.3047 97.1846 16.7588 96.833 17.3447C96.4814 17.916 96.2104 18.5972 96.02 19.3882C95.8442 20.1646 95.7563 21.0142 95.7563 21.937ZM122.409 15.3013V34H115.004V10.2256H121.948L122.409 15.3013ZM121.53 21.2998L119.794 21.3438C119.794 19.5273 120.014 17.9087 120.454 16.4878C120.893 15.0522 121.516 13.8364 122.321 12.8403C123.127 11.8442 124.086 11.0898 125.2 10.5771C126.328 10.0498 127.58 9.78613 128.957 9.78613C130.056 9.78613 131.059 9.94727 131.967 10.2695C132.89 10.5918 133.681 11.1118 134.34 11.8296C135.014 12.5474 135.527 13.4995 135.878 14.686C136.245 15.8579 136.428 17.3081 136.428 19.0366V34H128.979V19.0146C128.979 18.0625 128.847 17.3374 128.583 16.8394C128.32 16.3267 127.939 15.9751 127.441 15.7847C126.943 15.5942 126.335 15.499 125.617 15.499C124.855 15.499 124.211 15.6455 123.684 15.9385C123.156 16.2314 122.731 16.6416 122.409 17.1689C122.102 17.6816 121.875 18.2896 121.728 18.9927C121.596 19.6958 121.53 20.4648 121.53 21.2998ZM152.05 34.4395C150.117 34.4395 148.388 34.1392 146.865 33.5386C145.341 32.9233 144.052 32.0811 142.998 31.0117C141.958 29.9424 141.159 28.7119 140.603 27.3203C140.061 25.9287 139.79 24.4565 139.79 22.9038V22.0688C139.79 20.3257 140.031 18.7144 140.515 17.2349C140.998 15.7407 141.716 14.437 142.668 13.3237C143.62 12.2104 144.814 11.3462 146.25 10.731C147.685 10.1011 149.355 9.78613 151.259 9.78613C152.944 9.78613 154.453 10.0571 155.786 10.5991C157.119 11.1411 158.247 11.9175 159.169 12.9282C160.107 13.939 160.817 15.1621 161.301 16.5977C161.799 18.0332 162.048 19.6445 162.048 21.4316V24.4419H142.624V19.8057H154.819V19.2344C154.833 18.4434 154.694 17.7695 154.401 17.2129C154.123 16.6562 153.713 16.2314 153.171 15.9385C152.629 15.6455 151.97 15.499 151.193 15.499C150.388 15.499 149.721 15.6748 149.194 16.0264C148.681 16.3779 148.278 16.8613 147.985 17.4766C147.707 18.0771 147.509 18.7729 147.392 19.564C147.275 20.355 147.216 21.1899 147.216 22.0688V22.9038C147.216 23.7827 147.333 24.5811 147.568 25.2988C147.817 26.0166 148.168 26.6318 148.623 27.1445C149.091 27.6426 149.648 28.0308 150.292 28.3091C150.952 28.5874 151.699 28.7266 152.534 28.7266C153.544 28.7266 154.541 28.5361 155.522 28.1553C156.503 27.7744 157.346 27.1445 158.049 26.2656L161.411 30.2646C160.927 30.9531 160.239 31.6196 159.345 32.2642C158.466 32.9087 157.412 33.436 156.181 33.8462C154.951 34.2417 153.574 34.4395 152.05 34.4395ZM172.529 16.1143V34H165.124V10.2256H172.045L172.529 16.1143ZM179.56 10.0498L179.428 16.9272C179.135 16.8979 178.74 16.8613 178.242 16.8174C177.744 16.7734 177.326 16.7515 176.989 16.7515C176.125 16.7515 175.378 16.854 174.748 17.0591C174.133 17.2495 173.62 17.5425 173.21 17.938C172.814 18.3188 172.521 18.8022 172.331 19.3882C172.155 19.9741 172.075 20.6553 172.089 21.4316L170.749 20.5527C170.749 18.9561 170.903 17.5059 171.21 16.2021C171.533 14.8838 171.987 13.7485 172.573 12.7964C173.159 11.8296 173.869 11.0898 174.704 10.5771C175.539 10.0498 176.477 9.78613 177.517 9.78613C177.883 9.78613 178.242 9.80811 178.593 9.85205C178.959 9.896 179.282 9.96191 179.56 10.0498ZM206.718 20.3989H198.479L198.435 15.3452H205.114C206.315 15.3452 207.275 15.2134 207.993 14.9497C208.71 14.6714 209.23 14.2686 209.553 13.7412C209.89 13.2139 210.058 12.5547 210.058 11.7637C210.058 10.8555 209.89 10.123 209.553 9.56641C209.216 9.00977 208.681 8.60693 207.949 8.35791C207.231 8.09424 206.301 7.9624 205.158 7.9624H201.379V34H193.667V2.00781H205.158C207.136 2.00781 208.901 2.19092 210.454 2.55713C212.006 2.90869 213.325 3.45068 214.409 4.18311C215.507 4.91553 216.342 5.83838 216.914 6.95166C217.485 8.05029 217.771 9.34668 217.771 10.8408C217.771 12.1445 217.492 13.3677 216.936 14.5103C216.379 15.6528 215.449 16.583 214.145 17.3008C212.856 18.0039 211.091 18.3701 208.85 18.3994L206.718 20.3989ZM206.411 34H196.611L199.248 28.0674H206.411C207.465 28.0674 208.308 27.9062 208.938 27.584C209.582 27.2471 210.043 26.8076 210.322 26.2656C210.615 25.709 210.761 25.0938 210.761 24.4199C210.761 23.5996 210.622 22.8892 210.344 22.2886C210.08 21.688 209.655 21.2266 209.069 20.9043C208.483 20.5674 207.7 20.3989 206.718 20.3989H200.236L200.28 15.3452H208.037L209.838 17.3667C211.977 17.2788 213.669 17.5791 214.914 18.2676C216.174 18.9561 217.075 19.8643 217.617 20.9922C218.159 22.1201 218.43 23.2993 218.43 24.5298C218.43 26.6245 217.976 28.375 217.067 29.7812C216.174 31.1875 214.833 32.2422 213.046 32.9453C211.259 33.6484 209.047 34 206.411 34ZM229.833 16.1143V34H222.429V10.2256H229.35L229.833 16.1143ZM236.865 10.0498L236.733 16.9272C236.44 16.8979 236.044 16.8613 235.546 16.8174C235.048 16.7734 234.631 16.7515 234.294 16.7515C233.43 16.7515 232.683 16.854 232.053 17.0591C231.438 17.2495 230.925 17.5425 230.515 17.938C230.119 18.3188 229.826 18.8022 229.636 19.3882C229.46 19.9741 229.379 20.6553 229.394 21.4316L228.054 20.5527C228.054 18.9561 228.208 17.5059 228.515 16.2021C228.837 14.8838 229.292 13.7485 229.877 12.7964C230.463 11.8296 231.174 11.0898 232.009 10.5771C232.844 10.0498 233.781 9.78613 234.821 9.78613C235.188 9.78613 235.546 9.80811 235.898 9.85205C236.264 9.896 236.586 9.96191 236.865 10.0498ZM251.103 28.0234V18.2236C251.103 17.5498 251.008 16.9712 250.817 16.4878C250.627 16.0044 250.327 15.6309 249.917 15.3672C249.506 15.0889 248.957 14.9497 248.269 14.9497C247.712 14.9497 247.236 15.0449 246.84 15.2354C246.445 15.4258 246.145 15.7114 245.939 16.0923C245.734 16.4731 245.632 16.9565 245.632 17.5425H238.227C238.227 16.4438 238.469 15.4258 238.952 14.4883C239.45 13.5361 240.153 12.7085 241.062 12.0054C241.984 11.3022 243.083 10.7603 244.357 10.3794C245.646 9.98389 247.082 9.78613 248.664 9.78613C250.554 9.78613 252.238 10.1011 253.718 10.731C255.212 11.3608 256.391 12.3057 257.255 13.5654C258.12 14.8105 258.552 16.3779 258.552 18.2676V28.0015C258.552 29.5542 258.64 30.7334 258.815 31.5391C258.991 32.3301 259.24 33.0259 259.562 33.6265V34H252.136C251.784 33.2676 251.521 32.374 251.345 31.3193C251.184 30.25 251.103 29.1514 251.103 28.0234ZM252.004 19.4761L252.048 23.4312H248.774C248.085 23.4312 247.5 23.5264 247.016 23.7168C246.547 23.9072 246.167 24.1709 245.874 24.5078C245.595 24.8301 245.39 25.1963 245.258 25.6064C245.141 26.0166 245.083 26.4487 245.083 26.9028C245.083 27.3423 245.185 27.7378 245.39 28.0894C245.61 28.4263 245.903 28.6899 246.269 28.8804C246.635 29.0708 247.045 29.166 247.5 29.166C248.32 29.166 249.016 29.0122 249.587 28.7046C250.173 28.3823 250.62 27.9941 250.927 27.54C251.235 27.0859 251.389 26.6611 251.389 26.2656L253.015 29.2979C252.722 29.8838 252.385 30.4771 252.004 31.0776C251.638 31.6782 251.176 32.2349 250.62 32.7476C250.078 33.2456 249.411 33.6558 248.62 33.978C247.829 34.2856 246.87 34.4395 245.742 34.4395C244.277 34.4395 242.929 34.1392 241.699 33.5386C240.483 32.938 239.509 32.103 238.776 31.0337C238.044 29.9497 237.678 28.7046 237.678 27.2983C237.678 26.0679 237.897 24.9692 238.337 24.0024C238.791 23.0356 239.472 22.2153 240.38 21.5415C241.289 20.8677 242.446 20.355 243.852 20.0034C245.258 19.6519 246.914 19.4761 248.818 19.4761H252.004ZM269.934 15.3013V34H262.529V10.2256H269.472L269.934 15.3013ZM269.055 21.2998L267.319 21.3438C267.319 19.5273 267.539 17.9087 267.978 16.4878C268.417 15.0522 269.04 13.8364 269.846 12.8403C270.651 11.8442 271.611 11.0898 272.724 10.5771C273.852 10.0498 275.104 9.78613 276.481 9.78613C277.58 9.78613 278.583 9.94727 279.492 10.2695C280.415 10.5918 281.206 11.1118 281.865 11.8296C282.539 12.5474 283.051 13.4995 283.403 14.686C283.769 15.8579 283.952 17.3081 283.952 19.0366V34H276.503V19.0146C276.503 18.0625 276.372 17.3374 276.108 16.8394C275.844 16.3267 275.463 15.9751 274.965 15.7847C274.467 15.5942 273.859 15.499 273.142 15.499C272.38 15.499 271.735 15.6455 271.208 15.9385C270.681 16.2314 270.256 16.6416 269.934 17.1689C269.626 17.6816 269.399 18.2896 269.252 18.9927C269.121 19.6958 269.055 20.4648 269.055 21.2998ZM301.728 28.5508V0.25H309.177V34H302.497L301.728 28.5508ZM287.138 22.3984V21.937C287.138 20.1353 287.336 18.4946 287.731 17.0151C288.127 15.521 288.713 14.2393 289.489 13.1699C290.266 12.0859 291.232 11.251 292.39 10.665C293.547 10.0791 294.88 9.78613 296.389 9.78613C297.736 9.78613 298.916 10.1011 299.926 10.731C300.937 11.3462 301.801 12.2104 302.519 13.3237C303.237 14.437 303.823 15.7407 304.277 17.2349C304.731 18.7144 305.075 20.311 305.31 22.0249V22.5742C305.075 24.1855 304.731 25.709 304.277 27.1445C303.823 28.5654 303.237 29.8252 302.519 30.9238C301.801 32.0225 300.93 32.8867 299.904 33.5166C298.894 34.1318 297.707 34.4395 296.345 34.4395C294.836 34.4395 293.503 34.1392 292.346 33.5386C291.203 32.938 290.244 32.0957 289.467 31.0117C288.706 29.9277 288.127 28.6533 287.731 27.1885C287.336 25.7236 287.138 24.127 287.138 22.3984ZM294.543 21.937V22.3984C294.543 23.292 294.602 24.1196 294.719 24.8813C294.836 25.6431 295.034 26.3169 295.312 26.9028C295.605 27.4741 295.986 27.9209 296.455 28.2432C296.938 28.5654 297.531 28.7266 298.234 28.7266C299.187 28.7266 299.97 28.4995 300.585 28.0454C301.215 27.5913 301.677 26.9468 301.97 26.1118C302.277 25.2769 302.409 24.2954 302.365 23.1675V21.4316C302.395 20.4648 302.329 19.6152 302.167 18.8828C302.006 18.1357 301.75 17.5132 301.398 17.0151C301.062 16.5171 300.629 16.1436 300.102 15.8945C299.589 15.6309 298.981 15.499 298.278 15.499C297.59 15.499 297.004 15.6602 296.521 15.9824C296.052 16.3047 295.671 16.7588 295.378 17.3447C295.085 17.916 294.873 18.5972 294.741 19.3882C294.609 20.1646 294.543 21.0142 294.543 21.937ZM325.832 27.3203C325.832 26.9102 325.693 26.5586 325.415 26.2656C325.151 25.958 324.682 25.6797 324.008 25.4307C323.334 25.167 322.39 24.9033 321.174 24.6396C320.017 24.3906 318.925 24.061 317.9 23.6509C316.889 23.2407 316.003 22.7427 315.241 22.1567C314.479 21.5708 313.879 20.875 313.439 20.0693C313.015 19.2637 312.802 18.3408 312.802 17.3008C312.802 16.29 313.015 15.3379 313.439 14.4443C313.879 13.5361 314.516 12.7378 315.351 12.0493C316.201 11.3462 317.233 10.7969 318.449 10.4014C319.665 9.99121 321.049 9.78613 322.602 9.78613C324.741 9.78613 326.586 10.1157 328.139 10.7749C329.692 11.4194 330.886 12.3276 331.721 13.4995C332.57 14.6567 332.995 15.9971 332.995 17.5205H325.59C325.59 16.9199 325.488 16.4072 325.283 15.9824C325.092 15.5576 324.777 15.2354 324.338 15.0156C323.898 14.7812 323.312 14.6641 322.58 14.6641C322.067 14.6641 321.599 14.7593 321.174 14.9497C320.764 15.1401 320.434 15.4038 320.185 15.7407C319.936 16.0776 319.812 16.4731 319.812 16.9272C319.812 17.2495 319.885 17.5425 320.031 17.8062C320.192 18.0552 320.434 18.2896 320.756 18.5093C321.079 18.7144 321.489 18.9048 321.987 19.0806C322.485 19.2417 323.085 19.3882 323.789 19.52C325.385 19.813 326.879 20.2305 328.271 20.7725C329.663 21.3145 330.791 22.0835 331.655 23.0796C332.534 24.0757 332.973 25.416 332.973 27.1006C332.973 28.1553 332.731 29.1294 332.248 30.0229C331.765 30.9019 331.069 31.6782 330.161 32.3521C329.252 33.0112 328.161 33.5239 326.887 33.8901C325.612 34.2563 324.177 34.4395 322.58 34.4395C320.31 34.4395 318.391 34.0366 316.823 33.231C315.256 32.4106 314.069 31.3853 313.264 30.1548C312.473 28.9097 312.077 27.6499 312.077 26.3755H318.977C319.006 27.1079 319.182 27.7085 319.504 28.1772C319.841 28.646 320.288 28.9902 320.844 29.21C321.401 29.4297 322.045 29.5396 322.778 29.5396C323.452 29.5396 324.008 29.4443 324.448 29.2539C324.902 29.0635 325.246 28.8071 325.48 28.4849C325.715 28.1479 325.832 27.7598 325.832 27.3203Z" fill="#F365FF"/>
</svg>
