<svg width="40" height="24" viewBox="0 0 40 24" fill="none" xmlns="http://www.w3.org/2000/svg">
<path d="M39.1603 0.0345657C39.3272 0.109535 39.3919 0.285235 39.3047 0.427909L25.5187 23.0304L25.5017 23.0509C25.2245 23.3693 24.9263 23.5298 24.6147 23.5298C24.5632 23.5298 24.512 23.5268 24.4571 23.5182C23.6858 23.3855 23.3156 22.2636 23.244 22.0169C23.2421 22.0099 23.2401 22.005 23.2374 21.998L19.0631 11.2919C19.0035 11.1387 19.1006 10.9732 19.2803 10.9223L19.2861 10.9207C19.4634 10.8705 19.6551 10.9507 19.7171 11.101L24.3347 22.3115C24.4338 22.5519 24.821 22.5763 24.9604 22.3511L38.6965 0.155773C38.7847 0.0134294 38.9915 -0.0413947 39.1584 0.033575L39.1603 0.0345657Z" fill="#EE2C43"/>
<path d="M21.9906 23.258L21.9247 23.0466L15.0462 1.17459C14.9812 0.96751 14.7918 0.827148 14.5779 0.827148H7.17651C6.9607 0.827148 6.77024 0.970152 6.70686 1.17954L1.94075 16.8915L0.95659 20.1667L0.326374 22.2362L0.00167837 23.3075C-0.0119725 23.3865 0.0621323 23.365 0.0621323 23.365L5.87643 23.369C6.02626 23.369 6.01261 23.29 6.01261 23.29L6.79461 20.5128L7.22852 19.0026C7.24607 18.9197 7.31985 18.9431 7.31985 18.9431H14.1749C14.2642 18.9292 14.2779 18.9907 14.2779 18.9907L14.3208 19.137L15.5578 23.2841C15.5832 23.3927 15.7213 23.365 15.7213 23.365H21.9266C22.0218 23.365 21.9906 23.258 21.9906 23.258ZM13.1104 14.1952H8.37779C8.22406 14.1952 8.28841 14.0569 8.28841 14.0569L10.5392 5.03537H10.7862L13.14 14.0569C13.1806 14.2131 13.1104 14.1952 13.1104 14.1952Z" fill="white"/>
</svg>
