<svg width="31" height="30" viewBox="0 0 31 30" fill="none" xmlns="http://www.w3.org/2000/svg">
<g clip-path="url(#clip0_112_917)">
<path d="M31 15C31 17.7891 30.2129 20.3965 28.8445 22.6348C27.9908 24.0293 26.9131 25.2773 25.6537 26.332C23.0502 28.5176 19.6898 29.877 16.0025 29.9941C15.833 30 15.6635 30 15.4939 30C15.3244 30 15.1549 30 14.9854 29.9941C11.3223 29.877 7.98008 28.5293 5.38262 26.3672C4.0748 25.2773 2.96074 23.9824 2.08887 22.5293C0.762891 20.3145 0 17.7422 0 15C0 12.3457 0.708398 9.85547 1.96172 7.69336C3.90527 4.32422 7.15664 1.75781 11.0437 0.626953C12.4545 0.216797 13.95 0 15.5 0C17.05 0 18.5455 0.222656 19.9563 0.626953C23.8191 1.75195 27.0523 4.28906 29.002 7.62891C30.2734 9.80273 31 12.3223 31 15Z" fill="url(#paint0_linear_112_917)"/>
<path d="M30.9867 7.9058C30.7879 3.42793 26.9562 -0.158203 22.2761 -0.158203H8.55381C3.87365 -0.158203 0.0420199 3.42794 -0.156854 7.91221C-0.163483 8.0341 -0.163483 8.15599 -0.163483 8.27788V21.5639C-0.163483 22.1541 -0.0971915 22.7315 0.0221326 23.2896C1.44076 25.8942 3.54219 28.0882 6.10103 29.66C6.88327 29.8845 7.70528 30 8.55381 30H22.2827C23.1379 30 23.9599 29.8781 24.7355 29.66C27.2877 28.0882 29.3958 25.8942 30.8144 23.2896C30.9337 22.7315 31 22.1541 31 21.5639V8.27788C30.9934 8.14958 30.9934 8.02769 30.9867 7.9058ZM28.1495 21.5575C28.1495 24.6882 25.5177 27.2414 22.2761 27.2414H8.55381C5.3188 27.2414 2.68041 24.6946 2.68041 21.5575V8.27788C2.68041 5.14723 5.31217 2.59395 8.55381 2.59395H22.2827C25.5177 2.59395 28.1561 5.14081 28.1561 8.27788V21.5575H28.1495Z" fill="white"/>
<path d="M15.415 7.00098C10.9072 7.00098 7.23464 10.5486 7.23464 14.9174C7.23464 19.2862 10.9005 22.8339 15.415 22.8339C19.9228 22.8339 23.5953 19.2862 23.5953 14.9174C23.5953 10.5486 19.9228 7.00098 15.415 7.00098ZM15.415 20.0753C12.4716 20.0753 10.0852 17.7594 10.0852 14.9174C10.0852 12.069 12.4783 9.75954 15.415 9.75954C18.3583 9.75954 20.7448 12.0755 20.7448 14.9174C20.7448 17.7594 18.3583 20.0753 15.415 20.0753Z" fill="white"/>
<path d="M25.637 6.79557C25.637 7.80277 24.7951 8.61751 23.7544 8.61751C22.7136 8.61751 21.8717 7.80277 21.8717 6.79557C21.8717 5.78837 22.7136 4.97363 23.7544 4.97363C24.7951 4.97363 25.637 5.78837 25.637 6.79557Z" fill="white"/>
<path d="M-0.144412 21.9489C0.0581462 26.4266 3.89273 30.0096 8.57288 30.0058L22.2951 29.9945C26.9753 29.9906 30.804 26.4013 30.9992 21.9169C31.0057 21.795 31.0056 21.6731 31.0055 21.5512L30.9946 8.26519C30.9941 7.67499 30.9273 7.09767 30.8075 6.53964C29.3868 3.93621 27.2835 1.74391 24.7234 0.174278C23.941 -0.0496127 23.1189 -0.164412 22.2703 -0.163714L8.54143 -0.152416C7.68628 -0.151712 6.86437 -0.0291441 6.08894 0.189613C3.53803 1.76346 1.43177 3.95921 0.0152848 6.56498C-0.10358 7.12321 -0.169395 7.70064 -0.168909 8.29084L-0.157976 21.5769C-0.151241 21.7052 -0.151142 21.8271 -0.144412 21.9489ZM2.68162 8.29491C2.67904 5.16426 5.30869 2.60881 8.55033 2.60615L22.2726 2.59485C25.5076 2.59219 28.1481 5.13688 28.1507 8.27395L28.1616 21.5536C28.1642 24.6842 25.5345 27.2397 22.2929 27.2423L8.56399 27.2536C5.32898 27.2563 2.6885 24.7116 2.68591 21.5745L2.67499 8.29492L2.68162 8.29491Z" fill="white"/>
<path d="M15.4281 22.8407C19.9359 22.837 23.6055 19.2863 23.6019 14.9175C23.5983 10.5487 19.9295 7.00411 15.4151 7.00782C10.9073 7.01153 7.23766 10.5622 7.24126 14.931C7.24485 19.2998 10.9203 22.8444 15.4281 22.8407ZM15.4173 9.76639C18.3607 9.76397 20.7491 12.0779 20.7514 14.9199C20.7537 17.7683 18.3625 20.0797 15.4258 20.0821C12.4825 20.0846 10.0941 17.7706 10.0918 14.9287C10.0894 12.0867 12.474 9.76881 15.4173 9.76639Z" fill="white"/>
</g>
<defs>
<linearGradient id="paint0_linear_112_917" x1="15.5" y1="30" x2="15.5" y2="0" gradientUnits="userSpaceOnUse">
<stop stop-color="#FFD600"/>
<stop offset="0.5271" stop-color="#FF0095"/>
<stop offset="0.5802" stop-color="#F2069C"/>
<stop offset="0.6791" stop-color="#CF14B0"/>
<stop offset="0.813" stop-color="#962CCF"/>
<stop offset="0.9753" stop-color="#494DFA"/>
<stop offset="0.9951" stop-color="#3F51FF"/>
</linearGradient>
<clipPath id="clip0_112_917">
<rect width="31" height="30" fill="white"/>
</clipPath>
</defs>
</svg>
