<svg width="164" height="31" viewBox="0 0 164 31" fill="none" xmlns="http://www.w3.org/2000/svg">
<g clip-path="url(#clip0_153_1811)">
<path d="M65.4454 12.6709L58.198 19.651L59.9017 29.5299C60.0517 30.3182 59.1417 30.8954 58.4143 30.5216L49.5037 25.881V0.160156C49.8823 0.160156 50.2609 0.325441 50.4231 0.668724L54.8987 9.63223L64.864 11.0562C65.6969 11.1961 66.0039 12.1179 65.4454 12.6709Z" fill="#ECEFF1"/>
<path d="M49.5036 0.15625V25.8771L40.593 30.5177C39.8777 30.8953 38.9542 30.3232 39.1056 29.526L40.8093 19.6471L33.5618 12.667C33.0034 12.1139 33.3089 11.1922 34.1432 11.0523L44.1085 9.62832L48.5841 0.664818C48.7464 0.321534 49.125 0.15625 49.5036 0.15625Z" fill="#FFAC1A"/>
</g>
<g clip-path="url(#clip1_153_1811)">
<path d="M30.346 11.3862C30.1468 10.7851 29.6004 10.3582 28.9539 10.3014L20.1723 9.52345L16.6998 1.59401C16.4438 1.01289 15.8607 0.636719 15.2128 0.636719C14.5649 0.636719 13.9818 1.01289 13.7258 1.59537L10.2533 9.52345L1.47032 10.3014C0.824995 10.3596 0.279948 10.7851 0.0796176 11.3862C-0.120713 11.9872 0.0642969 12.6465 0.552472 13.0621L7.1903 18.7415L5.23296 27.1533C5.08973 27.7718 5.33579 28.4112 5.86181 28.7821C6.14454 28.9814 6.47533 29.0829 6.80891 29.0829C7.09652 29.0829 7.38181 29.0072 7.63785 28.8578L15.2128 24.4409L22.785 28.8578C23.3391 29.183 24.0376 29.1533 24.5624 28.7821C25.0887 28.41 25.3345 27.7705 25.1913 27.1533L23.2339 18.7415L29.8717 13.0632C30.3599 12.6465 30.5463 11.9884 30.346 11.3862Z" fill="#FFAC1A"/>
</g>
<g clip-path="url(#clip2_153_1811)">
<path d="M75.659 29.0866C75.3337 29.0866 75.0084 28.9878 74.7354 28.7845C74.2242 28.4128 73.9802 27.7738 74.1196 27.1581L76.0307 18.7468L69.5539 13.0658C69.0775 12.6475 68.8975 11.9911 69.0892 11.387C69.2867 10.7887 69.8153 10.3588 70.4484 10.3008L79.0165 9.52818L82.4031 1.59909C82.6528 1.0182 83.2221 0.640625 83.8553 0.640625C84.4884 0.640625 85.0577 1.0182 85.3075 1.59909L88.694 9.52818L97.2621 10.3066C97.8953 10.3646 98.4239 10.7887 98.6214 11.3928C98.8189 11.9911 98.6388 12.6533 98.1625 13.0716L91.6856 18.7526L93.5967 27.1639C93.7361 27.7796 93.498 28.4244 92.981 28.7903C92.4698 29.1621 91.7844 29.1912 91.2441 28.8659L83.8553 24.4511L76.4664 28.8717C76.2166 29.0111 75.9378 29.0866 75.659 29.0866ZM83.8553 22.54C84.1341 22.54 84.4129 22.6155 84.6627 22.7666L91.6333 26.9373L89.8326 18.9966C89.7048 18.4332 89.8965 17.8406 90.3321 17.4573L96.4489 12.0957L88.3571 11.358C87.7762 11.3057 87.2709 10.9397 87.0443 10.3995L83.8495 2.9177L80.6546 10.3995C80.428 10.9339 79.9285 11.2999 79.3476 11.3522L71.2617 12.0957L77.3784 17.4573C77.8141 17.8406 78.0057 18.4273 77.878 18.9966L76.0772 26.9373L83.0478 22.7666C83.2976 22.6155 83.5764 22.54 83.8553 22.54Z" fill="#FFAC1A"/>
</g>
<g clip-path="url(#clip3_153_1811)">
<path d="M107.735 29.0866C107.401 29.0866 107.068 28.9878 106.788 28.7845C106.264 28.4128 106.014 27.7738 106.157 27.1581L108.116 18.7468L101.477 13.0658C100.989 12.6475 100.804 11.9911 101 11.387C101.203 10.7887 101.745 10.3588 102.394 10.3008L111.176 9.52818L114.647 1.59909C114.903 1.0182 115.487 0.640625 116.136 0.640625C116.785 0.640625 117.368 1.0182 117.624 1.59909L121.095 9.52818L129.878 10.3066C130.527 10.3646 131.069 10.7887 131.271 11.3928C131.473 11.9911 131.289 12.6533 130.801 13.0716L124.162 18.7526L126.121 27.1639C126.264 27.7796 126.02 28.4244 125.49 28.7903C124.966 29.1621 124.263 29.1912 123.709 28.8659L116.136 24.4511L108.562 28.8717C108.306 29.0111 108.02 29.0866 107.735 29.0866ZM116.136 22.54C116.422 22.54 116.707 22.6155 116.963 22.7666L124.108 26.9373L122.262 18.9966C122.131 18.4332 122.328 17.8406 122.775 17.4573L129.044 12.0957L120.75 11.358C120.155 11.3057 119.637 10.9397 119.405 10.3995L116.13 2.9177L112.855 10.3995C112.623 10.9339 112.111 11.2999 111.515 11.3522L103.227 12.0957L109.497 17.4573C109.943 17.8406 110.14 18.4273 110.009 18.9966L108.163 26.9373L115.308 22.7666C115.564 22.6155 115.85 22.54 116.136 22.54Z" fill="#FFAC1A"/>
</g>
<g clip-path="url(#clip4_153_1811)">
<path d="M140.386 29.0866C140.053 29.0866 139.719 28.9878 139.439 28.7845C138.915 28.4128 138.665 27.7738 138.808 27.1581L140.767 18.7468L134.128 13.0658C133.64 12.6475 133.456 11.9911 133.652 11.387C133.855 10.7887 134.396 10.3588 135.045 10.3008L143.828 9.52818L147.299 1.59909C147.555 1.0182 148.138 0.640625 148.787 0.640625C149.436 0.640625 150.02 1.0182 150.276 1.59909L153.747 9.52818L162.529 10.3066C163.178 10.3646 163.72 10.7887 163.923 11.3928C164.125 11.9911 163.94 12.6533 163.452 13.0716L156.813 18.7526L158.772 27.1639C158.915 27.7796 158.671 28.4244 158.141 28.7903C157.617 29.1621 156.915 29.1912 156.361 28.8659L148.787 24.4511L141.214 28.8717C140.958 29.0111 140.672 29.0866 140.386 29.0866ZM148.787 22.54C149.073 22.54 149.359 22.6155 149.615 22.7666L156.76 26.9373L154.914 18.9966C154.783 18.4332 154.98 17.8406 155.426 17.4573L161.696 12.0957L153.402 11.358C152.806 11.3057 152.288 10.9397 152.056 10.3995L148.781 2.9177L145.507 10.3995C145.274 10.9339 144.762 11.2999 144.167 11.3522L135.879 12.0957L142.149 17.4573C142.595 17.8406 142.792 18.4273 142.661 18.9966L140.815 26.9373L147.96 22.7666C148.216 22.6155 148.502 22.54 148.787 22.54Z" fill="#FFAC1A"/>
</g>
<defs>
<clipPath id="clip0_153_1811">
<rect width="32.4515" height="30.5141" fill="white" transform="translate(33.2778 0.121094)"/>
</clipPath>
<clipPath id="clip1_153_1811">
<rect width="30.4253" height="29.6833" fill="white"/>
</clipPath>
<clipPath id="clip2_153_1811">
<rect width="29.6833" height="29.6833" fill="white" transform="translate(69.0137)"/>
</clipPath>
<clipPath id="clip3_153_1811">
<rect width="30.4253" height="29.6833" fill="white" transform="translate(100.923)"/>
</clipPath>
<clipPath id="clip4_153_1811">
<rect width="30.4253" height="29.6833" fill="white" transform="translate(133.575)"/>
</clipPath>
</defs>
</svg>
