<svg width="198" height="38" viewBox="0 0 198 38" fill="none" xmlns="http://www.w3.org/2000/svg">
<g clip-path="url(#clip0_51_140)">
<path d="M36.9217 14.603C36.6793 13.8534 36.0145 13.321 35.2279 13.2501L24.5435 12.28L20.3185 2.39111C20.007 1.66639 19.2975 1.19727 18.5093 1.19727C17.721 1.19727 17.0115 1.66639 16.7 2.39281L12.4751 12.28L1.78893 13.2501C1.00376 13.3227 0.34061 13.8534 0.09687 14.603C-0.14687 15.3526 0.0782293 16.1747 0.672187 16.693L8.74837 23.7759L6.36689 34.2663C6.19263 35.0377 6.49201 35.835 7.132 36.2976C7.47601 36.5461 7.87847 36.6727 8.28433 36.6727C8.63426 36.6727 8.98137 36.5783 9.2929 36.3919L18.5093 30.8836L27.7222 36.3919C28.3964 36.7975 29.2462 36.7605 29.8848 36.2976C30.5251 35.8335 30.8242 35.036 30.6499 34.2663L28.2685 23.7759L36.3446 16.6944C36.9386 16.1747 37.1654 15.354 36.9217 14.603Z" fill="#FFAC1A"/>
</g>
<g clip-path="url(#clip1_51_140)">
<path d="M73.1767 14.603C72.9546 13.8534 72.3451 13.321 71.6241 13.2501L61.83 12.28L57.9572 2.39111C57.6716 1.66639 57.0213 1.19727 56.2987 1.19727C55.5761 1.19727 54.9257 1.66639 54.6402 2.39281L50.7673 12.28L40.9717 13.2501C40.252 13.3227 39.6441 13.8534 39.4206 14.603C39.1972 15.3526 39.4036 16.1747 39.948 16.693L47.3512 23.7759L45.1682 34.2663C45.0084 35.0377 45.2829 35.835 45.8695 36.2976C46.1849 36.5461 46.5538 36.6727 46.9258 36.6727C47.2466 36.6727 47.5648 36.5783 47.8503 36.3919L56.2987 30.8836L64.7439 36.3919C65.3619 36.7975 66.1409 36.7605 66.7263 36.2976C67.3132 35.8335 67.5874 35.036 67.4276 34.2663L65.2446 23.7759L72.6478 16.6944C73.1922 16.1747 73.4001 15.354 73.1767 14.603Z" fill="#FFAC1A"/>
</g>
<g clip-path="url(#clip2_51_140)">
<path d="M113.28 14.603C113.058 13.8534 112.448 13.321 111.727 13.2501L101.933 12.28L98.0602 2.39111C97.7746 1.66639 97.1243 1.19727 96.4017 1.19727C95.6791 1.19727 95.0288 1.66639 94.7432 2.39281L90.8704 12.28L81.0747 13.2501C80.355 13.3227 79.7471 13.8534 79.5237 14.603C79.3002 15.3526 79.5066 16.1747 80.051 16.693L87.4542 23.7759L85.2712 34.2663C85.1115 35.0377 85.3859 35.835 85.9725 36.2976C86.2879 36.5461 86.6568 36.6727 87.0288 36.6727C87.3496 36.6727 87.6678 36.5783 87.9534 36.3919L96.4017 30.8836L104.847 36.3919C105.465 36.7975 106.244 36.7605 106.829 36.2976C107.416 35.8335 107.69 35.036 107.531 34.2663L105.348 23.7759L112.751 16.6944C113.295 16.1747 113.503 15.354 113.28 14.603Z" fill="#FFAC1A"/>
</g>
<g clip-path="url(#clip3_51_140)">
<path d="M153.389 14.603C153.182 13.8534 152.614 13.321 151.942 13.2501L142.816 12.28L139.207 2.39111C138.941 1.66639 138.335 1.19727 137.662 1.19727C136.988 1.19727 136.382 1.66639 136.116 2.39281L132.507 12.28L123.38 13.2501C122.709 13.3227 122.143 13.8534 121.934 14.603C121.726 15.3526 121.918 16.1747 122.426 16.693L129.324 23.7759L127.29 34.2663C127.141 35.0377 127.397 35.835 127.943 36.2976C128.237 36.5461 128.581 36.6727 128.928 36.6727C129.227 36.6727 129.523 36.5783 129.789 36.3919L137.662 30.8836L145.531 36.3919C146.107 36.7975 146.833 36.7605 147.378 36.2976C147.925 35.8335 148.181 35.036 148.032 34.2663L145.998 23.7759L152.896 16.6944C153.403 16.1747 153.597 15.354 153.389 14.603Z" fill="#FFAC1A"/>
</g>
<g clip-path="url(#clip4_51_140)">
<path d="M197.671 14.554L189.266 22.649L191.241 34.1059C191.415 35.0201 190.36 35.6895 189.516 35.256L179.183 29.8741V0.0449219C179.622 0.0449219 180.061 0.236607 180.249 0.634723L185.439 11.03L196.996 12.6814C197.962 12.8436 198.318 13.9126 197.671 14.554Z" fill="#ECEFF1"/>
<path d="M179.183 0.0449219V29.8741L168.849 35.256C168.019 35.694 166.948 35.0304 167.124 34.1059L169.1 22.649L160.694 14.554C160.047 13.9126 160.401 12.8436 161.369 12.6814L172.926 11.03L178.116 0.634723C178.304 0.236607 178.744 0.0449219 179.183 0.0449219Z" fill="#FFAC1A"/>
</g>
<defs>
<clipPath id="clip0_51_140">
<rect width="37.0182" height="37.0182" fill="white" transform="translate(0 0.402344)"/>
</clipPath>
<clipPath id="clip1_51_140">
<rect width="33.9334" height="37.0182" fill="white" transform="translate(39.3318 0.402344)"/>
</clipPath>
<clipPath id="clip2_51_140">
<rect width="33.9334" height="37.0182" fill="white" transform="translate(79.4349 0.402344)"/>
</clipPath>
<clipPath id="clip3_51_140">
<rect width="31.6197" height="37.0182" fill="white" transform="translate(121.852 0.402344)"/>
</clipPath>
<clipPath id="clip4_51_140">
<rect width="37.6349" height="35.388" fill="white" transform="translate(160.365)"/>
</clipPath>
</defs>
</svg>
