<svg width="168" height="31" viewBox="0 0 168 31" fill="none" xmlns="http://www.w3.org/2000/svg">
<g clip-path="url(#clip0_153_1797)">
<path d="M30.4658 11.7179C30.2658 11.0994 29.7172 10.6601 29.0682 10.6016L20.252 9.80111L16.7658 1.64135C16.5087 1.04335 15.9233 0.65625 15.2729 0.65625C14.6224 0.65625 14.037 1.04335 13.7799 1.64275L10.2938 9.80111L1.47613 10.6016C0.828252 10.6615 0.281053 11.0994 0.0799319 11.7179C-0.121189 12.3365 0.0645507 13.0149 0.554653 13.4425L7.21869 19.2869L5.25362 27.9431C5.10983 28.5795 5.35686 29.2374 5.88495 29.6192C6.1688 29.8243 6.5009 29.9287 6.83579 29.9287C7.12454 29.9287 7.41095 29.8508 7.66801 29.697L15.2729 25.1518L22.8749 29.697C23.4312 30.0317 24.1325 30.0011 24.6594 29.6192C25.1877 29.2363 25.4345 28.5781 25.2907 27.9431L23.3256 19.2869L29.9897 13.4437C30.4798 13.0149 30.6669 12.3376 30.4658 11.7179Z" fill="#FFAC1A"/>
</g>
<g clip-path="url(#clip1_153_1797)">
<path d="M61.781 11.7179C61.596 11.0994 61.0885 10.6601 60.4882 10.6016L52.3332 9.80111L49.1084 1.64135C48.8707 1.04335 48.3292 0.65625 47.7275 0.65625C47.1258 0.65625 46.5843 1.04335 46.3466 1.64275L43.1218 9.80111L34.9655 10.6016C34.3662 10.6615 33.8601 11.0994 33.674 11.7179C33.488 12.3365 33.6598 13.0149 34.1132 13.4425L40.2774 19.2869L38.4597 27.9431C38.3267 28.5795 38.5552 29.2374 39.0437 29.6192C39.3062 29.8243 39.6134 29.9287 39.9232 29.9287C40.1903 29.9287 40.4552 29.8508 40.693 29.697L47.7275 25.1518L54.7594 29.697C55.274 30.0317 55.9226 30.0011 56.41 29.6192C56.8987 29.2363 57.127 28.5781 56.994 27.9431L55.1763 19.2869L61.3405 13.4437C61.7939 13.0149 61.967 12.3376 61.781 11.7179Z" fill="#FFAC1A"/>
</g>
<g clip-path="url(#clip2_153_1797)">
<g clip-path="url(#clip3_153_1797)">
<path d="M99.9188 12.7496L92.4267 19.8412L94.1879 29.8779C94.343 30.6787 93.4023 31.2652 92.6503 30.8854L83.439 26.1706V0.0390625C83.8303 0.0390625 84.2217 0.206987 84.3895 0.555752L89.0161 9.6624L99.3177 11.1091C100.179 11.2512 100.496 12.1877 99.9188 12.7496Z" fill="#ECEFF1"/>
<path d="M83.4389 0.0351562V26.1667L74.2275 30.8815C73.4881 31.2652 72.5334 30.6839 72.6899 29.874L74.4511 19.8373L66.9591 12.7457C66.3818 12.1838 66.6977 11.2473 67.5601 11.1052L77.8617 9.65849L82.4884 0.551846C82.6561 0.20308 83.0475 0.0351562 83.4389 0.0351562Z" fill="#FFAC1A"/>
</g>
</g>
<g clip-path="url(#clip4_153_1797)">
<path d="M107.638 29.9285C107.304 29.9285 106.969 29.8269 106.688 29.6176C106.162 29.2351 105.911 28.5775 106.054 27.9439L108.021 19.2884L101.356 13.4423C100.866 13.0119 100.68 12.3364 100.878 11.7148C101.081 11.0991 101.625 10.6567 102.276 10.597L111.093 9.80195L114.578 1.64255C114.835 1.04479 115.421 0.65625 116.073 0.65625C116.724 0.65625 117.31 1.04479 117.567 1.64255L121.052 9.80195L129.869 10.6029C130.521 10.6627 131.065 11.0991 131.268 11.7208C131.471 12.3364 131.286 13.0179 130.796 13.4483L124.131 19.2944L126.097 27.9499C126.241 28.5835 125.996 29.247 125.464 29.6236C124.937 30.0062 124.232 30.0361 123.676 29.7013L116.073 25.1584L108.469 29.7073C108.212 29.8508 107.925 29.9285 107.638 29.9285ZM116.073 23.1917C116.36 23.1917 116.647 23.2694 116.904 23.4249L124.077 27.7168L122.224 19.5454C122.092 18.9656 122.289 18.3559 122.738 17.9614L129.032 12.444L120.705 11.6849C120.108 11.6311 119.588 11.2545 119.354 10.6986L116.067 2.99946L112.779 10.6986C112.546 11.2485 112.032 11.6251 111.434 11.6789L103.113 12.444L109.408 17.9614C109.856 18.3559 110.053 18.9596 109.922 19.5454L108.069 27.7168L115.242 23.4249C115.499 23.2694 115.786 23.1917 116.073 23.1917Z" fill="#FFAC1A"/>
</g>
<g clip-path="url(#clip5_153_1797)">
<path d="M144.293 29.9285C143.958 29.9285 143.623 29.8269 143.342 29.6176C142.816 29.2351 142.565 28.5775 142.709 27.9439L144.675 19.2884L138.01 13.4423C137.52 13.0119 137.335 12.3364 137.532 11.7148C137.735 11.0991 138.279 10.6567 138.931 10.597L147.748 9.80195L151.233 1.64255C151.49 1.04479 152.076 0.65625 152.727 0.65625C153.379 0.65625 153.965 1.04479 154.222 1.64255L157.707 9.80195L166.524 10.6029C167.175 10.6627 167.719 11.0991 167.922 11.7208C168.126 12.3364 167.94 13.0179 167.45 13.4483L160.785 19.2944L162.752 27.9499C162.895 28.5835 162.65 29.247 162.118 29.6236C161.592 30.0062 160.887 30.0361 160.331 29.7013L152.727 25.1584L145.124 29.7073C144.867 29.8508 144.58 29.9285 144.293 29.9285ZM152.727 23.1917C153.014 23.1917 153.301 23.2694 153.558 23.4249L160.731 27.7168L158.878 19.5454C158.747 18.9656 158.944 18.3559 159.392 17.9614L165.687 12.444L157.36 11.6849C156.762 11.6311 156.242 11.2545 156.009 10.6986L152.721 2.99946L149.434 10.6986C149.201 11.2485 148.686 11.6251 148.089 11.6789L139.768 12.444L146.062 17.9614C146.511 18.3559 146.708 18.9596 146.576 19.5454L144.723 27.7168L151.896 23.4249C152.153 23.2694 152.44 23.1917 152.727 23.1917Z" fill="#FFAC1A"/>
</g>
<defs>
<clipPath id="clip0_153_1797">
<rect width="30.5455" height="30.5455" fill="white"/>
</clipPath>
<clipPath id="clip1_153_1797">
<rect width="28.2545" height="30.5455" fill="white" transform="translate(33.6001)"/>
</clipPath>
<clipPath id="clip2_153_1797">
<rect width="28.2545" height="30.5455" fill="white" transform="translate(69.491)"/>
</clipPath>
<clipPath id="clip3_153_1797">
<rect width="33.5467" height="31.0014" fill="white" transform="translate(66.6655)"/>
</clipPath>
<clipPath id="clip4_153_1797">
<rect width="30.5455" height="30.5455" fill="white" transform="translate(100.8)"/>
</clipPath>
<clipPath id="clip5_153_1797">
<rect width="30.5455" height="30.5455" fill="white" transform="translate(137.455)"/>
</clipPath>
</defs>
</svg>
