<svg width="412" height="150" viewBox="0 0 412 150" fill="none" xmlns="http://www.w3.org/2000/svg">
<path d="M42.1167 13.7891V60H31.0083L14.6631 31.2451V60H3.52295V13.7891H14.6631L31.0083 42.5439V13.7891H42.1167ZM47.3218 43.1787V42.5122C47.3218 39.9943 47.6815 37.6774 48.4009 35.5615C49.1203 33.4245 50.1782 31.5731 51.5747 30.0073C52.9712 28.4416 54.6956 27.2249 56.748 26.3574C58.8005 25.4688 61.1702 25.0244 63.8574 25.0244C66.5658 25.0244 68.9461 25.4688 70.9985 26.3574C73.0721 27.2249 74.8071 28.4416 76.2036 30.0073C77.6001 31.5731 78.658 33.4245 79.3774 35.5615C80.0968 37.6774 80.4565 39.9943 80.4565 42.5122V43.1787C80.4565 45.6755 80.0968 47.9924 79.3774 50.1294C78.658 52.2453 77.6001 54.0967 76.2036 55.6836C74.8071 57.2493 73.0827 58.466 71.0303 59.3335C68.9779 60.201 66.6081 60.6348 63.9209 60.6348C61.2337 60.6348 58.8534 60.201 56.7798 59.3335C54.7062 58.466 52.9712 57.2493 51.5747 55.6836C50.1782 54.0967 49.1203 52.2453 48.4009 50.1294C47.6815 47.9924 47.3218 45.6755 47.3218 43.1787ZM58.0176 42.5122V43.1787C58.0176 44.4694 58.1128 45.6755 58.3032 46.7969C58.4937 47.9183 58.811 48.9022 59.2554 49.7485C59.6997 50.5737 60.3027 51.2191 61.0645 51.6846C61.8262 52.1501 62.7783 52.3828 63.9209 52.3828C65.0423 52.3828 65.9733 52.1501 66.7139 51.6846C67.4756 51.2191 68.0786 50.5737 68.5229 49.7485C68.9673 48.9022 69.2847 47.9183 69.4751 46.7969C69.6655 45.6755 69.7607 44.4694 69.7607 43.1787V42.5122C69.7607 41.2638 69.6655 40.0895 69.4751 38.9893C69.2847 37.8678 68.9673 36.884 68.5229 36.0376C68.0786 35.1701 67.4756 34.493 66.7139 34.0063C65.9521 33.5197 65 33.2764 63.8574 33.2764C62.736 33.2764 61.7944 33.5197 61.0327 34.0063C60.2922 34.493 59.6997 35.1701 59.2554 36.0376C58.811 36.884 58.4937 37.8678 58.3032 38.9893C58.1128 40.0895 58.0176 41.2638 58.0176 42.5122ZM103.308 25.6592V33.0859H82.6147V25.6592H103.308ZM86.9629 17.1216H97.6587V48.7964C97.6587 49.7062 97.7645 50.415 97.9761 50.9229C98.1877 51.4095 98.5474 51.7586 99.0552 51.9702C99.5841 52.1606 100.282 52.2559 101.15 52.2559C101.764 52.2559 102.271 52.2453 102.673 52.2241C103.075 52.1818 103.456 52.1289 103.816 52.0654V59.7144C102.906 60.0106 101.954 60.2327 100.959 60.3809C99.965 60.5501 98.9071 60.6348 97.7856 60.6348C95.5005 60.6348 93.5433 60.2751 91.9141 59.5557C90.306 58.8363 89.0788 57.7043 88.2324 56.1597C87.3861 54.6151 86.9629 52.605 86.9629 50.1294V17.1216ZM118.035 11.25V60H107.339V11.25H118.035ZM116.765 41.6553L114.258 41.7188C114.258 39.3066 114.554 37.085 115.146 35.0537C115.739 33.0225 116.585 31.2557 117.686 29.7534C118.786 28.2511 120.108 27.0874 121.653 26.2622C123.197 25.437 124.911 25.0244 126.794 25.0244C128.487 25.0244 130.032 25.2677 131.428 25.7544C132.846 26.241 134.062 27.0239 135.078 28.103C136.115 29.1821 136.908 30.5892 137.458 32.3242C138.03 34.0592 138.315 36.1751 138.315 38.6719V60H127.556V38.6084C127.556 37.2119 127.355 36.1328 126.953 35.3711C126.572 34.5882 126.022 34.0487 125.303 33.7524C124.583 33.4351 123.705 33.2764 122.668 33.2764C121.42 33.2764 120.404 33.488 119.622 33.9111C118.839 34.3343 118.236 34.9268 117.812 35.6885C117.41 36.429 117.135 37.3071 116.987 38.3228C116.839 39.3384 116.765 40.4492 116.765 41.6553ZM155.549 25.6592V60H144.822V25.6592H155.549ZM144.187 16.8042C144.187 15.2808 144.737 14.0324 145.837 13.0591C146.938 12.0858 148.366 11.5991 150.122 11.5991C151.878 11.5991 153.306 12.0858 154.407 13.0591C155.507 14.0324 156.057 15.2808 156.057 16.8042C156.057 18.3276 155.507 19.576 154.407 20.5493C153.306 21.5226 151.878 22.0093 150.122 22.0093C148.366 22.0093 146.938 21.5226 145.837 20.5493C144.737 19.576 144.187 18.3276 144.187 16.8042ZM172.656 32.9907V60H161.96V25.6592H171.99L172.656 32.9907ZM171.387 41.6553L168.879 41.7188C168.879 39.0951 169.197 36.757 169.832 34.7046C170.466 32.631 171.366 30.8748 172.529 29.436C173.693 27.9972 175.079 26.9076 176.687 26.167C178.316 25.4053 180.125 25.0244 182.114 25.0244C183.701 25.0244 185.151 25.2572 186.462 25.7227C187.795 26.1882 188.938 26.9393 189.89 27.9761C190.863 29.0129 191.604 30.3882 192.112 32.1021C192.641 33.7948 192.905 35.8895 192.905 38.3862V60H182.146V38.3545C182.146 36.9792 181.956 35.9318 181.575 35.2124C181.194 34.4718 180.644 33.964 179.924 33.689C179.205 33.4139 178.327 33.2764 177.29 33.2764C176.19 33.2764 175.259 33.488 174.497 33.9111C173.735 34.3343 173.122 34.9268 172.656 35.6885C172.212 36.429 171.884 37.3071 171.672 38.3228C171.482 39.3384 171.387 40.4492 171.387 41.6553ZM220.422 25.6592H230.134V58.667C230.134 61.8408 229.404 64.528 227.944 66.7285C226.484 68.9502 224.443 70.6323 221.819 71.7749C219.216 72.9386 216.169 73.5205 212.678 73.5205C211.134 73.5205 209.557 73.3195 207.949 72.9175C206.341 72.5366 204.839 71.9653 203.442 71.2036C202.046 70.4419 200.872 69.5003 199.919 68.3789L204.395 62.0947C205.262 63.068 206.352 63.8932 207.664 64.5703C208.975 65.2686 210.52 65.6177 212.297 65.6177C213.842 65.6177 215.133 65.3426 216.169 64.7925C217.227 64.2424 218.031 63.4383 218.582 62.3804C219.132 61.3436 219.407 60.0846 219.407 58.6035V33.7842L220.422 25.6592ZM197.603 43.2422V42.5757C197.603 39.9731 197.92 37.6034 198.555 35.4663C199.211 33.3081 200.142 31.4567 201.348 29.9121C202.575 28.3464 204.056 27.1403 205.791 26.2939C207.526 25.4476 209.483 25.0244 211.663 25.0244C214.011 25.0244 215.937 25.4793 217.439 26.3892C218.962 27.2778 220.179 28.5262 221.089 30.1343C222.02 31.7424 222.739 33.6255 223.247 35.7837C223.776 37.9207 224.22 40.2271 224.58 42.7026V43.4961C224.22 45.8236 223.723 48.0241 223.088 50.0977C222.475 52.1501 221.671 53.9697 220.676 55.5566C219.682 57.1436 218.433 58.3919 216.931 59.3018C215.45 60.1904 213.673 60.6348 211.599 60.6348C209.441 60.6348 207.494 60.201 205.759 59.3335C204.045 58.466 202.575 57.2493 201.348 55.6836C200.142 54.1178 199.211 52.277 198.555 50.1611C197.92 48.0452 197.603 45.7389 197.603 43.2422ZM208.298 42.5757V43.2422C208.298 44.5329 208.415 45.7284 208.647 46.8286C208.901 47.9289 209.282 48.9022 209.79 49.7485C210.298 50.5737 210.922 51.2191 211.663 51.6846C212.424 52.1501 213.313 52.3828 214.329 52.3828C215.873 52.3828 217.122 52.0549 218.074 51.3989C219.026 50.743 219.714 49.812 220.137 48.606C220.56 47.3999 220.74 45.9823 220.676 44.353V41.8457C220.719 40.4492 220.623 39.222 220.391 38.1641C220.158 37.085 219.788 36.1857 219.28 35.4663C218.793 34.7469 218.137 34.2074 217.312 33.8477C216.508 33.4668 215.535 33.2764 214.392 33.2764C213.398 33.2764 212.52 33.5091 211.758 33.9746C210.996 34.4401 210.361 35.096 209.854 35.9424C209.346 36.7676 208.954 37.7515 208.679 38.894C208.425 40.0155 208.298 41.2427 208.298 42.5757ZM274.06 25.6592H283.772V58.667C283.772 61.8408 283.042 64.528 281.582 66.7285C280.122 68.9502 278.08 70.6323 275.457 71.7749C272.854 72.9386 269.807 73.5205 266.316 73.5205C264.771 73.5205 263.195 73.3195 261.587 72.9175C259.979 72.5366 258.477 71.9653 257.08 71.2036C255.684 70.4419 254.509 69.5003 253.557 68.3789L258.032 62.0947C258.9 63.068 259.989 63.8932 261.301 64.5703C262.613 65.2686 264.158 65.6177 265.935 65.6177C267.48 65.6177 268.77 65.3426 269.807 64.7925C270.865 64.2424 271.669 63.4383 272.219 62.3804C272.769 61.3436 273.044 60.0846 273.044 58.6035V33.7842L274.06 25.6592ZM251.24 43.2422V42.5757C251.24 39.9731 251.558 37.6034 252.192 35.4663C252.848 33.3081 253.779 31.4567 254.985 29.9121C256.213 28.3464 257.694 27.1403 259.429 26.2939C261.164 25.4476 263.121 25.0244 265.3 25.0244C267.649 25.0244 269.574 25.4793 271.077 26.3892C272.6 27.2778 273.817 28.5262 274.727 30.1343C275.658 31.7424 276.377 33.6255 276.885 35.7837C277.414 37.9207 277.858 40.2271 278.218 42.7026V43.4961C277.858 45.8236 277.361 48.0241 276.726 50.0977C276.112 52.1501 275.308 53.9697 274.314 55.5566C273.319 57.1436 272.071 58.3919 270.569 59.3018C269.088 60.1904 267.31 60.6348 265.237 60.6348C263.079 60.6348 261.132 60.201 259.397 59.3335C257.683 58.466 256.213 57.2493 254.985 55.6836C253.779 54.1178 252.848 52.277 252.192 50.1611C251.558 48.0452 251.24 45.7389 251.24 43.2422ZM261.936 42.5757V43.2422C261.936 44.5329 262.052 45.7284 262.285 46.8286C262.539 47.9289 262.92 48.9022 263.428 49.7485C263.936 50.5737 264.56 51.2191 265.3 51.6846C266.062 52.1501 266.951 52.3828 267.966 52.3828C269.511 52.3828 270.759 52.0549 271.711 51.3989C272.664 50.743 273.351 49.812 273.774 48.606C274.198 47.3999 274.377 45.9823 274.314 44.353V41.8457C274.356 40.4492 274.261 39.222 274.028 38.1641C273.796 37.085 273.425 36.1857 272.917 35.4663C272.431 34.7469 271.775 34.2074 270.95 33.8477C270.146 33.4668 269.172 33.2764 268.03 33.2764C267.035 33.2764 266.157 33.5091 265.396 33.9746C264.634 34.4401 263.999 35.096 263.491 35.9424C262.983 36.7676 262.592 37.7515 262.317 38.894C262.063 40.0155 261.936 41.2427 261.936 42.5757ZM300.72 34.165V60H290.024V25.6592H300.022L300.72 34.165ZM310.876 25.4053L310.686 35.3394C310.263 35.297 309.692 35.2441 308.972 35.1807C308.253 35.1172 307.65 35.0854 307.163 35.0854C305.915 35.0854 304.836 35.2336 303.926 35.5298C303.037 35.8049 302.297 36.228 301.704 36.7993C301.133 37.3494 300.71 38.0477 300.435 38.894C300.181 39.7404 300.064 40.7243 300.085 41.8457L298.149 40.5762C298.149 38.2699 298.372 36.1751 298.816 34.292C299.281 32.3877 299.937 30.7479 300.784 29.3726C301.63 27.9761 302.656 26.9076 303.862 26.167C305.068 25.4053 306.423 25.0244 307.925 25.0244C308.454 25.0244 308.972 25.0562 309.48 25.1196C310.009 25.1831 310.474 25.2783 310.876 25.4053ZM330.554 60.6348C327.761 60.6348 325.264 60.201 323.064 59.3335C320.863 58.4448 319.001 57.2282 317.478 55.6836C315.976 54.139 314.823 52.3617 314.019 50.3516C313.236 48.3415 312.844 46.215 312.844 43.9722V42.7661C312.844 40.2482 313.193 37.9207 313.892 35.7837C314.59 33.6255 315.627 31.7424 317.002 30.1343C318.377 28.5262 320.102 27.2778 322.175 26.3892C324.249 25.4793 326.661 25.0244 329.412 25.0244C331.845 25.0244 334.024 25.4159 335.95 26.1987C337.875 26.9816 339.504 28.103 340.837 29.563C342.192 31.0229 343.218 32.7897 343.916 34.8633C344.635 36.9368 344.995 39.2643 344.995 41.8457V46.1938H316.938V39.4971H334.553V38.6719C334.574 37.5293 334.373 36.556 333.95 35.752C333.548 34.9479 332.956 34.3343 332.173 33.9111C331.39 33.488 330.438 33.2764 329.316 33.2764C328.153 33.2764 327.19 33.5303 326.428 34.0381C325.688 34.5459 325.106 35.2441 324.683 36.1328C324.281 37.0003 323.995 38.0054 323.826 39.1479C323.656 40.2905 323.572 41.4966 323.572 42.7661V43.9722C323.572 45.2417 323.741 46.3949 324.08 47.4316C324.439 48.4684 324.947 49.3571 325.603 50.0977C326.28 50.8171 327.084 51.3778 328.015 51.7798C328.967 52.1818 330.046 52.3828 331.252 52.3828C332.712 52.3828 334.151 52.1077 335.569 51.5576C336.986 51.0075 338.203 50.0977 339.219 48.8281L344.075 54.6045C343.376 55.599 342.382 56.5617 341.091 57.4927C339.822 58.4237 338.298 59.1854 336.521 59.7778C334.744 60.3491 332.755 60.6348 330.554 60.6348ZM367.18 51.3672V37.2119C367.18 36.2386 367.043 35.4028 366.768 34.7046C366.493 34.0063 366.059 33.4668 365.466 33.0859C364.874 32.6839 364.08 32.4829 363.086 32.4829C362.282 32.4829 361.594 32.6204 361.023 32.8955C360.452 33.1706 360.018 33.5832 359.722 34.1333C359.425 34.6834 359.277 35.3817 359.277 36.228H348.582C348.582 34.6411 348.931 33.1706 349.629 31.8164C350.348 30.4411 351.364 29.2456 352.676 28.23C354.009 27.2144 355.596 26.4315 357.437 25.8813C359.299 25.3101 361.372 25.0244 363.657 25.0244C366.387 25.0244 368.82 25.4793 370.957 26.3892C373.115 27.299 374.819 28.6637 376.067 30.4834C377.315 32.2819 377.939 34.5459 377.939 37.2754V51.3354C377.939 53.5783 378.066 55.2816 378.32 56.4453C378.574 57.5879 378.934 58.5929 379.399 59.4604V60H368.672C368.164 58.9421 367.783 57.6514 367.529 56.1279C367.297 54.5833 367.18 52.9964 367.18 51.3672ZM368.481 39.021L368.545 44.7339H363.816C362.821 44.7339 361.975 44.8714 361.277 45.1465C360.6 45.4215 360.05 45.8024 359.626 46.2891C359.224 46.7546 358.928 47.2835 358.738 47.876C358.569 48.4684 358.484 49.0926 358.484 49.7485C358.484 50.3833 358.632 50.9546 358.928 51.4624C359.246 51.9491 359.669 52.3299 360.198 52.605C360.727 52.88 361.319 53.0176 361.975 53.0176C363.16 53.0176 364.165 52.7954 364.99 52.3511C365.837 51.8856 366.482 51.3249 366.926 50.6689C367.371 50.013 367.593 49.3994 367.593 48.8281L369.941 53.208C369.518 54.0544 369.032 54.9113 368.481 55.7788C367.952 56.6463 367.286 57.4504 366.482 58.1909C365.699 58.9103 364.736 59.5028 363.594 59.9683C362.451 60.4126 361.065 60.6348 359.436 60.6348C357.32 60.6348 355.374 60.201 353.596 59.3335C351.84 58.466 350.433 57.2599 349.375 55.7153C348.317 54.1496 347.788 52.3511 347.788 50.3198C347.788 48.5425 348.105 46.9556 348.74 45.5591C349.396 44.1626 350.38 42.9777 351.692 42.0044C353.004 41.0311 354.675 40.2905 356.707 39.7827C358.738 39.2749 361.129 39.021 363.879 39.021H368.481ZM401.965 25.6592V33.0859H381.272V25.6592H401.965ZM385.62 17.1216H396.316V48.7964C396.316 49.7062 396.422 50.415 396.633 50.9229C396.845 51.4095 397.205 51.7586 397.712 51.9702C398.241 52.1606 398.94 52.2559 399.807 52.2559C400.421 52.2559 400.929 52.2453 401.331 52.2241C401.733 52.1818 402.113 52.1289 402.473 52.0654V59.7144C401.563 60.0106 400.611 60.2327 399.617 60.3809C398.622 60.5501 397.564 60.6348 396.443 60.6348C394.158 60.6348 392.201 60.2751 390.571 59.5557C388.963 58.8363 387.736 57.7043 386.89 56.1597C386.043 54.6151 385.62 52.605 385.62 50.1294V17.1216ZM14.314 101.659V136H3.58643V101.659H14.314ZM2.95166 92.8042C2.95166 91.2808 3.50179 90.0324 4.60205 89.0591C5.70231 88.0858 7.13053 87.5991 8.88672 87.5991C10.6429 87.5991 12.0711 88.0858 13.1714 89.0591C14.2716 90.0324 14.8218 91.2808 14.8218 92.8042C14.8218 94.3276 14.2716 95.576 13.1714 96.5493C12.0711 97.5226 10.6429 98.0093 8.88672 98.0093C7.13053 98.0093 5.70231 97.5226 4.60205 96.5493C3.50179 95.576 2.95166 94.3276 2.95166 92.8042ZM38.9111 126.352C38.9111 125.759 38.7101 125.251 38.3081 124.828C37.9272 124.384 37.2502 123.982 36.2769 123.622C35.3035 123.241 33.9388 122.86 32.1826 122.479C30.5111 122.12 28.9347 121.644 27.4536 121.051C25.9937 120.459 24.7135 119.739 23.6133 118.893C22.513 118.047 21.6455 117.042 21.0107 115.878C20.3971 114.714 20.0903 113.381 20.0903 111.879C20.0903 110.419 20.3971 109.044 21.0107 107.753C21.6455 106.441 22.5659 105.288 23.772 104.293C24.9992 103.278 26.4909 102.484 28.2471 101.913C30.0033 101.321 32.0028 101.024 34.2456 101.024C37.3348 101.024 40.0008 101.5 42.2437 102.453C44.4865 103.384 46.2109 104.695 47.417 106.388C48.6442 108.06 49.2578 109.996 49.2578 112.196H38.562C38.562 111.329 38.4139 110.588 38.1177 109.975C37.8426 109.361 37.3877 108.896 36.7529 108.578C36.1182 108.24 35.2718 108.07 34.2139 108.07C33.4733 108.07 32.7962 108.208 32.1826 108.483C31.5902 108.758 31.1141 109.139 30.7544 109.625C30.3947 110.112 30.2148 110.683 30.2148 111.339C30.2148 111.805 30.3206 112.228 30.5322 112.609C30.765 112.969 31.1141 113.307 31.5796 113.625C32.0451 113.921 32.6375 114.196 33.3569 114.45C34.0763 114.682 34.9438 114.894 35.9595 115.084C38.2658 115.508 40.424 116.111 42.4341 116.894C44.4442 117.676 46.0734 118.787 47.3218 120.226C48.5913 121.665 49.2261 123.601 49.2261 126.034C49.2261 127.558 48.877 128.965 48.1787 130.255C47.4805 131.525 46.4754 132.646 45.1636 133.62C43.8517 134.572 42.2754 135.312 40.4346 135.841C38.5938 136.37 36.5202 136.635 34.2139 136.635C30.9342 136.635 28.1624 136.053 25.8984 134.889C23.6344 133.704 21.9206 132.223 20.7568 130.446C19.6143 128.647 19.043 126.828 19.043 124.987H29.0088C29.0511 126.045 29.305 126.912 29.7705 127.589C30.2572 128.266 30.9025 128.764 31.7065 129.081C32.5106 129.398 33.4416 129.557 34.4995 129.557C35.4728 129.557 36.2769 129.42 36.9116 129.145C37.5675 128.869 38.0648 128.499 38.4033 128.034C38.7419 127.547 38.9111 126.986 38.9111 126.352ZM81.2183 108.927V136H70.5225V101.659H80.5518L81.2183 108.927ZM79.917 117.655L77.4731 117.719C77.4731 115.307 77.7588 113.085 78.3301 111.054C78.9014 109.022 79.7477 107.256 80.8691 105.753C81.9906 104.251 83.3659 103.087 84.9951 102.262C86.6455 101.437 88.5498 101.024 90.708 101.024C92.2103 101.024 93.575 101.257 94.8022 101.723C96.0295 102.167 97.0874 102.876 97.9761 103.849C98.8647 104.801 99.5418 106.05 100.007 107.594C100.494 109.118 100.737 110.948 100.737 113.085V136H90.0415V114.45C90.0415 112.99 89.8722 111.889 89.5337 111.149C89.2163 110.408 88.7508 109.911 88.1372 109.657C87.5236 109.403 86.7725 109.276 85.8838 109.276C84.9528 109.276 84.117 109.488 83.3765 109.911C82.6359 110.334 82.0011 110.927 81.4722 111.688C80.9644 112.429 80.5729 113.307 80.2979 114.323C80.0439 115.338 79.917 116.449 79.917 117.655ZM99.5312 117.655L96.5479 117.719C96.5479 115.307 96.8123 113.085 97.3413 111.054C97.8914 109.022 98.7061 107.256 99.7852 105.753C100.885 104.251 102.25 103.087 103.879 102.262C105.509 101.437 107.402 101.024 109.561 101.024C111.126 101.024 112.565 101.257 113.877 101.723C115.189 102.188 116.321 102.939 117.273 103.976C118.225 105.013 118.966 106.388 119.495 108.102C120.024 109.795 120.288 111.889 120.288 114.386V136H109.561V114.386C109.561 112.969 109.391 111.9 109.053 111.181C108.735 110.44 108.27 109.943 107.656 109.689C107.043 109.414 106.313 109.276 105.466 109.276C104.451 109.276 103.573 109.488 102.832 109.911C102.091 110.334 101.467 110.927 100.959 111.688C100.473 112.429 100.113 113.307 99.8804 114.323C99.6476 115.338 99.5312 116.449 99.5312 117.655ZM144.25 127.367V113.212C144.25 112.239 144.113 111.403 143.838 110.705C143.563 110.006 143.129 109.467 142.537 109.086C141.944 108.684 141.151 108.483 140.156 108.483C139.352 108.483 138.665 108.62 138.093 108.896C137.522 109.171 137.088 109.583 136.792 110.133C136.496 110.683 136.348 111.382 136.348 112.228H125.652C125.652 110.641 126.001 109.171 126.699 107.816C127.419 106.441 128.434 105.246 129.746 104.23C131.079 103.214 132.666 102.431 134.507 101.881C136.369 101.31 138.442 101.024 140.728 101.024C143.457 101.024 145.89 101.479 148.027 102.389C150.186 103.299 151.889 104.664 153.137 106.483C154.386 108.282 155.01 110.546 155.01 113.275V127.335C155.01 129.578 155.137 131.282 155.391 132.445C155.645 133.588 156.004 134.593 156.47 135.46V136H145.742C145.234 134.942 144.854 133.651 144.6 132.128C144.367 130.583 144.25 128.996 144.25 127.367ZM145.552 115.021L145.615 120.734H140.886C139.892 120.734 139.045 120.871 138.347 121.146C137.67 121.422 137.12 121.802 136.697 122.289C136.295 122.755 135.999 123.284 135.808 123.876C135.639 124.468 135.554 125.093 135.554 125.749C135.554 126.383 135.702 126.955 135.999 127.462C136.316 127.949 136.739 128.33 137.268 128.605C137.797 128.88 138.389 129.018 139.045 129.018C140.23 129.018 141.235 128.795 142.061 128.351C142.907 127.886 143.552 127.325 143.997 126.669C144.441 126.013 144.663 125.399 144.663 124.828L147.012 129.208C146.589 130.054 146.102 130.911 145.552 131.779C145.023 132.646 144.356 133.45 143.552 134.191C142.769 134.91 141.807 135.503 140.664 135.968C139.521 136.413 138.136 136.635 136.506 136.635C134.39 136.635 132.444 136.201 130.667 135.333C128.91 134.466 127.503 133.26 126.445 131.715C125.387 130.15 124.858 128.351 124.858 126.32C124.858 124.542 125.176 122.956 125.811 121.559C126.466 120.163 127.45 118.978 128.762 118.004C130.074 117.031 131.746 116.291 133.777 115.783C135.808 115.275 138.199 115.021 140.95 115.021H145.552ZM180.686 128.129V87.25H191.445V136H181.797L180.686 128.129ZM159.612 119.242V118.576C159.612 115.973 159.897 113.603 160.469 111.466C161.04 109.308 161.886 107.457 163.008 105.912C164.129 104.346 165.526 103.14 167.197 102.294C168.869 101.448 170.794 101.024 172.974 101.024C174.92 101.024 176.624 101.479 178.083 102.389C179.543 103.278 180.792 104.526 181.829 106.134C182.865 107.742 183.712 109.625 184.368 111.784C185.024 113.921 185.521 116.227 185.859 118.703V119.496C185.521 121.824 185.024 124.024 184.368 126.098C183.712 128.15 182.865 129.97 181.829 131.557C180.792 133.144 179.533 134.392 178.052 135.302C176.592 136.19 174.878 136.635 172.91 136.635C170.731 136.635 168.805 136.201 167.134 135.333C165.483 134.466 164.097 133.249 162.976 131.684C161.876 130.118 161.04 128.277 160.469 126.161C159.897 124.045 159.612 121.739 159.612 119.242ZM170.308 118.576V119.242C170.308 120.533 170.392 121.728 170.562 122.829C170.731 123.929 171.016 124.902 171.418 125.749C171.842 126.574 172.392 127.219 173.069 127.685C173.767 128.15 174.624 128.383 175.64 128.383C177.015 128.383 178.147 128.055 179.036 127.399C179.945 126.743 180.612 125.812 181.035 124.606C181.479 123.4 181.67 121.982 181.606 120.353V117.846C181.649 116.449 181.554 115.222 181.321 114.164C181.088 113.085 180.718 112.186 180.21 111.466C179.723 110.747 179.099 110.207 178.337 109.848C177.597 109.467 176.719 109.276 175.703 109.276C174.709 109.276 173.862 109.509 173.164 109.975C172.487 110.44 171.937 111.096 171.514 111.942C171.09 112.768 170.784 113.751 170.593 114.894C170.403 116.015 170.308 117.243 170.308 118.576ZM214.138 136.635C211.345 136.635 208.848 136.201 206.648 135.333C204.447 134.445 202.585 133.228 201.062 131.684C199.56 130.139 198.407 128.362 197.603 126.352C196.82 124.341 196.428 122.215 196.428 119.972V118.766C196.428 116.248 196.777 113.921 197.476 111.784C198.174 109.625 199.211 107.742 200.586 106.134C201.961 104.526 203.686 103.278 205.759 102.389C207.833 101.479 210.245 101.024 212.996 101.024C215.429 101.024 217.608 101.416 219.534 102.199C221.459 102.982 223.088 104.103 224.421 105.563C225.776 107.023 226.802 108.79 227.5 110.863C228.219 112.937 228.579 115.264 228.579 117.846V122.194H200.522V115.497H218.137V114.672C218.158 113.529 217.957 112.556 217.534 111.752C217.132 110.948 216.54 110.334 215.757 109.911C214.974 109.488 214.022 109.276 212.9 109.276C211.737 109.276 210.774 109.53 210.012 110.038C209.272 110.546 208.69 111.244 208.267 112.133C207.865 113 207.579 114.005 207.41 115.148C207.24 116.291 207.156 117.497 207.156 118.766V119.972C207.156 121.242 207.325 122.395 207.664 123.432C208.023 124.468 208.531 125.357 209.187 126.098C209.864 126.817 210.668 127.378 211.599 127.78C212.551 128.182 213.63 128.383 214.836 128.383C216.296 128.383 217.735 128.108 219.153 127.558C220.57 127.007 221.787 126.098 222.803 124.828L227.659 130.604C226.96 131.599 225.966 132.562 224.675 133.493C223.406 134.424 221.882 135.185 220.105 135.778C218.328 136.349 216.339 136.635 214.138 136.635ZM266.951 127.367V113.212C266.951 112.239 266.813 111.403 266.538 110.705C266.263 110.006 265.829 109.467 265.237 109.086C264.644 108.684 263.851 108.483 262.856 108.483C262.052 108.483 261.365 108.62 260.793 108.896C260.222 109.171 259.788 109.583 259.492 110.133C259.196 110.683 259.048 111.382 259.048 112.228H248.352C248.352 110.641 248.701 109.171 249.399 107.816C250.119 106.441 251.134 105.246 252.446 104.23C253.779 103.214 255.366 102.431 257.207 101.881C259.069 101.31 261.143 101.024 263.428 101.024C266.157 101.024 268.59 101.479 270.728 102.389C272.886 103.299 274.589 104.664 275.837 106.483C277.086 108.282 277.71 110.546 277.71 113.275V127.335C277.71 129.578 277.837 131.282 278.091 132.445C278.345 133.588 278.704 134.593 279.17 135.46V136H268.442C267.935 134.942 267.554 133.651 267.3 132.128C267.067 130.583 266.951 128.996 266.951 127.367ZM268.252 115.021L268.315 120.734H263.586C262.592 120.734 261.746 120.871 261.047 121.146C260.37 121.422 259.82 121.802 259.397 122.289C258.995 122.755 258.699 123.284 258.508 123.876C258.339 124.468 258.254 125.093 258.254 125.749C258.254 126.383 258.403 126.955 258.699 127.462C259.016 127.949 259.439 128.33 259.968 128.605C260.497 128.88 261.09 129.018 261.746 129.018C262.931 129.018 263.936 128.795 264.761 128.351C265.607 127.886 266.252 127.325 266.697 126.669C267.141 126.013 267.363 125.399 267.363 124.828L269.712 129.208C269.289 130.054 268.802 130.911 268.252 131.779C267.723 132.646 267.056 133.45 266.252 134.191C265.47 134.91 264.507 135.503 263.364 135.968C262.222 136.413 260.836 136.635 259.207 136.635C257.091 136.635 255.144 136.201 253.367 135.333C251.611 134.466 250.203 133.26 249.146 131.715C248.088 130.15 247.559 128.351 247.559 126.32C247.559 124.542 247.876 122.956 248.511 121.559C249.167 120.163 250.151 118.978 251.462 118.004C252.774 117.031 254.446 116.291 256.477 115.783C258.508 115.275 260.899 115.021 263.65 115.021H268.252ZM294.944 87.25V136H284.216V87.25H294.944ZM300.212 119.179V118.512C300.212 115.994 300.572 113.677 301.292 111.562C302.011 109.424 303.069 107.573 304.465 106.007C305.862 104.442 307.586 103.225 309.639 102.357C311.691 101.469 314.061 101.024 316.748 101.024C319.456 101.024 321.837 101.469 323.889 102.357C325.963 103.225 327.698 104.442 329.094 106.007C330.491 107.573 331.549 109.424 332.268 111.562C332.987 113.677 333.347 115.994 333.347 118.512V119.179C333.347 121.675 332.987 123.992 332.268 126.129C331.549 128.245 330.491 130.097 329.094 131.684C327.698 133.249 325.973 134.466 323.921 135.333C321.868 136.201 319.499 136.635 316.812 136.635C314.124 136.635 311.744 136.201 309.67 135.333C307.597 134.466 305.862 133.249 304.465 131.684C303.069 130.097 302.011 128.245 301.292 126.129C300.572 123.992 300.212 121.675 300.212 119.179ZM310.908 118.512V119.179C310.908 120.469 311.003 121.675 311.194 122.797C311.384 123.918 311.702 124.902 312.146 125.749C312.59 126.574 313.193 127.219 313.955 127.685C314.717 128.15 315.669 128.383 316.812 128.383C317.933 128.383 318.864 128.15 319.604 127.685C320.366 127.219 320.969 126.574 321.414 125.749C321.858 124.902 322.175 123.918 322.366 122.797C322.556 121.675 322.651 120.469 322.651 119.179V118.512C322.651 117.264 322.556 116.09 322.366 114.989C322.175 113.868 321.858 112.884 321.414 112.038C320.969 111.17 320.366 110.493 319.604 110.006C318.843 109.52 317.891 109.276 316.748 109.276C315.627 109.276 314.685 109.52 313.923 110.006C313.183 110.493 312.59 111.17 312.146 112.038C311.702 112.884 311.384 113.868 311.194 114.989C311.003 116.09 310.908 117.264 310.908 118.512ZM348.613 108.991V136H337.917V101.659H347.947L348.613 108.991ZM347.344 117.655L344.836 117.719C344.836 115.095 345.154 112.757 345.789 110.705C346.423 108.631 347.323 106.875 348.486 105.436C349.65 103.997 351.036 102.908 352.644 102.167C354.273 101.405 356.082 101.024 358.071 101.024C359.658 101.024 361.108 101.257 362.419 101.723C363.752 102.188 364.895 102.939 365.847 103.976C366.82 105.013 367.561 106.388 368.069 108.102C368.598 109.795 368.862 111.889 368.862 114.386V136H358.103V114.354C358.103 112.979 357.913 111.932 357.532 111.212C357.151 110.472 356.601 109.964 355.881 109.689C355.162 109.414 354.284 109.276 353.247 109.276C352.147 109.276 351.216 109.488 350.454 109.911C349.692 110.334 349.079 110.927 348.613 111.688C348.169 112.429 347.841 113.307 347.629 114.323C347.439 115.338 347.344 116.449 347.344 117.655ZM391.428 136.635C388.635 136.635 386.139 136.201 383.938 135.333C381.737 134.445 379.875 133.228 378.352 131.684C376.85 130.139 375.697 128.362 374.893 126.352C374.11 124.341 373.718 122.215 373.718 119.972V118.766C373.718 116.248 374.067 113.921 374.766 111.784C375.464 109.625 376.501 107.742 377.876 106.134C379.251 104.526 380.976 103.278 383.049 102.389C385.123 101.479 387.535 101.024 390.286 101.024C392.719 101.024 394.898 101.416 396.824 102.199C398.749 102.982 400.378 104.103 401.711 105.563C403.066 107.023 404.092 108.79 404.79 110.863C405.509 112.937 405.869 115.264 405.869 117.846V122.194H377.812V115.497H395.427V114.672C395.448 113.529 395.247 112.556 394.824 111.752C394.422 110.948 393.83 110.334 393.047 109.911C392.264 109.488 391.312 109.276 390.19 109.276C389.027 109.276 388.064 109.53 387.302 110.038C386.562 110.546 385.98 111.244 385.557 112.133C385.155 113 384.869 114.005 384.7 115.148C384.53 116.291 384.446 117.497 384.446 118.766V119.972C384.446 121.242 384.615 122.395 384.954 123.432C385.313 124.468 385.821 125.357 386.477 126.098C387.154 126.817 387.958 127.378 388.889 127.78C389.841 128.182 390.92 128.383 392.126 128.383C393.586 128.383 395.025 128.108 396.443 127.558C397.861 127.007 399.077 126.098 400.093 124.828L404.949 130.604C404.25 131.599 403.256 132.562 401.965 133.493C400.696 134.424 399.172 135.185 397.395 135.778C395.618 136.349 393.629 136.635 391.428 136.635Z" fill="#004E93"/>
<path d="M226.635 95.001C197.177 82.1717 126.151 64.2105 77.7088 95.001C56.4337 113.844 42.0321 150.568 154.626 146.72C180.266 146.72 233.835 136.376 243 95.001" stroke="#FFE700" stroke-width="5"/>
</svg>
