<svg width="406" height="149" viewBox="0 0 406 149" fill="none" xmlns="http://www.w3.org/2000/svg">
<path d="M41.3232 42.3076V61.2871C40.5404 62.1546 39.3343 63.0856 37.7051 64.0801C36.097 65.0534 34.0658 65.8892 31.6113 66.5874C29.1569 67.2856 26.2687 67.6348 22.9468 67.6348C19.8787 67.6348 17.0964 67.1481 14.5996 66.1748C12.1029 65.1803 9.95524 63.731 8.15674 61.8267C6.37939 59.9012 5.00407 57.5526 4.03076 54.7808C3.07861 51.9878 2.60254 48.7928 2.60254 45.1958V42.625C2.60254 39.028 3.08919 35.833 4.0625 33.04C5.03581 30.2471 6.40055 27.8984 8.15674 25.9941C9.93408 24.0687 12.0182 22.6087 14.4092 21.6143C16.8213 20.6198 19.4661 20.1226 22.3438 20.1226C26.5967 20.1226 30.0562 20.7996 32.7222 22.1538C35.3882 23.4868 37.4089 25.3382 38.7842 27.708C40.1595 30.0566 40.9953 32.7756 41.2915 35.8647H30.5957C30.3841 34.3413 29.9821 33.0506 29.3896 31.9927C28.8184 30.9136 27.9932 30.099 26.9141 29.5488C25.835 28.9775 24.4385 28.6919 22.7246 28.6919C21.3916 28.6919 20.175 28.9775 19.0747 29.5488C17.9956 30.1201 17.0752 30.9876 16.3135 32.1514C15.5518 33.2939 14.9593 34.7327 14.5361 36.4678C14.1341 38.2028 13.9331 40.234 13.9331 42.5615V45.1958C13.9331 47.5021 14.1235 49.5228 14.5044 51.2578C14.9064 52.9928 15.4989 54.4422 16.2817 55.606C17.0858 56.7485 18.1014 57.616 19.3286 58.2085C20.577 58.7798 22.0475 59.0654 23.7402 59.0654C24.9251 59.0654 25.9408 58.9702 26.7871 58.7798C27.6335 58.5682 28.3317 58.3143 28.8818 58.0181C29.4531 57.7007 29.8869 57.4045 30.1831 57.1294V49.9565H22.439V42.3076H41.3232ZM58.1128 41.165V67H47.417V32.6592H57.4146L58.1128 41.165ZM68.269 32.4053L68.0786 42.3394C67.6554 42.297 67.0841 42.2441 66.3647 42.1807C65.6453 42.1172 65.0423 42.0854 64.5557 42.0854C63.3073 42.0854 62.2282 42.2336 61.3184 42.5298C60.4297 42.8049 59.6891 43.228 59.0967 43.7993C58.5254 44.3494 58.1022 45.0477 57.8271 45.894C57.5732 46.7404 57.4569 47.7243 57.478 48.8457L55.542 47.5762C55.542 45.2699 55.7642 43.1751 56.2085 41.292C56.674 39.3877 57.3299 37.7479 58.1763 36.3726C59.0226 34.9761 60.0488 33.9076 61.2549 33.167C62.4609 32.4053 63.8151 32.0244 65.3174 32.0244C65.8464 32.0244 66.3647 32.0562 66.8726 32.1196C67.4015 32.1831 67.867 32.2783 68.269 32.4053ZM87.9468 67.6348C85.1538 67.6348 82.6571 67.201 80.4565 66.3335C78.256 65.4448 76.394 64.2282 74.8706 62.6836C73.3683 61.139 72.2152 59.3617 71.4111 57.3516C70.6283 55.3415 70.2368 53.215 70.2368 50.9722V49.7661C70.2368 47.2482 70.5859 44.9207 71.2842 42.7837C71.9824 40.6255 73.0192 38.7424 74.3945 37.1343C75.7699 35.5262 77.4943 34.2778 79.5679 33.3892C81.6414 32.4793 84.0535 32.0244 86.8042 32.0244C89.2375 32.0244 91.4168 32.4159 93.3423 33.1987C95.2677 33.9816 96.897 35.103 98.23 36.563C99.5841 38.0229 100.61 39.7897 101.309 41.8633C102.028 43.9368 102.388 46.2643 102.388 48.8457V53.1938H74.3311V46.4971H91.9458V45.6719C91.967 44.5293 91.766 43.556 91.3428 42.752C90.9408 41.9479 90.3483 41.3343 89.5654 40.9111C88.7826 40.488 87.8304 40.2764 86.709 40.2764C85.5452 40.2764 84.5825 40.5303 83.8208 41.0381C83.0802 41.5459 82.4984 42.2441 82.0752 43.1328C81.6732 44.0003 81.3875 45.0054 81.2183 46.1479C81.049 47.2905 80.9644 48.4966 80.9644 49.7661V50.9722C80.9644 52.2417 81.1336 53.3949 81.4722 54.4316C81.8319 55.4684 82.3397 56.3571 82.9956 57.0977C83.6727 57.8171 84.4767 58.3778 85.4077 58.7798C86.3599 59.1818 87.439 59.3828 88.645 59.3828C90.105 59.3828 91.5438 59.1077 92.9614 58.5576C94.3791 58.0075 95.5957 57.0977 96.6113 55.8281L101.467 61.6045C100.769 62.599 99.7746 63.5617 98.4839 64.4927C97.2144 65.4237 95.6909 66.1854 93.9136 66.7778C92.1362 67.3491 90.1473 67.6348 87.9468 67.6348ZM124.573 58.3672V44.2119C124.573 43.2386 124.435 42.4028 124.16 41.7046C123.885 41.0063 123.451 40.4668 122.859 40.0859C122.266 39.6839 121.473 39.4829 120.479 39.4829C119.674 39.4829 118.987 39.6204 118.416 39.8955C117.844 40.1706 117.41 40.5832 117.114 41.1333C116.818 41.6834 116.67 42.3817 116.67 43.228H105.974C105.974 41.6411 106.323 40.1706 107.021 38.8164C107.741 37.4411 108.757 36.2456 110.068 35.23C111.401 34.2144 112.988 33.4315 114.829 32.8813C116.691 32.3101 118.765 32.0244 121.05 32.0244C123.779 32.0244 126.213 32.4793 128.35 33.3892C130.508 34.299 132.211 35.6637 133.459 37.4834C134.708 39.2819 135.332 41.5459 135.332 44.2754V58.3354C135.332 60.5783 135.459 62.2816 135.713 63.4453C135.967 64.5879 136.326 65.5929 136.792 66.4604V67H126.064C125.557 65.9421 125.176 64.6514 124.922 63.1279C124.689 61.5833 124.573 59.9964 124.573 58.3672ZM125.874 46.021L125.938 51.7339H121.208C120.214 51.7339 119.368 51.8714 118.669 52.1465C117.992 52.4215 117.442 52.8024 117.019 53.2891C116.617 53.7546 116.321 54.2835 116.13 54.876C115.961 55.4684 115.876 56.0926 115.876 56.7485C115.876 57.3833 116.025 57.9546 116.321 58.4624C116.638 58.9491 117.061 59.3299 117.59 59.605C118.119 59.88 118.712 60.0176 119.368 60.0176C120.553 60.0176 121.558 59.7954 122.383 59.3511C123.229 58.8856 123.875 58.3249 124.319 57.6689C124.763 57.013 124.985 56.3994 124.985 55.8281L127.334 60.208C126.911 61.0544 126.424 61.9113 125.874 62.7788C125.345 63.6463 124.679 64.4504 123.875 65.1909C123.092 65.9103 122.129 66.5028 120.986 66.9683C119.844 67.4126 118.458 67.6348 116.829 67.6348C114.713 67.6348 112.766 67.201 110.989 66.3335C109.233 65.466 107.826 64.2599 106.768 62.7153C105.71 61.1496 105.181 59.3511 105.181 57.3198C105.181 55.5425 105.498 53.9556 106.133 52.5591C106.789 51.1626 107.773 49.9777 109.084 49.0044C110.396 48.0311 112.068 47.2905 114.099 46.7827C116.13 46.2749 118.521 46.021 121.272 46.021H125.874ZM159.358 32.6592V40.0859H138.665V32.6592H159.358ZM143.013 24.1216H153.708V55.7964C153.708 56.7062 153.814 57.415 154.026 57.9229C154.237 58.4095 154.597 58.7586 155.105 58.9702C155.634 59.1606 156.332 59.2559 157.2 59.2559C157.813 59.2559 158.321 59.2453 158.723 59.2241C159.125 59.1818 159.506 59.1289 159.866 59.0654V66.7144C158.956 67.0106 158.004 67.2327 157.009 67.3809C156.015 67.5501 154.957 67.6348 153.835 67.6348C151.55 67.6348 149.593 67.2751 147.964 66.5557C146.356 65.8363 145.129 64.7043 144.282 63.1597C143.436 61.6151 143.013 59.605 143.013 57.1294V24.1216ZM179.893 18.25H190.588V58.5576L189.478 67H179.893V18.25ZM211.663 49.4487V50.1152C211.663 52.7178 211.398 55.0876 210.869 57.2246C210.34 59.3617 209.526 61.2131 208.425 62.7788C207.325 64.3234 205.939 65.5189 204.268 66.3652C202.596 67.2116 200.618 67.6348 198.333 67.6348C196.259 67.6348 194.482 67.1904 193 66.3018C191.519 65.3919 190.282 64.1436 189.287 62.5566C188.293 60.9486 187.489 59.0972 186.875 57.0024C186.261 54.8866 185.775 52.6226 185.415 50.2104V49.417C185.775 47.026 186.261 44.7832 186.875 42.6885C187.489 40.5726 188.293 38.7212 189.287 37.1343C190.282 35.5262 191.509 34.2778 192.969 33.3892C194.45 32.4793 196.217 32.0244 198.269 32.0244C200.575 32.0244 202.564 32.4582 204.236 33.3257C205.929 34.1932 207.325 35.4098 208.425 36.9756C209.526 38.5413 210.34 40.3822 210.869 42.498C211.398 44.6139 211.663 46.9308 211.663 49.4487ZM200.967 50.1152V49.4487C200.967 48.2004 200.893 47.026 200.745 45.9258C200.597 44.8255 200.332 43.8522 199.951 43.0059C199.57 42.1595 199.031 41.493 198.333 41.0063C197.634 40.5197 196.724 40.2764 195.603 40.2764C194.46 40.2764 193.498 40.4668 192.715 40.8477C191.953 41.2285 191.34 41.7786 190.874 42.498C190.43 43.1963 190.112 44.0638 189.922 45.1006C189.731 46.1162 189.647 47.2694 189.668 48.5601V51.0674C189.626 52.8236 189.784 54.3258 190.144 55.5742C190.504 56.8226 191.128 57.7747 192.017 58.4307C192.905 59.0866 194.122 59.4146 195.667 59.4146C196.809 59.4146 197.729 59.1924 198.428 58.748C199.147 58.3037 199.687 57.6689 200.046 56.8438C200.406 56.0186 200.649 55.0347 200.776 53.8921C200.903 52.7495 200.967 51.4906 200.967 50.1152ZM227.214 41.165V67H216.519V32.6592H226.516L227.214 41.165ZM237.371 32.4053L237.18 42.3394C236.757 42.297 236.186 42.2441 235.466 42.1807C234.747 42.1172 234.144 42.0854 233.657 42.0854C232.409 42.0854 231.33 42.2336 230.42 42.5298C229.531 42.8049 228.791 43.228 228.198 43.7993C227.627 44.3494 227.204 45.0477 226.929 45.894C226.675 46.7404 226.558 47.7243 226.58 48.8457L224.644 47.5762C224.644 45.2699 224.866 43.1751 225.31 41.292C225.776 39.3877 226.431 37.7479 227.278 36.3726C228.124 34.9761 229.15 33.9076 230.356 33.167C231.562 32.4053 232.917 32.0244 234.419 32.0244C234.948 32.0244 235.466 32.0562 235.974 32.1196C236.503 32.1831 236.969 32.2783 237.371 32.4053ZM257.937 58.3672V44.2119C257.937 43.2386 257.799 42.4028 257.524 41.7046C257.249 41.0063 256.816 40.4668 256.223 40.0859C255.631 39.6839 254.837 39.4829 253.843 39.4829C253.039 39.4829 252.351 39.6204 251.78 39.8955C251.208 40.1706 250.775 40.5832 250.479 41.1333C250.182 41.6834 250.034 42.3817 250.034 43.228H239.338C239.338 41.6411 239.688 40.1706 240.386 38.8164C241.105 37.4411 242.121 36.2456 243.433 35.23C244.766 34.2144 246.353 33.4315 248.193 32.8813C250.055 32.3101 252.129 32.0244 254.414 32.0244C257.144 32.0244 259.577 32.4793 261.714 33.3892C263.872 34.299 265.575 35.6637 266.824 37.4834C268.072 39.2819 268.696 41.5459 268.696 44.2754V58.3354C268.696 60.5783 268.823 62.2816 269.077 63.4453C269.331 64.5879 269.691 65.5929 270.156 66.4604V67H259.429C258.921 65.9421 258.54 64.6514 258.286 63.1279C258.053 61.5833 257.937 59.9964 257.937 58.3672ZM259.238 46.021L259.302 51.7339H254.573C253.578 51.7339 252.732 51.8714 252.034 52.1465C251.357 52.4215 250.806 52.8024 250.383 53.2891C249.981 53.7546 249.685 54.2835 249.495 54.876C249.325 55.4684 249.241 56.0926 249.241 56.7485C249.241 57.3833 249.389 57.9546 249.685 58.4624C250.002 58.9491 250.426 59.3299 250.955 59.605C251.484 59.88 252.076 60.0176 252.732 60.0176C253.917 60.0176 254.922 59.7954 255.747 59.3511C256.593 58.8856 257.239 58.3249 257.683 57.6689C258.127 57.013 258.35 56.3994 258.35 55.8281L260.698 60.208C260.275 61.0544 259.788 61.9113 259.238 62.7788C258.709 63.6463 258.043 64.4504 257.239 65.1909C256.456 65.9103 255.493 66.5028 254.351 66.9683C253.208 67.4126 251.822 67.6348 250.193 67.6348C248.077 67.6348 246.13 67.201 244.353 66.3335C242.597 65.466 241.19 64.2599 240.132 62.7153C239.074 61.1496 238.545 59.3511 238.545 57.3198C238.545 55.5425 238.862 53.9556 239.497 52.5591C240.153 51.1626 241.137 49.9777 242.449 49.0044C243.761 48.0311 245.432 47.2905 247.463 46.7827C249.495 46.2749 251.886 46.021 254.636 46.021H259.238ZM285.137 39.9907V67H274.441V32.6592H284.47L285.137 39.9907ZM283.867 48.6553L281.36 48.7188C281.36 46.0951 281.677 43.757 282.312 41.7046C282.947 39.631 283.846 37.8748 285.01 36.436C286.174 34.9972 287.559 33.9076 289.167 33.167C290.797 32.4053 292.606 32.0244 294.595 32.0244C296.182 32.0244 297.631 32.2572 298.943 32.7227C300.276 33.1882 301.418 33.9393 302.371 34.9761C303.344 36.0129 304.084 37.3882 304.592 39.1021C305.121 40.7948 305.386 42.8895 305.386 45.3862V67H294.626V45.3545C294.626 43.9792 294.436 42.9318 294.055 42.2124C293.674 41.4718 293.124 40.964 292.405 40.689C291.685 40.4139 290.807 40.2764 289.771 40.2764C288.67 40.2764 287.739 40.488 286.978 40.9111C286.216 41.3343 285.602 41.9268 285.137 42.6885C284.692 43.429 284.364 44.3071 284.153 45.3228C283.962 46.3384 283.867 47.4492 283.867 48.6553ZM331.062 59.1289V18.25H341.821V67H332.173L331.062 59.1289ZM309.988 50.2422V49.5757C309.988 46.9731 310.273 44.6034 310.845 42.4663C311.416 40.3081 312.262 38.4567 313.384 36.9121C314.505 35.3464 315.902 34.1403 317.573 33.2939C319.245 32.4476 321.17 32.0244 323.35 32.0244C325.296 32.0244 327 32.4793 328.459 33.3892C329.919 34.2778 331.168 35.5262 332.205 37.1343C333.241 38.7424 334.088 40.6255 334.744 42.7837C335.4 44.9207 335.897 47.2271 336.235 49.7026V50.4961C335.897 52.8236 335.4 55.0241 334.744 57.0977C334.088 59.1501 333.241 60.9697 332.205 62.5566C331.168 64.1436 329.909 65.3919 328.428 66.3018C326.968 67.1904 325.254 67.6348 323.286 67.6348C321.107 67.6348 319.181 67.201 317.51 66.3335C315.859 65.466 314.473 64.2493 313.352 62.6836C312.252 61.1178 311.416 59.277 310.845 57.1611C310.273 55.0452 309.988 52.7389 309.988 50.2422ZM320.684 49.5757V50.2422C320.684 51.5329 320.768 52.7284 320.938 53.8286C321.107 54.9289 321.392 55.9022 321.794 56.7485C322.218 57.5737 322.768 58.2191 323.445 58.6846C324.143 59.1501 325 59.3828 326.016 59.3828C327.391 59.3828 328.523 59.0549 329.412 58.3989C330.321 57.743 330.988 56.812 331.411 55.606C331.855 54.3999 332.046 52.9823 331.982 51.353V48.8457C332.025 47.4492 331.93 46.222 331.697 45.1641C331.464 44.085 331.094 43.1857 330.586 42.4663C330.099 41.7469 329.475 41.2074 328.713 40.8477C327.973 40.4668 327.095 40.2764 326.079 40.2764C325.085 40.2764 324.238 40.5091 323.54 40.9746C322.863 41.4401 322.313 42.096 321.89 42.9424C321.466 43.7676 321.16 44.7515 320.969 45.894C320.779 47.0155 320.684 48.2427 320.684 49.5757ZM365.879 57.3516C365.879 56.7591 365.678 56.2513 365.276 55.8281C364.895 55.3838 364.218 54.9818 363.245 54.6221C362.271 54.2412 360.907 53.8604 359.15 53.4795C357.479 53.1198 355.903 52.6437 354.421 52.0513C352.961 51.4588 351.681 50.7394 350.581 49.8931C349.481 49.0467 348.613 48.0417 347.979 46.8779C347.365 45.7142 347.058 44.3812 347.058 42.8789C347.058 41.4189 347.365 40.0436 347.979 38.7529C348.613 37.4411 349.534 36.2879 350.74 35.2935C351.967 34.2778 353.459 33.4844 355.215 32.9131C356.971 32.3206 358.971 32.0244 361.213 32.0244C364.303 32.0244 366.969 32.5005 369.211 33.4526C371.454 34.3836 373.179 35.6955 374.385 37.3882C375.612 39.0597 376.226 40.9958 376.226 43.1963H365.53C365.53 42.3288 365.382 41.5882 365.085 40.9746C364.81 40.361 364.355 39.8955 363.721 39.5781C363.086 39.2396 362.24 39.0703 361.182 39.0703C360.441 39.0703 359.764 39.2078 359.15 39.4829C358.558 39.758 358.082 40.1388 357.722 40.6255C357.362 41.1121 357.183 41.6834 357.183 42.3394C357.183 42.8049 357.288 43.228 357.5 43.6089C357.733 43.9686 358.082 44.3071 358.547 44.6245C359.013 44.9207 359.605 45.1958 360.325 45.4497C361.044 45.6825 361.912 45.894 362.927 46.0845C365.234 46.5076 367.392 47.1107 369.402 47.8936C371.412 48.6764 373.041 49.7873 374.29 51.2261C375.559 52.6649 376.194 54.6009 376.194 57.0342C376.194 58.5576 375.845 59.9647 375.146 61.2554C374.448 62.5249 373.443 63.6463 372.131 64.6196C370.819 65.5718 369.243 66.3123 367.402 66.8413C365.562 67.3703 363.488 67.6348 361.182 67.6348C357.902 67.6348 355.13 67.0529 352.866 65.8892C350.602 64.7043 348.888 63.2231 347.725 61.4458C346.582 59.6473 346.011 57.8276 346.011 55.9868H355.977C356.019 57.0448 356.273 57.9123 356.738 58.5894C357.225 59.2664 357.87 59.7637 358.674 60.0811C359.478 60.3984 360.409 60.5571 361.467 60.5571C362.441 60.5571 363.245 60.4196 363.879 60.1445C364.535 59.8695 365.033 59.4992 365.371 59.0337C365.71 58.547 365.879 57.9863 365.879 57.3516ZM13.8062 104.261V145.203H3.11035V97.6592H13.0762L13.8062 104.261ZM34.8804 114.417V115.083C34.8804 117.58 34.5947 119.897 34.0234 122.034C33.4521 124.171 32.6058 126.033 31.4844 127.62C30.363 129.207 28.9665 130.445 27.2949 131.333C25.6445 132.201 23.7297 132.635 21.5503 132.635C19.4979 132.635 17.7311 132.18 16.25 131.27C14.7689 130.36 13.5311 129.101 12.5366 127.493C11.5422 125.885 10.7381 124.044 10.1245 121.971C9.5109 119.897 9.02425 117.707 8.66455 115.401V114.544C9.02425 112.068 9.5109 109.773 10.1245 107.657C10.7381 105.52 11.5422 103.658 12.5366 102.071C13.5311 100.484 14.7583 99.2461 16.2183 98.3574C17.6994 97.4688 19.4661 97.0244 21.5186 97.0244C23.6979 97.0244 25.6128 97.437 27.2632 98.2622C28.9347 99.0874 30.3312 100.272 31.4526 101.817C32.5952 103.34 33.4521 105.171 34.0234 107.308C34.5947 109.445 34.8804 111.814 34.8804 114.417ZM24.1846 115.083V114.417C24.1846 113.084 24.0894 111.867 23.8989 110.767C23.7085 109.646 23.4017 108.672 22.9785 107.847C22.5765 107.022 22.0369 106.387 21.3599 105.943C20.6828 105.499 19.847 105.276 18.8525 105.276C17.71 105.276 16.7472 105.456 15.9644 105.816C15.2026 106.154 14.589 106.683 14.1235 107.403C13.6792 108.101 13.3618 108.979 13.1714 110.037C13.0021 111.074 12.9281 112.291 12.9492 113.687V116.29C12.9069 117.898 13.0656 119.315 13.4253 120.542C13.785 121.749 14.4092 122.69 15.2979 123.367C16.1865 124.044 17.3926 124.383 18.916 124.383C19.9316 124.383 20.778 124.15 21.4551 123.685C22.1322 123.198 22.6717 122.531 23.0737 121.685C23.4757 120.818 23.7614 119.823 23.9307 118.702C24.0999 117.58 24.1846 116.374 24.1846 115.083ZM50.4321 106.165V132H39.7363V97.6592H49.7339L50.4321 106.165ZM60.5884 97.4053L60.3979 107.339C59.9748 107.297 59.4035 107.244 58.6841 107.181C57.9647 107.117 57.3617 107.085 56.875 107.085C55.6266 107.085 54.5475 107.234 53.6377 107.53C52.749 107.805 52.0085 108.228 51.416 108.799C50.8447 109.349 50.4215 110.048 50.1465 110.894C49.8926 111.74 49.7762 112.724 49.7974 113.846L47.8613 112.576C47.8613 110.27 48.0835 108.175 48.5278 106.292C48.9933 104.388 49.6493 102.748 50.4956 101.373C51.342 99.9761 52.3682 98.9076 53.5742 98.167C54.7803 97.4053 56.1344 97.0244 57.6367 97.0244C58.1657 97.0244 58.6841 97.0562 59.1919 97.1196C59.7209 97.1831 60.1864 97.2783 60.5884 97.4053ZM61.7944 115.179V114.512C61.7944 111.994 62.1541 109.677 62.8735 107.562C63.5929 105.424 64.6509 103.573 66.0474 102.007C67.4438 100.442 69.1683 99.2249 71.2207 98.3574C73.2731 97.4688 75.6429 97.0244 78.3301 97.0244C81.0384 97.0244 83.4188 97.4688 85.4712 98.3574C87.5448 99.2249 89.2798 100.442 90.6763 102.007C92.0728 103.573 93.1307 105.424 93.8501 107.562C94.5695 109.677 94.9292 111.994 94.9292 114.512V115.179C94.9292 117.675 94.5695 119.992 93.8501 122.129C93.1307 124.245 92.0728 126.097 90.6763 127.684C89.2798 129.249 87.5553 130.466 85.5029 131.333C83.4505 132.201 81.0807 132.635 78.3936 132.635C75.7064 132.635 73.326 132.201 71.2524 131.333C69.1789 130.466 67.4438 129.249 66.0474 127.684C64.6509 126.097 63.5929 124.245 62.8735 122.129C62.1541 119.992 61.7944 117.675 61.7944 115.179ZM72.4902 114.512V115.179C72.4902 116.469 72.5854 117.675 72.7759 118.797C72.9663 119.918 73.2837 120.902 73.728 121.749C74.1724 122.574 74.7754 123.219 75.5371 123.685C76.2988 124.15 77.251 124.383 78.3936 124.383C79.515 124.383 80.446 124.15 81.1865 123.685C81.9482 123.219 82.5513 122.574 82.9956 121.749C83.4399 120.902 83.7573 119.918 83.9478 118.797C84.1382 117.675 84.2334 116.469 84.2334 115.179V114.512C84.2334 113.264 84.1382 112.09 83.9478 110.989C83.7573 109.868 83.4399 108.884 82.9956 108.038C82.5513 107.17 81.9482 106.493 81.1865 106.006C80.4248 105.52 79.4727 105.276 78.3301 105.276C77.2087 105.276 76.2671 105.52 75.5054 106.006C74.7648 106.493 74.1724 107.17 73.728 108.038C73.2837 108.884 72.9663 109.868 72.7759 110.989C72.5854 112.09 72.4902 113.264 72.4902 114.512ZM119.431 124.129V83.25H130.19V132H120.542L119.431 124.129ZM98.3569 115.242V114.576C98.3569 111.973 98.6426 109.603 99.2139 107.466C99.7852 105.308 100.632 103.457 101.753 101.912C102.874 100.346 104.271 99.1403 105.942 98.2939C107.614 97.4476 109.539 97.0244 111.719 97.0244C113.665 97.0244 115.369 97.4793 116.829 98.3892C118.289 99.2778 119.537 100.526 120.574 102.134C121.611 103.742 122.457 105.625 123.113 107.784C123.769 109.921 124.266 112.227 124.604 114.703V115.496C124.266 117.824 123.769 120.024 123.113 122.098C122.457 124.15 121.611 125.97 120.574 127.557C119.537 129.144 118.278 130.392 116.797 131.302C115.337 132.19 113.623 132.635 111.655 132.635C109.476 132.635 107.55 132.201 105.879 131.333C104.229 130.466 102.843 129.249 101.721 127.684C100.621 126.118 99.7852 124.277 99.2139 122.161C98.6426 120.045 98.3569 117.739 98.3569 115.242ZM109.053 114.576V115.242C109.053 116.533 109.137 117.728 109.307 118.829C109.476 119.929 109.762 120.902 110.164 121.749C110.587 122.574 111.137 123.219 111.814 123.685C112.512 124.15 113.369 124.383 114.385 124.383C115.76 124.383 116.892 124.055 117.781 123.399C118.691 122.743 119.357 121.812 119.78 120.606C120.225 119.4 120.415 117.982 120.352 116.353V113.846C120.394 112.449 120.299 111.222 120.066 110.164C119.833 109.085 119.463 108.186 118.955 107.466C118.468 106.747 117.844 106.207 117.083 105.848C116.342 105.467 115.464 105.276 114.448 105.276C113.454 105.276 112.607 105.509 111.909 105.975C111.232 106.44 110.682 107.096 110.259 107.942C109.836 108.768 109.529 109.751 109.338 110.894C109.148 112.015 109.053 113.243 109.053 114.576ZM156.311 123.653V97.6592H167.039V132H157.009L156.311 123.653ZM157.327 116.67L160.12 116.607C160.12 118.913 159.845 121.05 159.294 123.018C158.744 124.965 157.93 126.657 156.851 128.096C155.793 129.535 154.481 130.656 152.915 131.46C151.37 132.243 149.583 132.635 147.551 132.635C145.859 132.635 144.303 132.402 142.886 131.937C141.489 131.45 140.283 130.699 139.268 129.683C138.252 128.646 137.458 127.324 136.887 125.716C136.337 124.087 136.062 122.14 136.062 119.876V97.6592H146.758V119.939C146.758 120.701 146.853 121.357 147.043 121.907C147.234 122.457 147.509 122.923 147.869 123.304C148.228 123.663 148.673 123.938 149.202 124.129C149.752 124.298 150.376 124.383 151.074 124.383C152.682 124.383 153.941 124.044 154.851 123.367C155.761 122.69 156.396 121.77 156.755 120.606C157.136 119.442 157.327 118.13 157.327 116.67ZM187.446 124.383C188.441 124.383 189.287 124.203 189.985 123.843C190.705 123.462 191.244 122.933 191.604 122.256C191.985 121.558 192.165 120.722 192.144 119.749H202.205C202.226 122.33 201.591 124.594 200.3 126.541C199.031 128.466 197.296 129.969 195.095 131.048C192.916 132.106 190.451 132.635 187.7 132.635C185.013 132.635 182.664 132.201 180.654 131.333C178.644 130.445 176.962 129.218 175.608 127.652C174.275 126.065 173.27 124.214 172.593 122.098C171.937 119.982 171.609 117.686 171.609 115.21V114.48C171.609 112.005 171.937 109.709 172.593 107.593C173.27 105.456 174.275 103.605 175.608 102.039C176.962 100.452 178.634 99.2249 180.623 98.3574C182.633 97.4688 184.971 97.0244 187.637 97.0244C190.493 97.0244 193.011 97.564 195.19 98.6431C197.391 99.7222 199.115 101.288 200.364 103.34C201.612 105.393 202.226 107.879 202.205 110.799H192.144C192.165 109.762 192.006 108.831 191.667 108.006C191.329 107.181 190.8 106.525 190.081 106.038C189.382 105.53 188.483 105.276 187.383 105.276C186.283 105.276 185.394 105.52 184.717 106.006C184.04 106.493 183.521 107.17 183.162 108.038C182.823 108.884 182.59 109.857 182.463 110.958C182.358 112.058 182.305 113.232 182.305 114.48V115.21C182.305 116.48 182.358 117.675 182.463 118.797C182.59 119.897 182.834 120.87 183.193 121.717C183.553 122.542 184.071 123.198 184.749 123.685C185.426 124.15 186.325 124.383 187.446 124.383ZM223.406 132.635C220.613 132.635 218.116 132.201 215.916 131.333C213.715 130.445 211.853 129.228 210.33 127.684C208.827 126.139 207.674 124.362 206.87 122.352C206.087 120.341 205.696 118.215 205.696 115.972V114.766C205.696 112.248 206.045 109.921 206.743 107.784C207.441 105.625 208.478 103.742 209.854 102.134C211.229 100.526 212.953 99.2778 215.027 98.3892C217.1 97.4793 219.513 97.0244 222.263 97.0244C224.696 97.0244 226.876 97.4159 228.801 98.1987C230.727 98.9816 232.356 100.103 233.689 101.563C235.043 103.023 236.069 104.79 236.768 106.863C237.487 108.937 237.847 111.264 237.847 113.846V118.194H209.79V111.497H227.405V110.672C227.426 109.529 227.225 108.556 226.802 107.752C226.4 106.948 225.807 106.334 225.024 105.911C224.242 105.488 223.289 105.276 222.168 105.276C221.004 105.276 220.042 105.53 219.28 106.038C218.539 106.546 217.957 107.244 217.534 108.133C217.132 109 216.847 110.005 216.677 111.148C216.508 112.291 216.423 113.497 216.423 114.766V115.972C216.423 117.242 216.593 118.395 216.931 119.432C217.291 120.468 217.799 121.357 218.455 122.098C219.132 122.817 219.936 123.378 220.867 123.78C221.819 124.182 222.898 124.383 224.104 124.383C225.564 124.383 227.003 124.108 228.42 123.558C229.838 123.007 231.055 122.098 232.07 120.828L236.926 126.604C236.228 127.599 235.234 128.562 233.943 129.493C232.673 130.424 231.15 131.185 229.373 131.778C227.595 132.349 225.606 132.635 223.406 132.635ZM268.855 83.25V132H258.159V83.25H268.855ZM267.585 113.655L265.078 113.719C265.078 111.307 265.374 109.085 265.967 107.054C266.559 105.022 267.406 103.256 268.506 101.753C269.606 100.251 270.929 99.0874 272.473 98.2622C274.018 97.437 275.732 97.0244 277.615 97.0244C279.307 97.0244 280.852 97.2677 282.249 97.7544C283.666 98.241 284.883 99.0239 285.898 100.103C286.935 101.182 287.729 102.589 288.279 104.324C288.85 106.059 289.136 108.175 289.136 110.672V132H278.376V110.608C278.376 109.212 278.175 108.133 277.773 107.371C277.393 106.588 276.842 106.049 276.123 105.752C275.404 105.435 274.526 105.276 273.489 105.276C272.24 105.276 271.225 105.488 270.442 105.911C269.659 106.334 269.056 106.927 268.633 107.688C268.231 108.429 267.956 109.307 267.808 110.323C267.66 111.338 267.585 112.449 267.585 113.655ZM311.702 132.635C308.909 132.635 306.412 132.201 304.211 131.333C302.011 130.445 300.149 129.228 298.625 127.684C297.123 126.139 295.97 124.362 295.166 122.352C294.383 120.341 293.992 118.215 293.992 115.972V114.766C293.992 112.248 294.341 109.921 295.039 107.784C295.737 105.625 296.774 103.742 298.149 102.134C299.525 100.526 301.249 99.2778 303.323 98.3892C305.396 97.4793 307.808 97.0244 310.559 97.0244C312.992 97.0244 315.172 97.4159 317.097 98.1987C319.023 98.9816 320.652 100.103 321.985 101.563C323.339 103.023 324.365 104.79 325.063 106.863C325.783 108.937 326.143 111.264 326.143 113.846V118.194H298.086V111.497H315.701V110.672C315.722 109.529 315.521 108.556 315.098 107.752C314.696 106.948 314.103 106.334 313.32 105.911C312.537 105.488 311.585 105.276 310.464 105.276C309.3 105.276 308.337 105.53 307.576 106.038C306.835 106.546 306.253 107.244 305.83 108.133C305.428 109 305.142 110.005 304.973 111.148C304.804 112.291 304.719 113.497 304.719 114.766V115.972C304.719 117.242 304.889 118.395 305.227 119.432C305.587 120.468 306.095 121.357 306.75 122.098C307.428 122.817 308.232 123.378 309.163 123.78C310.115 124.182 311.194 124.383 312.4 124.383C313.86 124.383 315.299 124.108 316.716 123.558C318.134 123.007 319.351 122.098 320.366 120.828L325.222 126.604C324.524 127.599 323.529 128.562 322.239 129.493C320.969 130.424 319.446 131.185 317.668 131.778C315.891 132.349 313.902 132.635 311.702 132.635ZM341.282 106.165V132H330.586V97.6592H340.583L341.282 106.165ZM351.438 97.4053L351.248 107.339C350.824 107.297 350.253 107.244 349.534 107.181C348.814 107.117 348.211 107.085 347.725 107.085C346.476 107.085 345.397 107.234 344.487 107.53C343.599 107.805 342.858 108.228 342.266 108.799C341.694 109.349 341.271 110.048 340.996 110.894C340.742 111.74 340.626 112.724 340.647 113.846L338.711 112.576C338.711 110.27 338.933 108.175 339.377 106.292C339.843 104.388 340.499 102.748 341.345 101.373C342.192 99.9761 343.218 98.9076 344.424 98.167C345.63 97.4053 346.984 97.0244 348.486 97.0244C349.015 97.0244 349.534 97.0562 350.042 97.1196C350.57 97.1831 351.036 97.2783 351.438 97.4053ZM371.116 132.635C368.323 132.635 365.826 132.201 363.625 131.333C361.425 130.445 359.563 129.228 358.04 127.684C356.537 126.139 355.384 124.362 354.58 122.352C353.797 120.341 353.406 118.215 353.406 115.972V114.766C353.406 112.248 353.755 109.921 354.453 107.784C355.151 105.625 356.188 103.742 357.563 102.134C358.939 100.526 360.663 99.2778 362.737 98.3892C364.81 97.4793 367.222 97.0244 369.973 97.0244C372.406 97.0244 374.586 97.4159 376.511 98.1987C378.437 98.9816 380.066 100.103 381.399 101.563C382.753 103.023 383.779 104.79 384.478 106.863C385.197 108.937 385.557 111.264 385.557 113.846V118.194H357.5V111.497H375.115V110.672C375.136 109.529 374.935 108.556 374.512 107.752C374.11 106.948 373.517 106.334 372.734 105.911C371.951 105.488 370.999 105.276 369.878 105.276C368.714 105.276 367.751 105.53 366.99 106.038C366.249 106.546 365.667 107.244 365.244 108.133C364.842 109 364.556 110.005 364.387 111.148C364.218 112.291 364.133 113.497 364.133 114.766V115.972C364.133 117.242 364.303 118.395 364.641 119.432C365.001 120.468 365.509 121.357 366.165 122.098C366.842 122.817 367.646 123.378 368.577 123.78C369.529 124.182 370.608 124.383 371.814 124.383C373.274 124.383 374.713 124.108 376.13 123.558C377.548 123.007 378.765 122.098 379.78 120.828L384.636 126.604C383.938 127.599 382.944 128.562 381.653 129.493C380.383 130.424 378.86 131.185 377.083 131.778C375.305 132.349 373.316 132.635 371.116 132.635Z" fill="#004E93"/>
<path d="M381.361 22.7114C344.212 7.8367 254.64 -12.9878 193.549 22.7114C166.719 44.5585 148.557 87.1373 290.551 82.6749C322.885 82.6748 390.442 70.6821 402 22.7114" stroke="#FFE700" stroke-width="5"/>
</svg>
