<svg width="533" height="189" viewBox="0 0 533 189" fill="none" xmlns="http://www.w3.org/2000/svg">
<path d="M50.8594 43.6094V66.9688C49.8958 68.0365 48.4115 69.1823 46.4062 70.4062C44.4271 71.6042 41.9271 72.6328 38.9062 73.4922C35.8854 74.3516 32.3307 74.7812 28.2422 74.7812C24.4661 74.7812 21.0417 74.1823 17.9688 72.9844C14.8958 71.7604 12.2526 69.9766 10.0391 67.6328C7.85156 65.263 6.15885 62.3724 4.96094 58.9609C3.78906 55.5234 3.20312 51.5911 3.20312 47.1641V44C3.20312 39.5729 3.80208 35.6406 5 32.2031C6.19792 28.7656 7.8776 25.875 10.0391 23.5312C12.2266 21.1615 14.7917 19.3646 17.7344 18.1406C20.7031 16.9167 23.9583 16.3047 27.5 16.3047C32.7344 16.3047 36.9922 17.138 40.2734 18.8047C43.5547 20.4453 46.0417 22.724 47.7344 25.6406C49.4271 28.5312 50.4557 31.8776 50.8203 35.6797H37.6562C37.3958 33.8047 36.901 32.2161 36.1719 30.9141C35.4688 29.5859 34.4531 28.5833 33.125 27.9062C31.7969 27.2031 30.0781 26.8516 27.9688 26.8516C26.3281 26.8516 24.8307 27.2031 23.4766 27.9062C22.1484 28.6094 21.0156 29.6771 20.0781 31.1094C19.1406 32.5156 18.4115 34.2865 17.8906 36.4219C17.3958 38.5573 17.1484 41.0573 17.1484 43.9219V47.1641C17.1484 50.0026 17.3828 52.4896 17.8516 54.625C18.3464 56.7604 19.0755 58.5443 20.0391 59.9766C21.0286 61.3828 22.2786 62.4505 23.7891 63.1797C25.3255 63.8828 27.1354 64.2344 29.2188 64.2344C30.6771 64.2344 31.9271 64.1172 32.9688 63.8828C34.0104 63.6224 34.8698 63.3099 35.5469 62.9453C36.25 62.5547 36.7839 62.1901 37.1484 61.8516V53.0234H27.6172V43.6094H50.8594ZM71.5234 42.2031V74H58.3594V31.7344H70.6641L71.5234 42.2031ZM84.0234 31.4219L83.7891 43.6484C83.2682 43.5964 82.5651 43.5312 81.6797 43.4531C80.7943 43.375 80.0521 43.3359 79.4531 43.3359C77.9167 43.3359 76.5885 43.5182 75.4688 43.8828C74.375 44.2214 73.4635 44.7422 72.7344 45.4453C72.0312 46.1224 71.5104 46.9818 71.1719 48.0234C70.8594 49.0651 70.7161 50.276 70.7422 51.6562L68.3594 50.0938C68.3594 47.2552 68.6328 44.6771 69.1797 42.3594C69.7526 40.0156 70.5599 37.9974 71.6016 36.3047C72.6432 34.5859 73.9062 33.2708 75.3906 32.3594C76.875 31.4219 78.5417 30.9531 80.3906 30.9531C81.0417 30.9531 81.6797 30.9922 82.3047 31.0703C82.9557 31.1484 83.5286 31.2656 84.0234 31.4219ZM108.242 74.7812C104.805 74.7812 101.732 74.2474 99.0234 73.1797C96.3151 72.0859 94.0234 70.5885 92.1484 68.6875C90.2995 66.7865 88.8802 64.599 87.8906 62.125C86.9271 59.651 86.4453 57.0339 86.4453 54.2734V52.7891C86.4453 49.6901 86.875 46.8255 87.7344 44.1953C88.5938 41.5391 89.8698 39.2214 91.5625 37.2422C93.2552 35.263 95.3776 33.7266 97.9297 32.6328C100.482 31.513 103.451 30.9531 106.836 30.9531C109.831 30.9531 112.513 31.4349 114.883 32.3984C117.253 33.362 119.258 34.7422 120.898 36.5391C122.565 38.3359 123.828 40.5104 124.688 43.0625C125.573 45.6146 126.016 48.4792 126.016 51.6562V57.0078H91.4844V48.7656H113.164V47.75C113.19 46.3438 112.943 45.1458 112.422 44.1562C111.927 43.1667 111.198 42.4115 110.234 41.8906C109.271 41.3698 108.099 41.1094 106.719 41.1094C105.286 41.1094 104.102 41.4219 103.164 42.0469C102.253 42.6719 101.536 43.5312 101.016 44.625C100.521 45.6927 100.169 46.9297 99.9609 48.3359C99.7526 49.7422 99.6484 51.2266 99.6484 52.7891V54.2734C99.6484 55.8359 99.8568 57.2552 100.273 58.5312C100.716 59.8073 101.341 60.901 102.148 61.8125C102.982 62.6979 103.971 63.388 105.117 63.8828C106.289 64.3776 107.617 64.625 109.102 64.625C110.898 64.625 112.669 64.2865 114.414 63.6094C116.159 62.9323 117.656 61.8125 118.906 60.25L124.883 67.3594C124.023 68.5833 122.799 69.7682 121.211 70.9141C119.648 72.0599 117.773 72.9974 115.586 73.7266C113.398 74.4297 110.951 74.7812 108.242 74.7812ZM153.32 63.375V45.9531C153.32 44.7552 153.151 43.7266 152.812 42.8672C152.474 42.0078 151.94 41.3438 151.211 40.875C150.482 40.3802 149.505 40.1328 148.281 40.1328C147.292 40.1328 146.445 40.3021 145.742 40.6406C145.039 40.9792 144.505 41.487 144.141 42.1641C143.776 42.8411 143.594 43.7005 143.594 44.7422H130.43C130.43 42.7891 130.859 40.9792 131.719 39.3125C132.604 37.6198 133.854 36.1484 135.469 34.8984C137.109 33.6484 139.062 32.6849 141.328 32.0078C143.62 31.3047 146.172 30.9531 148.984 30.9531C152.344 30.9531 155.339 31.513 157.969 32.6328C160.625 33.7526 162.721 35.4323 164.258 37.6719C165.794 39.8854 166.562 42.6719 166.562 46.0312V63.3359C166.562 66.0964 166.719 68.1927 167.031 69.625C167.344 71.0312 167.786 72.2682 168.359 73.3359V74H155.156C154.531 72.6979 154.062 71.1094 153.75 69.2344C153.464 67.3333 153.32 65.3802 153.32 63.375ZM154.922 48.1797L155 55.2109H149.18C147.956 55.2109 146.914 55.3802 146.055 55.7188C145.221 56.0573 144.544 56.526 144.023 57.125C143.529 57.6979 143.164 58.349 142.93 59.0781C142.721 59.8073 142.617 60.5755 142.617 61.3828C142.617 62.1641 142.799 62.8672 143.164 63.4922C143.555 64.0911 144.076 64.5599 144.727 64.8984C145.378 65.237 146.107 65.4062 146.914 65.4062C148.372 65.4062 149.609 65.1328 150.625 64.5859C151.667 64.013 152.461 63.3229 153.008 62.5156C153.555 61.7083 153.828 60.9531 153.828 60.25L156.719 65.6406C156.198 66.6823 155.599 67.737 154.922 68.8047C154.271 69.8724 153.451 70.862 152.461 71.7734C151.497 72.6589 150.312 73.388 148.906 73.9609C147.5 74.5078 145.794 74.7812 143.789 74.7812C141.185 74.7812 138.789 74.2474 136.602 73.1797C134.44 72.112 132.708 70.6276 131.406 68.7266C130.104 66.7995 129.453 64.5859 129.453 62.0859C129.453 59.8984 129.844 57.9453 130.625 56.2266C131.432 54.5078 132.643 53.0495 134.258 51.8516C135.872 50.6536 137.93 49.7422 140.43 49.1172C142.93 48.4922 145.872 48.1797 149.258 48.1797H154.922ZM196.133 31.7344V40.875H170.664V31.7344H196.133ZM176.016 21.2266H189.18V60.2109C189.18 61.3307 189.31 62.2031 189.57 62.8281C189.831 63.4271 190.273 63.8568 190.898 64.1172C191.549 64.3516 192.409 64.4688 193.477 64.4688C194.232 64.4688 194.857 64.4557 195.352 64.4297C195.846 64.3776 196.315 64.3125 196.758 64.2344V73.6484C195.638 74.013 194.466 74.2865 193.242 74.4688C192.018 74.6771 190.716 74.7812 189.336 74.7812C186.523 74.7812 184.115 74.3385 182.109 73.4531C180.13 72.5677 178.62 71.1745 177.578 69.2734C176.536 67.3724 176.016 64.8984 176.016 61.8516V21.2266ZM221.406 14H234.57V63.6094L233.203 74H221.406V14ZM260.508 52.3984V53.2188C260.508 56.4219 260.182 59.3385 259.531 61.9688C258.88 64.599 257.878 66.8776 256.523 68.8047C255.169 70.7057 253.464 72.1771 251.406 73.2188C249.349 74.2604 246.914 74.7812 244.102 74.7812C241.549 74.7812 239.362 74.2344 237.539 73.1406C235.716 72.0208 234.193 70.4844 232.969 68.5312C231.745 66.5521 230.755 64.2734 230 61.6953C229.245 59.0911 228.646 56.3047 228.203 53.3359V52.3594C228.646 49.4167 229.245 46.6562 230 44.0781C230.755 41.474 231.745 39.1953 232.969 37.2422C234.193 35.263 235.703 33.7266 237.5 32.6328C239.323 31.513 241.497 30.9531 244.023 30.9531C246.862 30.9531 249.31 31.487 251.367 32.5547C253.451 33.6224 255.169 35.1198 256.523 37.0469C257.878 38.974 258.88 41.2396 259.531 43.8438C260.182 46.4479 260.508 49.2995 260.508 52.3984ZM247.344 53.2188V52.3984C247.344 50.862 247.253 49.4167 247.07 48.0625C246.888 46.7083 246.562 45.5104 246.094 44.4688C245.625 43.4271 244.961 42.6068 244.102 42.0078C243.242 41.4089 242.122 41.1094 240.742 41.1094C239.336 41.1094 238.151 41.3438 237.188 41.8125C236.25 42.2812 235.495 42.9583 234.922 43.8438C234.375 44.7031 233.984 45.7708 233.75 47.0469C233.516 48.2969 233.411 49.7161 233.438 51.3047V54.3906C233.385 56.5521 233.581 58.401 234.023 59.9375C234.466 61.474 235.234 62.6458 236.328 63.4531C237.422 64.2604 238.919 64.6641 240.82 64.6641C242.227 64.6641 243.359 64.3906 244.219 63.8438C245.104 63.2969 245.768 62.5156 246.211 61.5C246.654 60.4844 246.953 59.2734 247.109 57.8672C247.266 56.4609 247.344 54.9115 247.344 53.2188ZM279.648 42.2031V74H266.484V31.7344H278.789L279.648 42.2031ZM292.148 31.4219L291.914 43.6484C291.393 43.5964 290.69 43.5312 289.805 43.4531C288.919 43.375 288.177 43.3359 287.578 43.3359C286.042 43.3359 284.714 43.5182 283.594 43.8828C282.5 44.2214 281.589 44.7422 280.859 45.4453C280.156 46.1224 279.635 46.9818 279.297 48.0234C278.984 49.0651 278.841 50.276 278.867 51.6562L276.484 50.0938C276.484 47.2552 276.758 44.6771 277.305 42.3594C277.878 40.0156 278.685 37.9974 279.727 36.3047C280.768 34.5859 282.031 33.2708 283.516 32.3594C285 31.4219 286.667 30.9531 288.516 30.9531C289.167 30.9531 289.805 30.9922 290.43 31.0703C291.081 31.1484 291.654 31.2656 292.148 31.4219ZM317.461 63.375V45.9531C317.461 44.7552 317.292 43.7266 316.953 42.8672C316.615 42.0078 316.081 41.3438 315.352 40.875C314.622 40.3802 313.646 40.1328 312.422 40.1328C311.432 40.1328 310.586 40.3021 309.883 40.6406C309.18 40.9792 308.646 41.487 308.281 42.1641C307.917 42.8411 307.734 43.7005 307.734 44.7422H294.57C294.57 42.7891 295 40.9792 295.859 39.3125C296.745 37.6198 297.995 36.1484 299.609 34.8984C301.25 33.6484 303.203 32.6849 305.469 32.0078C307.76 31.3047 310.312 30.9531 313.125 30.9531C316.484 30.9531 319.479 31.513 322.109 32.6328C324.766 33.7526 326.862 35.4323 328.398 37.6719C329.935 39.8854 330.703 42.6719 330.703 46.0312V63.3359C330.703 66.0964 330.859 68.1927 331.172 69.625C331.484 71.0312 331.927 72.2682 332.5 73.3359V74H319.297C318.672 72.6979 318.203 71.1094 317.891 69.2344C317.604 67.3333 317.461 65.3802 317.461 63.375ZM319.062 48.1797L319.141 55.2109H313.32C312.096 55.2109 311.055 55.3802 310.195 55.7188C309.362 56.0573 308.685 56.526 308.164 57.125C307.669 57.6979 307.305 58.349 307.07 59.0781C306.862 59.8073 306.758 60.5755 306.758 61.3828C306.758 62.1641 306.94 62.8672 307.305 63.4922C307.695 64.0911 308.216 64.5599 308.867 64.8984C309.518 65.237 310.247 65.4062 311.055 65.4062C312.513 65.4062 313.75 65.1328 314.766 64.5859C315.807 64.013 316.602 63.3229 317.148 62.5156C317.695 61.7083 317.969 60.9531 317.969 60.25L320.859 65.6406C320.339 66.6823 319.74 67.737 319.062 68.8047C318.411 69.8724 317.591 70.862 316.602 71.7734C315.638 72.6589 314.453 73.388 313.047 73.9609C311.641 74.5078 309.935 74.7812 307.93 74.7812C305.326 74.7812 302.93 74.2474 300.742 73.1797C298.581 72.112 296.849 70.6276 295.547 68.7266C294.245 66.7995 293.594 64.5859 293.594 62.0859C293.594 59.8984 293.984 57.9453 294.766 56.2266C295.573 54.5078 296.784 53.0495 298.398 51.8516C300.013 50.6536 302.07 49.7422 304.57 49.1172C307.07 48.4922 310.013 48.1797 313.398 48.1797H319.062ZM350.938 40.7578V74H337.773V31.7344H350.117L350.938 40.7578ZM349.375 51.4219L346.289 51.5C346.289 48.2708 346.68 45.3932 347.461 42.8672C348.242 40.3151 349.349 38.1536 350.781 36.3828C352.214 34.612 353.919 33.2708 355.898 32.3594C357.904 31.4219 360.13 30.9531 362.578 30.9531C364.531 30.9531 366.315 31.2396 367.93 31.8125C369.57 32.3854 370.977 33.3099 372.148 34.5859C373.346 35.862 374.258 37.5547 374.883 39.6641C375.534 41.7474 375.859 44.3255 375.859 47.3984V74H362.617V47.3594C362.617 45.6667 362.383 44.3776 361.914 43.4922C361.445 42.5807 360.768 41.9557 359.883 41.6172C358.997 41.2786 357.917 41.1094 356.641 41.1094C355.286 41.1094 354.141 41.3698 353.203 41.8906C352.266 42.4115 351.51 43.1406 350.938 44.0781C350.391 44.9896 349.987 46.0703 349.727 47.3203C349.492 48.5703 349.375 49.9375 349.375 51.4219ZM407.461 64.3125V14H420.703V74H408.828L407.461 64.3125ZM381.523 53.375V52.5547C381.523 49.3516 381.875 46.4349 382.578 43.8047C383.281 41.1484 384.323 38.8698 385.703 36.9688C387.083 35.0417 388.802 33.5573 390.859 32.5156C392.917 31.474 395.286 30.9531 397.969 30.9531C400.365 30.9531 402.461 31.513 404.258 32.6328C406.055 33.7266 407.591 35.263 408.867 37.2422C410.143 39.2214 411.185 41.5391 411.992 44.1953C412.799 46.8255 413.411 49.6641 413.828 52.7109V53.6875C413.411 56.5521 412.799 59.2604 411.992 61.8125C411.185 64.3385 410.143 66.5781 408.867 68.5312C407.591 70.4844 406.042 72.0208 404.219 73.1406C402.422 74.2344 400.312 74.7812 397.891 74.7812C395.208 74.7812 392.839 74.2474 390.781 73.1797C388.75 72.112 387.044 70.6146 385.664 68.6875C384.31 66.7604 383.281 64.4948 382.578 61.8906C381.875 59.2865 381.523 56.4479 381.523 53.375ZM394.688 52.5547V53.375C394.688 54.9635 394.792 56.4349 395 57.7891C395.208 59.1432 395.56 60.3411 396.055 61.3828C396.576 62.3984 397.253 63.1927 398.086 63.7656C398.945 64.3385 400 64.625 401.25 64.625C402.943 64.625 404.336 64.2214 405.43 63.4141C406.549 62.6068 407.37 61.4609 407.891 59.9766C408.438 58.4922 408.672 56.7474 408.594 54.7422V51.6562C408.646 49.9375 408.529 48.4271 408.242 47.125C407.956 45.7969 407.5 44.6901 406.875 43.8047C406.276 42.9193 405.508 42.2552 404.57 41.8125C403.659 41.3438 402.578 41.1094 401.328 41.1094C400.104 41.1094 399.062 41.3958 398.203 41.9688C397.37 42.5417 396.693 43.349 396.172 44.3906C395.651 45.4062 395.273 46.6172 395.039 48.0234C394.805 49.4036 394.688 50.9141 394.688 52.5547ZM461.992 31.7344V74H448.789V31.7344H461.992ZM448.008 20.8359C448.008 18.9609 448.685 17.4245 450.039 16.2266C451.393 15.0286 453.151 14.4297 455.312 14.4297C457.474 14.4297 459.232 15.0286 460.586 16.2266C461.94 17.4245 462.617 18.9609 462.617 20.8359C462.617 22.7109 461.94 24.2474 460.586 25.4453C459.232 26.6432 457.474 27.2422 455.312 27.2422C453.151 27.2422 451.393 26.6432 450.039 25.4453C448.685 24.2474 448.008 22.7109 448.008 20.8359ZM492.266 62.125C492.266 61.3958 492.018 60.7708 491.523 60.25C491.055 59.7031 490.221 59.2083 489.023 58.7656C487.826 58.2969 486.146 57.8281 483.984 57.3594C481.927 56.9167 479.987 56.3307 478.164 55.6016C476.367 54.8724 474.792 53.987 473.438 52.9453C472.083 51.9036 471.016 50.6667 470.234 49.2344C469.479 47.8021 469.102 46.1615 469.102 44.3125C469.102 42.5156 469.479 40.8229 470.234 39.2344C471.016 37.6198 472.148 36.2005 473.633 34.9766C475.143 33.7266 476.979 32.75 479.141 32.0469C481.302 31.3177 483.763 30.9531 486.523 30.9531C490.326 30.9531 493.607 31.5391 496.367 32.7109C499.128 33.8568 501.25 35.4714 502.734 37.5547C504.245 39.612 505 41.9948 505 44.7031H491.836C491.836 43.6354 491.654 42.724 491.289 41.9688C490.951 41.2135 490.391 40.6406 489.609 40.25C488.828 39.8333 487.786 39.625 486.484 39.625C485.573 39.625 484.74 39.7943 483.984 40.1328C483.255 40.4714 482.669 40.9401 482.227 41.5391C481.784 42.138 481.562 42.8411 481.562 43.6484C481.562 44.2214 481.693 44.7422 481.953 45.2109C482.24 45.6536 482.669 46.0703 483.242 46.4609C483.815 46.8255 484.544 47.1641 485.43 47.4766C486.315 47.763 487.383 48.0234 488.633 48.2578C491.471 48.7786 494.128 49.5208 496.602 50.4844C499.076 51.4479 501.081 52.8151 502.617 54.5859C504.18 56.3568 504.961 58.7396 504.961 61.7344C504.961 63.6094 504.531 65.3411 503.672 66.9297C502.812 68.4922 501.576 69.8724 499.961 71.0703C498.346 72.2422 496.406 73.1536 494.141 73.8047C491.875 74.4557 489.323 74.7812 486.484 74.7812C482.448 74.7812 479.036 74.0651 476.25 72.6328C473.464 71.1745 471.354 69.3516 469.922 67.1641C468.516 64.9505 467.812 62.7109 467.812 60.4453H480.078C480.13 61.7474 480.443 62.8151 481.016 63.6484C481.615 64.4818 482.409 65.0938 483.398 65.4844C484.388 65.875 485.534 66.0703 486.836 66.0703C488.034 66.0703 489.023 65.901 489.805 65.5625C490.612 65.224 491.224 64.7682 491.641 64.1953C492.057 63.5964 492.266 62.9062 492.266 62.125ZM16.6406 134.758V168H3.47656V125.734H15.8203L16.6406 134.758ZM15.0781 145.422L11.9922 145.5C11.9922 142.271 12.3828 139.393 13.1641 136.867C13.9453 134.315 15.0521 132.154 16.4844 130.383C17.9167 128.612 19.6224 127.271 21.6016 126.359C23.6068 125.422 25.8333 124.953 28.2812 124.953C30.2344 124.953 32.0182 125.24 33.6328 125.812C35.2734 126.385 36.6797 127.31 37.8516 128.586C39.0495 129.862 39.9609 131.555 40.5859 133.664C41.237 135.747 41.5625 138.326 41.5625 141.398V168H28.3203V141.359C28.3203 139.667 28.0859 138.378 27.6172 137.492C27.1484 136.581 26.4714 135.956 25.5859 135.617C24.7005 135.279 23.6198 135.109 22.3438 135.109C20.9896 135.109 19.8438 135.37 18.9062 135.891C17.9688 136.411 17.2135 137.141 16.6406 138.078C16.0938 138.99 15.6901 140.07 15.4297 141.32C15.1953 142.57 15.0781 143.938 15.0781 145.422ZM47.2266 147.297V146.477C47.2266 143.378 47.6693 140.526 48.5547 137.922C49.4401 135.292 50.7422 133.013 52.4609 131.086C54.1797 129.159 56.3021 127.661 58.8281 126.594C61.3542 125.5 64.2708 124.953 67.5781 124.953C70.9115 124.953 73.8411 125.5 76.3672 126.594C78.9193 127.661 81.0547 129.159 82.7734 131.086C84.4922 133.013 85.7943 135.292 86.6797 137.922C87.5651 140.526 88.0078 143.378 88.0078 146.477V147.297C88.0078 150.37 87.5651 153.221 86.6797 155.852C85.7943 158.456 84.4922 160.734 82.7734 162.688C81.0547 164.615 78.9323 166.112 76.4062 167.18C73.8802 168.247 70.9635 168.781 67.6562 168.781C64.349 168.781 61.4193 168.247 58.8672 167.18C56.3151 166.112 54.1797 164.615 52.4609 162.688C50.7422 160.734 49.4401 158.456 48.5547 155.852C47.6693 153.221 47.2266 150.37 47.2266 147.297ZM60.3906 146.477V147.297C60.3906 148.885 60.5078 150.37 60.7422 151.75C60.9766 153.13 61.3672 154.341 61.9141 155.383C62.4609 156.398 63.2031 157.193 64.1406 157.766C65.0781 158.339 66.25 158.625 67.6562 158.625C69.0365 158.625 70.1823 158.339 71.0938 157.766C72.0312 157.193 72.7734 156.398 73.3203 155.383C73.8672 154.341 74.2578 153.13 74.4922 151.75C74.7266 150.37 74.8438 148.885 74.8438 147.297V146.477C74.8438 144.94 74.7266 143.495 74.4922 142.141C74.2578 140.76 73.8672 139.549 73.3203 138.508C72.7734 137.44 72.0312 136.607 71.0938 136.008C70.1562 135.409 68.9844 135.109 67.5781 135.109C66.1979 135.109 65.0391 135.409 64.1016 136.008C63.1901 136.607 62.4609 137.44 61.9141 138.508C61.3672 139.549 60.9766 140.76 60.7422 142.141C60.5078 143.495 60.3906 144.94 60.3906 146.477ZM116.133 125.734V134.875H90.6641V125.734H116.133ZM96.0156 115.227H109.18V154.211C109.18 155.331 109.31 156.203 109.57 156.828C109.831 157.427 110.273 157.857 110.898 158.117C111.549 158.352 112.409 158.469 113.477 158.469C114.232 158.469 114.857 158.456 115.352 158.43C115.846 158.378 116.315 158.312 116.758 158.234V167.648C115.638 168.013 114.466 168.286 113.242 168.469C112.018 168.677 110.716 168.781 109.336 168.781C106.523 168.781 104.115 168.339 102.109 167.453C100.13 166.568 98.6198 165.174 97.5781 163.273C96.5365 161.372 96.0156 158.898 96.0156 155.852V115.227ZM141.406 108H154.57V157.609L153.203 168H141.406V108ZM180.508 146.398V147.219C180.508 150.422 180.182 153.339 179.531 155.969C178.88 158.599 177.878 160.878 176.523 162.805C175.169 164.706 173.464 166.177 171.406 167.219C169.349 168.26 166.914 168.781 164.102 168.781C161.549 168.781 159.362 168.234 157.539 167.141C155.716 166.021 154.193 164.484 152.969 162.531C151.745 160.552 150.755 158.273 150 155.695C149.245 153.091 148.646 150.305 148.203 147.336V146.359C148.646 143.417 149.245 140.656 150 138.078C150.755 135.474 151.745 133.195 152.969 131.242C154.193 129.263 155.703 127.727 157.5 126.633C159.323 125.513 161.497 124.953 164.023 124.953C166.862 124.953 169.31 125.487 171.367 126.555C173.451 127.622 175.169 129.12 176.523 131.047C177.878 132.974 178.88 135.24 179.531 137.844C180.182 140.448 180.508 143.299 180.508 146.398ZM167.344 147.219V146.398C167.344 144.862 167.253 143.417 167.07 142.062C166.888 140.708 166.562 139.51 166.094 138.469C165.625 137.427 164.961 136.607 164.102 136.008C163.242 135.409 162.122 135.109 160.742 135.109C159.336 135.109 158.151 135.344 157.188 135.812C156.25 136.281 155.495 136.958 154.922 137.844C154.375 138.703 153.984 139.771 153.75 141.047C153.516 142.297 153.411 143.716 153.438 145.305V148.391C153.385 150.552 153.581 152.401 154.023 153.938C154.466 155.474 155.234 156.646 156.328 157.453C157.422 158.26 158.919 158.664 160.82 158.664C162.227 158.664 163.359 158.391 164.219 157.844C165.104 157.297 165.768 156.516 166.211 155.5C166.654 154.484 166.953 153.273 167.109 151.867C167.266 150.461 167.344 148.911 167.344 147.219ZM211.055 157.727V125.734H224.258V168H211.914L211.055 157.727ZM212.305 149.133L215.742 149.055C215.742 151.893 215.404 154.523 214.727 156.945C214.049 159.341 213.047 161.424 211.719 163.195C210.417 164.966 208.802 166.346 206.875 167.336C204.974 168.299 202.773 168.781 200.273 168.781C198.19 168.781 196.276 168.495 194.531 167.922C192.812 167.323 191.328 166.398 190.078 165.148C188.828 163.872 187.852 162.245 187.148 160.266C186.471 158.26 186.133 155.865 186.133 153.078V125.734H199.297V153.156C199.297 154.094 199.414 154.901 199.648 155.578C199.883 156.255 200.221 156.828 200.664 157.297C201.107 157.74 201.654 158.078 202.305 158.312C202.982 158.521 203.75 158.625 204.609 158.625C206.589 158.625 208.138 158.208 209.258 157.375C210.378 156.542 211.159 155.409 211.602 153.977C212.07 152.544 212.305 150.93 212.305 149.133ZM245.43 125.734V168H232.227V125.734H245.43ZM231.445 114.836C231.445 112.961 232.122 111.424 233.477 110.227C234.831 109.029 236.589 108.43 238.75 108.43C240.911 108.43 242.669 109.029 244.023 110.227C245.378 111.424 246.055 112.961 246.055 114.836C246.055 116.711 245.378 118.247 244.023 119.445C242.669 120.643 240.911 121.242 238.75 121.242C236.589 121.242 234.831 120.643 233.477 119.445C232.122 118.247 231.445 116.711 231.445 114.836ZM267.461 108V168H254.258V108H267.461ZM297.852 125.734V134.875H272.383V125.734H297.852ZM277.734 115.227H290.898V154.211C290.898 155.331 291.029 156.203 291.289 156.828C291.549 157.427 291.992 157.857 292.617 158.117C293.268 158.352 294.128 158.469 295.195 158.469C295.951 158.469 296.576 158.456 297.07 158.43C297.565 158.378 298.034 158.312 298.477 158.234V167.648C297.357 168.013 296.185 168.286 294.961 168.469C293.737 168.677 292.435 168.781 291.055 168.781C288.242 168.781 285.833 168.339 283.828 167.453C281.849 166.568 280.339 165.174 279.297 163.273C278.255 161.372 277.734 158.898 277.734 155.852V115.227ZM344.961 157.375V139.953C344.961 138.755 344.792 137.727 344.453 136.867C344.115 136.008 343.581 135.344 342.852 134.875C342.122 134.38 341.146 134.133 339.922 134.133C338.932 134.133 338.086 134.302 337.383 134.641C336.68 134.979 336.146 135.487 335.781 136.164C335.417 136.841 335.234 137.701 335.234 138.742H322.07C322.07 136.789 322.5 134.979 323.359 133.312C324.245 131.62 325.495 130.148 327.109 128.898C328.75 127.648 330.703 126.685 332.969 126.008C335.26 125.305 337.812 124.953 340.625 124.953C343.984 124.953 346.979 125.513 349.609 126.633C352.266 127.753 354.362 129.432 355.898 131.672C357.435 133.885 358.203 136.672 358.203 140.031V157.336C358.203 160.096 358.359 162.193 358.672 163.625C358.984 165.031 359.427 166.268 360 167.336V168H346.797C346.172 166.698 345.703 165.109 345.391 163.234C345.104 161.333 344.961 159.38 344.961 157.375ZM346.562 142.18L346.641 149.211H340.82C339.596 149.211 338.555 149.38 337.695 149.719C336.862 150.057 336.185 150.526 335.664 151.125C335.169 151.698 334.805 152.349 334.57 153.078C334.362 153.807 334.258 154.576 334.258 155.383C334.258 156.164 334.44 156.867 334.805 157.492C335.195 158.091 335.716 158.56 336.367 158.898C337.018 159.237 337.747 159.406 338.555 159.406C340.013 159.406 341.25 159.133 342.266 158.586C343.307 158.013 344.102 157.323 344.648 156.516C345.195 155.708 345.469 154.953 345.469 154.25L348.359 159.641C347.839 160.682 347.24 161.737 346.562 162.805C345.911 163.872 345.091 164.862 344.102 165.773C343.138 166.659 341.953 167.388 340.547 167.961C339.141 168.508 337.435 168.781 335.43 168.781C332.826 168.781 330.43 168.247 328.242 167.18C326.081 166.112 324.349 164.628 323.047 162.727C321.745 160.799 321.094 158.586 321.094 156.086C321.094 153.898 321.484 151.945 322.266 150.227C323.073 148.508 324.284 147.049 325.898 145.852C327.513 144.654 329.57 143.742 332.07 143.117C334.57 142.492 337.513 142.18 340.898 142.18H346.562ZM379.414 108V168H366.211V108H379.414ZM385.898 147.297V146.477C385.898 143.378 386.341 140.526 387.227 137.922C388.112 135.292 389.414 133.013 391.133 131.086C392.852 129.159 394.974 127.661 397.5 126.594C400.026 125.5 402.943 124.953 406.25 124.953C409.583 124.953 412.513 125.5 415.039 126.594C417.591 127.661 419.727 129.159 421.445 131.086C423.164 133.013 424.466 135.292 425.352 137.922C426.237 140.526 426.68 143.378 426.68 146.477V147.297C426.68 150.37 426.237 153.221 425.352 155.852C424.466 158.456 423.164 160.734 421.445 162.688C419.727 164.615 417.604 166.112 415.078 167.18C412.552 168.247 409.635 168.781 406.328 168.781C403.021 168.781 400.091 168.247 397.539 167.18C394.987 166.112 392.852 164.615 391.133 162.688C389.414 160.734 388.112 158.456 387.227 155.852C386.341 153.221 385.898 150.37 385.898 147.297ZM399.062 146.477V147.297C399.062 148.885 399.18 150.37 399.414 151.75C399.648 153.13 400.039 154.341 400.586 155.383C401.133 156.398 401.875 157.193 402.812 157.766C403.75 158.339 404.922 158.625 406.328 158.625C407.708 158.625 408.854 158.339 409.766 157.766C410.703 157.193 411.445 156.398 411.992 155.383C412.539 154.341 412.93 153.13 413.164 151.75C413.398 150.37 413.516 148.885 413.516 147.297V146.477C413.516 144.94 413.398 143.495 413.164 142.141C412.93 140.76 412.539 139.549 411.992 138.508C411.445 137.44 410.703 136.607 409.766 136.008C408.828 135.409 407.656 135.109 406.25 135.109C404.87 135.109 403.711 135.409 402.773 136.008C401.862 136.607 401.133 137.44 400.586 138.508C400.039 139.549 399.648 140.76 399.414 142.141C399.18 143.495 399.062 144.94 399.062 146.477ZM445.469 134.758V168H432.305V125.734H444.648L445.469 134.758ZM443.906 145.422L440.82 145.5C440.82 142.271 441.211 139.393 441.992 136.867C442.773 134.315 443.88 132.154 445.312 130.383C446.745 128.612 448.451 127.271 450.43 126.359C452.435 125.422 454.661 124.953 457.109 124.953C459.062 124.953 460.846 125.24 462.461 125.812C464.102 126.385 465.508 127.31 466.68 128.586C467.878 129.862 468.789 131.555 469.414 133.664C470.065 135.747 470.391 138.326 470.391 141.398V168H457.148V141.359C457.148 139.667 456.914 138.378 456.445 137.492C455.977 136.581 455.299 135.956 454.414 135.617C453.529 135.279 452.448 135.109 451.172 135.109C449.818 135.109 448.672 135.37 447.734 135.891C446.797 136.411 446.042 137.141 445.469 138.078C444.922 138.99 444.518 140.07 444.258 141.32C444.023 142.57 443.906 143.938 443.906 145.422ZM498.164 168.781C494.727 168.781 491.654 168.247 488.945 167.18C486.237 166.086 483.945 164.589 482.07 162.688C480.221 160.786 478.802 158.599 477.812 156.125C476.849 153.651 476.367 151.034 476.367 148.273V146.789C476.367 143.69 476.797 140.826 477.656 138.195C478.516 135.539 479.792 133.221 481.484 131.242C483.177 129.263 485.299 127.727 487.852 126.633C490.404 125.513 493.372 124.953 496.758 124.953C499.753 124.953 502.435 125.435 504.805 126.398C507.174 127.362 509.18 128.742 510.82 130.539C512.487 132.336 513.75 134.51 514.609 137.062C515.495 139.615 515.938 142.479 515.938 145.656V151.008H481.406V142.766H503.086V141.75C503.112 140.344 502.865 139.146 502.344 138.156C501.849 137.167 501.12 136.411 500.156 135.891C499.193 135.37 498.021 135.109 496.641 135.109C495.208 135.109 494.023 135.422 493.086 136.047C492.174 136.672 491.458 137.531 490.938 138.625C490.443 139.693 490.091 140.93 489.883 142.336C489.674 143.742 489.57 145.227 489.57 146.789V148.273C489.57 149.836 489.779 151.255 490.195 152.531C490.638 153.807 491.263 154.901 492.07 155.812C492.904 156.698 493.893 157.388 495.039 157.883C496.211 158.378 497.539 158.625 499.023 158.625C500.82 158.625 502.591 158.286 504.336 157.609C506.081 156.932 507.578 155.812 508.828 154.25L514.805 161.359C513.945 162.583 512.721 163.768 511.133 164.914C509.57 166.06 507.695 166.997 505.508 167.727C503.32 168.43 500.872 168.781 498.164 168.781Z" fill="#004E93"/>
<path d="M303.907 117.422C271.34 100.502 192.816 76.8139 139.261 117.422C115.741 142.273 99.8188 190.706 224.298 185.63C252.644 185.63 311.868 171.988 322 117.422" stroke="#FFE700" stroke-width="5"/>
</svg>
