<svg width="93" height="61" viewBox="0 0 93 61" fill="none" xmlns="http://www.w3.org/2000/svg">
<path d="M92.6043 0.0889486C92.9648 0.28187 93.1045 0.734002 92.9163 1.10115L63.1368 59.2647L63.1 59.3174C62.5012 60.1366 61.8572 60.5497 61.1839 60.5497C61.0726 60.5497 60.9622 60.542 60.8435 60.5199C59.1774 60.1783 58.3778 57.2913 58.2231 56.6564C58.2189 56.6386 58.2147 56.6258 58.2088 56.608L49.1918 29.0577C49.063 28.6633 49.2729 28.2375 49.661 28.1067L49.6735 28.1024C50.0566 27.9732 50.4706 28.1798 50.6044 28.5664L60.5792 57.4145C60.7933 58.0332 61.6297 58.0961 61.9308 57.5165L91.6023 0.400853C91.793 0.034558 92.2396 -0.106522 92.6001 0.0863991L92.6043 0.0889486Z" fill="#EE2C43"/>
<path d="M56.9873 59.7194L56.8164 59.1849L38.9914 3.87854C38.8229 3.35492 38.3319 3 37.7777 3H18.5975C18.0382 3 17.5446 3.3616 17.3804 3.89107L5.02934 43.6209L2.47894 51.9027L0.845778 57.1356L0.00434939 59.8447C-0.031026 60.0443 0.161012 59.99 0.161012 59.99L15.2284 60C15.6167 60 15.5813 59.8004 15.5813 59.8004L17.6078 52.7779L18.7322 48.9589C18.7777 48.7493 18.9689 48.8086 18.9689 48.8086H36.7332C36.9649 48.7735 37.0002 48.9289 37.0002 48.9289L37.1114 49.2988L40.3171 59.7854C40.3828 60.0601 40.7408 59.99 40.7408 59.99H56.8214C57.0682 59.99 56.9873 59.7194 56.9873 59.7194ZM33.9748 36.803H21.7105C21.3121 36.803 21.4789 36.4531 21.4789 36.4531L27.3116 13.641H27.9517L34.0515 36.4531C34.1567 36.8481 33.9748 36.803 33.9748 36.803Z" fill="#0B4E90"/>
</svg>
