<svg width="450" height="159" viewBox="0 0 450 159" fill="none" xmlns="http://www.w3.org/2000/svg">
<path d="M41.3232 44.3076V63.2871C40.5404 64.1546 39.3343 65.0856 37.7051 66.0801C36.097 67.0534 34.0658 67.8892 31.6113 68.5874C29.1569 69.2856 26.2687 69.6348 22.9468 69.6348C19.8787 69.6348 17.0964 69.1481 14.5996 68.1748C12.1029 67.1803 9.95524 65.731 8.15674 63.8267C6.37939 61.9012 5.00407 59.5526 4.03076 56.7808C3.07861 53.9878 2.60254 50.7928 2.60254 47.1958V44.625C2.60254 41.028 3.08919 37.833 4.0625 35.04C5.03581 32.2471 6.40055 29.8984 8.15674 27.9941C9.93408 26.0687 12.0182 24.6087 14.4092 23.6143C16.8213 22.6198 19.4661 22.1226 22.3438 22.1226C26.5967 22.1226 30.0562 22.7996 32.7222 24.1538C35.3882 25.4868 37.4089 27.3382 38.7842 29.708C40.1595 32.0566 40.9953 34.7756 41.2915 37.8647H30.5957C30.3841 36.3413 29.9821 35.0506 29.3896 33.9927C28.8184 32.9136 27.9932 32.099 26.9141 31.5488C25.835 30.9775 24.4385 30.6919 22.7246 30.6919C21.3916 30.6919 20.175 30.9775 19.0747 31.5488C17.9956 32.1201 17.0752 32.9876 16.3135 34.1514C15.5518 35.2939 14.9593 36.7327 14.5361 38.4678C14.1341 40.2028 13.9331 42.234 13.9331 44.5615V47.1958C13.9331 49.5021 14.1235 51.5228 14.5044 53.2578C14.9064 54.9928 15.4989 56.4422 16.2817 57.606C17.0858 58.7485 18.1014 59.616 19.3286 60.2085C20.577 60.7798 22.0475 61.0654 23.7402 61.0654C24.9251 61.0654 25.9408 60.9702 26.7871 60.7798C27.6335 60.5682 28.3317 60.3143 28.8818 60.0181C29.4531 59.7007 29.8869 59.4045 30.1831 59.1294V51.9565H22.439V44.3076H41.3232ZM58.1128 43.165V69H47.417V34.6592H57.4146L58.1128 43.165ZM68.269 34.4053L68.0786 44.3394C67.6554 44.297 67.0841 44.2441 66.3647 44.1807C65.6453 44.1172 65.0423 44.0854 64.5557 44.0854C63.3073 44.0854 62.2282 44.2336 61.3184 44.5298C60.4297 44.8049 59.6891 45.228 59.0967 45.7993C58.5254 46.3494 58.1022 47.0477 57.8271 47.894C57.5732 48.7404 57.4569 49.7243 57.478 50.8457L55.542 49.5762C55.542 47.2699 55.7642 45.1751 56.2085 43.292C56.674 41.3877 57.3299 39.7479 58.1763 38.3726C59.0226 36.9761 60.0488 35.9076 61.2549 35.167C62.4609 34.4053 63.8151 34.0244 65.3174 34.0244C65.8464 34.0244 66.3647 34.0562 66.8726 34.1196C67.4015 34.1831 67.867 34.2783 68.269 34.4053ZM87.9468 69.6348C85.1538 69.6348 82.6571 69.201 80.4565 68.3335C78.256 67.4448 76.394 66.2282 74.8706 64.6836C73.3683 63.139 72.2152 61.3617 71.4111 59.3516C70.6283 57.3415 70.2368 55.215 70.2368 52.9722V51.7661C70.2368 49.2482 70.5859 46.9207 71.2842 44.7837C71.9824 42.6255 73.0192 40.7424 74.3945 39.1343C75.7699 37.5262 77.4943 36.2778 79.5679 35.3892C81.6414 34.4793 84.0535 34.0244 86.8042 34.0244C89.2375 34.0244 91.4168 34.4159 93.3423 35.1987C95.2677 35.9816 96.897 37.103 98.23 38.563C99.5841 40.0229 100.61 41.7897 101.309 43.8633C102.028 45.9368 102.388 48.2643 102.388 50.8457V55.1938H74.3311V48.4971H91.9458V47.6719C91.967 46.5293 91.766 45.556 91.3428 44.752C90.9408 43.9479 90.3483 43.3343 89.5654 42.9111C88.7826 42.488 87.8304 42.2764 86.709 42.2764C85.5452 42.2764 84.5825 42.5303 83.8208 43.0381C83.0802 43.5459 82.4984 44.2441 82.0752 45.1328C81.6732 46.0003 81.3875 47.0054 81.2183 48.1479C81.049 49.2905 80.9644 50.4966 80.9644 51.7661V52.9722C80.9644 54.2417 81.1336 55.3949 81.4722 56.4316C81.8319 57.4684 82.3397 58.3571 82.9956 59.0977C83.6727 59.8171 84.4767 60.3778 85.4077 60.7798C86.3599 61.1818 87.439 61.3828 88.645 61.3828C90.105 61.3828 91.5438 61.1077 92.9614 60.5576C94.3791 60.0075 95.5957 59.0977 96.6113 57.8281L101.467 63.6045C100.769 64.599 99.7746 65.5617 98.4839 66.4927C97.2144 67.4237 95.6909 68.1854 93.9136 68.7778C92.1362 69.3491 90.1473 69.6348 87.9468 69.6348ZM124.573 60.3672V46.2119C124.573 45.2386 124.435 44.4028 124.16 43.7046C123.885 43.0063 123.451 42.4668 122.859 42.0859C122.266 41.6839 121.473 41.4829 120.479 41.4829C119.674 41.4829 118.987 41.6204 118.416 41.8955C117.844 42.1706 117.41 42.5832 117.114 43.1333C116.818 43.6834 116.67 44.3817 116.67 45.228H105.974C105.974 43.6411 106.323 42.1706 107.021 40.8164C107.741 39.4411 108.757 38.2456 110.068 37.23C111.401 36.2144 112.988 35.4315 114.829 34.8813C116.691 34.3101 118.765 34.0244 121.05 34.0244C123.779 34.0244 126.213 34.4793 128.35 35.3892C130.508 36.299 132.211 37.6637 133.459 39.4834C134.708 41.2819 135.332 43.5459 135.332 46.2754V60.3354C135.332 62.5783 135.459 64.2816 135.713 65.4453C135.967 66.5879 136.326 67.5929 136.792 68.4604V69H126.064C125.557 67.9421 125.176 66.6514 124.922 65.1279C124.689 63.5833 124.573 61.9964 124.573 60.3672ZM125.874 48.021L125.938 53.7339H121.208C120.214 53.7339 119.368 53.8714 118.669 54.1465C117.992 54.4215 117.442 54.8024 117.019 55.2891C116.617 55.7546 116.321 56.2835 116.13 56.876C115.961 57.4684 115.876 58.0926 115.876 58.7485C115.876 59.3833 116.025 59.9546 116.321 60.4624C116.638 60.9491 117.061 61.3299 117.59 61.605C118.119 61.88 118.712 62.0176 119.368 62.0176C120.553 62.0176 121.558 61.7954 122.383 61.3511C123.229 60.8856 123.875 60.3249 124.319 59.6689C124.763 59.013 124.985 58.3994 124.985 57.8281L127.334 62.208C126.911 63.0544 126.424 63.9113 125.874 64.7788C125.345 65.6463 124.679 66.4504 123.875 67.1909C123.092 67.9103 122.129 68.5028 120.986 68.9683C119.844 69.4126 118.458 69.6348 116.829 69.6348C114.713 69.6348 112.766 69.201 110.989 68.3335C109.233 67.466 107.826 66.2599 106.768 64.7153C105.71 63.1496 105.181 61.3511 105.181 59.3198C105.181 57.5425 105.498 55.9556 106.133 54.5591C106.789 53.1626 107.773 51.9777 109.084 51.0044C110.396 50.0311 112.068 49.2905 114.099 48.7827C116.13 48.2749 118.521 48.021 121.272 48.021H125.874ZM159.358 34.6592V42.0859H138.665V34.6592H159.358ZM143.013 26.1216H153.708V57.7964C153.708 58.7062 153.814 59.415 154.026 59.9229C154.237 60.4095 154.597 60.7586 155.105 60.9702C155.634 61.1606 156.332 61.2559 157.2 61.2559C157.813 61.2559 158.321 61.2453 158.723 61.2241C159.125 61.1818 159.506 61.1289 159.866 61.0654V68.7144C158.956 69.0106 158.004 69.2327 157.009 69.3809C156.015 69.5501 154.957 69.6348 153.835 69.6348C151.55 69.6348 149.593 69.2751 147.964 68.5557C146.356 67.8363 145.129 66.7043 144.282 65.1597C143.436 63.6151 143.013 61.605 143.013 59.1294V26.1216ZM179.893 20.25H190.588V60.5576L189.478 69H179.893V20.25ZM211.663 51.4487V52.1152C211.663 54.7178 211.398 57.0876 210.869 59.2246C210.34 61.3617 209.526 63.2131 208.425 64.7788C207.325 66.3234 205.939 67.5189 204.268 68.3652C202.596 69.2116 200.618 69.6348 198.333 69.6348C196.259 69.6348 194.482 69.1904 193 68.3018C191.519 67.3919 190.282 66.1436 189.287 64.5566C188.293 62.9486 187.489 61.0972 186.875 59.0024C186.261 56.8866 185.775 54.6226 185.415 52.2104V51.417C185.775 49.026 186.261 46.7832 186.875 44.6885C187.489 42.5726 188.293 40.7212 189.287 39.1343C190.282 37.5262 191.509 36.2778 192.969 35.3892C194.45 34.4793 196.217 34.0244 198.269 34.0244C200.575 34.0244 202.564 34.4582 204.236 35.3257C205.929 36.1932 207.325 37.4098 208.425 38.9756C209.526 40.5413 210.34 42.3822 210.869 44.498C211.398 46.6139 211.663 48.9308 211.663 51.4487ZM200.967 52.1152V51.4487C200.967 50.2004 200.893 49.026 200.745 47.9258C200.597 46.8255 200.332 45.8522 199.951 45.0059C199.57 44.1595 199.031 43.493 198.333 43.0063C197.634 42.5197 196.724 42.2764 195.603 42.2764C194.46 42.2764 193.498 42.4668 192.715 42.8477C191.953 43.2285 191.34 43.7786 190.874 44.498C190.43 45.1963 190.112 46.0638 189.922 47.1006C189.731 48.1162 189.647 49.2694 189.668 50.5601V53.0674C189.626 54.8236 189.784 56.3258 190.144 57.5742C190.504 58.8226 191.128 59.7747 192.017 60.4307C192.905 61.0866 194.122 61.4146 195.667 61.4146C196.809 61.4146 197.729 61.1924 198.428 60.748C199.147 60.3037 199.687 59.6689 200.046 58.8438C200.406 58.0186 200.649 57.0347 200.776 55.8921C200.903 54.7495 200.967 53.4906 200.967 52.1152ZM227.214 43.165V69H216.519V34.6592H226.516L227.214 43.165ZM237.371 34.4053L237.18 44.3394C236.757 44.297 236.186 44.2441 235.466 44.1807C234.747 44.1172 234.144 44.0854 233.657 44.0854C232.409 44.0854 231.33 44.2336 230.42 44.5298C229.531 44.8049 228.791 45.228 228.198 45.7993C227.627 46.3494 227.204 47.0477 226.929 47.894C226.675 48.7404 226.558 49.7243 226.58 50.8457L224.644 49.5762C224.644 47.2699 224.866 45.1751 225.31 43.292C225.776 41.3877 226.431 39.7479 227.278 38.3726C228.124 36.9761 229.15 35.9076 230.356 35.167C231.562 34.4053 232.917 34.0244 234.419 34.0244C234.948 34.0244 235.466 34.0562 235.974 34.1196C236.503 34.1831 236.969 34.2783 237.371 34.4053ZM257.937 60.3672V46.2119C257.937 45.2386 257.799 44.4028 257.524 43.7046C257.249 43.0063 256.816 42.4668 256.223 42.0859C255.631 41.6839 254.837 41.4829 253.843 41.4829C253.039 41.4829 252.351 41.6204 251.78 41.8955C251.208 42.1706 250.775 42.5832 250.479 43.1333C250.182 43.6834 250.034 44.3817 250.034 45.228H239.338C239.338 43.6411 239.688 42.1706 240.386 40.8164C241.105 39.4411 242.121 38.2456 243.433 37.23C244.766 36.2144 246.353 35.4315 248.193 34.8813C250.055 34.3101 252.129 34.0244 254.414 34.0244C257.144 34.0244 259.577 34.4793 261.714 35.3892C263.872 36.299 265.575 37.6637 266.824 39.4834C268.072 41.2819 268.696 43.5459 268.696 46.2754V60.3354C268.696 62.5783 268.823 64.2816 269.077 65.4453C269.331 66.5879 269.691 67.5929 270.156 68.4604V69H259.429C258.921 67.9421 258.54 66.6514 258.286 65.1279C258.053 63.5833 257.937 61.9964 257.937 60.3672ZM259.238 48.021L259.302 53.7339H254.573C253.578 53.7339 252.732 53.8714 252.034 54.1465C251.357 54.4215 250.806 54.8024 250.383 55.2891C249.981 55.7546 249.685 56.2835 249.495 56.876C249.325 57.4684 249.241 58.0926 249.241 58.7485C249.241 59.3833 249.389 59.9546 249.685 60.4624C250.002 60.9491 250.426 61.3299 250.955 61.605C251.484 61.88 252.076 62.0176 252.732 62.0176C253.917 62.0176 254.922 61.7954 255.747 61.3511C256.593 60.8856 257.239 60.3249 257.683 59.6689C258.127 59.013 258.35 58.3994 258.35 57.8281L260.698 62.208C260.275 63.0544 259.788 63.9113 259.238 64.7788C258.709 65.6463 258.043 66.4504 257.239 67.1909C256.456 67.9103 255.493 68.5028 254.351 68.9683C253.208 69.4126 251.822 69.6348 250.193 69.6348C248.077 69.6348 246.13 69.201 244.353 68.3335C242.597 67.466 241.19 66.2599 240.132 64.7153C239.074 63.1496 238.545 61.3511 238.545 59.3198C238.545 57.5425 238.862 55.9556 239.497 54.5591C240.153 53.1626 241.137 51.9777 242.449 51.0044C243.761 50.0311 245.432 49.2905 247.463 48.7827C249.495 48.2749 251.886 48.021 254.636 48.021H259.238ZM285.137 41.9907V69H274.441V34.6592H284.47L285.137 41.9907ZM283.867 50.6553L281.36 50.7188C281.36 48.0951 281.677 45.757 282.312 43.7046C282.947 41.631 283.846 39.8748 285.01 38.436C286.174 36.9972 287.559 35.9076 289.167 35.167C290.797 34.4053 292.606 34.0244 294.595 34.0244C296.182 34.0244 297.631 34.2572 298.943 34.7227C300.276 35.1882 301.418 35.9393 302.371 36.9761C303.344 38.0129 304.084 39.3882 304.592 41.1021C305.121 42.7948 305.386 44.8895 305.386 47.3862V69H294.626V47.3545C294.626 45.9792 294.436 44.9318 294.055 44.2124C293.674 43.4718 293.124 42.964 292.405 42.689C291.685 42.4139 290.807 42.2764 289.771 42.2764C288.67 42.2764 287.739 42.488 286.978 42.9111C286.216 43.3343 285.602 43.9268 285.137 44.6885C284.692 45.429 284.364 46.3071 284.153 47.3228C283.962 48.3384 283.867 49.4492 283.867 50.6553ZM331.062 61.1289V20.25H341.821V69H332.173L331.062 61.1289ZM309.988 52.2422V51.5757C309.988 48.9731 310.273 46.6034 310.845 44.4663C311.416 42.3081 312.262 40.4567 313.384 38.9121C314.505 37.3464 315.902 36.1403 317.573 35.2939C319.245 34.4476 321.17 34.0244 323.35 34.0244C325.296 34.0244 327 34.4793 328.459 35.3892C329.919 36.2778 331.168 37.5262 332.205 39.1343C333.241 40.7424 334.088 42.6255 334.744 44.7837C335.4 46.9207 335.897 49.2271 336.235 51.7026V52.4961C335.897 54.8236 335.4 57.0241 334.744 59.0977C334.088 61.1501 333.241 62.9697 332.205 64.5566C331.168 66.1436 329.909 67.3919 328.428 68.3018C326.968 69.1904 325.254 69.6348 323.286 69.6348C321.107 69.6348 319.181 69.201 317.51 68.3335C315.859 67.466 314.473 66.2493 313.352 64.6836C312.252 63.1178 311.416 61.277 310.845 59.1611C310.273 57.0452 309.988 54.7389 309.988 52.2422ZM320.684 51.5757V52.2422C320.684 53.5329 320.768 54.7284 320.938 55.8286C321.107 56.9289 321.392 57.9022 321.794 58.7485C322.218 59.5737 322.768 60.2191 323.445 60.6846C324.143 61.1501 325 61.3828 326.016 61.3828C327.391 61.3828 328.523 61.0549 329.412 60.3989C330.321 59.743 330.988 58.812 331.411 57.606C331.855 56.3999 332.046 54.9823 331.982 53.353V50.8457C332.025 49.4492 331.93 48.222 331.697 47.1641C331.464 46.085 331.094 45.1857 330.586 44.4663C330.099 43.7469 329.475 43.2074 328.713 42.8477C327.973 42.4668 327.095 42.2764 326.079 42.2764C325.085 42.2764 324.238 42.5091 323.54 42.9746C322.863 43.4401 322.313 44.096 321.89 44.9424C321.466 45.7676 321.16 46.7515 320.969 47.894C320.779 49.0155 320.684 50.2427 320.684 51.5757ZM365.879 59.3516C365.879 58.7591 365.678 58.2513 365.276 57.8281C364.895 57.3838 364.218 56.9818 363.245 56.6221C362.271 56.2412 360.907 55.8604 359.15 55.4795C357.479 55.1198 355.903 54.6437 354.421 54.0513C352.961 53.4588 351.681 52.7394 350.581 51.8931C349.481 51.0467 348.613 50.0417 347.979 48.8779C347.365 47.7142 347.058 46.3812 347.058 44.8789C347.058 43.4189 347.365 42.0436 347.979 40.7529C348.613 39.4411 349.534 38.2879 350.74 37.2935C351.967 36.2778 353.459 35.4844 355.215 34.9131C356.971 34.3206 358.971 34.0244 361.213 34.0244C364.303 34.0244 366.969 34.5005 369.211 35.4526C371.454 36.3836 373.179 37.6955 374.385 39.3882C375.612 41.0597 376.226 42.9958 376.226 45.1963H365.53C365.53 44.3288 365.382 43.5882 365.085 42.9746C364.81 42.361 364.355 41.8955 363.721 41.5781C363.086 41.2396 362.24 41.0703 361.182 41.0703C360.441 41.0703 359.764 41.2078 359.15 41.4829C358.558 41.758 358.082 42.1388 357.722 42.6255C357.362 43.1121 357.183 43.6834 357.183 44.3394C357.183 44.8049 357.288 45.228 357.5 45.6089C357.733 45.9686 358.082 46.3071 358.547 46.6245C359.013 46.9207 359.605 47.1958 360.325 47.4497C361.044 47.6825 361.912 47.894 362.927 48.0845C365.234 48.5076 367.392 49.1107 369.402 49.8936C371.412 50.6764 373.041 51.7873 374.29 53.2261C375.559 54.6649 376.194 56.6009 376.194 59.0342C376.194 60.5576 375.845 61.9647 375.146 63.2554C374.448 64.5249 373.443 65.6463 372.131 66.6196C370.819 67.5718 369.243 68.3123 367.402 68.8413C365.562 69.3703 363.488 69.6348 361.182 69.6348C357.902 69.6348 355.13 69.0529 352.866 67.8892C350.602 66.7043 348.888 65.2231 347.725 63.4458C346.582 61.6473 346.011 59.8276 346.011 57.9868H355.977C356.019 59.0448 356.273 59.9123 356.738 60.5894C357.225 61.2664 357.87 61.7637 358.674 62.0811C359.478 62.3984 360.409 62.5571 361.467 62.5571C362.441 62.5571 363.245 62.4196 363.879 62.1445C364.535 61.8695 365.033 61.4992 365.371 61.0337C365.71 60.547 365.879 59.9863 365.879 59.3516ZM13.8062 117.261V158.203H3.11035V110.659H13.0762L13.8062 117.261ZM34.8804 127.417V128.083C34.8804 130.58 34.5947 132.897 34.0234 135.034C33.4521 137.171 32.6058 139.033 31.4844 140.62C30.363 142.207 28.9665 143.445 27.2949 144.333C25.6445 145.201 23.7297 145.635 21.5503 145.635C19.4979 145.635 17.7311 145.18 16.25 144.27C14.7689 143.36 13.5311 142.101 12.5366 140.493C11.5422 138.885 10.7381 137.044 10.1245 134.971C9.5109 132.897 9.02425 130.707 8.66455 128.401V127.544C9.02425 125.068 9.5109 122.773 10.1245 120.657C10.7381 118.52 11.5422 116.658 12.5366 115.071C13.5311 113.484 14.7583 112.246 16.2183 111.357C17.6994 110.469 19.4661 110.024 21.5186 110.024C23.6979 110.024 25.6128 110.437 27.2632 111.262C28.9347 112.087 30.3312 113.272 31.4526 114.817C32.5952 116.34 33.4521 118.171 34.0234 120.308C34.5947 122.445 34.8804 124.814 34.8804 127.417ZM24.1846 128.083V127.417C24.1846 126.084 24.0894 124.867 23.8989 123.767C23.7085 122.646 23.4017 121.672 22.9785 120.847C22.5765 120.022 22.0369 119.387 21.3599 118.943C20.6828 118.499 19.847 118.276 18.8525 118.276C17.71 118.276 16.7472 118.456 15.9644 118.816C15.2026 119.154 14.589 119.683 14.1235 120.403C13.6792 121.101 13.3618 121.979 13.1714 123.037C13.0021 124.074 12.9281 125.291 12.9492 126.687V129.29C12.9069 130.898 13.0656 132.315 13.4253 133.542C13.785 134.749 14.4092 135.69 15.2979 136.367C16.1865 137.044 17.3926 137.383 18.916 137.383C19.9316 137.383 20.778 137.15 21.4551 136.685C22.1322 136.198 22.6717 135.531 23.0737 134.685C23.4757 133.818 23.7614 132.823 23.9307 131.702C24.0999 130.58 24.1846 129.374 24.1846 128.083ZM50.4321 119.165V145H39.7363V110.659H49.7339L50.4321 119.165ZM60.5884 110.405L60.3979 120.339C59.9748 120.297 59.4035 120.244 58.6841 120.181C57.9647 120.117 57.3617 120.085 56.875 120.085C55.6266 120.085 54.5475 120.234 53.6377 120.53C52.749 120.805 52.0085 121.228 51.416 121.799C50.8447 122.349 50.4215 123.048 50.1465 123.894C49.8926 124.74 49.7762 125.724 49.7974 126.846L47.8613 125.576C47.8613 123.27 48.0835 121.175 48.5278 119.292C48.9933 117.388 49.6493 115.748 50.4956 114.373C51.342 112.976 52.3682 111.908 53.5742 111.167C54.7803 110.405 56.1344 110.024 57.6367 110.024C58.1657 110.024 58.6841 110.056 59.1919 110.12C59.7209 110.183 60.1864 110.278 60.5884 110.405ZM61.7944 128.179V127.512C61.7944 124.994 62.1541 122.677 62.8735 120.562C63.5929 118.424 64.6509 116.573 66.0474 115.007C67.4438 113.442 69.1683 112.225 71.2207 111.357C73.2731 110.469 75.6429 110.024 78.3301 110.024C81.0384 110.024 83.4188 110.469 85.4712 111.357C87.5448 112.225 89.2798 113.442 90.6763 115.007C92.0728 116.573 93.1307 118.424 93.8501 120.562C94.5695 122.677 94.9292 124.994 94.9292 127.512V128.179C94.9292 130.675 94.5695 132.992 93.8501 135.129C93.1307 137.245 92.0728 139.097 90.6763 140.684C89.2798 142.249 87.5553 143.466 85.5029 144.333C83.4505 145.201 81.0807 145.635 78.3936 145.635C75.7064 145.635 73.326 145.201 71.2524 144.333C69.1789 143.466 67.4438 142.249 66.0474 140.684C64.6509 139.097 63.5929 137.245 62.8735 135.129C62.1541 132.992 61.7944 130.675 61.7944 128.179ZM72.4902 127.512V128.179C72.4902 129.469 72.5854 130.675 72.7759 131.797C72.9663 132.918 73.2837 133.902 73.728 134.749C74.1724 135.574 74.7754 136.219 75.5371 136.685C76.2988 137.15 77.251 137.383 78.3936 137.383C79.515 137.383 80.446 137.15 81.1865 136.685C81.9482 136.219 82.5513 135.574 82.9956 134.749C83.4399 133.902 83.7573 132.918 83.9478 131.797C84.1382 130.675 84.2334 129.469 84.2334 128.179V127.512C84.2334 126.264 84.1382 125.09 83.9478 123.989C83.7573 122.868 83.4399 121.884 82.9956 121.038C82.5513 120.17 81.9482 119.493 81.1865 119.006C80.4248 118.52 79.4727 118.276 78.3301 118.276C77.2087 118.276 76.2671 118.52 75.5054 119.006C74.7648 119.493 74.1724 120.17 73.728 121.038C73.2837 121.884 72.9663 122.868 72.7759 123.989C72.5854 125.09 72.4902 126.264 72.4902 127.512ZM119.431 137.129V96.25H130.19V145H120.542L119.431 137.129ZM98.3569 128.242V127.576C98.3569 124.973 98.6426 122.603 99.2139 120.466C99.7852 118.308 100.632 116.457 101.753 114.912C102.874 113.346 104.271 112.14 105.942 111.294C107.614 110.448 109.539 110.024 111.719 110.024C113.665 110.024 115.369 110.479 116.829 111.389C118.289 112.278 119.537 113.526 120.574 115.134C121.611 116.742 122.457 118.625 123.113 120.784C123.769 122.921 124.266 125.227 124.604 127.703V128.496C124.266 130.824 123.769 133.024 123.113 135.098C122.457 137.15 121.611 138.97 120.574 140.557C119.537 142.144 118.278 143.392 116.797 144.302C115.337 145.19 113.623 145.635 111.655 145.635C109.476 145.635 107.55 145.201 105.879 144.333C104.229 143.466 102.843 142.249 101.721 140.684C100.621 139.118 99.7852 137.277 99.2139 135.161C98.6426 133.045 98.3569 130.739 98.3569 128.242ZM109.053 127.576V128.242C109.053 129.533 109.137 130.728 109.307 131.829C109.476 132.929 109.762 133.902 110.164 134.749C110.587 135.574 111.137 136.219 111.814 136.685C112.512 137.15 113.369 137.383 114.385 137.383C115.76 137.383 116.892 137.055 117.781 136.399C118.691 135.743 119.357 134.812 119.78 133.606C120.225 132.4 120.415 130.982 120.352 129.353V126.846C120.394 125.449 120.299 124.222 120.066 123.164C119.833 122.085 119.463 121.186 118.955 120.466C118.468 119.747 117.844 119.207 117.083 118.848C116.342 118.467 115.464 118.276 114.448 118.276C113.454 118.276 112.607 118.509 111.909 118.975C111.232 119.44 110.682 120.096 110.259 120.942C109.836 121.768 109.529 122.751 109.338 123.894C109.148 125.015 109.053 126.243 109.053 127.576ZM156.311 136.653V110.659H167.039V145H157.009L156.311 136.653ZM157.327 129.67L160.12 129.607C160.12 131.913 159.845 134.05 159.294 136.018C158.744 137.965 157.93 139.657 156.851 141.096C155.793 142.535 154.481 143.656 152.915 144.46C151.37 145.243 149.583 145.635 147.551 145.635C145.859 145.635 144.303 145.402 142.886 144.937C141.489 144.45 140.283 143.699 139.268 142.683C138.252 141.646 137.458 140.324 136.887 138.716C136.337 137.087 136.062 135.14 136.062 132.876V110.659H146.758V132.939C146.758 133.701 146.853 134.357 147.043 134.907C147.234 135.457 147.509 135.923 147.869 136.304C148.228 136.663 148.673 136.938 149.202 137.129C149.752 137.298 150.376 137.383 151.074 137.383C152.682 137.383 153.941 137.044 154.851 136.367C155.761 135.69 156.396 134.77 156.755 133.606C157.136 132.442 157.327 131.13 157.327 129.67ZM187.446 137.383C188.441 137.383 189.287 137.203 189.985 136.843C190.705 136.462 191.244 135.933 191.604 135.256C191.985 134.558 192.165 133.722 192.144 132.749H202.205C202.226 135.33 201.591 137.594 200.3 139.541C199.031 141.466 197.296 142.969 195.095 144.048C192.916 145.106 190.451 145.635 187.7 145.635C185.013 145.635 182.664 145.201 180.654 144.333C178.644 143.445 176.962 142.218 175.608 140.652C174.275 139.065 173.27 137.214 172.593 135.098C171.937 132.982 171.609 130.686 171.609 128.21V127.48C171.609 125.005 171.937 122.709 172.593 120.593C173.27 118.456 174.275 116.605 175.608 115.039C176.962 113.452 178.634 112.225 180.623 111.357C182.633 110.469 184.971 110.024 187.637 110.024C190.493 110.024 193.011 110.564 195.19 111.643C197.391 112.722 199.115 114.288 200.364 116.34C201.612 118.393 202.226 120.879 202.205 123.799H192.144C192.165 122.762 192.006 121.831 191.667 121.006C191.329 120.181 190.8 119.525 190.081 119.038C189.382 118.53 188.483 118.276 187.383 118.276C186.283 118.276 185.394 118.52 184.717 119.006C184.04 119.493 183.521 120.17 183.162 121.038C182.823 121.884 182.59 122.857 182.463 123.958C182.358 125.058 182.305 126.232 182.305 127.48V128.21C182.305 129.48 182.358 130.675 182.463 131.797C182.59 132.897 182.834 133.87 183.193 134.717C183.553 135.542 184.071 136.198 184.749 136.685C185.426 137.15 186.325 137.383 187.446 137.383ZM223.406 145.635C220.613 145.635 218.116 145.201 215.916 144.333C213.715 143.445 211.853 142.228 210.33 140.684C208.827 139.139 207.674 137.362 206.87 135.352C206.087 133.341 205.696 131.215 205.696 128.972V127.766C205.696 125.248 206.045 122.921 206.743 120.784C207.441 118.625 208.478 116.742 209.854 115.134C211.229 113.526 212.953 112.278 215.027 111.389C217.1 110.479 219.513 110.024 222.263 110.024C224.696 110.024 226.876 110.416 228.801 111.199C230.727 111.982 232.356 113.103 233.689 114.563C235.043 116.023 236.069 117.79 236.768 119.863C237.487 121.937 237.847 124.264 237.847 126.846V131.194H209.79V124.497H227.405V123.672C227.426 122.529 227.225 121.556 226.802 120.752C226.4 119.948 225.807 119.334 225.024 118.911C224.242 118.488 223.289 118.276 222.168 118.276C221.004 118.276 220.042 118.53 219.28 119.038C218.539 119.546 217.957 120.244 217.534 121.133C217.132 122 216.847 123.005 216.677 124.148C216.508 125.291 216.423 126.497 216.423 127.766V128.972C216.423 130.242 216.593 131.395 216.931 132.432C217.291 133.468 217.799 134.357 218.455 135.098C219.132 135.817 219.936 136.378 220.867 136.78C221.819 137.182 222.898 137.383 224.104 137.383C225.564 137.383 227.003 137.108 228.42 136.558C229.838 136.007 231.055 135.098 232.07 133.828L236.926 139.604C236.228 140.599 235.234 141.562 233.943 142.493C232.673 143.424 231.15 144.185 229.373 144.778C227.595 145.349 225.606 145.635 223.406 145.635ZM268.855 96.25V145H258.159V96.25H268.855ZM267.585 126.655L265.078 126.719C265.078 124.307 265.374 122.085 265.967 120.054C266.559 118.022 267.406 116.256 268.506 114.753C269.606 113.251 270.929 112.087 272.473 111.262C274.018 110.437 275.732 110.024 277.615 110.024C279.307 110.024 280.852 110.268 282.249 110.754C283.666 111.241 284.883 112.024 285.898 113.103C286.935 114.182 287.729 115.589 288.279 117.324C288.85 119.059 289.136 121.175 289.136 123.672V145H278.376V123.608C278.376 122.212 278.175 121.133 277.773 120.371C277.393 119.588 276.842 119.049 276.123 118.752C275.404 118.435 274.526 118.276 273.489 118.276C272.24 118.276 271.225 118.488 270.442 118.911C269.659 119.334 269.056 119.927 268.633 120.688C268.231 121.429 267.956 122.307 267.808 123.323C267.66 124.338 267.585 125.449 267.585 126.655ZM311.702 145.635C308.909 145.635 306.412 145.201 304.211 144.333C302.011 143.445 300.149 142.228 298.625 140.684C297.123 139.139 295.97 137.362 295.166 135.352C294.383 133.341 293.992 131.215 293.992 128.972V127.766C293.992 125.248 294.341 122.921 295.039 120.784C295.737 118.625 296.774 116.742 298.149 115.134C299.525 113.526 301.249 112.278 303.323 111.389C305.396 110.479 307.808 110.024 310.559 110.024C312.992 110.024 315.172 110.416 317.097 111.199C319.023 111.982 320.652 113.103 321.985 114.563C323.339 116.023 324.365 117.79 325.063 119.863C325.783 121.937 326.143 124.264 326.143 126.846V131.194H298.086V124.497H315.701V123.672C315.722 122.529 315.521 121.556 315.098 120.752C314.696 119.948 314.103 119.334 313.32 118.911C312.537 118.488 311.585 118.276 310.464 118.276C309.3 118.276 308.337 118.53 307.576 119.038C306.835 119.546 306.253 120.244 305.83 121.133C305.428 122 305.142 123.005 304.973 124.148C304.804 125.291 304.719 126.497 304.719 127.766V128.972C304.719 130.242 304.889 131.395 305.227 132.432C305.587 133.468 306.095 134.357 306.75 135.098C307.428 135.817 308.232 136.378 309.163 136.78C310.115 137.182 311.194 137.383 312.4 137.383C313.86 137.383 315.299 137.108 316.716 136.558C318.134 136.007 319.351 135.098 320.366 133.828L325.222 139.604C324.524 140.599 323.529 141.562 322.239 142.493C320.969 143.424 319.446 144.185 317.668 144.778C315.891 145.349 313.902 145.635 311.702 145.635ZM341.282 119.165V145H330.586V110.659H340.583L341.282 119.165ZM351.438 110.405L351.248 120.339C350.824 120.297 350.253 120.244 349.534 120.181C348.814 120.117 348.211 120.085 347.725 120.085C346.476 120.085 345.397 120.234 344.487 120.53C343.599 120.805 342.858 121.228 342.266 121.799C341.694 122.349 341.271 123.048 340.996 123.894C340.742 124.74 340.626 125.724 340.647 126.846L338.711 125.576C338.711 123.27 338.933 121.175 339.377 119.292C339.843 117.388 340.499 115.748 341.345 114.373C342.192 112.976 343.218 111.908 344.424 111.167C345.63 110.405 346.984 110.024 348.486 110.024C349.015 110.024 349.534 110.056 350.042 110.12C350.57 110.183 351.036 110.278 351.438 110.405ZM371.116 145.635C368.323 145.635 365.826 145.201 363.625 144.333C361.425 143.445 359.563 142.228 358.04 140.684C356.537 139.139 355.384 137.362 354.58 135.352C353.797 133.341 353.406 131.215 353.406 128.972V127.766C353.406 125.248 353.755 122.921 354.453 120.784C355.151 118.625 356.188 116.742 357.563 115.134C358.939 113.526 360.663 112.278 362.737 111.389C364.81 110.479 367.222 110.024 369.973 110.024C372.406 110.024 374.586 110.416 376.511 111.199C378.437 111.982 380.066 113.103 381.399 114.563C382.753 116.023 383.779 117.79 384.478 119.863C385.197 121.937 385.557 124.264 385.557 126.846V131.194H357.5V124.497H375.115V123.672C375.136 122.529 374.935 121.556 374.512 120.752C374.11 119.948 373.517 119.334 372.734 118.911C371.951 118.488 370.999 118.276 369.878 118.276C368.714 118.276 367.751 118.53 366.99 119.038C366.249 119.546 365.667 120.244 365.244 121.133C364.842 122 364.556 123.005 364.387 124.148C364.218 125.291 364.133 126.497 364.133 127.766V128.972C364.133 130.242 364.303 131.395 364.641 132.432C365.001 133.468 365.509 134.357 366.165 135.098C366.842 135.817 367.646 136.378 368.577 136.78C369.529 137.182 370.608 137.383 371.814 137.383C373.274 137.383 374.713 137.108 376.13 136.558C377.548 136.007 378.765 135.098 379.78 133.828L384.636 139.604C383.938 140.599 382.944 141.562 381.653 142.493C380.383 143.424 378.86 144.185 377.083 144.778C375.305 145.349 373.316 145.635 371.116 145.635Z" fill="#004E93"/>
<path d="M380.452 22.7114C341.666 7.8367 248.148 -12.9878 184.367 22.7114C156.354 44.5585 137.392 87.1373 285.642 82.6749C319.4 82.6748 389.933 70.6821 402 22.7114" stroke="#FFE700" stroke-width="5"/>
</svg>
