<svg width="517" height="188" viewBox="0 0 517 188" fill="none" xmlns="http://www.w3.org/2000/svg">
<path d="M51.8359 17.125V74H38.1641L18.0469 38.6094V74H4.33594V17.125H18.0469L38.1641 52.5156V17.125H51.8359ZM58.2422 53.2969V52.4766C58.2422 49.3776 58.6849 46.526 59.5703 43.9219C60.4557 41.2917 61.7578 39.013 63.4766 37.0859C65.1953 35.1589 67.3177 33.6615 69.8438 32.5938C72.3698 31.5 75.2865 30.9531 78.5938 30.9531C81.9271 30.9531 84.8568 31.5 87.3828 32.5938C89.9349 33.6615 92.0703 35.1589 93.7891 37.0859C95.5078 39.013 96.8099 41.2917 97.6953 43.9219C98.5807 46.526 99.0234 49.3776 99.0234 52.4766V53.2969C99.0234 56.3698 98.5807 59.2214 97.6953 61.8516C96.8099 64.4557 95.5078 66.7344 93.7891 68.6875C92.0703 70.6146 89.9479 72.112 87.4219 73.1797C84.8958 74.2474 81.9792 74.7812 78.6719 74.7812C75.3646 74.7812 72.4349 74.2474 69.8828 73.1797C67.3307 72.112 65.1953 70.6146 63.4766 68.6875C61.7578 66.7344 60.4557 64.4557 59.5703 61.8516C58.6849 59.2214 58.2422 56.3698 58.2422 53.2969ZM71.4062 52.4766V53.2969C71.4062 54.8854 71.5234 56.3698 71.7578 57.75C71.9922 59.1302 72.3828 60.3411 72.9297 61.3828C73.4766 62.3984 74.2188 63.1927 75.1562 63.7656C76.0938 64.3385 77.2656 64.625 78.6719 64.625C80.0521 64.625 81.1979 64.3385 82.1094 63.7656C83.0469 63.1927 83.7891 62.3984 84.3359 61.3828C84.8828 60.3411 85.2734 59.1302 85.5078 57.75C85.7422 56.3698 85.8594 54.8854 85.8594 53.2969V52.4766C85.8594 50.9401 85.7422 49.4948 85.5078 48.1406C85.2734 46.7604 84.8828 45.5495 84.3359 44.5078C83.7891 43.4401 83.0469 42.6068 82.1094 42.0078C81.1719 41.4089 80 41.1094 78.5938 41.1094C77.2135 41.1094 76.0547 41.4089 75.1172 42.0078C74.2057 42.6068 73.4766 43.4401 72.9297 44.5078C72.3828 45.5495 71.9922 46.7604 71.7578 48.1406C71.5234 49.4948 71.4062 50.9401 71.4062 52.4766ZM127.148 31.7344V40.875H101.68V31.7344H127.148ZM107.031 21.2266H120.195V60.2109C120.195 61.3307 120.326 62.2031 120.586 62.8281C120.846 63.4271 121.289 63.8568 121.914 64.1172C122.565 64.3516 123.424 64.4688 124.492 64.4688C125.247 64.4688 125.872 64.4557 126.367 64.4297C126.862 64.3776 127.331 64.3125 127.773 64.2344V73.6484C126.654 74.013 125.482 74.2865 124.258 74.4688C123.034 74.6771 121.732 74.7812 120.352 74.7812C117.539 74.7812 115.13 74.3385 113.125 73.4531C111.146 72.5677 109.635 71.1745 108.594 69.2734C107.552 67.3724 107.031 64.8984 107.031 61.8516V21.2266ZM145.273 14V74H132.109V14H145.273ZM143.711 51.4219L140.625 51.5C140.625 48.5312 140.99 45.7969 141.719 43.2969C142.448 40.7969 143.49 38.6224 144.844 36.7734C146.198 34.9245 147.826 33.4922 149.727 32.4766C151.628 31.4609 153.737 30.9531 156.055 30.9531C158.138 30.9531 160.039 31.2526 161.758 31.8516C163.503 32.4505 165 33.4141 166.25 34.7422C167.526 36.0703 168.503 37.8021 169.18 39.9375C169.883 42.0729 170.234 44.6771 170.234 47.75V74H156.992V47.6719C156.992 45.9531 156.745 44.625 156.25 43.6875C155.781 42.724 155.104 42.0599 154.219 41.6953C153.333 41.3047 152.253 41.1094 150.977 41.1094C149.44 41.1094 148.19 41.3698 147.227 41.8906C146.263 42.4115 145.521 43.1406 145 44.0781C144.505 44.9896 144.167 46.0703 143.984 47.3203C143.802 48.5703 143.711 49.9375 143.711 51.4219ZM191.445 31.7344V74H178.242V31.7344H191.445ZM177.461 20.8359C177.461 18.9609 178.138 17.4245 179.492 16.2266C180.846 15.0286 182.604 14.4297 184.766 14.4297C186.927 14.4297 188.685 15.0286 190.039 16.2266C191.393 17.4245 192.07 18.9609 192.07 20.8359C192.07 22.7109 191.393 24.2474 190.039 25.4453C188.685 26.6432 186.927 27.2422 184.766 27.2422C182.604 27.2422 180.846 26.6432 179.492 25.4453C178.138 24.2474 177.461 22.7109 177.461 20.8359ZM212.5 40.7578V74H199.336V31.7344H211.68L212.5 40.7578ZM210.938 51.4219L207.852 51.5C207.852 48.2708 208.242 45.3932 209.023 42.8672C209.805 40.3151 210.911 38.1536 212.344 36.3828C213.776 34.612 215.482 33.2708 217.461 32.3594C219.466 31.4219 221.693 30.9531 224.141 30.9531C226.094 30.9531 227.878 31.2396 229.492 31.8125C231.133 32.3854 232.539 33.3099 233.711 34.5859C234.909 35.862 235.82 37.5547 236.445 39.6641C237.096 41.7474 237.422 44.3255 237.422 47.3984V74H224.18V47.3594C224.18 45.6667 223.945 44.3776 223.477 43.4922C223.008 42.5807 222.331 41.9557 221.445 41.6172C220.56 41.2786 219.479 41.1094 218.203 41.1094C216.849 41.1094 215.703 41.3698 214.766 41.8906C213.828 42.4115 213.073 43.1406 212.5 44.0781C211.953 44.9896 211.549 46.0703 211.289 47.3203C211.055 48.5703 210.938 49.9375 210.938 51.4219ZM271.289 31.7344H283.242V72.3594C283.242 76.2656 282.344 79.5729 280.547 82.2812C278.75 85.0156 276.237 87.0859 273.008 88.4922C269.805 89.9245 266.055 90.6406 261.758 90.6406C259.857 90.6406 257.917 90.3932 255.938 89.8984C253.958 89.4297 252.109 88.7266 250.391 87.7891C248.672 86.8516 247.227 85.6927 246.055 84.3125L251.562 76.5781C252.63 77.776 253.971 78.7917 255.586 79.625C257.201 80.4844 259.102 80.9141 261.289 80.9141C263.19 80.9141 264.779 80.5755 266.055 79.8984C267.357 79.2214 268.346 78.2318 269.023 76.9297C269.701 75.6536 270.039 74.1042 270.039 72.2812V41.7344L271.289 31.7344ZM243.203 53.375V52.5547C243.203 49.3516 243.594 46.4349 244.375 43.8047C245.182 41.1484 246.328 38.8698 247.812 36.9688C249.323 35.0417 251.146 33.5573 253.281 32.5156C255.417 31.474 257.826 30.9531 260.508 30.9531C263.398 30.9531 265.768 31.513 267.617 32.6328C269.492 33.7266 270.99 35.263 272.109 37.2422C273.255 39.2214 274.141 41.5391 274.766 44.1953C275.417 46.8255 275.964 49.6641 276.406 52.7109V53.6875C275.964 56.5521 275.352 59.2604 274.57 61.8125C273.815 64.3385 272.826 66.5781 271.602 68.5312C270.378 70.4844 268.841 72.0208 266.992 73.1406C265.169 74.2344 262.982 74.7812 260.43 74.7812C257.773 74.7812 255.378 74.2474 253.242 73.1797C251.133 72.112 249.323 70.6146 247.812 68.6875C246.328 66.7604 245.182 64.4948 244.375 61.8906C243.594 59.2865 243.203 56.4479 243.203 53.375ZM256.367 52.5547V53.375C256.367 54.9635 256.51 56.4349 256.797 57.7891C257.109 59.1432 257.578 60.3411 258.203 61.3828C258.828 62.3984 259.596 63.1927 260.508 63.7656C261.445 64.3385 262.539 64.625 263.789 64.625C265.69 64.625 267.227 64.2214 268.398 63.4141C269.57 62.6068 270.417 61.4609 270.938 59.9766C271.458 58.4922 271.68 56.7474 271.602 54.7422V51.6562C271.654 49.9375 271.536 48.4271 271.25 47.125C270.964 45.7969 270.508 44.6901 269.883 43.8047C269.284 42.9193 268.477 42.2552 267.461 41.8125C266.471 41.3438 265.273 41.1094 263.867 41.1094C262.643 41.1094 261.562 41.3958 260.625 41.9688C259.688 42.5417 258.906 43.349 258.281 44.3906C257.656 45.4062 257.174 46.6172 256.836 48.0234C256.523 49.4036 256.367 50.9141 256.367 52.5547ZM337.305 31.7344H349.258V72.3594C349.258 76.2656 348.359 79.5729 346.562 82.2812C344.766 85.0156 342.253 87.0859 339.023 88.4922C335.82 89.9245 332.07 90.6406 327.773 90.6406C325.872 90.6406 323.932 90.3932 321.953 89.8984C319.974 89.4297 318.125 88.7266 316.406 87.7891C314.688 86.8516 313.242 85.6927 312.07 84.3125L317.578 76.5781C318.646 77.776 319.987 78.7917 321.602 79.625C323.216 80.4844 325.117 80.9141 327.305 80.9141C329.206 80.9141 330.794 80.5755 332.07 79.8984C333.372 79.2214 334.362 78.2318 335.039 76.9297C335.716 75.6536 336.055 74.1042 336.055 72.2812V41.7344L337.305 31.7344ZM309.219 53.375V52.5547C309.219 49.3516 309.609 46.4349 310.391 43.8047C311.198 41.1484 312.344 38.8698 313.828 36.9688C315.339 35.0417 317.161 33.5573 319.297 32.5156C321.432 31.474 323.841 30.9531 326.523 30.9531C329.414 30.9531 331.784 31.513 333.633 32.6328C335.508 33.7266 337.005 35.263 338.125 37.2422C339.271 39.2214 340.156 41.5391 340.781 44.1953C341.432 46.8255 341.979 49.6641 342.422 52.7109V53.6875C341.979 56.5521 341.367 59.2604 340.586 61.8125C339.831 64.3385 338.841 66.5781 337.617 68.5312C336.393 70.4844 334.857 72.0208 333.008 73.1406C331.185 74.2344 328.997 74.7812 326.445 74.7812C323.789 74.7812 321.393 74.2474 319.258 73.1797C317.148 72.112 315.339 70.6146 313.828 68.6875C312.344 66.7604 311.198 64.4948 310.391 61.8906C309.609 59.2865 309.219 56.4479 309.219 53.375ZM322.383 52.5547V53.375C322.383 54.9635 322.526 56.4349 322.812 57.7891C323.125 59.1432 323.594 60.3411 324.219 61.3828C324.844 62.3984 325.612 63.1927 326.523 63.7656C327.461 64.3385 328.555 64.625 329.805 64.625C331.706 64.625 333.242 64.2214 334.414 63.4141C335.586 62.6068 336.432 61.4609 336.953 59.9766C337.474 58.4922 337.695 56.7474 337.617 54.7422V51.6562C337.669 49.9375 337.552 48.4271 337.266 47.125C336.979 45.7969 336.523 44.6901 335.898 43.8047C335.299 42.9193 334.492 42.2552 333.477 41.8125C332.487 41.3438 331.289 41.1094 329.883 41.1094C328.659 41.1094 327.578 41.3958 326.641 41.9688C325.703 42.5417 324.922 43.349 324.297 44.3906C323.672 45.4062 323.19 46.6172 322.852 48.0234C322.539 49.4036 322.383 50.9141 322.383 52.5547ZM370.117 42.2031V74H356.953V31.7344H369.258L370.117 42.2031ZM382.617 31.4219L382.383 43.6484C381.862 43.5964 381.159 43.5312 380.273 43.4531C379.388 43.375 378.646 43.3359 378.047 43.3359C376.51 43.3359 375.182 43.5182 374.062 43.8828C372.969 44.2214 372.057 44.7422 371.328 45.4453C370.625 46.1224 370.104 46.9818 369.766 48.0234C369.453 49.0651 369.31 50.276 369.336 51.6562L366.953 50.0938C366.953 47.2552 367.227 44.6771 367.773 42.3594C368.346 40.0156 369.154 37.9974 370.195 36.3047C371.237 34.5859 372.5 33.2708 373.984 32.3594C375.469 31.4219 377.135 30.9531 378.984 30.9531C379.635 30.9531 380.273 30.9922 380.898 31.0703C381.549 31.1484 382.122 31.2656 382.617 31.4219ZM406.836 74.7812C403.398 74.7812 400.326 74.2474 397.617 73.1797C394.909 72.0859 392.617 70.5885 390.742 68.6875C388.893 66.7865 387.474 64.599 386.484 62.125C385.521 59.651 385.039 57.0339 385.039 54.2734V52.7891C385.039 49.6901 385.469 46.8255 386.328 44.1953C387.188 41.5391 388.464 39.2214 390.156 37.2422C391.849 35.263 393.971 33.7266 396.523 32.6328C399.076 31.513 402.044 30.9531 405.43 30.9531C408.424 30.9531 411.107 31.4349 413.477 32.3984C415.846 33.362 417.852 34.7422 419.492 36.5391C421.159 38.3359 422.422 40.5104 423.281 43.0625C424.167 45.6146 424.609 48.4792 424.609 51.6562V57.0078H390.078V48.7656H411.758V47.75C411.784 46.3438 411.536 45.1458 411.016 44.1562C410.521 43.1667 409.792 42.4115 408.828 41.8906C407.865 41.3698 406.693 41.1094 405.312 41.1094C403.88 41.1094 402.695 41.4219 401.758 42.0469C400.846 42.6719 400.13 43.5312 399.609 44.625C399.115 45.6927 398.763 46.9297 398.555 48.3359C398.346 49.7422 398.242 51.2266 398.242 52.7891V54.2734C398.242 55.8359 398.451 57.2552 398.867 58.5312C399.31 59.8073 399.935 60.901 400.742 61.8125C401.576 62.6979 402.565 63.388 403.711 63.8828C404.883 64.3776 406.211 64.625 407.695 64.625C409.492 64.625 411.263 64.2865 413.008 63.6094C414.753 62.9323 416.25 61.8125 417.5 60.25L423.477 67.3594C422.617 68.5833 421.393 69.7682 419.805 70.9141C418.242 72.0599 416.367 72.9974 414.18 73.7266C411.992 74.4297 409.544 74.7812 406.836 74.7812ZM451.914 63.375V45.9531C451.914 44.7552 451.745 43.7266 451.406 42.8672C451.068 42.0078 450.534 41.3438 449.805 40.875C449.076 40.3802 448.099 40.1328 446.875 40.1328C445.885 40.1328 445.039 40.3021 444.336 40.6406C443.633 40.9792 443.099 41.487 442.734 42.1641C442.37 42.8411 442.188 43.7005 442.188 44.7422H429.023C429.023 42.7891 429.453 40.9792 430.312 39.3125C431.198 37.6198 432.448 36.1484 434.062 34.8984C435.703 33.6484 437.656 32.6849 439.922 32.0078C442.214 31.3047 444.766 30.9531 447.578 30.9531C450.938 30.9531 453.932 31.513 456.562 32.6328C459.219 33.7526 461.315 35.4323 462.852 37.6719C464.388 39.8854 465.156 42.6719 465.156 46.0312V63.3359C465.156 66.0964 465.312 68.1927 465.625 69.625C465.938 71.0312 466.38 72.2682 466.953 73.3359V74H453.75C453.125 72.6979 452.656 71.1094 452.344 69.2344C452.057 67.3333 451.914 65.3802 451.914 63.375ZM453.516 48.1797L453.594 55.2109H447.773C446.549 55.2109 445.508 55.3802 444.648 55.7188C443.815 56.0573 443.138 56.526 442.617 57.125C442.122 57.6979 441.758 58.349 441.523 59.0781C441.315 59.8073 441.211 60.5755 441.211 61.3828C441.211 62.1641 441.393 62.8672 441.758 63.4922C442.148 64.0911 442.669 64.5599 443.32 64.8984C443.971 65.237 444.701 65.4062 445.508 65.4062C446.966 65.4062 448.203 65.1328 449.219 64.5859C450.26 64.013 451.055 63.3229 451.602 62.5156C452.148 61.7083 452.422 60.9531 452.422 60.25L455.312 65.6406C454.792 66.6823 454.193 67.737 453.516 68.8047C452.865 69.8724 452.044 70.862 451.055 71.7734C450.091 72.6589 448.906 73.388 447.5 73.9609C446.094 74.5078 444.388 74.7812 442.383 74.7812C439.779 74.7812 437.383 74.2474 435.195 73.1797C433.034 72.112 431.302 70.6276 430 68.7266C428.698 66.7995 428.047 64.5859 428.047 62.0859C428.047 59.8984 428.438 57.9453 429.219 56.2266C430.026 54.5078 431.237 53.0495 432.852 51.8516C434.466 50.6536 436.523 49.7422 439.023 49.1172C441.523 48.4922 444.466 48.1797 447.852 48.1797H453.516ZM494.727 31.7344V40.875H469.258V31.7344H494.727ZM474.609 21.2266H487.773V60.2109C487.773 61.3307 487.904 62.2031 488.164 62.8281C488.424 63.4271 488.867 63.8568 489.492 64.1172C490.143 64.3516 491.003 64.4688 492.07 64.4688C492.826 64.4688 493.451 64.4557 493.945 64.4297C494.44 64.3776 494.909 64.3125 495.352 64.2344V73.6484C494.232 74.013 493.06 74.2865 491.836 74.4688C490.612 74.6771 489.31 74.7812 487.93 74.7812C485.117 74.7812 482.708 74.3385 480.703 73.4531C478.724 72.5677 477.214 71.1745 476.172 69.2734C475.13 67.3724 474.609 64.8984 474.609 61.8516V21.2266ZM17.6172 125.734V168H4.41406V125.734H17.6172ZM3.63281 114.836C3.63281 112.961 4.3099 111.424 5.66406 110.227C7.01823 109.029 8.77604 108.43 10.9375 108.43C13.099 108.43 14.8568 109.029 16.2109 110.227C17.5651 111.424 18.2422 112.961 18.2422 114.836C18.2422 116.711 17.5651 118.247 16.2109 119.445C14.8568 120.643 13.099 121.242 10.9375 121.242C8.77604 121.242 7.01823 120.643 5.66406 119.445C4.3099 118.247 3.63281 116.711 3.63281 114.836ZM47.8906 156.125C47.8906 155.396 47.6432 154.771 47.1484 154.25C46.6797 153.703 45.8464 153.208 44.6484 152.766C43.4505 152.297 41.7708 151.828 39.6094 151.359C37.5521 150.917 35.612 150.331 33.7891 149.602C31.9922 148.872 30.4167 147.987 29.0625 146.945C27.7083 145.904 26.6406 144.667 25.8594 143.234C25.1042 141.802 24.7266 140.161 24.7266 138.312C24.7266 136.516 25.1042 134.823 25.8594 133.234C26.6406 131.62 27.7734 130.201 29.2578 128.977C30.7682 127.727 32.6042 126.75 34.7656 126.047C36.9271 125.318 39.388 124.953 42.1484 124.953C45.9505 124.953 49.2318 125.539 51.9922 126.711C54.7526 127.857 56.875 129.471 58.3594 131.555C59.8698 133.612 60.625 135.995 60.625 138.703H47.4609C47.4609 137.635 47.2786 136.724 46.9141 135.969C46.5755 135.214 46.0156 134.641 45.2344 134.25C44.4531 133.833 43.4115 133.625 42.1094 133.625C41.1979 133.625 40.3646 133.794 39.6094 134.133C38.8802 134.471 38.2943 134.94 37.8516 135.539C37.4089 136.138 37.1875 136.841 37.1875 137.648C37.1875 138.221 37.3177 138.742 37.5781 139.211C37.8646 139.654 38.2943 140.07 38.8672 140.461C39.4401 140.826 40.1693 141.164 41.0547 141.477C41.9401 141.763 43.0078 142.023 44.2578 142.258C47.0964 142.779 49.7526 143.521 52.2266 144.484C54.7005 145.448 56.7057 146.815 58.2422 148.586C59.8047 150.357 60.5859 152.74 60.5859 155.734C60.5859 157.609 60.1562 159.341 59.2969 160.93C58.4375 162.492 57.2005 163.872 55.5859 165.07C53.9714 166.242 52.0312 167.154 49.7656 167.805C47.5 168.456 44.9479 168.781 42.1094 168.781C38.0729 168.781 34.6615 168.065 31.875 166.633C29.0885 165.174 26.9792 163.352 25.5469 161.164C24.1406 158.951 23.4375 156.711 23.4375 154.445H35.7031C35.7552 155.747 36.0677 156.815 36.6406 157.648C37.2396 158.482 38.0339 159.094 39.0234 159.484C40.013 159.875 41.1589 160.07 42.4609 160.07C43.6589 160.07 44.6484 159.901 45.4297 159.562C46.237 159.224 46.849 158.768 47.2656 158.195C47.6823 157.596 47.8906 156.906 47.8906 156.125ZM99.9609 134.68V168H86.7969V125.734H99.1406L99.9609 134.68ZM98.3594 145.422L95.3516 145.5C95.3516 142.531 95.7031 139.797 96.4062 137.297C97.1094 134.797 98.151 132.622 99.5312 130.773C100.911 128.924 102.604 127.492 104.609 126.477C106.641 125.461 108.984 124.953 111.641 124.953C113.49 124.953 115.169 125.24 116.68 125.812C118.19 126.359 119.492 127.232 120.586 128.43C121.68 129.602 122.513 131.138 123.086 133.039C123.685 134.914 123.984 137.167 123.984 139.797V168H110.82V141.477C110.82 139.68 110.612 138.326 110.195 137.414C109.805 136.503 109.232 135.891 108.477 135.578C107.721 135.266 106.797 135.109 105.703 135.109C104.557 135.109 103.529 135.37 102.617 135.891C101.706 136.411 100.924 137.141 100.273 138.078C99.6484 138.99 99.1667 140.07 98.8281 141.32C98.5156 142.57 98.3594 143.938 98.3594 145.422ZM122.5 145.422L118.828 145.5C118.828 142.531 119.154 139.797 119.805 137.297C120.482 134.797 121.484 132.622 122.812 130.773C124.167 128.924 125.846 127.492 127.852 126.477C129.857 125.461 132.188 124.953 134.844 124.953C136.771 124.953 138.542 125.24 140.156 125.812C141.771 126.385 143.164 127.31 144.336 128.586C145.508 129.862 146.419 131.555 147.07 133.664C147.721 135.747 148.047 138.326 148.047 141.398V168H134.844V141.398C134.844 139.654 134.635 138.339 134.219 137.453C133.828 136.542 133.255 135.93 132.5 135.617C131.745 135.279 130.846 135.109 129.805 135.109C128.555 135.109 127.474 135.37 126.562 135.891C125.651 136.411 124.883 137.141 124.258 138.078C123.659 138.99 123.216 140.07 122.93 141.32C122.643 142.57 122.5 143.938 122.5 145.422ZM177.539 157.375V139.953C177.539 138.755 177.37 137.727 177.031 136.867C176.693 136.008 176.159 135.344 175.43 134.875C174.701 134.38 173.724 134.133 172.5 134.133C171.51 134.133 170.664 134.302 169.961 134.641C169.258 134.979 168.724 135.487 168.359 136.164C167.995 136.841 167.812 137.701 167.812 138.742H154.648C154.648 136.789 155.078 134.979 155.938 133.312C156.823 131.62 158.073 130.148 159.688 128.898C161.328 127.648 163.281 126.685 165.547 126.008C167.839 125.305 170.391 124.953 173.203 124.953C176.562 124.953 179.557 125.513 182.188 126.633C184.844 127.753 186.94 129.432 188.477 131.672C190.013 133.885 190.781 136.672 190.781 140.031V157.336C190.781 160.096 190.938 162.193 191.25 163.625C191.562 165.031 192.005 166.268 192.578 167.336V168H179.375C178.75 166.698 178.281 165.109 177.969 163.234C177.682 161.333 177.539 159.38 177.539 157.375ZM179.141 142.18L179.219 149.211H173.398C172.174 149.211 171.133 149.38 170.273 149.719C169.44 150.057 168.763 150.526 168.242 151.125C167.747 151.698 167.383 152.349 167.148 153.078C166.94 153.807 166.836 154.576 166.836 155.383C166.836 156.164 167.018 156.867 167.383 157.492C167.773 158.091 168.294 158.56 168.945 158.898C169.596 159.237 170.326 159.406 171.133 159.406C172.591 159.406 173.828 159.133 174.844 158.586C175.885 158.013 176.68 157.323 177.227 156.516C177.773 155.708 178.047 154.953 178.047 154.25L180.938 159.641C180.417 160.682 179.818 161.737 179.141 162.805C178.49 163.872 177.669 164.862 176.68 165.773C175.716 166.659 174.531 167.388 173.125 167.961C171.719 168.508 170.013 168.781 168.008 168.781C165.404 168.781 163.008 168.247 160.82 167.18C158.659 166.112 156.927 164.628 155.625 162.727C154.323 160.799 153.672 158.586 153.672 156.086C153.672 153.898 154.062 151.945 154.844 150.227C155.651 148.508 156.862 147.049 158.477 145.852C160.091 144.654 162.148 143.742 164.648 143.117C167.148 142.492 170.091 142.18 173.477 142.18H179.141ZM222.383 158.312V108H235.625V168H223.75L222.383 158.312ZM196.445 147.375V146.555C196.445 143.352 196.797 140.435 197.5 137.805C198.203 135.148 199.245 132.87 200.625 130.969C202.005 129.042 203.724 127.557 205.781 126.516C207.839 125.474 210.208 124.953 212.891 124.953C215.286 124.953 217.383 125.513 219.18 126.633C220.977 127.727 222.513 129.263 223.789 131.242C225.065 133.221 226.107 135.539 226.914 138.195C227.721 140.826 228.333 143.664 228.75 146.711V147.688C228.333 150.552 227.721 153.26 226.914 155.812C226.107 158.339 225.065 160.578 223.789 162.531C222.513 164.484 220.964 166.021 219.141 167.141C217.344 168.234 215.234 168.781 212.812 168.781C210.13 168.781 207.76 168.247 205.703 167.18C203.672 166.112 201.966 164.615 200.586 162.688C199.232 160.76 198.203 158.495 197.5 155.891C196.797 153.286 196.445 150.448 196.445 147.375ZM209.609 146.555V147.375C209.609 148.964 209.714 150.435 209.922 151.789C210.13 153.143 210.482 154.341 210.977 155.383C211.497 156.398 212.174 157.193 213.008 157.766C213.867 158.339 214.922 158.625 216.172 158.625C217.865 158.625 219.258 158.221 220.352 157.414C221.471 156.607 222.292 155.461 222.812 153.977C223.359 152.492 223.594 150.747 223.516 148.742V145.656C223.568 143.938 223.451 142.427 223.164 141.125C222.878 139.797 222.422 138.69 221.797 137.805C221.198 136.919 220.43 136.255 219.492 135.812C218.581 135.344 217.5 135.109 216.25 135.109C215.026 135.109 213.984 135.396 213.125 135.969C212.292 136.542 211.615 137.349 211.094 138.391C210.573 139.406 210.195 140.617 209.961 142.023C209.727 143.404 209.609 144.914 209.609 146.555ZM263.555 168.781C260.117 168.781 257.044 168.247 254.336 167.18C251.628 166.086 249.336 164.589 247.461 162.688C245.612 160.786 244.193 158.599 243.203 156.125C242.24 153.651 241.758 151.034 241.758 148.273V146.789C241.758 143.69 242.188 140.826 243.047 138.195C243.906 135.539 245.182 133.221 246.875 131.242C248.568 129.263 250.69 127.727 253.242 126.633C255.794 125.513 258.763 124.953 262.148 124.953C265.143 124.953 267.826 125.435 270.195 126.398C272.565 127.362 274.57 128.742 276.211 130.539C277.878 132.336 279.141 134.51 280 137.062C280.885 139.615 281.328 142.479 281.328 145.656V151.008H246.797V142.766H268.477V141.75C268.503 140.344 268.255 139.146 267.734 138.156C267.24 137.167 266.51 136.411 265.547 135.891C264.583 135.37 263.411 135.109 262.031 135.109C260.599 135.109 259.414 135.422 258.477 136.047C257.565 136.672 256.849 137.531 256.328 138.625C255.833 139.693 255.482 140.93 255.273 142.336C255.065 143.742 254.961 145.227 254.961 146.789V148.273C254.961 149.836 255.169 151.255 255.586 152.531C256.029 153.807 256.654 154.901 257.461 155.812C258.294 156.698 259.284 157.388 260.43 157.883C261.602 158.378 262.93 158.625 264.414 158.625C266.211 158.625 267.982 158.286 269.727 157.609C271.471 156.932 272.969 155.812 274.219 154.25L280.195 161.359C279.336 162.583 278.112 163.768 276.523 164.914C274.961 166.06 273.086 166.997 270.898 167.727C268.711 168.43 266.263 168.781 263.555 168.781ZM328.555 157.375V139.953C328.555 138.755 328.385 137.727 328.047 136.867C327.708 136.008 327.174 135.344 326.445 134.875C325.716 134.38 324.74 134.133 323.516 134.133C322.526 134.133 321.68 134.302 320.977 134.641C320.273 134.979 319.74 135.487 319.375 136.164C319.01 136.841 318.828 137.701 318.828 138.742H305.664C305.664 136.789 306.094 134.979 306.953 133.312C307.839 131.62 309.089 130.148 310.703 128.898C312.344 127.648 314.297 126.685 316.562 126.008C318.854 125.305 321.406 124.953 324.219 124.953C327.578 124.953 330.573 125.513 333.203 126.633C335.859 127.753 337.956 129.432 339.492 131.672C341.029 133.885 341.797 136.672 341.797 140.031V157.336C341.797 160.096 341.953 162.193 342.266 163.625C342.578 165.031 343.021 166.268 343.594 167.336V168H330.391C329.766 166.698 329.297 165.109 328.984 163.234C328.698 161.333 328.555 159.38 328.555 157.375ZM330.156 142.18L330.234 149.211H324.414C323.19 149.211 322.148 149.38 321.289 149.719C320.456 150.057 319.779 150.526 319.258 151.125C318.763 151.698 318.398 152.349 318.164 153.078C317.956 153.807 317.852 154.576 317.852 155.383C317.852 156.164 318.034 156.867 318.398 157.492C318.789 158.091 319.31 158.56 319.961 158.898C320.612 159.237 321.341 159.406 322.148 159.406C323.607 159.406 324.844 159.133 325.859 158.586C326.901 158.013 327.695 157.323 328.242 156.516C328.789 155.708 329.062 154.953 329.062 154.25L331.953 159.641C331.432 160.682 330.833 161.737 330.156 162.805C329.505 163.872 328.685 164.862 327.695 165.773C326.732 166.659 325.547 167.388 324.141 167.961C322.734 168.508 321.029 168.781 319.023 168.781C316.419 168.781 314.023 168.247 311.836 167.18C309.674 166.112 307.943 164.628 306.641 162.727C305.339 160.799 304.688 158.586 304.688 156.086C304.688 153.898 305.078 151.945 305.859 150.227C306.667 148.508 307.878 147.049 309.492 145.852C311.107 144.654 313.164 143.742 315.664 143.117C318.164 142.492 321.107 142.18 324.492 142.18H330.156ZM363.008 108V168H349.805V108H363.008ZM369.492 147.297V146.477C369.492 143.378 369.935 140.526 370.82 137.922C371.706 135.292 373.008 133.013 374.727 131.086C376.445 129.159 378.568 127.661 381.094 126.594C383.62 125.5 386.536 124.953 389.844 124.953C393.177 124.953 396.107 125.5 398.633 126.594C401.185 127.661 403.32 129.159 405.039 131.086C406.758 133.013 408.06 135.292 408.945 137.922C409.831 140.526 410.273 143.378 410.273 146.477V147.297C410.273 150.37 409.831 153.221 408.945 155.852C408.06 158.456 406.758 160.734 405.039 162.688C403.32 164.615 401.198 166.112 398.672 167.18C396.146 168.247 393.229 168.781 389.922 168.781C386.615 168.781 383.685 168.247 381.133 167.18C378.581 166.112 376.445 164.615 374.727 162.688C373.008 160.734 371.706 158.456 370.82 155.852C369.935 153.221 369.492 150.37 369.492 147.297ZM382.656 146.477V147.297C382.656 148.885 382.773 150.37 383.008 151.75C383.242 153.13 383.633 154.341 384.18 155.383C384.727 156.398 385.469 157.193 386.406 157.766C387.344 158.339 388.516 158.625 389.922 158.625C391.302 158.625 392.448 158.339 393.359 157.766C394.297 157.193 395.039 156.398 395.586 155.383C396.133 154.341 396.523 153.13 396.758 151.75C396.992 150.37 397.109 148.885 397.109 147.297V146.477C397.109 144.94 396.992 143.495 396.758 142.141C396.523 140.76 396.133 139.549 395.586 138.508C395.039 137.44 394.297 136.607 393.359 136.008C392.422 135.409 391.25 135.109 389.844 135.109C388.464 135.109 387.305 135.409 386.367 136.008C385.456 136.607 384.727 137.44 384.18 138.508C383.633 139.549 383.242 140.76 383.008 142.141C382.773 143.495 382.656 144.94 382.656 146.477ZM429.062 134.758V168H415.898V125.734H428.242L429.062 134.758ZM427.5 145.422L424.414 145.5C424.414 142.271 424.805 139.393 425.586 136.867C426.367 134.315 427.474 132.154 428.906 130.383C430.339 128.612 432.044 127.271 434.023 126.359C436.029 125.422 438.255 124.953 440.703 124.953C442.656 124.953 444.44 125.24 446.055 125.812C447.695 126.385 449.102 127.31 450.273 128.586C451.471 129.862 452.383 131.555 453.008 133.664C453.659 135.747 453.984 138.326 453.984 141.398V168H440.742V141.359C440.742 139.667 440.508 138.378 440.039 137.492C439.57 136.581 438.893 135.956 438.008 135.617C437.122 135.279 436.042 135.109 434.766 135.109C433.411 135.109 432.266 135.37 431.328 135.891C430.391 136.411 429.635 137.141 429.062 138.078C428.516 138.99 428.112 140.07 427.852 141.32C427.617 142.57 427.5 143.938 427.5 145.422ZM481.758 168.781C478.32 168.781 475.247 168.247 472.539 167.18C469.831 166.086 467.539 164.589 465.664 162.688C463.815 160.786 462.396 158.599 461.406 156.125C460.443 153.651 459.961 151.034 459.961 148.273V146.789C459.961 143.69 460.391 140.826 461.25 138.195C462.109 135.539 463.385 133.221 465.078 131.242C466.771 129.263 468.893 127.727 471.445 126.633C473.997 125.513 476.966 124.953 480.352 124.953C483.346 124.953 486.029 125.435 488.398 126.398C490.768 127.362 492.773 128.742 494.414 130.539C496.081 132.336 497.344 134.51 498.203 137.062C499.089 139.615 499.531 142.479 499.531 145.656V151.008H465V142.766H486.68V141.75C486.706 140.344 486.458 139.146 485.938 138.156C485.443 137.167 484.714 136.411 483.75 135.891C482.786 135.37 481.615 135.109 480.234 135.109C478.802 135.109 477.617 135.422 476.68 136.047C475.768 136.672 475.052 137.531 474.531 138.625C474.036 139.693 473.685 140.93 473.477 142.336C473.268 143.742 473.164 145.227 473.164 146.789V148.273C473.164 149.836 473.372 151.255 473.789 152.531C474.232 153.807 474.857 154.901 475.664 155.812C476.497 156.698 477.487 157.388 478.633 157.883C479.805 158.378 481.133 158.625 482.617 158.625C484.414 158.625 486.185 158.286 487.93 157.609C489.674 156.932 491.172 155.812 492.422 154.25L498.398 161.359C497.539 162.583 496.315 163.768 494.727 164.914C493.164 166.06 491.289 166.997 489.102 167.727C486.914 168.43 484.466 168.781 481.758 168.781Z" fill="#004E93"/>
<path d="M288.088 119.943C248.648 104.139 153.552 82.0129 88.6935 119.943C60.2085 143.156 40.9263 188.396 191.678 183.655C226.006 183.655 297.73 170.912 310 119.943" stroke="#FFE700" stroke-width="5"/>
</svg>
