<svg width="167" height="50" viewBox="0 0 167 50" fill="none" xmlns="http://www.w3.org/2000/svg">
<path d="M166.154 32.0709C166.154 34.4544 165.273 36.2797 163.534 37.4962C162.07 38.5189 160.026 39.0603 157.623 39.0603C154.569 39.0603 151.602 37.9455 149.689 36.0769C149.531 35.9225 149.44 35.7057 149.442 35.4833C149.443 35.2592 149.533 35.0514 149.694 34.8981L152.157 32.5528C152.313 32.4039 152.517 32.327 152.731 32.3349C152.945 32.3427 153.144 32.436 153.29 32.5966C154.45 33.8771 156.104 34.6117 157.829 34.6117C158.316 34.6117 160.743 34.5095 160.743 32.4904C160.743 31.037 159.421 30.5725 156.406 29.8587C153.401 29.1274 150.331 27.8464 150.331 23.8841C150.331 21.7281 151.226 19.9573 152.92 18.7644C154.362 17.7484 156.341 17.1885 158.491 17.1885C161.434 17.1885 164.151 18.2078 165.759 19.9157C165.91 20.0763 165.989 20.2881 165.98 20.511C165.971 20.7329 165.876 20.9367 165.712 21.0839L163.289 23.2624C162.964 23.5545 162.476 23.5309 162.177 23.2079C161.209 22.1622 159.748 21.5118 158.367 21.5118C156.958 21.5118 155.453 22.0145 155.453 23.4225C155.453 24.7513 156.782 25.1321 159.545 25.8026C160.778 26.1025 162.574 26.6192 163.943 27.6375C165.41 28.7287 166.154 30.2204 166.154 32.0709Z" fill="#0B4E90"/>
<path d="M61.7199 0.486942C61.9581 0.61443 62.0504 0.913212 61.9261 1.15583L42.2469 39.5921L42.2226 39.6269C41.8268 40.1683 41.4012 40.4412 40.9563 40.4412C40.8828 40.4412 40.8099 40.4362 40.7314 40.4216C39.6304 40.1958 39.102 38.288 38.9997 37.8685C38.997 37.8567 38.9942 37.8482 38.9903 37.8364L33.0316 19.6304C32.9465 19.3698 33.0852 19.0884 33.3417 19.0019L33.3499 18.9991C33.6031 18.9137 33.8767 19.0502 33.9651 19.3057L40.5567 38.3694C40.6982 38.7783 41.2509 38.8198 41.4499 38.4368L61.0578 0.693057C61.1838 0.450999 61.4789 0.357769 61.7171 0.485257L61.7199 0.486942Z" fill="#EE2C43"/>
<path d="M132.253 21.841C130.024 17.7731 125.869 17.649 125.869 17.649C119.393 16.874 116.646 21.1558 116.646 21.1558C112.735 27.3639 115.389 33.4485 115.389 33.4485C117.926 39.9998 124.647 39.2546 124.647 39.2546C131.92 38.8822 133.417 32.2366 133.417 32.2366C135.005 25.8442 132.253 21.841 132.253 21.841ZM127.732 31.9878C127.732 31.9878 126.359 35.8371 122.844 34.3174C122.844 34.3174 119.823 33.4777 120.097 27.4881C120.097 27.4881 120.097 25.2826 121.319 23.3309C121.319 23.3309 122.937 21.2799 125.811 22.3975C125.811 22.3975 127.609 23.1428 128.04 25.6555C128.04 25.6555 128.831 29.0426 127.732 31.9878Z" fill="#0B4E90"/>
<path d="M68.4313 21.9194C64.8045 15.5422 57.7171 17.906 57.7171 17.906C49.8134 20.3547 51.0791 29.449 51.0791 29.449C51.9347 41.4138 61.994 39.3032 61.994 39.3032C67.0871 38.4737 69.1012 33.7353 69.1012 33.7353C69.7755 32.5132 69.2626 32.5531 69.2626 32.5531L64.5994 32.6373C63.866 32.6373 63.866 32.8013 63.866 32.8013L63.7875 33.1338C62.4433 35.3292 59.7113 34.708 59.7113 34.708C56.6172 33.9184 56.7001 29.6866 56.7001 29.6866H69.262C69.8341 29.6866 69.7412 28.7627 69.7412 28.7627C70.0441 24.6017 68.4313 21.9194 68.4313 21.9194ZM64.1738 26.1512H56.7786C56.7593 21.4179 60.5083 21.706 60.5083 21.706C64.4773 21.8003 64.1738 26.1512 64.1738 26.1512Z" fill="#0B4E90"/>
<path d="M38.0148 39.9801L37.9026 39.6206L26.2056 2.42661C26.0951 2.07447 25.7729 1.83578 25.4092 1.83578H12.8229C12.4559 1.83578 12.1321 2.07897 12.0243 2.43504L3.91938 29.1537L2.24579 34.7233L1.17409 38.2424L0.621934 40.0643C0.59872 40.1985 0.724737 40.162 0.724737 40.162L10.6121 40.1688C10.8669 40.1688 10.8437 40.0346 10.8437 40.0346L12.1735 35.3119L12.9114 32.7436C12.9412 32.6026 13.0667 32.6425 13.0667 32.6425H24.7238C24.8758 32.6189 24.899 32.7234 24.899 32.7234L24.972 32.9721L27.0756 40.0244C27.1187 40.2092 27.3536 40.162 27.3536 40.162H37.9059C38.0678 40.162 38.0148 39.9801 38.0148 39.9801ZM22.9137 24.5686H14.8657C14.6043 24.5686 14.7138 24.3333 14.7138 24.3333L18.5413 8.99198H18.9613L22.964 24.3333C23.0331 24.5989 22.9137 24.5686 22.9137 24.5686Z" fill="#0B4E90"/>
<path d="M148.283 17.9867V22.7195C148.283 22.7195 148.283 23.1463 147.902 23.1059C147.902 23.1059 145.336 22.8604 143.701 24.2791C142.067 25.7011 141.991 28.7024 142.028 30.3159L141.998 38.6116C141.998 38.6116 142.021 38.7829 141.912 38.7829H136.741C136.741 38.7829 136.579 38.8301 136.606 38.6318V18.8864C136.606 18.4174 136.98 18.0372 137.441 18.0372H141.108C141.57 18.0372 141.944 18.4174 141.944 18.8864V20.054L141.997 21.7714C141.997 21.7714 142.715 19.3413 145.2 18.2456C145.2 18.2456 146.271 17.7177 147.594 17.634C147.594 17.634 148.283 17.5834 148.283 17.9867Z" fill="#0B4E90"/>
<path d="M89.9765 24.8133V38.7831H84.6407V26.0135C84.6407 26.0135 84.7236 22.2489 81.5444 22.2489C81.5444 22.2489 77.823 21.7513 77.823 26.0135V38.7831H72.2556V18.809C72.2556 18.34 72.6297 17.9598 73.0913 17.9598H76.9867C77.4483 17.9598 77.8224 18.34 77.8224 18.809V20.7157C77.8224 20.7157 79.2645 16.9073 84.5611 17.6133C84.5611 17.6133 89.9765 18.1513 89.9765 24.8133Z" fill="#0B4E90"/>
<path d="M111.816 12.9082V10.4668C111.816 9.99789 111.441 9.61768 110.98 9.61768H107.197C106.735 9.61768 106.361 9.99789 106.361 10.4668V12.9082C106.361 15.6343 106.361 19.6005 106.361 19.6005C106.361 19.6005 105.233 17.1165 100.221 17.7078C100.221 17.7078 95.5405 18.0072 93.5226 23.533C93.5226 23.533 91.8915 27.402 93.2578 33.0957C93.2578 33.0957 94.7827 39.1528 100.588 39.3241C100.588 39.3241 104.826 39.61 106.351 36.6957L106.483 38.2115C106.483 38.2115 106.5 38.7827 106.685 38.7827H111.508C111.508 38.7827 111.832 38.8771 111.832 38.3491L111.816 12.9082ZM102.328 34.8339C99.9699 34.8339 98.0509 31.9568 98.0509 28.4174C98.0509 24.8713 99.9693 22.0009 102.328 22.0009C104.69 22.0009 106.606 24.8713 106.606 28.4174C106.606 31.9568 104.69 34.8339 102.328 34.8339Z" fill="#0B4E90"/>
</svg>
