<svg width="772" height="336" viewBox="0 0 772 336" fill="none" xmlns="http://www.w3.org/2000/svg">
<line x1="-4.02752" y1="249.5" x2="104.972" y2="247.5" stroke="white" stroke-width="3"/>
<line x1="297" y1="249.5" x2="356" y2="249.5" stroke="white" stroke-width="3"/>
<path d="M522 164V2H0" stroke="white" stroke-width="3"/>
<rect x="106.5" y="163.5" width="664" height="171" fill="#D5EEFF" stroke="white" stroke-width="3"/>
<path d="M285.084 97.2324L291.324 72.3008H301.725L291.354 104H285.201L285.084 97.2324ZM281.393 72.3008L287.545 97.2324L287.486 104H281.305L270.963 72.3008H281.393ZM320.65 96.0312V82.9648C320.65 82.0664 320.523 81.2949 320.27 80.6504C320.016 80.0059 319.615 79.5078 319.068 79.1562C318.521 78.7852 317.789 78.5996 316.871 78.5996C316.129 78.5996 315.494 78.7266 314.967 78.9805C314.439 79.2344 314.039 79.6152 313.766 80.123C313.492 80.6309 313.355 81.2754 313.355 82.0566H303.482C303.482 80.5918 303.805 79.2344 304.449 77.9844C305.113 76.7148 306.051 75.6113 307.262 74.6738C308.492 73.7363 309.957 73.0137 311.656 72.5059C313.375 71.9785 315.289 71.7148 317.398 71.7148C319.918 71.7148 322.164 72.1348 324.137 72.9746C326.129 73.8145 327.701 75.0742 328.854 76.7539C330.006 78.4141 330.582 80.5039 330.582 83.0234V96.002C330.582 98.0723 330.699 99.6445 330.934 100.719C331.168 101.773 331.5 102.701 331.93 103.502V104H322.027C321.559 103.023 321.207 101.832 320.973 100.426C320.758 99 320.65 97.5352 320.65 96.0312ZM321.852 84.6348L321.91 89.9082H317.545C316.627 89.9082 315.846 90.0352 315.201 90.2891C314.576 90.543 314.068 90.8945 313.678 91.3438C313.307 91.7734 313.033 92.2617 312.857 92.8086C312.701 93.3555 312.623 93.9316 312.623 94.5371C312.623 95.123 312.76 95.6504 313.033 96.1191C313.326 96.5684 313.717 96.9199 314.205 97.1738C314.693 97.4277 315.24 97.5547 315.846 97.5547C316.939 97.5547 317.867 97.3496 318.629 96.9395C319.41 96.5098 320.006 95.9922 320.416 95.3867C320.826 94.7812 321.031 94.2148 321.031 93.6875L323.199 97.7305C322.809 98.5117 322.359 99.3027 321.852 100.104C321.363 100.904 320.748 101.646 320.006 102.33C319.283 102.994 318.395 103.541 317.34 103.971C316.285 104.381 315.006 104.586 313.502 104.586C311.549 104.586 309.752 104.186 308.111 103.385C306.49 102.584 305.191 101.471 304.215 100.045C303.238 98.5996 302.75 96.9395 302.75 95.0645C302.75 93.4238 303.043 91.959 303.629 90.6699C304.234 89.3809 305.143 88.2871 306.354 87.3887C307.564 86.4902 309.107 85.8066 310.982 85.3379C312.857 84.8691 315.064 84.6348 317.604 84.6348H321.852ZM346.49 59V104H336.588V59H346.49ZM371.1 96.2949V72.3008H381.002V104H371.744L371.1 96.2949ZM372.037 89.8496L374.615 89.791C374.615 91.9199 374.361 93.8926 373.854 95.709C373.346 97.5059 372.594 99.0684 371.598 100.396C370.621 101.725 369.41 102.76 367.965 103.502C366.539 104.225 364.889 104.586 363.014 104.586C361.451 104.586 360.016 104.371 358.707 103.941C357.418 103.492 356.305 102.799 355.367 101.861C354.43 100.904 353.697 99.6836 353.17 98.1992C352.662 96.6953 352.408 94.8984 352.408 92.8086V72.3008H362.281V92.8672C362.281 93.5703 362.369 94.1758 362.545 94.6836C362.721 95.1914 362.975 95.6211 363.307 95.9727C363.639 96.3047 364.049 96.5586 364.537 96.7344C365.045 96.8906 365.621 96.9688 366.266 96.9688C367.75 96.9688 368.912 96.6562 369.752 96.0312C370.592 95.4062 371.178 94.5566 371.51 93.4824C371.861 92.4082 372.037 91.1973 372.037 89.8496ZM401.803 104.586C399.225 104.586 396.92 104.186 394.889 103.385C392.857 102.564 391.139 101.441 389.732 100.016C388.346 98.5898 387.281 96.9492 386.539 95.0938C385.816 93.2383 385.455 91.2754 385.455 89.2051V88.0918C385.455 85.7676 385.777 83.6191 386.422 81.6465C387.066 79.6543 388.023 77.916 389.293 76.4316C390.562 74.9473 392.154 73.7949 394.068 72.9746C395.982 72.1348 398.209 71.7148 400.748 71.7148C402.994 71.7148 405.006 72.0762 406.783 72.7988C408.561 73.5215 410.064 74.5566 411.295 75.9043C412.545 77.252 413.492 78.8828 414.137 80.7969C414.801 82.7109 415.133 84.8594 415.133 87.2422V91.2559H389.234V85.0742H405.494V84.3125C405.514 83.2578 405.328 82.3594 404.938 81.6172C404.566 80.875 404.02 80.3086 403.297 79.918C402.574 79.5273 401.695 79.332 400.66 79.332C399.586 79.332 398.697 79.5664 397.994 80.0352C397.311 80.5039 396.773 81.1484 396.383 81.9688C396.012 82.7695 395.748 83.6973 395.592 84.752C395.436 85.8066 395.357 86.9199 395.357 88.0918V89.2051C395.357 90.377 395.514 91.4414 395.826 92.3984C396.158 93.3555 396.627 94.1758 397.232 94.8594C397.857 95.5234 398.6 96.041 399.459 96.4121C400.338 96.7832 401.334 96.9688 402.447 96.9688C403.795 96.9688 405.123 96.7148 406.432 96.207C407.74 95.6992 408.863 94.8594 409.801 93.6875L414.283 99.0195C413.639 99.9375 412.721 100.826 411.529 101.686C410.357 102.545 408.951 103.248 407.311 103.795C405.67 104.322 403.834 104.586 401.803 104.586ZM435.758 95.0938C435.758 94.5469 435.572 94.0781 435.201 93.6875C434.85 93.2773 434.225 92.9062 433.326 92.5742C432.428 92.2227 431.168 91.8711 429.547 91.5195C428.004 91.1875 426.549 90.748 425.182 90.2012C423.834 89.6543 422.652 88.9902 421.637 88.209C420.621 87.4277 419.82 86.5 419.234 85.4258C418.668 84.3516 418.385 83.1211 418.385 81.7344C418.385 80.3867 418.668 79.1172 419.234 77.9258C419.82 76.7148 420.67 75.6504 421.783 74.7324C422.916 73.7949 424.293 73.0625 425.914 72.5352C427.535 71.9883 429.381 71.7148 431.451 71.7148C434.303 71.7148 436.764 72.1543 438.834 73.0332C440.904 73.8926 442.496 75.1035 443.609 76.666C444.742 78.209 445.309 79.9961 445.309 82.0273H435.436C435.436 81.2266 435.299 80.543 435.025 79.9766C434.771 79.4102 434.352 78.9805 433.766 78.6875C433.18 78.375 432.398 78.2188 431.422 78.2188C430.738 78.2188 430.113 78.3457 429.547 78.5996C429 78.8535 428.561 79.2051 428.229 79.6543C427.896 80.1035 427.73 80.6309 427.73 81.2363C427.73 81.666 427.828 82.0566 428.023 82.4082C428.238 82.7402 428.561 83.0527 428.99 83.3457C429.42 83.6191 429.967 83.873 430.631 84.1074C431.295 84.3223 432.096 84.5176 433.033 84.6934C435.162 85.084 437.154 85.6406 439.01 86.3633C440.865 87.0859 442.369 88.1113 443.521 89.4395C444.693 90.7676 445.279 92.5547 445.279 94.8008C445.279 96.207 444.957 97.5059 444.312 98.6973C443.668 99.8691 442.74 100.904 441.529 101.803C440.318 102.682 438.863 103.365 437.164 103.854C435.465 104.342 433.551 104.586 431.422 104.586C428.395 104.586 425.836 104.049 423.746 102.975C421.656 101.881 420.074 100.514 419 98.873C417.945 97.2129 417.418 95.5332 417.418 93.834H426.617C426.656 94.8105 426.891 95.6113 427.32 96.2363C427.77 96.8613 428.365 97.3203 429.107 97.6133C429.85 97.9062 430.709 98.0527 431.686 98.0527C432.584 98.0527 433.326 97.9258 433.912 97.6719C434.518 97.418 434.977 97.0762 435.289 96.6465C435.602 96.1973 435.758 95.6797 435.758 95.0938Z" fill="#014786"/>
<path d="M174.393 231.75H177.571V254.411L177.298 258H174.393V231.75ZM190.064 248.601V248.959C190.064 250.304 189.904 251.551 189.585 252.702C189.266 253.841 188.799 254.833 188.184 255.676C187.569 256.519 186.817 257.174 185.928 257.641C185.04 258.108 184.02 258.342 182.869 258.342C181.696 258.342 180.665 258.142 179.776 257.744C178.899 257.333 178.158 256.747 177.554 255.983C176.95 255.22 176.466 254.297 176.102 253.215C175.748 252.132 175.503 250.913 175.367 249.558V247.985C175.503 246.618 175.748 245.393 176.102 244.311C176.466 243.229 176.95 242.306 177.554 241.542C178.158 240.768 178.899 240.181 179.776 239.782C180.653 239.372 181.673 239.167 182.835 239.167C183.997 239.167 185.028 239.395 185.928 239.851C186.828 240.295 187.58 240.933 188.184 241.765C188.799 242.596 189.266 243.593 189.585 244.755C189.904 245.906 190.064 247.188 190.064 248.601ZM186.885 248.959V248.601C186.885 247.678 186.8 246.812 186.629 246.003C186.458 245.183 186.185 244.465 185.809 243.85C185.433 243.223 184.937 242.733 184.322 242.38C183.707 242.015 182.949 241.833 182.049 241.833C181.251 241.833 180.556 241.97 179.964 242.243C179.383 242.517 178.887 242.887 178.477 243.354C178.067 243.81 177.731 244.334 177.469 244.926C177.218 245.507 177.03 246.111 176.905 246.738V250.856C177.087 251.654 177.383 252.423 177.793 253.164C178.215 253.893 178.773 254.491 179.468 254.958C180.175 255.425 181.046 255.659 182.083 255.659C182.938 255.659 183.667 255.488 184.271 255.146C184.886 254.793 185.381 254.309 185.757 253.693C186.145 253.078 186.43 252.366 186.612 251.557C186.794 250.748 186.885 249.882 186.885 248.959ZM201.736 258.342C200.449 258.342 199.281 258.125 198.233 257.692C197.196 257.248 196.302 256.627 195.55 255.83C194.809 255.032 194.24 254.086 193.841 252.993C193.442 251.899 193.243 250.703 193.243 249.404V248.686C193.243 247.182 193.465 245.843 193.909 244.67C194.354 243.485 194.957 242.482 195.721 241.662C196.484 240.842 197.35 240.221 198.318 239.799C199.287 239.378 200.289 239.167 201.326 239.167C202.648 239.167 203.787 239.395 204.744 239.851C205.713 240.306 206.504 240.944 207.12 241.765C207.735 242.574 208.191 243.531 208.487 244.636C208.783 245.729 208.931 246.926 208.931 248.225V249.643H195.123V247.062H205.77V246.823C205.724 246.003 205.553 245.205 205.257 244.431C204.972 243.656 204.516 243.018 203.89 242.517C203.263 242.015 202.409 241.765 201.326 241.765C200.608 241.765 199.948 241.918 199.344 242.226C198.74 242.522 198.222 242.967 197.789 243.559C197.356 244.152 197.02 244.875 196.78 245.729C196.541 246.584 196.421 247.569 196.421 248.686V249.404C196.421 250.281 196.541 251.107 196.78 251.882C197.031 252.645 197.39 253.317 197.857 253.898C198.335 254.479 198.911 254.935 199.583 255.266C200.267 255.596 201.041 255.761 201.907 255.761C203.024 255.761 203.969 255.533 204.744 255.078C205.519 254.622 206.197 254.012 206.778 253.249L208.692 254.77C208.293 255.374 207.786 255.949 207.171 256.496C206.556 257.043 205.798 257.487 204.898 257.829C204.009 258.171 202.955 258.342 201.736 258.342ZM232.208 254.838V245.319C232.208 244.59 232.059 243.958 231.763 243.422C231.478 242.875 231.045 242.454 230.464 242.158C229.883 241.861 229.166 241.713 228.311 241.713C227.514 241.713 226.813 241.85 226.209 242.124C225.617 242.397 225.149 242.756 224.808 243.2C224.477 243.645 224.312 244.123 224.312 244.636H221.15C221.15 243.975 221.321 243.32 221.663 242.67C222.005 242.021 222.495 241.434 223.133 240.91C223.782 240.375 224.557 239.953 225.457 239.646C226.368 239.326 227.382 239.167 228.499 239.167C229.843 239.167 231.028 239.395 232.054 239.851C233.09 240.306 233.899 240.996 234.48 241.918C235.073 242.83 235.369 243.975 235.369 245.354V253.967C235.369 254.582 235.42 255.237 235.523 255.932C235.637 256.627 235.802 257.225 236.019 257.727V258H232.72C232.561 257.635 232.435 257.151 232.344 256.547C232.253 255.932 232.208 255.362 232.208 254.838ZM232.754 246.789L232.789 249.011H229.593C228.693 249.011 227.889 249.085 227.183 249.233C226.477 249.37 225.884 249.58 225.406 249.865C224.927 250.15 224.563 250.509 224.312 250.942C224.061 251.363 223.936 251.859 223.936 252.429C223.936 253.01 224.067 253.54 224.329 254.018C224.591 254.497 224.984 254.878 225.508 255.163C226.044 255.437 226.699 255.573 227.474 255.573C228.442 255.573 229.297 255.368 230.037 254.958C230.778 254.548 231.364 254.047 231.797 253.454C232.242 252.862 232.481 252.286 232.515 251.728L233.865 253.249C233.785 253.728 233.569 254.257 233.216 254.838C232.863 255.419 232.39 255.978 231.797 256.513C231.216 257.037 230.521 257.476 229.712 257.829C228.915 258.171 228.015 258.342 227.012 258.342C225.759 258.342 224.66 258.097 223.714 257.607C222.78 257.117 222.05 256.462 221.526 255.642C221.014 254.81 220.757 253.881 220.757 252.856C220.757 251.865 220.951 250.993 221.338 250.241C221.726 249.478 222.284 248.846 223.013 248.344C223.742 247.832 224.62 247.444 225.645 247.182C226.67 246.92 227.815 246.789 229.08 246.789H232.754ZM252.168 243.183V258H248.99V239.509H251.998L252.168 243.183ZM251.519 248.054L250.049 248.002C250.061 246.738 250.226 245.57 250.545 244.499C250.864 243.417 251.337 242.477 251.963 241.679C252.59 240.882 253.37 240.266 254.305 239.833C255.239 239.389 256.321 239.167 257.552 239.167C258.418 239.167 259.215 239.292 259.944 239.543C260.674 239.782 261.306 240.164 261.841 240.688C262.377 241.212 262.793 241.884 263.089 242.705C263.385 243.525 263.533 244.516 263.533 245.678V258H260.372V245.832C260.372 244.864 260.206 244.089 259.876 243.508C259.557 242.927 259.101 242.505 258.509 242.243C257.916 241.97 257.221 241.833 256.424 241.833C255.49 241.833 254.709 241.998 254.083 242.329C253.456 242.659 252.955 243.115 252.579 243.696C252.203 244.277 251.929 244.943 251.758 245.695C251.599 246.436 251.519 247.222 251.519 248.054ZM263.499 246.311L261.38 246.96C261.391 245.946 261.556 244.972 261.875 244.038C262.206 243.103 262.679 242.272 263.294 241.542C263.921 240.813 264.69 240.238 265.601 239.816C266.513 239.383 267.555 239.167 268.729 239.167C269.72 239.167 270.597 239.298 271.36 239.56C272.135 239.822 272.785 240.227 273.309 240.773C273.844 241.309 274.249 241.998 274.522 242.841C274.795 243.684 274.932 244.687 274.932 245.849V258H271.753V245.815C271.753 244.778 271.588 243.975 271.258 243.405C270.939 242.824 270.483 242.42 269.891 242.192C269.31 241.953 268.615 241.833 267.806 241.833C267.111 241.833 266.495 241.953 265.96 242.192C265.424 242.431 264.974 242.762 264.61 243.183C264.245 243.593 263.966 244.066 263.772 244.602C263.59 245.137 263.499 245.707 263.499 246.311ZM283.152 239.509V258H279.974V239.509H283.152ZM279.734 234.604C279.734 234.091 279.888 233.658 280.196 233.305C280.515 232.952 280.982 232.775 281.597 232.775C282.201 232.775 282.662 232.952 282.981 233.305C283.312 233.658 283.477 234.091 283.477 234.604C283.477 235.094 283.312 235.515 282.981 235.869C282.662 236.21 282.201 236.381 281.597 236.381C280.982 236.381 280.515 236.21 280.196 235.869C279.888 235.515 279.734 235.094 279.734 234.604ZM298.995 253.095C298.995 252.639 298.892 252.218 298.687 251.831C298.493 251.432 298.089 251.073 297.474 250.754C296.87 250.424 295.958 250.139 294.739 249.899C293.714 249.683 292.785 249.427 291.954 249.13C291.133 248.834 290.433 248.475 289.852 248.054C289.282 247.632 288.843 247.137 288.536 246.567C288.228 245.997 288.074 245.331 288.074 244.567C288.074 243.838 288.234 243.149 288.553 242.5C288.883 241.85 289.345 241.275 289.937 240.773C290.541 240.272 291.264 239.879 292.107 239.594C292.951 239.309 293.89 239.167 294.927 239.167C296.408 239.167 297.673 239.429 298.721 239.953C299.769 240.477 300.573 241.178 301.131 242.055C301.689 242.921 301.968 243.884 301.968 244.943H298.807C298.807 244.431 298.653 243.935 298.345 243.457C298.049 242.967 297.61 242.562 297.029 242.243C296.46 241.924 295.759 241.765 294.927 241.765C294.05 241.765 293.338 241.901 292.791 242.175C292.256 242.437 291.862 242.773 291.612 243.183C291.373 243.593 291.253 244.026 291.253 244.482C291.253 244.824 291.31 245.131 291.424 245.405C291.549 245.667 291.766 245.912 292.073 246.14C292.381 246.356 292.814 246.561 293.372 246.755C293.93 246.949 294.642 247.142 295.508 247.336C297.024 247.678 298.271 248.088 299.251 248.566C300.231 249.045 300.96 249.632 301.438 250.327C301.917 251.022 302.156 251.865 302.156 252.856C302.156 253.665 301.985 254.405 301.644 255.078C301.313 255.75 300.829 256.331 300.191 256.821C299.564 257.299 298.812 257.675 297.935 257.949C297.069 258.211 296.095 258.342 295.013 258.342C293.383 258.342 292.005 258.051 290.877 257.47C289.749 256.889 288.895 256.137 288.313 255.214C287.732 254.292 287.442 253.317 287.442 252.292H290.621C290.666 253.158 290.917 253.847 291.373 254.36C291.828 254.861 292.387 255.22 293.047 255.437C293.708 255.642 294.363 255.744 295.013 255.744C295.879 255.744 296.602 255.63 297.183 255.402C297.776 255.174 298.226 254.861 298.533 254.462C298.841 254.064 298.995 253.608 298.995 253.095ZM317.076 253.095C317.076 252.639 316.973 252.218 316.768 251.831C316.574 251.432 316.17 251.073 315.555 250.754C314.951 250.424 314.039 250.139 312.82 249.899C311.795 249.683 310.866 249.427 310.035 249.13C309.214 248.834 308.514 248.475 307.933 248.054C307.363 247.632 306.924 247.137 306.617 246.567C306.309 245.997 306.155 245.331 306.155 244.567C306.155 243.838 306.315 243.149 306.634 242.5C306.964 241.85 307.426 241.275 308.018 240.773C308.622 240.272 309.345 239.879 310.188 239.594C311.032 239.309 311.972 239.167 313.008 239.167C314.489 239.167 315.754 239.429 316.802 239.953C317.85 240.477 318.654 241.178 319.212 242.055C319.77 242.921 320.049 243.884 320.049 244.943H316.888C316.888 244.431 316.734 243.935 316.426 243.457C316.13 242.967 315.691 242.562 315.11 242.243C314.541 241.924 313.84 241.765 313.008 241.765C312.131 241.765 311.419 241.901 310.872 242.175C310.337 242.437 309.944 242.773 309.693 243.183C309.454 243.593 309.334 244.026 309.334 244.482C309.334 244.824 309.391 245.131 309.505 245.405C309.63 245.667 309.847 245.912 310.154 246.14C310.462 246.356 310.895 246.561 311.453 246.755C312.011 246.949 312.723 247.142 313.589 247.336C315.105 247.678 316.352 248.088 317.332 248.566C318.312 249.045 319.041 249.632 319.52 250.327C319.998 251.022 320.237 251.865 320.237 252.856C320.237 253.665 320.066 254.405 319.725 255.078C319.394 255.75 318.91 256.331 318.272 256.821C317.645 257.299 316.893 257.675 316.016 257.949C315.15 258.211 314.176 258.342 313.094 258.342C311.465 258.342 310.086 258.051 308.958 257.47C307.83 256.889 306.976 256.137 306.395 255.214C305.813 254.292 305.523 253.317 305.523 252.292H308.702C308.747 253.158 308.998 253.847 309.454 254.36C309.909 254.861 310.468 255.22 311.128 255.437C311.789 255.642 312.444 255.744 313.094 255.744C313.96 255.744 314.683 255.63 315.264 255.402C315.857 255.174 316.307 254.861 316.614 254.462C316.922 254.064 317.076 253.608 317.076 253.095ZM327.825 239.509V258H324.646V239.509H327.825ZM324.407 234.604C324.407 234.091 324.561 233.658 324.869 233.305C325.188 232.952 325.655 232.775 326.27 232.775C326.874 232.775 327.335 232.952 327.654 233.305C327.985 233.658 328.15 234.091 328.15 234.604C328.15 235.094 327.985 235.515 327.654 235.869C327.335 236.21 326.874 236.381 326.27 236.381C325.655 236.381 325.188 236.21 324.869 235.869C324.561 235.515 324.407 235.094 324.407 234.604ZM332.063 248.959V248.566C332.063 247.233 332.257 245.997 332.645 244.858C333.032 243.707 333.59 242.71 334.319 241.867C335.049 241.013 335.931 240.352 336.968 239.885C338.005 239.406 339.167 239.167 340.455 239.167C341.753 239.167 342.921 239.406 343.958 239.885C345.006 240.352 345.895 241.013 346.624 241.867C347.365 242.71 347.929 243.707 348.316 244.858C348.703 245.997 348.897 247.233 348.897 248.566V248.959C348.897 250.292 348.703 251.529 348.316 252.668C347.929 253.807 347.365 254.804 346.624 255.659C345.895 256.502 345.012 257.163 343.975 257.641C342.95 258.108 341.788 258.342 340.489 258.342C339.19 258.342 338.022 258.108 336.985 257.641C335.949 257.163 335.06 256.502 334.319 255.659C333.59 254.804 333.032 253.807 332.645 252.668C332.257 251.529 332.063 250.292 332.063 248.959ZM335.225 248.566V248.959C335.225 249.882 335.333 250.754 335.55 251.574C335.766 252.383 336.091 253.101 336.524 253.728C336.968 254.354 337.521 254.85 338.182 255.214C338.842 255.568 339.611 255.744 340.489 255.744C341.355 255.744 342.112 255.568 342.762 255.214C343.423 254.85 343.969 254.354 344.402 253.728C344.835 253.101 345.16 252.383 345.376 251.574C345.604 250.754 345.718 249.882 345.718 248.959V248.566C345.718 247.655 345.604 246.795 345.376 245.986C345.16 245.166 344.83 244.442 344.385 243.815C343.952 243.177 343.405 242.676 342.745 242.312C342.095 241.947 341.332 241.765 340.455 241.765C339.589 241.765 338.825 241.947 338.165 242.312C337.515 242.676 336.968 243.177 336.524 243.815C336.091 244.442 335.766 245.166 335.55 245.986C335.333 246.795 335.225 247.655 335.225 248.566ZM356.023 243.457V258H352.862V239.509H355.853L356.023 243.457ZM355.271 248.054L353.956 248.002C353.967 246.738 354.155 245.57 354.52 244.499C354.884 243.417 355.397 242.477 356.058 241.679C356.718 240.882 357.505 240.266 358.416 239.833C359.339 239.389 360.359 239.167 361.475 239.167C362.387 239.167 363.207 239.292 363.936 239.543C364.665 239.782 365.286 240.17 365.799 240.705C366.323 241.241 366.722 241.936 366.995 242.79C367.269 243.633 367.405 244.664 367.405 245.883V258H364.227V245.849C364.227 244.881 364.084 244.106 363.799 243.525C363.514 242.932 363.099 242.505 362.552 242.243C362.005 241.97 361.333 241.833 360.535 241.833C359.749 241.833 359.031 241.998 358.382 242.329C357.744 242.659 357.191 243.115 356.724 243.696C356.268 244.277 355.91 244.943 355.647 245.695C355.397 246.436 355.271 247.222 355.271 248.054ZM383.111 254.838V245.319C383.111 244.59 382.963 243.958 382.667 243.422C382.382 242.875 381.949 242.454 381.368 242.158C380.787 241.861 380.069 241.713 379.214 241.713C378.417 241.713 377.716 241.85 377.112 242.124C376.52 242.397 376.053 242.756 375.711 243.2C375.381 243.645 375.215 244.123 375.215 244.636H372.054C372.054 243.975 372.225 243.32 372.566 242.67C372.908 242.021 373.398 241.434 374.036 240.91C374.686 240.375 375.46 239.953 376.36 239.646C377.272 239.326 378.286 239.167 379.402 239.167C380.747 239.167 381.932 239.395 382.957 239.851C383.994 240.306 384.803 240.996 385.384 241.918C385.976 242.83 386.272 243.975 386.272 245.354V253.967C386.272 254.582 386.324 255.237 386.426 255.932C386.54 256.627 386.705 257.225 386.922 257.727V258H383.624C383.464 257.635 383.339 257.151 383.248 256.547C383.156 255.932 383.111 255.362 383.111 254.838ZM383.658 246.789L383.692 249.011H380.496C379.596 249.011 378.793 249.085 378.086 249.233C377.38 249.37 376.788 249.58 376.309 249.865C375.831 250.15 375.466 250.509 375.215 250.942C374.965 251.363 374.839 251.859 374.839 252.429C374.839 253.01 374.97 253.54 375.232 254.018C375.494 254.497 375.888 254.878 376.412 255.163C376.947 255.437 377.602 255.573 378.377 255.573C379.345 255.573 380.2 255.368 380.94 254.958C381.681 254.548 382.268 254.047 382.701 253.454C383.145 252.862 383.384 252.286 383.418 251.728L384.769 253.249C384.689 253.728 384.472 254.257 384.119 254.838C383.766 255.419 383.293 255.978 382.701 256.513C382.12 257.037 381.425 257.476 380.616 257.829C379.818 258.171 378.918 258.342 377.916 258.342C376.662 258.342 375.563 258.097 374.617 257.607C373.683 257.117 372.954 256.462 372.43 255.642C371.917 254.81 371.661 253.881 371.661 252.856C371.661 251.865 371.854 250.993 372.242 250.241C372.629 249.478 373.187 248.846 373.917 248.344C374.646 247.832 375.523 247.444 376.548 247.182C377.574 246.92 378.719 246.789 379.983 246.789H383.658ZM394.407 242.414V258H391.246V239.509H394.322L394.407 242.414ZM400.184 239.406L400.167 242.346C399.904 242.289 399.654 242.255 399.415 242.243C399.187 242.22 398.925 242.209 398.628 242.209C397.899 242.209 397.256 242.323 396.697 242.551C396.139 242.779 395.666 243.098 395.279 243.508C394.891 243.918 394.584 244.408 394.356 244.978C394.139 245.536 393.997 246.151 393.929 246.823L393.04 247.336C393.04 246.219 393.148 245.171 393.365 244.191C393.593 243.212 393.94 242.346 394.407 241.594C394.874 240.83 395.467 240.238 396.185 239.816C396.914 239.383 397.78 239.167 398.782 239.167C399.01 239.167 399.272 239.195 399.568 239.252C399.865 239.298 400.07 239.349 400.184 239.406ZM408.609 256.086L413.753 239.509H417.137L409.72 260.854C409.549 261.31 409.321 261.8 409.036 262.324C408.763 262.859 408.41 263.366 407.977 263.845C407.544 264.323 407.02 264.711 406.404 265.007C405.8 265.314 405.077 265.468 404.234 265.468C403.983 265.468 403.664 265.434 403.277 265.366C402.889 265.297 402.616 265.24 402.457 265.195L402.439 262.631C402.531 262.643 402.673 262.654 402.867 262.666C403.072 262.688 403.214 262.7 403.294 262.7C404.012 262.7 404.621 262.603 405.123 262.409C405.624 262.227 406.045 261.914 406.387 261.469C406.74 261.036 407.042 260.438 407.293 259.675L408.609 256.086ZM404.832 239.509L409.634 253.864L410.455 257.197L408.182 258.359L401.38 239.509H404.832Z" fill="#014786"/>
</svg>
