<svg width="640" height="320" viewBox="0 0 640 320" fill="none" xmlns="http://www.w3.org/2000/svg">
<g clip-path="url(#clip0_303_2)">
<path d="M483.054 74.9807L484.853 146.011" stroke="white" stroke-width="3"/>
<path d="M103.744 75.0098V100H93.8711V68.3008H103.129L103.744 75.0098ZM102.543 83.0664L100.287 83.125C100.287 80.8984 100.551 78.8477 101.078 76.9727C101.605 75.0977 102.387 73.4668 103.422 72.0801C104.457 70.6934 105.727 69.6191 107.23 68.8574C108.754 68.0957 110.512 67.7148 112.504 67.7148C113.891 67.7148 115.15 67.9297 116.283 68.3594C117.416 68.7695 118.393 69.4238 119.213 70.3223C120.033 71.2012 120.658 72.3535 121.088 73.7793C121.537 75.1855 121.762 76.875 121.762 78.8477V100H111.889V80.1074C111.889 78.7598 111.732 77.7441 111.42 77.0605C111.127 76.377 110.697 75.918 110.131 75.6836C109.564 75.4492 108.871 75.332 108.051 75.332C107.191 75.332 106.42 75.5273 105.736 75.918C105.053 76.3086 104.467 76.8555 103.979 77.5586C103.51 78.2422 103.148 79.0527 102.895 79.9902C102.66 80.9277 102.543 81.9531 102.543 83.0664ZM120.648 83.0664L117.895 83.125C117.895 80.8984 118.139 78.8477 118.627 76.9727C119.135 75.0977 119.887 73.4668 120.883 72.0801C121.898 70.6934 123.158 69.6191 124.662 68.8574C126.166 68.0957 127.914 67.7148 129.906 67.7148C131.352 67.7148 132.68 67.9297 133.891 68.3594C135.102 68.7891 136.146 69.4824 137.025 70.4395C137.904 71.3965 138.588 72.666 139.076 74.248C139.564 75.8105 139.809 77.7441 139.809 80.0488V100H129.906V80.0488C129.906 78.7402 129.75 77.7539 129.438 77.0898C129.145 76.4062 128.715 75.9473 128.148 75.7129C127.582 75.459 126.908 75.332 126.127 75.332C125.189 75.332 124.379 75.5273 123.695 75.918C123.012 76.3086 122.436 76.8555 121.967 77.5586C121.518 78.2422 121.186 79.0527 120.971 79.9902C120.756 80.9277 120.648 81.9531 120.648 83.0664ZM155.893 68.3008V100H145.99V68.3008H155.893ZM145.404 60.127C145.404 58.7207 145.912 57.5684 146.928 56.6699C147.943 55.7715 149.262 55.3223 150.883 55.3223C152.504 55.3223 153.822 55.7715 154.838 56.6699C155.854 57.5684 156.361 58.7207 156.361 60.127C156.361 61.5332 155.854 62.6855 154.838 63.584C153.822 64.4824 152.504 64.9316 150.883 64.9316C149.262 64.9316 147.943 64.4824 146.928 63.584C145.912 62.6855 145.404 61.5332 145.404 60.127ZM178.598 91.0938C178.598 90.5469 178.412 90.0781 178.041 89.6875C177.689 89.2773 177.064 88.9062 176.166 88.5742C175.268 88.2227 174.008 87.8711 172.387 87.5195C170.844 87.1875 169.389 86.748 168.021 86.2012C166.674 85.6543 165.492 84.9902 164.477 84.209C163.461 83.4277 162.66 82.5 162.074 81.4258C161.508 80.3516 161.225 79.1211 161.225 77.7344C161.225 76.3867 161.508 75.1172 162.074 73.9258C162.66 72.7148 163.51 71.6504 164.623 70.7324C165.756 69.7949 167.133 69.0625 168.754 68.5352C170.375 67.9883 172.221 67.7148 174.291 67.7148C177.143 67.7148 179.604 68.1543 181.674 69.0332C183.744 69.8926 185.336 71.1035 186.449 72.666C187.582 74.209 188.148 75.9961 188.148 78.0273H178.275C178.275 77.2266 178.139 76.543 177.865 75.9766C177.611 75.4102 177.191 74.9805 176.605 74.6875C176.02 74.375 175.238 74.2188 174.262 74.2188C173.578 74.2188 172.953 74.3457 172.387 74.5996C171.84 74.8535 171.4 75.2051 171.068 75.6543C170.736 76.1035 170.57 76.6309 170.57 77.2363C170.57 77.666 170.668 78.0566 170.863 78.4082C171.078 78.7402 171.4 79.0527 171.83 79.3457C172.26 79.6191 172.807 79.873 173.471 80.1074C174.135 80.3223 174.936 80.5176 175.873 80.6934C178.002 81.084 179.994 81.6406 181.85 82.3633C183.705 83.0859 185.209 84.1113 186.361 85.4395C187.533 86.7676 188.119 88.5547 188.119 90.8008C188.119 92.207 187.797 93.5059 187.152 94.6973C186.508 95.8691 185.58 96.9043 184.369 97.8027C183.158 98.6816 181.703 99.3652 180.004 99.8535C178.305 100.342 176.391 100.586 174.262 100.586C171.234 100.586 168.676 100.049 166.586 98.9746C164.496 97.8809 162.914 96.5137 161.84 94.873C160.785 93.2129 160.258 91.5332 160.258 89.834H169.457C169.496 90.8105 169.73 91.6113 170.16 92.2363C170.609 92.8613 171.205 93.3203 171.947 93.6133C172.689 93.9062 173.549 94.0527 174.525 94.0527C175.424 94.0527 176.166 93.9258 176.752 93.6719C177.357 93.418 177.816 93.0762 178.129 92.6465C178.441 92.1973 178.598 91.6797 178.598 91.0938ZM209.359 91.0938C209.359 90.5469 209.174 90.0781 208.803 89.6875C208.451 89.2773 207.826 88.9062 206.928 88.5742C206.029 88.2227 204.77 87.8711 203.148 87.5195C201.605 87.1875 200.15 86.748 198.783 86.2012C197.436 85.6543 196.254 84.9902 195.238 84.209C194.223 83.4277 193.422 82.5 192.836 81.4258C192.27 80.3516 191.986 79.1211 191.986 77.7344C191.986 76.3867 192.27 75.1172 192.836 73.9258C193.422 72.7148 194.271 71.6504 195.385 70.7324C196.518 69.7949 197.895 69.0625 199.516 68.5352C201.137 67.9883 202.982 67.7148 205.053 67.7148C207.904 67.7148 210.365 68.1543 212.436 69.0332C214.506 69.8926 216.098 71.1035 217.211 72.666C218.344 74.209 218.91 75.9961 218.91 78.0273H209.037C209.037 77.2266 208.9 76.543 208.627 75.9766C208.373 75.4102 207.953 74.9805 207.367 74.6875C206.781 74.375 206 74.2188 205.023 74.2188C204.34 74.2188 203.715 74.3457 203.148 74.5996C202.602 74.8535 202.162 75.2051 201.83 75.6543C201.498 76.1035 201.332 76.6309 201.332 77.2363C201.332 77.666 201.43 78.0566 201.625 78.4082C201.84 78.7402 202.162 79.0527 202.592 79.3457C203.021 79.6191 203.568 79.873 204.232 80.1074C204.896 80.3223 205.697 80.5176 206.635 80.6934C208.764 81.084 210.756 81.6406 212.611 82.3633C214.467 83.0859 215.971 84.1113 217.123 85.4395C218.295 86.7676 218.881 88.5547 218.881 90.8008C218.881 92.207 218.559 93.5059 217.914 94.6973C217.27 95.8691 216.342 96.9043 215.131 97.8027C213.92 98.6816 212.465 99.3652 210.766 99.8535C209.066 100.342 207.152 100.586 205.023 100.586C201.996 100.586 199.438 100.049 197.348 98.9746C195.258 97.8809 193.676 96.5137 192.602 94.873C191.547 93.2129 191.02 91.5332 191.02 89.834H200.219C200.258 90.8105 200.492 91.6113 200.922 92.2363C201.371 92.8613 201.967 93.3203 202.709 93.6133C203.451 93.9062 204.311 94.0527 205.287 94.0527C206.186 94.0527 206.928 93.9258 207.514 93.6719C208.119 93.418 208.578 93.0762 208.891 92.6465C209.203 92.1973 209.359 91.6797 209.359 91.0938ZM233.939 68.3008V100H224.037V68.3008H233.939ZM223.451 60.127C223.451 58.7207 223.959 57.5684 224.975 56.6699C225.99 55.7715 227.309 55.3223 228.93 55.3223C230.551 55.3223 231.869 55.7715 232.885 56.6699C233.9 57.5684 234.408 58.7207 234.408 60.127C234.408 61.5332 233.9 62.6855 232.885 63.584C231.869 64.4824 230.551 64.9316 228.93 64.9316C227.309 64.9316 225.99 64.4824 224.975 63.584C223.959 62.6855 223.451 61.5332 223.451 60.127ZM238.803 84.4727V83.8574C238.803 81.5332 239.135 79.3945 239.799 77.4414C240.463 75.4688 241.439 73.7598 242.729 72.3145C244.018 70.8691 245.609 69.7461 247.504 68.9453C249.398 68.125 251.586 67.7148 254.066 67.7148C256.566 67.7148 258.764 68.125 260.658 68.9453C262.572 69.7461 264.174 70.8691 265.463 72.3145C266.752 73.7598 267.729 75.4688 268.393 77.4414C269.057 79.3945 269.389 81.5332 269.389 83.8574V84.4727C269.389 86.7773 269.057 88.916 268.393 90.8887C267.729 92.8418 266.752 94.5508 265.463 96.0156C264.174 97.4609 262.582 98.584 260.688 99.3848C258.793 100.186 256.605 100.586 254.125 100.586C251.645 100.586 249.447 100.186 247.533 99.3848C245.619 98.584 244.018 97.4609 242.729 96.0156C241.439 94.5508 240.463 92.8418 239.799 90.8887C239.135 88.916 238.803 86.7773 238.803 84.4727ZM248.676 83.8574V84.4727C248.676 85.6641 248.764 86.7773 248.939 87.8125C249.115 88.8477 249.408 89.7559 249.818 90.5371C250.229 91.2988 250.785 91.8945 251.488 92.3242C252.191 92.7539 253.07 92.9688 254.125 92.9688C255.16 92.9688 256.02 92.7539 256.703 92.3242C257.406 91.8945 257.963 91.2988 258.373 90.5371C258.783 89.7559 259.076 88.8477 259.252 87.8125C259.428 86.7773 259.516 85.6641 259.516 84.4727V83.8574C259.516 82.7051 259.428 81.6211 259.252 80.6055C259.076 79.5703 258.783 78.6621 258.373 77.8809C257.963 77.0801 257.406 76.4551 256.703 76.0059C256 75.5566 255.121 75.332 254.066 75.332C253.031 75.332 252.162 75.5566 251.459 76.0059C250.775 76.4551 250.229 77.0801 249.818 77.8809C249.408 78.6621 249.115 79.5703 248.939 80.6055C248.764 81.6211 248.676 82.7051 248.676 83.8574ZM283.48 75.0684V100H273.607V68.3008H282.865L283.48 75.0684ZM282.309 83.0664L279.994 83.125C279.994 80.7031 280.287 78.5449 280.873 76.6504C281.459 74.7363 282.289 73.1152 283.363 71.7871C284.438 70.459 285.717 69.4531 287.201 68.7695C288.705 68.0664 290.375 67.7148 292.211 67.7148C293.676 67.7148 295.014 67.9297 296.225 68.3594C297.455 68.7891 298.51 69.4824 299.389 70.4395C300.287 71.3965 300.971 72.666 301.439 74.248C301.928 75.8105 302.172 77.7441 302.172 80.0488V100H292.24V80.0195C292.24 78.75 292.064 77.7832 291.713 77.1191C291.361 76.4355 290.854 75.9668 290.189 75.7129C289.525 75.459 288.715 75.332 287.758 75.332C286.742 75.332 285.883 75.5273 285.18 75.918C284.477 76.3086 283.91 76.8555 283.48 77.5586C283.07 78.2422 282.768 79.0527 282.572 79.9902C282.396 80.9277 282.309 81.9531 282.309 83.0664Z" fill="#014786"/>
<path d="M721.5 147.5H1.5V318.5H721.5V147.5Z" fill="#D5EEFF" stroke="white" stroke-width="3"/>
<path d="M97.4258 198.117V223H94.1274V198.117H97.4258ZM106.107 208.457V223H102.946V204.509H105.937L106.107 208.457ZM105.355 213.054L104.04 213.002C104.051 211.738 104.239 210.57 104.604 209.499C104.968 208.417 105.481 207.477 106.142 206.679C106.802 205.882 107.589 205.266 108.5 204.833C109.423 204.389 110.443 204.167 111.559 204.167C112.471 204.167 113.291 204.292 114.02 204.543C114.749 204.782 115.37 205.17 115.883 205.705C116.407 206.241 116.806 206.936 117.079 207.79C117.353 208.633 117.489 209.664 117.489 210.883V223H114.311V210.849C114.311 209.881 114.168 209.106 113.883 208.525C113.598 207.932 113.183 207.505 112.636 207.243C112.089 206.97 111.417 206.833 110.619 206.833C109.833 206.833 109.115 206.998 108.466 207.329C107.828 207.659 107.275 208.115 106.808 208.696C106.352 209.277 105.993 209.943 105.731 210.695C105.481 211.436 105.355 212.222 105.355 213.054ZM133.058 218.095C133.058 217.639 132.956 217.218 132.75 216.831C132.557 216.432 132.152 216.073 131.537 215.754C130.933 215.424 130.022 215.139 128.803 214.899C127.777 214.683 126.849 214.427 126.017 214.13C125.197 213.834 124.496 213.475 123.915 213.054C123.345 212.632 122.907 212.137 122.599 211.567C122.292 210.997 122.138 210.331 122.138 209.567C122.138 208.838 122.297 208.149 122.616 207.5C122.947 206.85 123.408 206.275 124 205.773C124.604 205.272 125.328 204.879 126.171 204.594C127.014 204.309 127.954 204.167 128.991 204.167C130.472 204.167 131.736 204.429 132.785 204.953C133.833 205.477 134.636 206.178 135.194 207.055C135.753 207.921 136.032 208.884 136.032 209.943H132.87C132.87 209.431 132.716 208.935 132.409 208.457C132.112 207.967 131.674 207.562 131.093 207.243C130.523 206.924 129.822 206.765 128.991 206.765C128.113 206.765 127.401 206.901 126.854 207.175C126.319 207.437 125.926 207.773 125.675 208.183C125.436 208.593 125.316 209.026 125.316 209.482C125.316 209.824 125.373 210.131 125.487 210.405C125.613 210.667 125.829 210.912 126.137 211.14C126.444 211.356 126.877 211.561 127.436 211.755C127.994 211.949 128.706 212.142 129.572 212.336C131.087 212.678 132.335 213.088 133.314 213.566C134.294 214.045 135.023 214.632 135.502 215.327C135.98 216.022 136.22 216.865 136.22 217.856C136.22 218.665 136.049 219.405 135.707 220.078C135.377 220.75 134.892 221.331 134.254 221.821C133.628 222.299 132.876 222.675 131.999 222.949C131.133 223.211 130.159 223.342 129.076 223.342C127.447 223.342 126.068 223.051 124.94 222.47C123.812 221.889 122.958 221.137 122.377 220.214C121.796 219.292 121.505 218.317 121.505 217.292H124.684C124.73 218.158 124.98 218.847 125.436 219.36C125.892 219.861 126.45 220.22 127.111 220.437C127.772 220.642 128.427 220.744 129.076 220.744C129.942 220.744 130.666 220.63 131.247 220.402C131.839 220.174 132.289 219.861 132.597 219.462C132.904 219.064 133.058 218.608 133.058 218.095ZM143.534 208.063V230.109H140.355V204.509H143.261L143.534 208.063ZM155.993 213.601V213.959C155.993 215.304 155.833 216.551 155.514 217.702C155.195 218.841 154.728 219.833 154.113 220.676C153.509 221.519 152.763 222.174 151.874 222.641C150.985 223.108 149.966 223.342 148.815 223.342C147.641 223.342 146.605 223.148 145.705 222.761C144.805 222.373 144.041 221.809 143.415 221.069C142.788 220.328 142.287 219.44 141.911 218.403C141.546 217.366 141.295 216.198 141.159 214.899V212.985C141.295 211.618 141.552 210.393 141.928 209.311C142.304 208.229 142.799 207.306 143.415 206.542C144.041 205.768 144.799 205.181 145.688 204.782C146.576 204.372 147.602 204.167 148.764 204.167C149.926 204.167 150.957 204.395 151.857 204.851C152.757 205.295 153.515 205.933 154.13 206.765C154.745 207.596 155.207 208.593 155.514 209.755C155.833 210.906 155.993 212.188 155.993 213.601ZM152.814 213.959V213.601C152.814 212.678 152.717 211.812 152.523 211.003C152.33 210.183 152.028 209.465 151.618 208.85C151.219 208.223 150.706 207.733 150.08 207.38C149.453 207.015 148.707 206.833 147.841 206.833C147.043 206.833 146.348 206.97 145.756 207.243C145.175 207.517 144.679 207.887 144.269 208.354C143.859 208.81 143.523 209.334 143.261 209.926C143.01 210.507 142.822 211.111 142.697 211.738V216.164C142.925 216.962 143.244 217.714 143.654 218.42C144.064 219.115 144.611 219.679 145.294 220.112C145.978 220.533 146.838 220.744 147.875 220.744C148.729 220.744 149.464 220.568 150.08 220.214C150.706 219.85 151.219 219.354 151.618 218.728C152.028 218.101 152.33 217.383 152.523 216.574C152.717 215.754 152.814 214.882 152.814 213.959ZM163.461 204.509V223H160.282V204.509H163.461ZM160.043 199.604C160.043 199.091 160.197 198.658 160.504 198.305C160.823 197.952 161.291 197.775 161.906 197.775C162.51 197.775 162.971 197.952 163.29 198.305C163.62 198.658 163.786 199.091 163.786 199.604C163.786 200.094 163.62 200.515 163.29 200.869C162.971 201.21 162.51 201.381 161.906 201.381C161.291 201.381 160.823 201.21 160.504 200.869C160.197 200.515 160.043 200.094 160.043 199.604ZM171.698 207.414V223H168.537V204.509H171.613L171.698 207.414ZM177.475 204.406L177.458 207.346C177.195 207.289 176.945 207.255 176.706 207.243C176.478 207.22 176.216 207.209 175.919 207.209C175.19 207.209 174.547 207.323 173.988 207.551C173.43 207.779 172.957 208.098 172.57 208.508C172.182 208.918 171.875 209.408 171.647 209.978C171.431 210.536 171.288 211.151 171.22 211.823L170.331 212.336C170.331 211.219 170.439 210.171 170.656 209.191C170.884 208.212 171.231 207.346 171.698 206.594C172.165 205.83 172.758 205.238 173.476 204.816C174.205 204.383 175.071 204.167 176.073 204.167C176.301 204.167 176.563 204.195 176.859 204.252C177.156 204.298 177.361 204.349 177.475 204.406ZM187.729 223.342C186.441 223.342 185.273 223.125 184.225 222.692C183.188 222.248 182.294 221.627 181.542 220.83C180.801 220.032 180.232 219.086 179.833 217.993C179.434 216.899 179.235 215.703 179.235 214.404V213.686C179.235 212.182 179.457 210.843 179.901 209.67C180.346 208.485 180.95 207.482 181.713 206.662C182.476 205.842 183.342 205.221 184.311 204.799C185.279 204.378 186.282 204.167 187.318 204.167C188.64 204.167 189.779 204.395 190.736 204.851C191.705 205.306 192.497 205.944 193.112 206.765C193.727 207.574 194.183 208.531 194.479 209.636C194.775 210.729 194.923 211.926 194.923 213.225V214.643H181.115V212.062H191.762V211.823C191.716 211.003 191.545 210.205 191.249 209.431C190.964 208.656 190.508 208.018 189.882 207.517C189.255 207.015 188.401 206.765 187.318 206.765C186.601 206.765 185.94 206.918 185.336 207.226C184.732 207.522 184.214 207.967 183.781 208.559C183.348 209.152 183.012 209.875 182.772 210.729C182.533 211.584 182.414 212.569 182.414 213.686V214.404C182.414 215.281 182.533 216.107 182.772 216.882C183.023 217.645 183.382 218.317 183.849 218.898C184.328 219.479 184.903 219.935 185.575 220.266C186.259 220.596 187.034 220.761 187.899 220.761C189.016 220.761 189.962 220.533 190.736 220.078C191.511 219.622 192.189 219.012 192.77 218.249L194.684 219.77C194.285 220.374 193.778 220.949 193.163 221.496C192.548 222.043 191.79 222.487 190.89 222.829C190.001 223.171 188.948 223.342 187.729 223.342ZM218.2 219.838V210.319C218.2 209.59 218.052 208.958 217.755 208.422C217.471 207.875 217.038 207.454 216.457 207.158C215.875 206.861 215.158 206.713 214.303 206.713C213.506 206.713 212.805 206.85 212.201 207.124C211.609 207.397 211.142 207.756 210.8 208.2C210.469 208.645 210.304 209.123 210.304 209.636H207.143C207.143 208.975 207.313 208.32 207.655 207.67C207.997 207.021 208.487 206.434 209.125 205.91C209.774 205.375 210.549 204.953 211.449 204.646C212.361 204.326 213.375 204.167 214.491 204.167C215.836 204.167 217.021 204.395 218.046 204.851C219.083 205.306 219.892 205.996 220.473 206.918C221.065 207.83 221.361 208.975 221.361 210.354V218.967C221.361 219.582 221.413 220.237 221.515 220.932C221.629 221.627 221.794 222.225 222.011 222.727V223H218.712C218.553 222.635 218.428 222.151 218.336 221.547C218.245 220.932 218.2 220.362 218.2 219.838ZM218.747 211.789L218.781 214.011H215.585C214.685 214.011 213.882 214.085 213.175 214.233C212.469 214.37 211.876 214.58 211.398 214.865C210.919 215.15 210.555 215.509 210.304 215.942C210.054 216.363 209.928 216.859 209.928 217.429C209.928 218.01 210.059 218.54 210.321 219.018C210.583 219.497 210.976 219.878 211.5 220.163C212.036 220.437 212.691 220.573 213.466 220.573C214.434 220.573 215.289 220.368 216.029 219.958C216.77 219.548 217.357 219.047 217.79 218.454C218.234 217.862 218.473 217.286 218.507 216.728L219.857 218.249C219.778 218.728 219.561 219.257 219.208 219.838C218.855 220.419 218.382 220.978 217.79 221.513C217.208 222.037 216.514 222.476 215.705 222.829C214.907 223.171 214.007 223.342 213.004 223.342C211.751 223.342 210.652 223.097 209.706 222.607C208.772 222.117 208.043 221.462 207.519 220.642C207.006 219.81 206.75 218.881 206.75 217.856C206.75 216.865 206.943 215.993 207.331 215.241C207.718 214.478 208.276 213.846 209.005 213.344C209.735 212.832 210.612 212.444 211.637 212.182C212.663 211.92 213.808 211.789 215.072 211.789H218.747ZM229.496 208.457V223H226.334V204.509H229.325L229.496 208.457ZM228.744 213.054L227.428 213.002C227.44 211.738 227.628 210.57 227.992 209.499C228.357 208.417 228.869 207.477 229.53 206.679C230.191 205.882 230.977 205.266 231.889 204.833C232.812 204.389 233.831 204.167 234.948 204.167C235.859 204.167 236.68 204.292 237.409 204.543C238.138 204.782 238.759 205.17 239.271 205.705C239.796 206.241 240.194 206.936 240.468 207.79C240.741 208.633 240.878 209.664 240.878 210.883V223H237.699V210.849C237.699 209.881 237.557 209.106 237.272 208.525C236.987 207.932 236.571 207.505 236.024 207.243C235.478 206.97 234.805 206.833 234.008 206.833C233.222 206.833 232.504 206.998 231.854 207.329C231.216 207.659 230.664 208.115 230.197 208.696C229.741 209.277 229.382 209.943 229.12 210.695C228.869 211.436 228.744 212.222 228.744 213.054ZM257.335 219.411V196.75H260.514V223H257.609L257.335 219.411ZM244.894 213.959V213.601C244.894 212.188 245.065 210.906 245.407 209.755C245.76 208.593 246.256 207.596 246.894 206.765C247.543 205.933 248.312 205.295 249.201 204.851C250.101 204.395 251.103 204.167 252.208 204.167C253.371 204.167 254.385 204.372 255.25 204.782C256.128 205.181 256.868 205.768 257.472 206.542C258.087 207.306 258.572 208.229 258.925 209.311C259.278 210.393 259.523 211.618 259.66 212.985V214.558C259.534 215.913 259.289 217.132 258.925 218.215C258.572 219.297 258.087 220.22 257.472 220.983C256.868 221.747 256.128 222.333 255.25 222.744C254.373 223.142 253.348 223.342 252.174 223.342C251.092 223.342 250.101 223.108 249.201 222.641C248.312 222.174 247.543 221.519 246.894 220.676C246.256 219.833 245.76 218.841 245.407 217.702C245.065 216.551 244.894 215.304 244.894 213.959ZM248.073 213.601V213.959C248.073 214.882 248.164 215.748 248.346 216.557C248.54 217.366 248.836 218.078 249.235 218.693C249.634 219.309 250.141 219.793 250.756 220.146C251.371 220.488 252.106 220.659 252.96 220.659C254.009 220.659 254.869 220.437 255.541 219.992C256.225 219.548 256.771 218.961 257.182 218.232C257.592 217.503 257.911 216.711 258.139 215.856V211.738C258.002 211.111 257.803 210.507 257.541 209.926C257.29 209.334 256.959 208.81 256.549 208.354C256.151 207.887 255.655 207.517 255.062 207.243C254.481 206.97 253.792 206.833 252.995 206.833C252.129 206.833 251.382 207.015 250.756 207.38C250.141 207.733 249.634 208.223 249.235 208.85C248.836 209.465 248.54 210.183 248.346 211.003C248.164 211.812 248.073 212.678 248.073 213.601ZM281.791 223.342C280.504 223.342 279.336 223.125 278.288 222.692C277.251 222.248 276.356 221.627 275.604 220.83C274.864 220.032 274.294 219.086 273.896 217.993C273.497 216.899 273.297 215.703 273.297 214.404V213.686C273.297 212.182 273.52 210.843 273.964 209.67C274.408 208.485 275.012 207.482 275.775 206.662C276.539 205.842 277.405 205.221 278.373 204.799C279.341 204.378 280.344 204.167 281.381 204.167C282.702 204.167 283.842 204.395 284.799 204.851C285.767 205.306 286.559 205.944 287.174 206.765C287.79 207.574 288.245 208.531 288.542 209.636C288.838 210.729 288.986 211.926 288.986 213.225V214.643H275.177V212.062H285.824V211.823C285.779 211.003 285.608 210.205 285.312 209.431C285.027 208.656 284.571 208.018 283.944 207.517C283.318 207.015 282.463 206.765 281.381 206.765C280.663 206.765 280.002 206.918 279.398 207.226C278.795 207.522 278.276 207.967 277.843 208.559C277.41 209.152 277.074 209.875 276.835 210.729C276.596 211.584 276.476 212.569 276.476 213.686V214.404C276.476 215.281 276.596 216.107 276.835 216.882C277.086 217.645 277.444 218.317 277.912 218.898C278.39 219.479 278.965 219.935 279.638 220.266C280.321 220.596 281.096 220.761 281.962 220.761C283.078 220.761 284.024 220.533 284.799 220.078C285.574 219.622 286.251 219.012 286.833 218.249L288.747 219.77C288.348 220.374 287.841 220.949 287.226 221.496C286.61 222.043 285.853 222.487 284.953 222.829C284.064 223.171 283.01 223.342 281.791 223.342ZM295.822 208.183V223H292.643V204.509H295.651L295.822 208.183ZM295.172 213.054L293.703 213.002C293.714 211.738 293.879 210.57 294.198 209.499C294.517 208.417 294.99 207.477 295.617 206.679C296.243 205.882 297.024 205.266 297.958 204.833C298.892 204.389 299.975 204.167 301.205 204.167C302.071 204.167 302.868 204.292 303.598 204.543C304.327 204.782 304.959 205.164 305.495 205.688C306.03 206.212 306.446 206.884 306.742 207.705C307.038 208.525 307.187 209.516 307.187 210.678V223H304.025V210.832C304.025 209.864 303.86 209.089 303.529 208.508C303.21 207.927 302.755 207.505 302.162 207.243C301.57 206.97 300.875 206.833 300.077 206.833C299.143 206.833 298.362 206.998 297.736 207.329C297.109 207.659 296.608 208.115 296.232 208.696C295.856 209.277 295.583 209.943 295.412 210.695C295.252 211.436 295.172 212.222 295.172 213.054ZM307.152 211.311L305.033 211.96C305.045 210.946 305.21 209.972 305.529 209.038C305.859 208.103 306.332 207.272 306.947 206.542C307.574 205.813 308.343 205.238 309.254 204.816C310.166 204.383 311.208 204.167 312.382 204.167C313.373 204.167 314.25 204.298 315.014 204.56C315.788 204.822 316.438 205.227 316.962 205.773C317.497 206.309 317.902 206.998 318.175 207.841C318.449 208.684 318.585 209.687 318.585 210.849V223H315.407V210.815C315.407 209.778 315.242 208.975 314.911 208.405C314.592 207.824 314.136 207.42 313.544 207.192C312.963 206.953 312.268 206.833 311.459 206.833C310.764 206.833 310.149 206.953 309.613 207.192C309.078 207.431 308.628 207.762 308.263 208.183C307.899 208.593 307.619 209.066 307.426 209.602C307.243 210.137 307.152 210.707 307.152 211.311ZM326.532 208.063V230.109H323.354V204.509H326.259L326.532 208.063ZM338.991 213.601V213.959C338.991 215.304 338.831 216.551 338.512 217.702C338.193 218.841 337.726 219.833 337.111 220.676C336.507 221.519 335.761 222.174 334.872 222.641C333.983 223.108 332.964 223.342 331.813 223.342C330.639 223.342 329.603 223.148 328.703 222.761C327.803 222.373 327.039 221.809 326.413 221.069C325.786 220.328 325.285 219.44 324.909 218.403C324.544 217.366 324.293 216.198 324.157 214.899V212.985C324.293 211.618 324.55 210.393 324.926 209.311C325.302 208.229 325.797 207.306 326.413 206.542C327.039 205.768 327.797 205.181 328.686 204.782C329.574 204.372 330.6 204.167 331.762 204.167C332.924 204.167 333.955 204.395 334.855 204.851C335.755 205.295 336.513 205.933 337.128 206.765C337.743 207.596 338.205 208.593 338.512 209.755C338.831 210.906 338.991 212.188 338.991 213.601ZM335.812 213.959V213.601C335.812 212.678 335.715 211.812 335.521 211.003C335.328 210.183 335.026 209.465 334.616 208.85C334.217 208.223 333.704 207.733 333.078 207.38C332.451 207.015 331.705 206.833 330.839 206.833C330.041 206.833 329.346 206.97 328.754 207.243C328.173 207.517 327.677 207.887 327.267 208.354C326.857 208.81 326.521 209.334 326.259 209.926C326.008 210.507 325.82 211.111 325.695 211.738V216.164C325.923 216.962 326.242 217.714 326.652 218.42C327.062 219.115 327.609 219.679 328.292 220.112C328.976 220.533 329.836 220.744 330.873 220.744C331.728 220.744 332.462 220.568 333.078 220.214C333.704 219.85 334.217 219.354 334.616 218.728C335.026 218.101 335.328 217.383 335.521 216.574C335.715 215.754 335.812 214.882 335.812 213.959ZM342.187 213.959V213.566C342.187 212.233 342.38 210.997 342.768 209.858C343.155 208.707 343.713 207.71 344.442 206.867C345.172 206.013 346.055 205.352 347.091 204.885C348.128 204.406 349.29 204.167 350.578 204.167C351.876 204.167 353.044 204.406 354.081 204.885C355.129 205.352 356.018 206.013 356.747 206.867C357.488 207.71 358.052 208.707 358.439 209.858C358.826 210.997 359.02 212.233 359.02 213.566V213.959C359.02 215.292 358.826 216.529 358.439 217.668C358.052 218.807 357.488 219.804 356.747 220.659C356.018 221.502 355.135 222.163 354.098 222.641C353.073 223.108 351.911 223.342 350.612 223.342C349.313 223.342 348.145 223.108 347.108 222.641C346.072 222.163 345.183 221.502 344.442 220.659C343.713 219.804 343.155 218.807 342.768 217.668C342.38 216.529 342.187 215.292 342.187 213.959ZM345.348 213.566V213.959C345.348 214.882 345.456 215.754 345.673 216.574C345.889 217.383 346.214 218.101 346.647 218.728C347.091 219.354 347.644 219.85 348.305 220.214C348.965 220.568 349.735 220.744 350.612 220.744C351.478 220.744 352.235 220.568 352.885 220.214C353.546 219.85 354.092 219.354 354.525 218.728C354.958 218.101 355.283 217.383 355.5 216.574C355.727 215.754 355.841 214.882 355.841 213.959V213.566C355.841 212.655 355.727 211.795 355.5 210.986C355.283 210.166 354.953 209.442 354.508 208.815C354.075 208.177 353.528 207.676 352.868 207.312C352.218 206.947 351.455 206.765 350.578 206.765C349.712 206.765 348.948 206.947 348.288 207.312C347.638 207.676 347.091 208.177 346.647 208.815C346.214 209.442 345.889 210.166 345.673 210.986C345.456 211.795 345.348 212.655 345.348 213.566ZM367.667 219.719L372.418 204.509H374.503L374.093 207.534L369.257 223H367.223L367.667 219.719ZM364.472 204.509L368.522 219.89L368.812 223H366.676L361.31 204.509H364.472ZM379.049 219.77L382.912 204.509H386.056L380.69 223H378.571L379.049 219.77ZM374.965 204.509L379.613 219.462L380.143 223H378.126L373.153 207.5L372.743 204.509H374.965ZM396.977 223.342C395.689 223.342 394.521 223.125 393.473 222.692C392.436 222.248 391.542 221.627 390.79 220.83C390.049 220.032 389.48 219.086 389.081 217.993C388.682 216.899 388.483 215.703 388.483 214.404V213.686C388.483 212.182 388.705 210.843 389.149 209.67C389.594 208.485 390.198 207.482 390.961 206.662C391.724 205.842 392.59 205.221 393.559 204.799C394.527 204.378 395.53 204.167 396.566 204.167C397.888 204.167 399.027 204.395 399.984 204.851C400.953 205.306 401.745 205.944 402.36 206.765C402.975 207.574 403.431 208.531 403.727 209.636C404.023 210.729 404.171 211.926 404.171 213.225V214.643H390.363V212.062H401.01V211.823C400.964 211.003 400.793 210.205 400.497 209.431C400.212 208.656 399.757 208.018 399.13 207.517C398.503 207.015 397.649 206.765 396.566 206.765C395.849 206.765 395.188 206.918 394.584 207.226C393.98 207.522 393.462 207.967 393.029 208.559C392.596 209.152 392.26 209.875 392.021 210.729C391.781 211.584 391.662 212.569 391.662 213.686V214.404C391.662 215.281 391.781 216.107 392.021 216.882C392.271 217.645 392.63 218.317 393.097 218.898C393.576 219.479 394.151 219.935 394.823 220.266C395.507 220.596 396.282 220.761 397.147 220.761C398.264 220.761 399.21 220.533 399.984 220.078C400.759 219.622 401.437 219.012 402.018 218.249L403.932 219.77C403.533 220.374 403.026 220.949 402.411 221.496C401.796 222.043 401.038 222.487 400.138 222.829C399.25 223.171 398.196 223.342 396.977 223.342ZM411.024 207.414V223H407.863V204.509H410.939L411.024 207.414ZM416.801 204.406L416.784 207.346C416.522 207.289 416.271 207.255 416.032 207.243C415.804 207.22 415.542 207.209 415.246 207.209C414.516 207.209 413.873 207.323 413.314 207.551C412.756 207.779 412.283 208.098 411.896 208.508C411.509 208.918 411.201 209.408 410.973 209.978C410.757 210.536 410.614 211.151 410.546 211.823L409.657 212.336C409.657 211.219 409.765 210.171 409.982 209.191C410.21 208.212 410.557 207.346 411.024 206.594C411.492 205.83 412.084 205.238 412.802 204.816C413.531 204.383 414.397 204.167 415.399 204.167C415.627 204.167 415.889 204.195 416.186 204.252C416.482 204.298 416.687 204.349 416.801 204.406ZM101.083 275.342C99.7956 275.342 98.6278 275.125 97.5796 274.692C96.5428 274.248 95.6484 273.627 94.8965 272.83C94.1559 272.032 93.5863 271.086 93.1875 269.993C92.7887 268.899 92.5894 267.703 92.5894 266.404V265.686C92.5894 264.182 92.8115 262.843 93.2559 261.67C93.7002 260.485 94.304 259.482 95.0674 258.662C95.8307 257.842 96.6966 257.221 97.665 256.799C98.6335 256.378 99.6361 256.167 100.673 256.167C101.994 256.167 103.134 256.395 104.091 256.851C105.059 257.306 105.851 257.944 106.466 258.765C107.082 259.574 107.537 260.531 107.833 261.636C108.13 262.729 108.278 263.926 108.278 265.225V266.643H94.4692V264.062H105.116V263.823C105.071 263.003 104.9 262.205 104.604 261.431C104.319 260.656 103.863 260.018 103.236 259.517C102.61 259.015 101.755 258.765 100.673 258.765C99.9551 258.765 99.2943 258.918 98.6904 259.226C98.0866 259.522 97.5682 259.967 97.1353 260.559C96.7023 261.152 96.3662 261.875 96.127 262.729C95.8877 263.584 95.7681 264.569 95.7681 265.686V266.404C95.7681 267.281 95.8877 268.107 96.127 268.882C96.3776 269.645 96.7365 270.317 97.2036 270.898C97.6821 271.479 98.2575 271.935 98.9297 272.266C99.6133 272.596 100.388 272.761 101.254 272.761C102.37 272.761 103.316 272.533 104.091 272.078C104.866 271.622 105.543 271.012 106.125 270.249L108.039 271.77C107.64 272.374 107.133 272.949 106.518 273.496C105.902 274.043 105.145 274.487 104.245 274.829C103.356 275.171 102.302 275.342 101.083 275.342ZM115.131 260.457V275H111.969V256.509H114.96L115.131 260.457ZM114.379 265.054L113.063 265.002C113.074 263.738 113.262 262.57 113.627 261.499C113.992 260.417 114.504 259.477 115.165 258.679C115.826 257.882 116.612 257.266 117.523 256.833C118.446 256.389 119.466 256.167 120.583 256.167C121.494 256.167 122.314 256.292 123.043 256.543C123.773 256.782 124.394 257.17 124.906 257.705C125.43 258.241 125.829 258.936 126.103 259.79C126.376 260.633 126.513 261.664 126.513 262.883V275H123.334V262.849C123.334 261.881 123.192 261.106 122.907 260.525C122.622 259.932 122.206 259.505 121.659 259.243C121.112 258.97 120.44 258.833 119.643 258.833C118.856 258.833 118.139 258.998 117.489 259.329C116.851 259.659 116.299 260.115 115.832 260.696C115.376 261.277 115.017 261.943 114.755 262.695C114.504 263.436 114.379 264.222 114.379 265.054ZM139.057 256.509V258.936H129.059V256.509H139.057ZM132.443 252.014H135.604V270.42C135.604 271.047 135.701 271.519 135.895 271.838C136.089 272.157 136.339 272.368 136.647 272.471C136.955 272.573 137.285 272.625 137.638 272.625C137.9 272.625 138.174 272.602 138.458 272.556C138.755 272.499 138.977 272.454 139.125 272.419L139.142 275C138.891 275.08 138.561 275.154 138.151 275.222C137.752 275.302 137.268 275.342 136.698 275.342C135.924 275.342 135.211 275.188 134.562 274.88C133.913 274.573 133.394 274.06 133.007 273.342C132.631 272.613 132.443 271.633 132.443 270.403V252.014ZM150.438 275.342C149.151 275.342 147.983 275.125 146.935 274.692C145.898 274.248 145.004 273.627 144.252 272.83C143.511 272.032 142.942 271.086 142.543 269.993C142.144 268.899 141.945 267.703 141.945 266.404V265.686C141.945 264.182 142.167 262.843 142.611 261.67C143.056 260.485 143.66 259.482 144.423 258.662C145.186 257.842 146.052 257.221 147.021 256.799C147.989 256.378 148.992 256.167 150.028 256.167C151.35 256.167 152.489 256.395 153.446 256.851C154.415 257.306 155.207 257.944 155.822 258.765C156.437 259.574 156.893 260.531 157.189 261.636C157.485 262.729 157.633 263.926 157.633 265.225V266.643H143.825V264.062H154.472V263.823C154.426 263.003 154.255 262.205 153.959 261.431C153.674 260.656 153.218 260.018 152.592 259.517C151.965 259.015 151.111 258.765 150.028 258.765C149.311 258.765 148.65 258.918 148.046 259.226C147.442 259.522 146.924 259.967 146.491 260.559C146.058 261.152 145.722 261.875 145.482 262.729C145.243 263.584 145.124 264.569 145.124 265.686V266.404C145.124 267.281 145.243 268.107 145.482 268.882C145.733 269.645 146.092 270.317 146.559 270.898C147.038 271.479 147.613 271.935 148.285 272.266C148.969 272.596 149.743 272.761 150.609 272.761C151.726 272.761 152.672 272.533 153.446 272.078C154.221 271.622 154.899 271.012 155.48 270.249L157.394 271.77C156.995 272.374 156.488 272.949 155.873 273.496C155.258 274.043 154.5 274.487 153.6 274.829C152.711 275.171 151.658 275.342 150.438 275.342ZM164.486 259.414V275H161.325V256.509H164.401L164.486 259.414ZM170.263 256.406L170.246 259.346C169.984 259.289 169.733 259.255 169.494 259.243C169.266 259.22 169.004 259.209 168.708 259.209C167.978 259.209 167.335 259.323 166.776 259.551C166.218 259.779 165.745 260.098 165.358 260.508C164.971 260.918 164.663 261.408 164.435 261.978C164.219 262.536 164.076 263.151 164.008 263.823L163.119 264.336C163.119 263.219 163.227 262.171 163.444 261.191C163.672 260.212 164.019 259.346 164.486 258.594C164.953 257.83 165.546 257.238 166.264 256.816C166.993 256.383 167.859 256.167 168.861 256.167C169.089 256.167 169.351 256.195 169.647 256.252C169.944 256.298 170.149 256.349 170.263 256.406ZM176.347 260.063V282.109H173.168V256.509H176.073L176.347 260.063ZM188.805 265.601V265.959C188.805 267.304 188.646 268.551 188.327 269.702C188.008 270.841 187.541 271.833 186.925 272.676C186.321 273.519 185.575 274.174 184.687 274.641C183.798 275.108 182.778 275.342 181.627 275.342C180.454 275.342 179.417 275.148 178.517 274.761C177.617 274.373 176.854 273.809 176.227 273.069C175.6 272.328 175.099 271.44 174.723 270.403C174.359 269.366 174.108 268.198 173.971 266.899V264.985C174.108 263.618 174.364 262.393 174.74 261.311C175.116 260.229 175.612 259.306 176.227 258.542C176.854 257.768 177.611 257.181 178.5 256.782C179.389 256.372 180.414 256.167 181.576 256.167C182.738 256.167 183.769 256.395 184.669 256.851C185.569 257.295 186.327 257.933 186.942 258.765C187.558 259.596 188.019 260.593 188.327 261.755C188.646 262.906 188.805 264.188 188.805 265.601ZM185.626 265.959V265.601C185.626 264.678 185.53 263.812 185.336 263.003C185.142 262.183 184.84 261.465 184.43 260.85C184.031 260.223 183.519 259.733 182.892 259.38C182.265 259.015 181.519 258.833 180.653 258.833C179.856 258.833 179.161 258.97 178.568 259.243C177.987 259.517 177.492 259.887 177.082 260.354C176.671 260.81 176.335 261.334 176.073 261.926C175.823 262.507 175.635 263.111 175.509 263.738V268.164C175.737 268.962 176.056 269.714 176.466 270.42C176.876 271.115 177.423 271.679 178.107 272.112C178.791 272.533 179.651 272.744 180.688 272.744C181.542 272.744 182.277 272.568 182.892 272.214C183.519 271.85 184.031 271.354 184.43 270.728C184.84 270.101 185.142 269.383 185.336 268.574C185.53 267.754 185.626 266.882 185.626 265.959ZM200.512 275.342C199.224 275.342 198.056 275.125 197.008 274.692C195.972 274.248 195.077 273.627 194.325 272.83C193.585 272.032 193.015 271.086 192.616 269.993C192.217 268.899 192.018 267.703 192.018 266.404V265.686C192.018 264.182 192.24 262.843 192.685 261.67C193.129 260.485 193.733 259.482 194.496 258.662C195.259 257.842 196.125 257.221 197.094 256.799C198.062 256.378 199.065 256.167 200.102 256.167C201.423 256.167 202.562 256.395 203.52 256.851C204.488 257.306 205.28 257.944 205.895 258.765C206.51 259.574 206.966 260.531 207.262 261.636C207.558 262.729 207.707 263.926 207.707 265.225V266.643H193.898V264.062H204.545V263.823C204.499 263.003 204.328 262.205 204.032 261.431C203.747 260.656 203.292 260.018 202.665 259.517C202.038 259.015 201.184 258.765 200.102 258.765C199.384 258.765 198.723 258.918 198.119 259.226C197.515 259.522 196.997 259.967 196.564 260.559C196.131 261.152 195.795 261.875 195.556 262.729C195.316 263.584 195.197 264.569 195.197 265.686V266.404C195.197 267.281 195.316 268.107 195.556 268.882C195.806 269.645 196.165 270.317 196.632 270.898C197.111 271.479 197.686 271.935 198.358 272.266C199.042 272.596 199.817 272.761 200.683 272.761C201.799 272.761 202.745 272.533 203.52 272.078C204.294 271.622 204.972 271.012 205.553 270.249L207.467 271.77C207.069 272.374 206.562 272.949 205.946 273.496C205.331 274.043 204.573 274.487 203.673 274.829C202.785 275.171 201.731 275.342 200.512 275.342ZM214.56 259.414V275H211.398V256.509H214.474L214.56 259.414ZM220.336 256.406L220.319 259.346C220.057 259.289 219.806 259.255 219.567 259.243C219.339 259.22 219.077 259.209 218.781 259.209C218.052 259.209 217.408 259.323 216.85 259.551C216.291 259.779 215.819 260.098 215.431 260.508C215.044 260.918 214.736 261.408 214.508 261.978C214.292 262.536 214.149 263.151 214.081 263.823L213.192 264.336C213.192 263.219 213.301 262.171 213.517 261.191C213.745 260.212 214.092 259.346 214.56 258.594C215.027 257.83 215.619 257.238 216.337 256.816C217.066 256.383 217.932 256.167 218.935 256.167C219.162 256.167 219.424 256.195 219.721 256.252C220.017 256.298 220.222 256.349 220.336 256.406ZM226.42 260.457V275H223.258V256.509H226.249L226.42 260.457ZM225.668 265.054L224.352 265.002C224.363 263.738 224.551 262.57 224.916 261.499C225.281 260.417 225.793 259.477 226.454 258.679C227.115 257.882 227.901 257.266 228.812 256.833C229.735 256.389 230.755 256.167 231.872 256.167C232.783 256.167 233.603 256.292 234.333 256.543C235.062 256.782 235.683 257.17 236.195 257.705C236.719 258.241 237.118 258.936 237.392 259.79C237.665 260.633 237.802 261.664 237.802 262.883V275H234.623V262.849C234.623 261.881 234.481 261.106 234.196 260.525C233.911 259.932 233.495 259.505 232.948 259.243C232.401 258.97 231.729 258.833 230.932 258.833C230.146 258.833 229.428 258.998 228.778 259.329C228.14 259.659 227.588 260.115 227.121 260.696C226.665 261.277 226.306 261.943 226.044 262.695C225.793 263.436 225.668 264.222 225.668 265.054ZM253.917 270.728V256.509H257.096V275H254.071L253.917 270.728ZM254.516 266.831L255.832 266.797C255.832 268.027 255.701 269.167 255.438 270.215C255.188 271.252 254.778 272.152 254.208 272.915C253.638 273.678 252.892 274.277 251.969 274.709C251.046 275.131 249.924 275.342 248.603 275.342C247.702 275.342 246.876 275.211 246.125 274.949C245.384 274.687 244.746 274.282 244.21 273.735C243.675 273.188 243.259 272.476 242.963 271.599C242.678 270.722 242.536 269.668 242.536 268.438V256.509H245.697V268.472C245.697 269.303 245.788 269.993 245.971 270.54C246.164 271.075 246.421 271.502 246.74 271.821C247.07 272.129 247.435 272.345 247.833 272.471C248.244 272.596 248.665 272.659 249.098 272.659C250.443 272.659 251.508 272.402 252.294 271.89C253.08 271.366 253.644 270.665 253.986 269.788C254.339 268.899 254.516 267.913 254.516 266.831ZM269.589 275.342C268.301 275.342 267.134 275.125 266.085 274.692C265.049 274.248 264.154 273.627 263.402 272.83C262.662 272.032 262.092 271.086 261.693 269.993C261.295 268.899 261.095 267.703 261.095 266.404V265.686C261.095 264.182 261.317 262.843 261.762 261.67C262.206 260.485 262.81 259.482 263.573 258.662C264.337 257.842 265.202 257.221 266.171 256.799C267.139 256.378 268.142 256.167 269.179 256.167C270.5 256.167 271.64 256.395 272.597 256.851C273.565 257.306 274.357 257.944 274.972 258.765C275.587 259.574 276.043 260.531 276.339 261.636C276.636 262.729 276.784 263.926 276.784 265.225V266.643H262.975V264.062H273.622V263.823C273.576 263.003 273.406 262.205 273.109 261.431C272.825 260.656 272.369 260.018 271.742 259.517C271.116 259.015 270.261 258.765 269.179 258.765C268.461 258.765 267.8 258.918 267.196 259.226C266.592 259.522 266.074 259.967 265.641 260.559C265.208 261.152 264.872 261.875 264.633 262.729C264.394 263.584 264.274 264.569 264.274 265.686V266.404C264.274 267.281 264.394 268.107 264.633 268.882C264.883 269.645 265.242 270.317 265.709 270.898C266.188 271.479 266.763 271.935 267.436 272.266C268.119 272.596 268.894 272.761 269.76 272.761C270.876 272.761 271.822 272.533 272.597 272.078C273.371 271.622 274.049 271.012 274.63 270.249L276.544 271.77C276.146 272.374 275.639 272.949 275.023 273.496C274.408 274.043 273.651 274.487 272.75 274.829C271.862 275.171 270.808 275.342 269.589 275.342ZM283.637 259.414V275H280.475V256.509H283.551L283.637 259.414ZM289.413 256.406L289.396 259.346C289.134 259.289 288.883 259.255 288.644 259.243C288.416 259.22 288.154 259.209 287.858 259.209C287.129 259.209 286.485 259.323 285.927 259.551C285.368 259.779 284.896 260.098 284.508 260.508C284.121 260.918 283.813 261.408 283.585 261.978C283.369 262.536 283.227 263.151 283.158 263.823L282.27 264.336C282.27 263.219 282.378 262.171 282.594 261.191C282.822 260.212 283.17 259.346 283.637 258.594C284.104 257.83 284.696 257.238 285.414 256.816C286.143 256.383 287.009 256.167 288.012 256.167C288.24 256.167 288.502 256.195 288.798 256.252C289.094 256.298 289.299 256.349 289.413 256.406ZM303.102 270.095C303.102 269.639 303 269.218 302.794 268.831C302.601 268.432 302.196 268.073 301.581 267.754C300.977 267.424 300.066 267.139 298.847 266.899C297.821 266.683 296.893 266.427 296.061 266.13C295.241 265.834 294.54 265.475 293.959 265.054C293.389 264.632 292.951 264.137 292.643 263.567C292.335 262.997 292.182 262.331 292.182 261.567C292.182 260.838 292.341 260.149 292.66 259.5C292.991 258.85 293.452 258.275 294.044 257.773C294.648 257.272 295.372 256.879 296.215 256.594C297.058 256.309 297.998 256.167 299.035 256.167C300.516 256.167 301.78 256.429 302.829 256.953C303.877 257.477 304.68 258.178 305.238 259.055C305.797 259.921 306.076 260.884 306.076 261.943H302.914C302.914 261.431 302.76 260.935 302.453 260.457C302.156 259.967 301.718 259.562 301.137 259.243C300.567 258.924 299.866 258.765 299.035 258.765C298.157 258.765 297.445 258.901 296.898 259.175C296.363 259.437 295.97 259.773 295.719 260.183C295.48 260.593 295.36 261.026 295.36 261.482C295.36 261.824 295.417 262.131 295.531 262.405C295.657 262.667 295.873 262.912 296.181 263.14C296.488 263.356 296.921 263.561 297.479 263.755C298.038 263.949 298.75 264.142 299.616 264.336C301.131 264.678 302.379 265.088 303.358 265.566C304.338 266.045 305.067 266.632 305.546 267.327C306.024 268.022 306.264 268.865 306.264 269.856C306.264 270.665 306.093 271.405 305.751 272.078C305.421 272.75 304.936 273.331 304.298 273.821C303.672 274.299 302.92 274.675 302.042 274.949C301.177 275.211 300.202 275.342 299.12 275.342C297.491 275.342 296.112 275.051 294.984 274.47C293.856 273.889 293.002 273.137 292.421 272.214C291.84 271.292 291.549 270.317 291.549 269.292H294.728C294.774 270.158 295.024 270.847 295.48 271.36C295.936 271.861 296.494 272.22 297.155 272.437C297.816 272.642 298.471 272.744 299.12 272.744C299.986 272.744 300.709 272.63 301.291 272.402C301.883 272.174 302.333 271.861 302.641 271.462C302.948 271.064 303.102 270.608 303.102 270.095ZM310.468 273.325C310.468 272.79 310.633 272.34 310.963 271.975C311.305 271.599 311.795 271.411 312.433 271.411C313.071 271.411 313.555 271.599 313.886 271.975C314.228 272.34 314.398 272.79 314.398 273.325C314.398 273.849 314.228 274.294 313.886 274.658C313.555 275.023 313.071 275.205 312.433 275.205C311.795 275.205 311.305 275.023 310.963 274.658C310.633 274.294 310.468 273.849 310.468 273.325ZM319.696 273.325C319.696 272.79 319.861 272.34 320.192 271.975C320.534 271.599 321.024 271.411 321.662 271.411C322.3 271.411 322.784 271.599 323.114 271.975C323.456 272.34 323.627 272.79 323.627 273.325C323.627 273.849 323.456 274.294 323.114 274.658C322.784 275.023 322.3 275.205 321.662 275.205C321.024 275.205 320.534 275.023 320.192 274.658C319.861 274.294 319.696 273.849 319.696 273.325ZM328.925 273.325C328.925 272.79 329.09 272.34 329.42 271.975C329.762 271.599 330.252 271.411 330.89 271.411C331.528 271.411 332.012 271.599 332.343 271.975C332.685 272.34 332.855 272.79 332.855 273.325C332.855 273.849 332.685 274.294 332.343 274.658C332.012 275.023 331.528 275.205 330.89 275.205C330.252 275.205 329.762 275.023 329.42 274.658C329.09 274.294 328.925 273.849 328.925 273.325Z" fill="#014786"/>
<path d="M63 148V2H335.821V77.2812H640" stroke="white" stroke-width="3"/>
</g>
<defs>
<clipPath id="clip0_303_2">
<rect width="640" height="320" fill="white"/>
</clipPath>
</defs>
</svg>
