<svg width="1512" height="514" viewBox="0 0 1512 514" fill="none" xmlns="http://www.w3.org/2000/svg">
<path d="M935.456 474.503L935.511 512L827.511 512.158L827 164.159L719 164.317L719.114 241.943" stroke="white" stroke-width="3"/>
<rect x="1.5" y="1.5" width="652" height="187" fill="#D5EEFF" stroke="white" stroke-width="3"/>
<rect x="67.5" y="108.5" width="652" height="187" fill="#D5EEFF" stroke="white" stroke-width="3"/>
<rect x="915.5" y="282.5" width="652" height="187" fill="#D5EEFF" stroke="white" stroke-width="3"/>
<path d="M414.965 40.3008H423.93V70.7695C423.93 73.6992 423.256 76.1797 421.908 78.2109C420.561 80.2617 418.676 81.8145 416.254 82.8691C413.852 83.9434 411.039 84.4805 407.816 84.4805C406.391 84.4805 404.936 84.2949 403.451 83.9238C401.967 83.5723 400.58 83.0449 399.291 82.3418C398.002 81.6387 396.918 80.7695 396.039 79.7344L400.17 73.9336C400.971 74.832 401.977 75.5938 403.188 76.2188C404.398 76.8633 405.824 77.1855 407.465 77.1855C408.891 77.1855 410.082 76.9316 411.039 76.4238C412.016 75.916 412.758 75.1738 413.266 74.1973C413.773 73.2402 414.027 72.0781 414.027 70.7109V47.8008L414.965 40.3008ZM393.9 56.5312V55.916C393.9 53.5137 394.193 51.3262 394.779 49.3535C395.385 47.3613 396.244 45.6523 397.357 44.2266C398.49 42.7812 399.857 41.668 401.459 40.8867C403.061 40.1055 404.867 39.7148 406.879 39.7148C409.047 39.7148 410.824 40.1348 412.211 40.9746C413.617 41.7949 414.74 42.9473 415.58 44.4316C416.439 45.916 417.104 47.6543 417.572 49.6465C418.061 51.6191 418.471 53.748 418.803 56.0332V56.7656C418.471 58.9141 418.012 60.9453 417.426 62.8594C416.859 64.7539 416.117 66.4336 415.199 67.8984C414.281 69.3633 413.129 70.5156 411.742 71.3555C410.375 72.1758 408.734 72.5859 406.82 72.5859C404.828 72.5859 403.031 72.1855 401.43 71.3848C399.848 70.584 398.49 69.4609 397.357 68.0156C396.244 66.5703 395.385 64.8711 394.779 62.918C394.193 60.9648 393.9 58.8359 393.9 56.5312ZM403.773 55.916V56.5312C403.773 57.7227 403.881 58.8262 404.096 59.8418C404.33 60.8574 404.682 61.7559 405.15 62.5371C405.619 63.2988 406.195 63.8945 406.879 64.3242C407.582 64.7539 408.402 64.9688 409.34 64.9688C410.766 64.9688 411.918 64.666 412.797 64.0605C413.676 63.4551 414.311 62.5957 414.701 61.4824C415.092 60.3691 415.258 59.0605 415.199 57.5566V55.2422C415.238 53.9531 415.15 52.8203 414.936 51.8438C414.721 50.8477 414.379 50.0176 413.91 49.3535C413.461 48.6895 412.855 48.1914 412.094 47.8594C411.352 47.5078 410.453 47.332 409.398 47.332C408.48 47.332 407.67 47.5469 406.967 47.9766C406.264 48.4062 405.678 49.0117 405.209 49.793C404.74 50.5547 404.379 51.4629 404.125 52.5176C403.891 53.5527 403.773 54.6855 403.773 55.916ZM428.383 56.4727V55.8574C428.383 53.5332 428.715 51.3945 429.379 49.4414C430.043 47.4688 431.02 45.7598 432.309 44.3145C433.598 42.8691 435.189 41.7461 437.084 40.9453C438.979 40.125 441.166 39.7148 443.646 39.7148C446.146 39.7148 448.344 40.125 450.238 40.9453C452.152 41.7461 453.754 42.8691 455.043 44.3145C456.332 45.7598 457.309 47.4688 457.973 49.4414C458.637 51.3945 458.969 53.5332 458.969 55.8574V56.4727C458.969 58.7773 458.637 60.916 457.973 62.8887C457.309 64.8418 456.332 66.5508 455.043 68.0156C453.754 69.4609 452.162 70.584 450.268 71.3848C448.373 72.1855 446.186 72.5859 443.705 72.5859C441.225 72.5859 439.027 72.1855 437.113 71.3848C435.199 70.584 433.598 69.4609 432.309 68.0156C431.02 66.5508 430.043 64.8418 429.379 62.8887C428.715 60.916 428.383 58.7773 428.383 56.4727ZM438.256 55.8574V56.4727C438.256 57.6641 438.344 58.7773 438.52 59.8125C438.695 60.8477 438.988 61.7559 439.398 62.5371C439.809 63.2988 440.365 63.8945 441.068 64.3242C441.771 64.7539 442.65 64.9688 443.705 64.9688C444.74 64.9688 445.6 64.7539 446.283 64.3242C446.986 63.8945 447.543 63.2988 447.953 62.5371C448.363 61.7559 448.656 60.8477 448.832 59.8125C449.008 58.7773 449.096 57.6641 449.096 56.4727V55.8574C449.096 54.7051 449.008 53.6211 448.832 52.6055C448.656 51.5703 448.363 50.6621 447.953 49.8809C447.543 49.0801 446.986 48.4551 446.283 48.0059C445.58 47.5566 444.701 47.332 443.646 47.332C442.611 47.332 441.742 47.5566 441.039 48.0059C440.355 48.4551 439.809 49.0801 439.398 49.8809C438.988 50.6621 438.695 51.5703 438.52 52.6055C438.344 53.6211 438.256 54.7051 438.256 55.8574ZM479.828 64.0312V50.9648C479.828 50.0664 479.701 49.2949 479.447 48.6504C479.193 48.0059 478.793 47.5078 478.246 47.1562C477.699 46.7852 476.967 46.5996 476.049 46.5996C475.307 46.5996 474.672 46.7266 474.145 46.9805C473.617 47.2344 473.217 47.6152 472.943 48.123C472.67 48.6309 472.533 49.2754 472.533 50.0566H462.66C462.66 48.5918 462.982 47.2344 463.627 45.9844C464.291 44.7148 465.229 43.6113 466.439 42.6738C467.67 41.7363 469.135 41.0137 470.834 40.5059C472.553 39.9785 474.467 39.7148 476.576 39.7148C479.096 39.7148 481.342 40.1348 483.314 40.9746C485.307 41.8145 486.879 43.0742 488.031 44.7539C489.184 46.4141 489.76 48.5039 489.76 51.0234V64.002C489.76 66.0723 489.877 67.6445 490.111 68.7188C490.346 69.7734 490.678 70.7012 491.107 71.502V72H481.205C480.736 71.0234 480.385 69.832 480.15 68.4258C479.936 67 479.828 65.5352 479.828 64.0312ZM481.029 52.6348L481.088 57.9082H476.723C475.805 57.9082 475.023 58.0352 474.379 58.2891C473.754 58.543 473.246 58.8945 472.855 59.3438C472.484 59.7734 472.211 60.2617 472.035 60.8086C471.879 61.3555 471.801 61.9316 471.801 62.5371C471.801 63.123 471.938 63.6504 472.211 64.1191C472.504 64.5684 472.895 64.9199 473.383 65.1738C473.871 65.4277 474.418 65.5547 475.023 65.5547C476.117 65.5547 477.045 65.3496 477.807 64.9395C478.588 64.5098 479.184 63.9922 479.594 63.3867C480.004 62.7812 480.209 62.2148 480.209 61.6875L482.377 65.7305C481.986 66.5117 481.537 67.3027 481.029 68.1035C480.541 68.9043 479.926 69.6465 479.184 70.3301C478.461 70.9941 477.572 71.541 476.518 71.9707C475.463 72.3809 474.184 72.5859 472.68 72.5859C470.727 72.5859 468.93 72.1855 467.289 71.3848C465.668 70.584 464.369 69.4707 463.393 68.0449C462.416 66.5996 461.928 64.9395 461.928 63.0645C461.928 61.4238 462.221 59.959 462.807 58.6699C463.412 57.3809 464.32 56.2871 465.531 55.3887C466.742 54.4902 468.285 53.8066 470.16 53.3379C472.035 52.8691 474.242 52.6348 476.781 52.6348H481.029ZM505.668 27V72H495.766V27H505.668ZM528.373 63.0938C528.373 62.5469 528.188 62.0781 527.816 61.6875C527.465 61.2773 526.84 60.9062 525.941 60.5742C525.043 60.2227 523.783 59.8711 522.162 59.5195C520.619 59.1875 519.164 58.748 517.797 58.2012C516.449 57.6543 515.268 56.9902 514.252 56.209C513.236 55.4277 512.436 54.5 511.85 53.4258C511.283 52.3516 511 51.1211 511 49.7344C511 48.3867 511.283 47.1172 511.85 45.9258C512.436 44.7148 513.285 43.6504 514.398 42.7324C515.531 41.7949 516.908 41.0625 518.529 40.5352C520.15 39.9883 521.996 39.7148 524.066 39.7148C526.918 39.7148 529.379 40.1543 531.449 41.0332C533.52 41.8926 535.111 43.1035 536.225 44.666C537.357 46.209 537.924 47.9961 537.924 50.0273H528.051C528.051 49.2266 527.914 48.543 527.641 47.9766C527.387 47.4102 526.967 46.9805 526.381 46.6875C525.795 46.375 525.014 46.2188 524.037 46.2188C523.354 46.2188 522.729 46.3457 522.162 46.5996C521.615 46.8535 521.176 47.2051 520.844 47.6543C520.512 48.1035 520.346 48.6309 520.346 49.2363C520.346 49.666 520.443 50.0566 520.639 50.4082C520.854 50.7402 521.176 51.0527 521.605 51.3457C522.035 51.6191 522.582 51.873 523.246 52.1074C523.91 52.3223 524.711 52.5176 525.648 52.6934C527.777 53.084 529.77 53.6406 531.625 54.3633C533.48 55.0859 534.984 56.1113 536.137 57.4395C537.309 58.7676 537.895 60.5547 537.895 62.8008C537.895 64.207 537.572 65.5059 536.928 66.6973C536.283 67.8691 535.355 68.9043 534.145 69.8027C532.934 70.6816 531.479 71.3652 529.779 71.8535C528.08 72.3418 526.166 72.5859 524.037 72.5859C521.01 72.5859 518.451 72.0488 516.361 70.9746C514.271 69.8809 512.689 68.5137 511.615 66.873C510.561 65.2129 510.033 63.5332 510.033 61.834H519.232C519.271 62.8105 519.506 63.6113 519.936 64.2363C520.385 64.8613 520.98 65.3203 521.723 65.6133C522.465 65.9062 523.324 66.0527 524.301 66.0527C525.199 66.0527 525.941 65.9258 526.527 65.6719C527.133 65.418 527.592 65.0762 527.904 64.6465C528.217 64.1973 528.373 63.6797 528.373 63.0938Z" fill="#014786"/>
<path d="M157.39 170.509H160.261V188.607C160.261 190.236 159.93 191.626 159.27 192.777C158.609 193.928 157.686 194.799 156.501 195.392C155.327 195.995 153.972 196.297 152.434 196.297C151.796 196.297 151.044 196.195 150.178 195.99C149.323 195.796 148.48 195.46 147.648 194.981C146.828 194.514 146.139 193.882 145.581 193.084L147.238 191.205C148.013 192.139 148.822 192.788 149.665 193.153C150.52 193.517 151.363 193.7 152.194 193.7C153.197 193.7 154.063 193.512 154.792 193.136C155.521 192.76 156.085 192.201 156.484 191.461C156.894 190.732 157.099 189.832 157.099 188.761V174.576L157.39 170.509ZM144.658 179.959V179.601C144.658 178.188 144.823 176.906 145.153 175.755C145.495 174.593 145.979 173.596 146.606 172.765C147.244 171.933 148.013 171.295 148.913 170.851C149.813 170.395 150.827 170.167 151.955 170.167C153.117 170.167 154.131 170.372 154.997 170.782C155.874 171.181 156.615 171.768 157.219 172.542C157.834 173.306 158.318 174.229 158.671 175.311C159.025 176.393 159.27 177.618 159.406 178.985V180.558C159.281 181.913 159.036 183.132 158.671 184.215C158.318 185.297 157.834 186.22 157.219 186.983C156.615 187.747 155.874 188.333 154.997 188.744C154.12 189.142 153.094 189.342 151.921 189.342C150.816 189.342 149.813 189.108 148.913 188.641C148.024 188.174 147.261 187.519 146.623 186.676C145.985 185.833 145.495 184.841 145.153 183.702C144.823 182.551 144.658 181.304 144.658 179.959ZM147.819 179.601V179.959C147.819 180.882 147.91 181.748 148.093 182.557C148.286 183.366 148.577 184.078 148.964 184.693C149.363 185.309 149.87 185.793 150.485 186.146C151.101 186.488 151.835 186.659 152.69 186.659C153.738 186.659 154.604 186.437 155.288 185.992C155.971 185.548 156.512 184.961 156.911 184.232C157.321 183.503 157.64 182.711 157.868 181.856V177.738C157.743 177.111 157.549 176.507 157.287 175.926C157.036 175.334 156.706 174.81 156.296 174.354C155.897 173.887 155.402 173.517 154.809 173.243C154.217 172.97 153.522 172.833 152.724 172.833C151.858 172.833 151.112 173.015 150.485 173.38C149.87 173.733 149.363 174.223 148.964 174.85C148.577 175.465 148.286 176.183 148.093 177.003C147.91 177.812 147.819 178.678 147.819 179.601ZM168.498 170.509V189H165.319V170.509H168.498ZM165.08 165.604C165.08 165.091 165.234 164.658 165.542 164.305C165.861 163.952 166.328 163.775 166.943 163.775C167.547 163.775 168.008 163.952 168.327 164.305C168.658 164.658 168.823 165.091 168.823 165.604C168.823 166.094 168.658 166.515 168.327 166.869C168.008 167.21 167.547 167.381 166.943 167.381C166.328 167.381 165.861 167.21 165.542 166.869C165.234 166.515 165.08 166.094 165.08 165.604ZM179.196 186.146L184.255 170.509H187.485L180.837 189H178.718L179.196 186.146ZM174.975 170.509L180.188 186.231L180.546 189H178.427L171.728 170.509H174.975ZM197.961 189.342C196.674 189.342 195.506 189.125 194.458 188.692C193.421 188.248 192.526 187.627 191.774 186.83C191.034 186.032 190.464 185.086 190.065 183.993C189.667 182.899 189.467 181.703 189.467 180.404V179.686C189.467 178.182 189.689 176.843 190.134 175.67C190.578 174.485 191.182 173.482 191.945 172.662C192.709 171.842 193.575 171.221 194.543 170.799C195.511 170.378 196.514 170.167 197.551 170.167C198.872 170.167 200.012 170.395 200.969 170.851C201.937 171.306 202.729 171.944 203.344 172.765C203.959 173.574 204.415 174.531 204.711 175.636C205.008 176.729 205.156 177.926 205.156 179.225V180.643H191.347V178.062H201.994V177.823C201.949 177.003 201.778 176.205 201.481 175.431C201.197 174.656 200.741 174.018 200.114 173.517C199.488 173.015 198.633 172.765 197.551 172.765C196.833 172.765 196.172 172.918 195.568 173.226C194.965 173.522 194.446 173.967 194.013 174.559C193.58 175.152 193.244 175.875 193.005 176.729C192.766 177.584 192.646 178.569 192.646 179.686V180.404C192.646 181.281 192.766 182.107 193.005 182.882C193.256 183.645 193.614 184.317 194.082 184.898C194.56 185.479 195.135 185.935 195.808 186.266C196.491 186.596 197.266 186.761 198.132 186.761C199.248 186.761 200.194 186.533 200.969 186.078C201.743 185.622 202.421 185.012 203.002 184.249L204.917 185.77C204.518 186.374 204.011 186.949 203.396 187.496C202.78 188.043 202.023 188.487 201.123 188.829C200.234 189.171 199.18 189.342 197.961 189.342ZM225.202 189.342C223.915 189.342 222.747 189.125 221.699 188.692C220.662 188.248 219.768 187.627 219.016 186.83C218.275 186.032 217.705 185.086 217.307 183.993C216.908 182.899 216.708 181.703 216.708 180.404V179.686C216.708 178.182 216.931 176.843 217.375 175.67C217.819 174.485 218.423 173.482 219.187 172.662C219.95 171.842 220.816 171.221 221.784 170.799C222.753 170.378 223.755 170.167 224.792 170.167C226.114 170.167 227.253 170.395 228.21 170.851C229.178 171.306 229.97 171.944 230.585 172.765C231.201 173.574 231.656 174.531 231.953 175.636C232.249 176.729 232.397 177.926 232.397 179.225V180.643H218.588V178.062H229.235V177.823C229.19 177.003 229.019 176.205 228.723 175.431C228.438 174.656 227.982 174.018 227.355 173.517C226.729 173.015 225.874 172.765 224.792 172.765C224.074 172.765 223.413 172.918 222.81 173.226C222.206 173.522 221.687 173.967 221.254 174.559C220.821 175.152 220.485 175.875 220.246 176.729C220.007 177.584 219.887 178.569 219.887 179.686V180.404C219.887 181.281 220.007 182.107 220.246 182.882C220.497 183.645 220.856 184.317 221.323 184.898C221.801 185.479 222.377 185.935 223.049 186.266C223.732 186.596 224.507 186.761 225.373 186.761C226.49 186.761 227.435 186.533 228.21 186.078C228.985 185.622 229.663 185.012 230.244 184.249L232.158 185.77C231.759 186.374 231.252 186.949 230.637 187.496C230.021 188.043 229.264 188.487 228.364 188.829C227.475 189.171 226.421 189.342 225.202 189.342ZM239.233 174.183V189H236.054V170.509H239.062L239.233 174.183ZM238.583 179.054L237.114 179.002C237.125 177.738 237.29 176.57 237.609 175.499C237.928 174.417 238.401 173.477 239.028 172.679C239.654 171.882 240.435 171.266 241.369 170.833C242.303 170.389 243.386 170.167 244.616 170.167C245.482 170.167 246.28 170.292 247.009 170.543C247.738 170.782 248.37 171.164 248.906 171.688C249.441 172.212 249.857 172.884 250.153 173.705C250.45 174.525 250.598 175.516 250.598 176.678V189H247.436V176.832C247.436 175.864 247.271 175.089 246.94 174.508C246.621 173.927 246.166 173.505 245.573 173.243C244.981 172.97 244.286 172.833 243.488 172.833C242.554 172.833 241.774 172.998 241.147 173.329C240.52 173.659 240.019 174.115 239.643 174.696C239.267 175.277 238.994 175.943 238.823 176.695C238.663 177.436 238.583 178.222 238.583 179.054ZM250.563 177.311L248.444 177.96C248.456 176.946 248.621 175.972 248.94 175.038C249.27 174.103 249.743 173.272 250.358 172.542C250.985 171.813 251.754 171.238 252.666 170.816C253.577 170.383 254.619 170.167 255.793 170.167C256.784 170.167 257.661 170.298 258.425 170.56C259.2 170.822 259.849 171.227 260.373 171.773C260.909 172.309 261.313 172.998 261.586 173.841C261.86 174.684 261.997 175.687 261.997 176.849V189H258.818V176.815C258.818 175.778 258.653 174.975 258.322 174.405C258.003 173.824 257.548 173.42 256.955 173.192C256.374 172.953 255.679 172.833 254.87 172.833C254.175 172.833 253.56 172.953 253.024 173.192C252.489 173.431 252.039 173.762 251.674 174.183C251.31 174.593 251.031 175.066 250.837 175.602C250.655 176.137 250.563 176.707 250.563 177.311ZM274.455 189.342C273.168 189.342 272 189.125 270.952 188.692C269.915 188.248 269.021 187.627 268.269 186.83C267.528 186.032 266.958 185.086 266.56 183.993C266.161 182.899 265.961 181.703 265.961 180.404V179.686C265.961 178.182 266.184 176.843 266.628 175.67C267.072 174.485 267.676 173.482 268.439 172.662C269.203 171.842 270.069 171.221 271.037 170.799C272.006 170.378 273.008 170.167 274.045 170.167C275.367 170.167 276.506 170.395 277.463 170.851C278.431 171.306 279.223 171.944 279.838 172.765C280.454 173.574 280.909 174.531 281.206 175.636C281.502 176.729 281.65 177.926 281.65 179.225V180.643H267.841V178.062H278.488V177.823C278.443 177.003 278.272 176.205 277.976 175.431C277.691 174.656 277.235 174.018 276.608 173.517C275.982 173.015 275.127 172.765 274.045 172.765C273.327 172.765 272.666 172.918 272.062 173.226C271.459 173.522 270.94 173.967 270.507 174.559C270.074 175.152 269.738 175.875 269.499 176.729C269.26 177.584 269.14 178.569 269.14 179.686V180.404C269.14 181.281 269.26 182.107 269.499 182.882C269.75 183.645 270.109 184.317 270.576 184.898C271.054 185.479 271.63 185.935 272.302 186.266C272.985 186.596 273.76 186.761 274.626 186.761C275.743 186.761 276.688 186.533 277.463 186.078C278.238 185.622 278.916 185.012 279.497 184.249L281.411 185.77C281.012 186.374 280.505 186.949 279.89 187.496C279.274 188.043 278.517 188.487 277.617 188.829C276.728 189.171 275.674 189.342 274.455 189.342ZM288.503 173.414V189H285.341V170.509H288.417L288.503 173.414ZM294.279 170.406L294.262 173.346C294 173.289 293.75 173.255 293.51 173.243C293.282 173.22 293.02 173.209 292.724 173.209C291.995 173.209 291.351 173.323 290.793 173.551C290.235 173.779 289.762 174.098 289.375 174.508C288.987 174.918 288.68 175.408 288.452 175.978C288.235 176.536 288.093 177.151 288.024 177.823L287.136 178.336C287.136 177.219 287.244 176.171 287.46 175.191C287.688 174.212 288.036 173.346 288.503 172.594C288.97 171.83 289.562 171.238 290.28 170.816C291.009 170.383 291.875 170.167 292.878 170.167C293.106 170.167 293.368 170.195 293.664 170.252C293.96 170.298 294.165 170.349 294.279 170.406ZM308.84 170.509H311.711V188.607C311.711 190.236 311.381 191.626 310.72 192.777C310.059 193.928 309.136 194.799 307.951 195.392C306.778 195.995 305.422 196.297 303.884 196.297C303.246 196.297 302.494 196.195 301.628 195.99C300.773 195.796 299.93 195.46 299.099 194.981C298.278 194.514 297.589 193.882 297.031 193.084L298.688 191.205C299.463 192.139 300.272 192.788 301.115 193.153C301.97 193.517 302.813 193.7 303.645 193.7C304.647 193.7 305.513 193.512 306.242 193.136C306.971 192.76 307.535 192.201 307.934 191.461C308.344 190.732 308.549 189.832 308.549 188.761V174.576L308.84 170.509ZM296.108 179.959V179.601C296.108 178.188 296.273 176.906 296.604 175.755C296.945 174.593 297.43 173.596 298.056 172.765C298.694 171.933 299.463 171.295 300.363 170.851C301.263 170.395 302.277 170.167 303.405 170.167C304.567 170.167 305.581 170.372 306.447 170.782C307.325 171.181 308.065 171.768 308.669 172.542C309.284 173.306 309.768 174.229 310.122 175.311C310.475 176.393 310.72 177.618 310.856 178.985V180.558C310.731 181.913 310.486 183.132 310.122 184.215C309.768 185.297 309.284 186.22 308.669 186.983C308.065 187.747 307.325 188.333 306.447 188.744C305.57 189.142 304.545 189.342 303.371 189.342C302.266 189.342 301.263 189.108 300.363 188.641C299.475 188.174 298.711 187.519 298.073 186.676C297.435 185.833 296.945 184.841 296.604 183.702C296.273 182.551 296.108 181.304 296.108 179.959ZM299.27 179.601V179.959C299.27 180.882 299.361 181.748 299.543 182.557C299.737 183.366 300.027 184.078 300.415 184.693C300.813 185.309 301.32 185.793 301.936 186.146C302.551 186.488 303.286 186.659 304.14 186.659C305.188 186.659 306.054 186.437 306.738 185.992C307.421 185.548 307.963 184.961 308.361 184.232C308.771 183.503 309.09 182.711 309.318 181.856V177.738C309.193 177.111 308.999 176.507 308.737 175.926C308.487 175.334 308.156 174.81 307.746 174.354C307.347 173.887 306.852 173.517 306.259 173.243C305.667 172.97 304.972 172.833 304.174 172.833C303.308 172.833 302.562 173.015 301.936 173.38C301.32 173.733 300.813 174.223 300.415 174.85C300.027 175.465 299.737 176.183 299.543 177.003C299.361 177.812 299.27 178.678 299.27 179.601ZM319.948 170.509V189H316.77V170.509H319.948ZM316.53 165.604C316.53 165.091 316.684 164.658 316.992 164.305C317.311 163.952 317.778 163.775 318.393 163.775C318.997 163.775 319.458 163.952 319.777 164.305C320.108 164.658 320.273 165.091 320.273 165.604C320.273 166.094 320.108 166.515 319.777 166.869C319.458 167.21 318.997 167.381 318.393 167.381C317.778 167.381 317.311 167.21 316.992 166.869C316.684 166.515 316.53 166.094 316.53 165.604ZM328.186 174.457V189H325.024V170.509H328.015L328.186 174.457ZM327.434 179.054L326.118 179.002C326.129 177.738 326.317 176.57 326.682 175.499C327.046 174.417 327.559 173.477 328.22 172.679C328.881 171.882 329.667 171.266 330.578 170.833C331.501 170.389 332.521 170.167 333.637 170.167C334.549 170.167 335.369 170.292 336.098 170.543C336.827 170.782 337.448 171.17 337.961 171.705C338.485 172.241 338.884 172.936 339.157 173.79C339.431 174.633 339.567 175.664 339.567 176.883V189H336.389V176.849C336.389 175.881 336.246 175.106 335.961 174.525C335.677 173.932 335.261 173.505 334.714 173.243C334.167 172.97 333.495 172.833 332.697 172.833C331.911 172.833 331.193 172.998 330.544 173.329C329.906 173.659 329.353 174.115 328.886 174.696C328.431 175.277 328.072 175.943 327.81 176.695C327.559 177.436 327.434 178.222 327.434 179.054ZM356.35 170.509H359.221V188.607C359.221 190.236 358.89 191.626 358.229 192.777C357.569 193.928 356.646 194.799 355.461 195.392C354.287 195.995 352.932 196.297 351.394 196.297C350.756 196.297 350.004 196.195 349.138 195.99C348.283 195.796 347.44 195.46 346.608 194.981C345.788 194.514 345.099 193.882 344.541 193.084L346.198 191.205C346.973 192.139 347.782 192.788 348.625 193.153C349.479 193.517 350.323 193.7 351.154 193.7C352.157 193.7 353.023 193.512 353.752 193.136C354.481 192.76 355.045 192.201 355.444 191.461C355.854 190.732 356.059 189.832 356.059 188.761V174.576L356.35 170.509ZM343.618 179.959V179.601C343.618 178.188 343.783 176.906 344.113 175.755C344.455 174.593 344.939 173.596 345.566 172.765C346.204 171.933 346.973 171.295 347.873 170.851C348.773 170.395 349.787 170.167 350.915 170.167C352.077 170.167 353.091 170.372 353.957 170.782C354.834 171.181 355.575 171.768 356.179 172.542C356.794 173.306 357.278 174.229 357.631 175.311C357.985 176.393 358.229 177.618 358.366 178.985V180.558C358.241 181.913 357.996 183.132 357.631 184.215C357.278 185.297 356.794 186.22 356.179 186.983C355.575 187.747 354.834 188.333 353.957 188.744C353.08 189.142 352.054 189.342 350.881 189.342C349.776 189.342 348.773 189.108 347.873 188.641C346.984 188.174 346.221 187.519 345.583 186.676C344.945 185.833 344.455 184.841 344.113 183.702C343.783 182.551 343.618 181.304 343.618 179.959ZM346.779 179.601V179.959C346.779 180.882 346.87 181.748 347.053 182.557C347.246 183.366 347.537 184.078 347.924 184.693C348.323 185.309 348.83 185.793 349.445 186.146C350.061 186.488 350.795 186.659 351.65 186.659C352.698 186.659 353.564 186.437 354.248 185.992C354.931 185.548 355.472 184.961 355.871 184.232C356.281 183.503 356.6 182.711 356.828 181.856V177.738C356.703 177.111 356.509 176.507 356.247 175.926C355.996 175.334 355.666 174.81 355.256 174.354C354.857 173.887 354.361 173.517 353.769 173.243C353.177 172.97 352.482 172.833 351.684 172.833C350.818 172.833 350.072 173.015 349.445 173.38C348.83 173.733 348.323 174.223 347.924 174.85C347.537 175.465 347.246 176.183 347.053 177.003C346.87 177.812 346.779 178.678 346.779 179.601ZM372.688 162.75H375.866V185.411L375.593 189H372.688V162.75ZM388.359 179.601V179.959C388.359 181.304 388.199 182.551 387.88 183.702C387.561 184.841 387.094 185.833 386.479 186.676C385.864 187.519 385.112 188.174 384.223 188.641C383.334 189.108 382.315 189.342 381.164 189.342C379.991 189.342 378.959 189.142 378.071 188.744C377.194 188.333 376.453 187.747 375.849 186.983C375.245 186.22 374.761 185.297 374.396 184.215C374.043 183.132 373.798 181.913 373.662 180.558V178.985C373.798 177.618 374.043 176.393 374.396 175.311C374.761 174.229 375.245 173.306 375.849 172.542C376.453 171.768 377.194 171.181 378.071 170.782C378.948 170.372 379.968 170.167 381.13 170.167C382.292 170.167 383.323 170.395 384.223 170.851C385.123 171.295 385.875 171.933 386.479 172.765C387.094 173.596 387.561 174.593 387.88 175.755C388.199 176.906 388.359 178.188 388.359 179.601ZM385.18 179.959V179.601C385.18 178.678 385.095 177.812 384.924 177.003C384.753 176.183 384.479 175.465 384.104 174.85C383.728 174.223 383.232 173.733 382.617 173.38C382.001 173.015 381.244 172.833 380.344 172.833C379.546 172.833 378.851 172.97 378.259 173.243C377.678 173.517 377.182 173.887 376.772 174.354C376.362 174.81 376.026 175.334 375.764 175.926C375.513 176.507 375.325 177.111 375.2 177.738V181.856C375.382 182.654 375.678 183.423 376.088 184.164C376.51 184.893 377.068 185.491 377.763 185.958C378.47 186.425 379.341 186.659 380.378 186.659C381.232 186.659 381.962 186.488 382.565 186.146C383.181 185.793 383.676 185.309 384.052 184.693C384.44 184.078 384.724 183.366 384.907 182.557C385.089 181.748 385.18 180.882 385.18 179.959ZM395.52 173.414V189H392.358V170.509H395.434L395.52 173.414ZM401.296 170.406L401.279 173.346C401.017 173.289 400.766 173.255 400.527 173.243C400.299 173.22 400.037 173.209 399.741 173.209C399.012 173.209 398.368 173.323 397.81 173.551C397.251 173.779 396.778 174.098 396.391 174.508C396.004 174.918 395.696 175.408 395.468 175.978C395.252 176.536 395.109 177.151 395.041 177.823L394.152 178.336C394.152 177.219 394.261 176.171 394.477 175.191C394.705 174.212 395.052 173.346 395.52 172.594C395.987 171.83 396.579 171.238 397.297 170.816C398.026 170.383 398.892 170.167 399.895 170.167C400.122 170.167 400.384 170.195 400.681 170.252C400.977 170.298 401.182 170.349 401.296 170.406ZM414.438 185.838V176.319C414.438 175.59 414.29 174.958 413.994 174.422C413.709 173.875 413.276 173.454 412.695 173.158C412.114 172.861 411.396 172.713 410.542 172.713C409.744 172.713 409.043 172.85 408.439 173.124C407.847 173.397 407.38 173.756 407.038 174.2C406.708 174.645 406.542 175.123 406.542 175.636H403.381C403.381 174.975 403.552 174.32 403.894 173.67C404.235 173.021 404.725 172.434 405.363 171.91C406.013 171.375 406.787 170.953 407.688 170.646C408.599 170.326 409.613 170.167 410.729 170.167C412.074 170.167 413.259 170.395 414.284 170.851C415.321 171.306 416.13 171.996 416.711 172.918C417.303 173.83 417.6 174.975 417.6 176.354V184.967C417.6 185.582 417.651 186.237 417.753 186.932C417.867 187.627 418.033 188.225 418.249 188.727V189H414.951C414.791 188.635 414.666 188.151 414.575 187.547C414.484 186.932 414.438 186.362 414.438 185.838ZM414.985 177.789L415.019 180.011H411.823C410.923 180.011 410.12 180.085 409.414 180.233C408.707 180.37 408.115 180.58 407.636 180.865C407.158 181.15 406.793 181.509 406.542 181.942C406.292 182.363 406.167 182.859 406.167 183.429C406.167 184.01 406.298 184.54 406.56 185.018C406.822 185.497 407.215 185.878 407.739 186.163C408.274 186.437 408.929 186.573 409.704 186.573C410.673 186.573 411.527 186.368 412.268 185.958C413.008 185.548 413.595 185.047 414.028 184.454C414.472 183.862 414.711 183.286 414.746 182.728L416.096 184.249C416.016 184.728 415.799 185.257 415.446 185.838C415.093 186.419 414.62 186.978 414.028 187.513C413.447 188.037 412.752 188.476 411.943 188.829C411.145 189.171 410.245 189.342 409.243 189.342C407.989 189.342 406.89 189.097 405.944 188.607C405.01 188.117 404.281 187.462 403.757 186.642C403.244 185.81 402.988 184.881 402.988 183.856C402.988 182.865 403.181 181.993 403.569 181.241C403.956 180.478 404.514 179.846 405.244 179.344C405.973 178.832 406.85 178.444 407.875 178.182C408.901 177.92 410.046 177.789 411.311 177.789H414.985ZM425.734 174.457V189H422.573V170.509H425.563L425.734 174.457ZM424.982 179.054L423.667 179.002C423.678 177.738 423.866 176.57 424.23 175.499C424.595 174.417 425.108 173.477 425.769 172.679C426.429 171.882 427.215 171.266 428.127 170.833C429.05 170.389 430.069 170.167 431.186 170.167C432.097 170.167 432.918 170.292 433.647 170.543C434.376 170.782 434.997 171.17 435.51 171.705C436.034 172.241 436.433 172.936 436.706 173.79C436.979 174.633 437.116 175.664 437.116 176.883V189H433.938V176.849C433.938 175.881 433.795 175.106 433.51 174.525C433.225 173.932 432.81 173.505 432.263 173.243C431.716 172.97 431.044 172.833 430.246 172.833C429.46 172.833 428.742 172.998 428.093 173.329C427.455 173.659 426.902 174.115 426.435 174.696C425.979 175.277 425.62 175.943 425.358 176.695C425.108 177.436 424.982 178.222 424.982 179.054ZM453.574 185.411V162.75H456.752V189H453.847L453.574 185.411ZM441.132 179.959V179.601C441.132 178.188 441.303 176.906 441.645 175.755C441.998 174.593 442.494 173.596 443.132 172.765C443.781 171.933 444.55 171.295 445.439 170.851C446.339 170.395 447.342 170.167 448.447 170.167C449.609 170.167 450.623 170.372 451.489 170.782C452.366 171.181 453.107 171.768 453.71 172.542C454.326 173.306 454.81 174.229 455.163 175.311C455.516 176.393 455.761 177.618 455.898 178.985V180.558C455.773 181.913 455.528 183.132 455.163 184.215C454.81 185.297 454.326 186.22 453.71 186.983C453.107 187.747 452.366 188.333 451.489 188.744C450.611 189.142 449.586 189.342 448.413 189.342C447.33 189.342 446.339 189.108 445.439 188.641C444.55 188.174 443.781 187.519 443.132 186.676C442.494 185.833 441.998 184.841 441.645 183.702C441.303 182.551 441.132 181.304 441.132 179.959ZM444.311 179.601V179.959C444.311 180.882 444.402 181.748 444.584 182.557C444.778 183.366 445.074 184.078 445.473 184.693C445.872 185.309 446.379 185.793 446.994 186.146C447.609 186.488 448.344 186.659 449.199 186.659C450.247 186.659 451.107 186.437 451.779 185.992C452.463 185.548 453.01 184.961 453.42 184.232C453.83 183.503 454.149 182.711 454.377 181.856V177.738C454.24 177.111 454.041 176.507 453.779 175.926C453.528 175.334 453.198 174.81 452.788 174.354C452.389 173.887 451.893 173.517 451.301 173.243C450.72 172.97 450.03 172.833 449.233 172.833C448.367 172.833 447.621 173.015 446.994 173.38C446.379 173.733 445.872 174.223 445.473 174.85C445.074 175.465 444.778 176.183 444.584 177.003C444.402 177.812 444.311 178.678 444.311 179.601ZM472.441 184.095C472.441 183.639 472.338 183.218 472.133 182.831C471.94 182.432 471.535 182.073 470.92 181.754C470.316 181.424 469.405 181.139 468.186 180.899C467.16 180.683 466.232 180.427 465.4 180.13C464.58 179.834 463.879 179.475 463.298 179.054C462.728 178.632 462.29 178.137 461.982 177.567C461.674 176.997 461.521 176.331 461.521 175.567C461.521 174.838 461.68 174.149 461.999 173.5C462.329 172.85 462.791 172.275 463.383 171.773C463.987 171.272 464.711 170.879 465.554 170.594C466.397 170.309 467.337 170.167 468.374 170.167C469.855 170.167 471.119 170.429 472.167 170.953C473.216 171.477 474.019 172.178 474.577 173.055C475.135 173.921 475.415 174.884 475.415 175.943H472.253C472.253 175.431 472.099 174.935 471.792 174.457C471.495 173.967 471.057 173.562 470.476 173.243C469.906 172.924 469.205 172.765 468.374 172.765C467.496 172.765 466.784 172.901 466.237 173.175C465.702 173.437 465.309 173.773 465.058 174.183C464.819 174.593 464.699 175.026 464.699 175.482C464.699 175.824 464.756 176.131 464.87 176.405C464.995 176.667 465.212 176.912 465.52 177.14C465.827 177.356 466.26 177.561 466.818 177.755C467.377 177.949 468.089 178.142 468.955 178.336C470.47 178.678 471.717 179.088 472.697 179.566C473.677 180.045 474.406 180.632 474.885 181.327C475.363 182.022 475.603 182.865 475.603 183.856C475.603 184.665 475.432 185.405 475.09 186.078C474.759 186.75 474.275 187.331 473.637 187.821C473.011 188.299 472.259 188.675 471.381 188.949C470.515 189.211 469.541 189.342 468.459 189.342C466.83 189.342 465.451 189.051 464.323 188.47C463.195 187.889 462.341 187.137 461.76 186.214C461.179 185.292 460.888 184.317 460.888 183.292H464.067C464.112 184.158 464.363 184.847 464.819 185.36C465.275 185.861 465.833 186.22 466.494 186.437C467.154 186.642 467.81 186.744 468.459 186.744C469.325 186.744 470.048 186.63 470.629 186.402C471.222 186.174 471.672 185.861 471.979 185.462C472.287 185.064 472.441 184.608 472.441 184.095ZM499.34 185.838V176.319C499.34 175.59 499.192 174.958 498.896 174.422C498.611 173.875 498.178 173.454 497.597 173.158C497.016 172.861 496.298 172.713 495.444 172.713C494.646 172.713 493.946 172.85 493.342 173.124C492.749 173.397 492.282 173.756 491.94 174.2C491.61 174.645 491.445 175.123 491.445 175.636H488.283C488.283 174.975 488.454 174.32 488.796 173.67C489.138 173.021 489.628 172.434 490.266 171.91C490.915 171.375 491.69 170.953 492.59 170.646C493.501 170.326 494.515 170.167 495.632 170.167C496.976 170.167 498.161 170.395 499.187 170.851C500.223 171.306 501.032 171.996 501.613 172.918C502.206 173.83 502.502 174.975 502.502 176.354V184.967C502.502 185.582 502.553 186.237 502.656 186.932C502.77 187.627 502.935 188.225 503.151 188.727V189H499.853C499.694 188.635 499.568 188.151 499.477 187.547C499.386 186.932 499.34 186.362 499.34 185.838ZM499.887 177.789L499.921 180.011H496.726C495.826 180.011 495.022 180.085 494.316 180.233C493.61 180.37 493.017 180.58 492.539 180.865C492.06 181.15 491.695 181.509 491.445 181.942C491.194 182.363 491.069 182.859 491.069 183.429C491.069 184.01 491.2 184.54 491.462 185.018C491.724 185.497 492.117 185.878 492.641 186.163C493.177 186.437 493.832 186.573 494.606 186.573C495.575 186.573 496.429 186.368 497.17 185.958C497.91 185.548 498.497 185.047 498.93 184.454C499.375 183.862 499.614 183.286 499.648 182.728L500.998 184.249C500.918 184.728 500.702 185.257 500.349 185.838C499.995 186.419 499.523 186.978 498.93 187.513C498.349 188.037 497.654 188.476 496.845 188.829C496.048 189.171 495.148 189.342 494.145 189.342C492.892 189.342 491.792 189.097 490.847 188.607C489.912 188.117 489.183 187.462 488.659 186.642C488.146 185.81 487.89 184.881 487.89 183.856C487.89 182.865 488.084 181.993 488.471 181.241C488.859 180.478 489.417 179.846 490.146 179.344C490.875 178.832 491.752 178.444 492.778 178.182C493.803 177.92 494.948 177.789 496.213 177.789H499.887ZM520.874 189H517.712V168.561C517.712 167.228 517.951 166.105 518.43 165.194C518.92 164.271 519.62 163.576 520.532 163.109C521.443 162.63 522.526 162.391 523.779 162.391C524.143 162.391 524.508 162.414 524.873 162.459C525.249 162.505 525.613 162.573 525.966 162.665L525.795 165.245C525.556 165.188 525.283 165.148 524.975 165.125C524.679 165.103 524.383 165.091 524.086 165.091C523.414 165.091 522.833 165.228 522.343 165.501C521.865 165.764 521.5 166.151 521.25 166.664C520.999 167.176 520.874 167.809 520.874 168.561V189ZM524.804 170.509V172.936H514.79V170.509H524.804ZM539.228 185.838V176.319C539.228 175.59 539.08 174.958 538.784 174.422C538.499 173.875 538.066 173.454 537.485 173.158C536.904 172.861 536.186 172.713 535.332 172.713C534.534 172.713 533.833 172.85 533.229 173.124C532.637 173.397 532.17 173.756 531.828 174.2C531.498 174.645 531.333 175.123 531.333 175.636H528.171C528.171 174.975 528.342 174.32 528.684 173.67C529.025 173.021 529.515 172.434 530.153 171.91C530.803 171.375 531.577 170.953 532.478 170.646C533.389 170.326 534.403 170.167 535.52 170.167C536.864 170.167 538.049 170.395 539.074 170.851C540.111 171.306 540.92 171.996 541.501 172.918C542.093 173.83 542.39 174.975 542.39 176.354V184.967C542.39 185.582 542.441 186.237 542.543 186.932C542.657 187.627 542.823 188.225 543.039 188.727V189H539.741C539.581 188.635 539.456 188.151 539.365 187.547C539.274 186.932 539.228 186.362 539.228 185.838ZM539.775 177.789L539.809 180.011H536.613C535.713 180.011 534.91 180.085 534.204 180.233C533.497 180.37 532.905 180.58 532.426 180.865C531.948 181.15 531.583 181.509 531.333 181.942C531.082 182.363 530.957 182.859 530.957 183.429C530.957 184.01 531.088 184.54 531.35 185.018C531.612 185.497 532.005 185.878 532.529 186.163C533.064 186.437 533.719 186.573 534.494 186.573C535.463 186.573 536.317 186.368 537.058 185.958C537.798 185.548 538.385 185.047 538.818 184.454C539.262 183.862 539.501 183.286 539.536 182.728L540.886 184.249C540.806 184.728 540.59 185.257 540.236 185.838C539.883 186.419 539.41 186.978 538.818 187.513C538.237 188.037 537.542 188.476 536.733 188.829C535.935 189.171 535.035 189.342 534.033 189.342C532.779 189.342 531.68 189.097 530.734 188.607C529.8 188.117 529.071 187.462 528.547 186.642C528.034 185.81 527.778 184.881 527.778 183.856C527.778 182.865 527.972 181.993 528.359 181.241C528.746 180.478 529.305 179.846 530.034 179.344C530.763 178.832 531.64 178.444 532.666 178.182C533.691 177.92 534.836 177.789 536.101 177.789H539.775ZM550.798 170.509V189H547.619V170.509H550.798ZM547.38 165.604C547.38 165.091 547.534 164.658 547.841 164.305C548.16 163.952 548.627 163.775 549.243 163.775C549.847 163.775 550.308 163.952 550.627 164.305C550.957 164.658 551.123 165.091 551.123 165.604C551.123 166.094 550.957 166.515 550.627 166.869C550.308 167.21 549.847 167.381 549.243 167.381C548.627 167.381 548.16 167.21 547.841 166.869C547.534 166.515 547.38 166.094 547.38 165.604ZM559.035 173.414V189H555.874V170.509H558.95L559.035 173.414ZM564.812 170.406L564.794 173.346C564.532 173.289 564.282 173.255 564.042 173.243C563.815 173.22 563.553 173.209 563.256 173.209C562.527 173.209 561.883 173.323 561.325 173.551C560.767 173.779 560.294 174.098 559.907 174.508C559.519 174.918 559.212 175.408 558.984 175.978C558.767 176.536 558.625 177.151 558.557 177.823L557.668 178.336C557.668 177.219 557.776 176.171 557.993 175.191C558.221 174.212 558.568 173.346 559.035 172.594C559.502 171.83 560.095 171.238 560.812 170.816C561.542 170.383 562.408 170.167 563.41 170.167C563.638 170.167 563.9 170.195 564.196 170.252C564.493 170.298 564.698 170.349 564.812 170.406ZM152.81 238.744C153.562 238.744 154.257 238.59 154.895 238.283C155.533 237.975 156.057 237.554 156.467 237.018C156.877 236.471 157.111 235.85 157.167 235.155H160.175C160.118 236.249 159.748 237.269 159.064 238.214C158.392 239.149 157.509 239.906 156.416 240.487C155.322 241.057 154.12 241.342 152.81 241.342C151.42 241.342 150.206 241.097 149.169 240.607C148.144 240.117 147.29 239.445 146.606 238.59C145.934 237.736 145.427 236.756 145.085 235.651C144.755 234.534 144.589 233.355 144.589 232.113V231.396C144.589 230.154 144.755 228.98 145.085 227.875C145.427 226.758 145.934 225.773 146.606 224.918C147.29 224.064 148.144 223.392 149.169 222.902C150.206 222.412 151.42 222.167 152.81 222.167C154.257 222.167 155.521 222.463 156.604 223.056C157.686 223.637 158.535 224.434 159.15 225.448C159.777 226.451 160.118 227.59 160.175 228.866H157.167C157.111 228.103 156.894 227.414 156.518 226.798C156.153 226.183 155.652 225.693 155.014 225.329C154.388 224.953 153.653 224.765 152.81 224.765C151.841 224.765 151.027 224.958 150.366 225.346C149.716 225.722 149.198 226.234 148.811 226.884C148.435 227.522 148.161 228.234 147.99 229.02C147.831 229.795 147.751 230.587 147.751 231.396V232.113C147.751 232.922 147.831 233.72 147.99 234.506C148.15 235.292 148.417 236.004 148.793 236.642C149.181 237.28 149.699 237.793 150.349 238.18C151.009 238.556 151.83 238.744 152.81 238.744ZM166.892 214.75V241H163.73V214.75H166.892ZM166.14 231.054L164.824 231.002C164.835 229.738 165.023 228.57 165.388 227.499C165.752 226.417 166.265 225.477 166.926 224.679C167.587 223.882 168.373 223.266 169.284 222.833C170.207 222.389 171.227 222.167 172.343 222.167C173.255 222.167 174.075 222.292 174.804 222.543C175.533 222.782 176.154 223.17 176.667 223.705C177.191 224.241 177.59 224.936 177.863 225.79C178.137 226.633 178.273 227.664 178.273 228.883V241H175.095V228.849C175.095 227.881 174.952 227.106 174.667 226.525C174.383 225.932 173.967 225.505 173.42 225.243C172.873 224.97 172.201 224.833 171.403 224.833C170.617 224.833 169.899 224.998 169.25 225.329C168.612 225.659 168.059 226.115 167.592 226.696C167.137 227.277 166.778 227.943 166.516 228.695C166.265 229.436 166.14 230.222 166.14 231.054ZM193.911 237.838V228.319C193.911 227.59 193.763 226.958 193.466 226.422C193.181 225.875 192.749 225.454 192.167 225.158C191.586 224.861 190.869 224.713 190.014 224.713C189.217 224.713 188.516 224.85 187.912 225.124C187.32 225.397 186.853 225.756 186.511 226.2C186.18 226.645 186.015 227.123 186.015 227.636H182.854C182.854 226.975 183.024 226.32 183.366 225.67C183.708 225.021 184.198 224.434 184.836 223.91C185.485 223.375 186.26 222.953 187.16 222.646C188.072 222.326 189.086 222.167 190.202 222.167C191.547 222.167 192.731 222.395 193.757 222.851C194.794 223.306 195.603 223.996 196.184 224.918C196.776 225.83 197.072 226.975 197.072 228.354V236.967C197.072 237.582 197.124 238.237 197.226 238.932C197.34 239.627 197.505 240.225 197.722 240.727V241H194.423C194.264 240.635 194.139 240.151 194.047 239.547C193.956 238.932 193.911 238.362 193.911 237.838ZM194.458 229.789L194.492 232.011H191.296C190.396 232.011 189.593 232.085 188.886 232.233C188.18 232.37 187.587 232.58 187.109 232.865C186.63 233.15 186.266 233.509 186.015 233.942C185.764 234.363 185.639 234.859 185.639 235.429C185.639 236.01 185.77 236.54 186.032 237.018C186.294 237.497 186.687 237.878 187.211 238.163C187.747 238.437 188.402 238.573 189.177 238.573C190.145 238.573 191 238.368 191.74 237.958C192.481 237.548 193.068 237.047 193.5 236.454C193.945 235.862 194.184 235.286 194.218 234.728L195.568 236.249C195.489 236.728 195.272 237.257 194.919 237.838C194.566 238.419 194.093 238.978 193.5 239.513C192.919 240.037 192.224 240.476 191.416 240.829C190.618 241.171 189.718 241.342 188.715 241.342C187.462 241.342 186.363 241.097 185.417 240.607C184.483 240.117 183.754 239.462 183.229 238.642C182.717 237.81 182.46 236.881 182.46 235.856C182.46 234.865 182.654 233.993 183.042 233.241C183.429 232.478 183.987 231.846 184.716 231.344C185.445 230.832 186.323 230.444 187.348 230.182C188.374 229.92 189.519 229.789 190.783 229.789H194.458ZM205.207 226.457V241H202.045V222.509H205.036L205.207 226.457ZM204.455 231.054L203.139 231.002C203.151 229.738 203.339 228.57 203.703 227.499C204.068 226.417 204.58 225.477 205.241 224.679C205.902 223.882 206.688 223.266 207.6 222.833C208.522 222.389 209.542 222.167 210.659 222.167C211.57 222.167 212.39 222.292 213.12 222.543C213.849 222.782 214.47 223.17 214.982 223.705C215.507 224.241 215.905 224.936 216.179 225.79C216.452 226.633 216.589 227.664 216.589 228.883V241H213.41V228.849C213.41 227.881 213.268 227.106 212.983 226.525C212.698 225.932 212.282 225.505 211.735 225.243C211.188 224.97 210.516 224.833 209.719 224.833C208.933 224.833 208.215 224.998 207.565 225.329C206.927 225.659 206.375 226.115 205.908 226.696C205.452 227.277 205.093 227.943 204.831 228.695C204.58 229.436 204.455 230.222 204.455 231.054ZM228.791 238.744C229.543 238.744 230.238 238.59 230.876 238.283C231.514 237.975 232.038 237.554 232.448 237.018C232.858 236.471 233.092 235.85 233.149 235.155H236.157C236.1 236.249 235.729 237.269 235.046 238.214C234.374 239.149 233.491 239.906 232.397 240.487C231.303 241.057 230.101 241.342 228.791 241.342C227.401 241.342 226.188 241.097 225.151 240.607C224.125 240.117 223.271 239.445 222.587 238.59C221.915 237.736 221.408 236.756 221.066 235.651C220.736 234.534 220.571 233.355 220.571 232.113V231.396C220.571 230.154 220.736 228.98 221.066 227.875C221.408 226.758 221.915 225.773 222.587 224.918C223.271 224.064 224.125 223.392 225.151 222.902C226.188 222.412 227.401 222.167 228.791 222.167C230.238 222.167 231.503 222.463 232.585 223.056C233.667 223.637 234.516 224.434 235.131 225.448C235.758 226.451 236.1 227.59 236.157 228.866H233.149C233.092 228.103 232.875 227.414 232.5 226.798C232.135 226.183 231.634 225.693 230.996 225.329C230.369 224.953 229.634 224.765 228.791 224.765C227.823 224.765 227.008 224.958 226.347 225.346C225.698 225.722 225.179 226.234 224.792 226.884C224.416 227.522 224.143 228.234 223.972 229.02C223.812 229.795 223.732 230.587 223.732 231.396V232.113C223.732 232.922 223.812 233.72 223.972 234.506C224.131 235.292 224.399 236.004 224.775 236.642C225.162 237.28 225.681 237.793 226.33 238.18C226.991 238.556 227.811 238.744 228.791 238.744ZM247.385 241.342C246.097 241.342 244.93 241.125 243.881 240.692C242.845 240.248 241.95 239.627 241.198 238.83C240.458 238.032 239.888 237.086 239.489 235.993C239.09 234.899 238.891 233.703 238.891 232.404V231.686C238.891 230.182 239.113 228.843 239.558 227.67C240.002 226.485 240.606 225.482 241.369 224.662C242.132 223.842 242.998 223.221 243.967 222.799C244.935 222.378 245.938 222.167 246.975 222.167C248.296 222.167 249.436 222.395 250.393 222.851C251.361 223.306 252.153 223.944 252.768 224.765C253.383 225.574 253.839 226.531 254.135 227.636C254.431 228.729 254.58 229.926 254.58 231.225V232.643H240.771V230.062H251.418V229.823C251.372 229.003 251.201 228.205 250.905 227.431C250.62 226.656 250.165 226.018 249.538 225.517C248.911 225.015 248.057 224.765 246.975 224.765C246.257 224.765 245.596 224.918 244.992 225.226C244.388 225.522 243.87 225.967 243.437 226.559C243.004 227.152 242.668 227.875 242.429 228.729C242.189 229.584 242.07 230.569 242.07 231.686V232.404C242.07 233.281 242.189 234.107 242.429 234.882C242.679 235.645 243.038 236.317 243.505 236.898C243.984 237.479 244.559 237.935 245.231 238.266C245.915 238.596 246.69 238.761 247.556 238.761C248.672 238.761 249.618 238.533 250.393 238.078C251.167 237.622 251.845 237.012 252.426 236.249L254.34 237.77C253.942 238.374 253.435 238.949 252.819 239.496C252.204 240.043 251.446 240.487 250.546 240.829C249.658 241.171 248.604 241.342 247.385 241.342ZM274.694 222.509V224.936H264.697V222.509H274.694ZM268.081 218.014H271.242V236.42C271.242 237.047 271.339 237.519 271.533 237.838C271.726 238.157 271.977 238.368 272.285 238.471C272.592 238.573 272.923 238.625 273.276 238.625C273.538 238.625 273.811 238.602 274.096 238.556C274.392 238.499 274.615 238.454 274.763 238.419L274.78 241C274.529 241.08 274.199 241.154 273.789 241.222C273.39 241.302 272.906 241.342 272.336 241.342C271.561 241.342 270.849 241.188 270.2 240.88C269.55 240.573 269.032 240.06 268.645 239.342C268.269 238.613 268.081 237.633 268.081 236.403V218.014ZM277.224 231.959V231.566C277.224 230.233 277.417 228.997 277.805 227.858C278.192 226.707 278.75 225.71 279.479 224.867C280.209 224.013 281.092 223.352 282.128 222.885C283.165 222.406 284.327 222.167 285.615 222.167C286.914 222.167 288.081 222.406 289.118 222.885C290.166 223.352 291.055 224.013 291.784 224.867C292.525 225.71 293.089 226.707 293.476 227.858C293.863 228.997 294.057 230.233 294.057 231.566V231.959C294.057 233.292 293.863 234.529 293.476 235.668C293.089 236.807 292.525 237.804 291.784 238.659C291.055 239.502 290.172 240.163 289.135 240.641C288.11 241.108 286.948 241.342 285.649 241.342C284.35 241.342 283.182 241.108 282.146 240.641C281.109 240.163 280.22 239.502 279.479 238.659C278.75 237.804 278.192 236.807 277.805 235.668C277.417 234.529 277.224 233.292 277.224 231.959ZM280.385 231.566V231.959C280.385 232.882 280.493 233.754 280.71 234.574C280.926 235.383 281.251 236.101 281.684 236.728C282.128 237.354 282.681 237.85 283.342 238.214C284.003 238.568 284.772 238.744 285.649 238.744C286.515 238.744 287.272 238.568 287.922 238.214C288.583 237.85 289.13 237.354 289.562 236.728C289.995 236.101 290.32 235.383 290.537 234.574C290.764 233.754 290.878 232.882 290.878 231.959V231.566C290.878 230.655 290.764 229.795 290.537 228.986C290.32 228.166 289.99 227.442 289.545 226.815C289.112 226.177 288.566 225.676 287.905 225.312C287.255 224.947 286.492 224.765 285.615 224.765C284.749 224.765 283.986 224.947 283.325 225.312C282.675 225.676 282.128 226.177 281.684 226.815C281.251 227.442 280.926 228.166 280.71 228.986C280.493 229.795 280.385 230.655 280.385 231.566ZM306.687 214.75H309.865V237.411L309.592 241H306.687V214.75ZM322.358 231.601V231.959C322.358 233.304 322.198 234.551 321.879 235.702C321.56 236.841 321.093 237.833 320.478 238.676C319.863 239.519 319.111 240.174 318.222 240.641C317.333 241.108 316.314 241.342 315.163 241.342C313.99 241.342 312.958 241.142 312.07 240.744C311.193 240.333 310.452 239.747 309.848 238.983C309.244 238.22 308.76 237.297 308.396 236.215C308.042 235.132 307.797 233.913 307.661 232.558V230.985C307.797 229.618 308.042 228.393 308.396 227.311C308.76 226.229 309.244 225.306 309.848 224.542C310.452 223.768 311.193 223.181 312.07 222.782C312.947 222.372 313.967 222.167 315.129 222.167C316.291 222.167 317.322 222.395 318.222 222.851C319.122 223.295 319.874 223.933 320.478 224.765C321.093 225.596 321.56 226.593 321.879 227.755C322.198 228.906 322.358 230.188 322.358 231.601ZM319.179 231.959V231.601C319.179 230.678 319.094 229.812 318.923 229.003C318.752 228.183 318.479 227.465 318.103 226.85C317.727 226.223 317.231 225.733 316.616 225.38C316 225.015 315.243 224.833 314.343 224.833C313.545 224.833 312.85 224.97 312.258 225.243C311.677 225.517 311.181 225.887 310.771 226.354C310.361 226.81 310.025 227.334 309.763 227.926C309.512 228.507 309.324 229.111 309.199 229.738V233.856C309.381 234.654 309.677 235.423 310.087 236.164C310.509 236.893 311.067 237.491 311.762 237.958C312.469 238.425 313.34 238.659 314.377 238.659C315.231 238.659 315.961 238.488 316.564 238.146C317.18 237.793 317.675 237.309 318.051 236.693C318.439 236.078 318.723 235.366 318.906 234.557C319.088 233.748 319.179 232.882 319.179 231.959ZM337.67 236.728V222.509H340.849V241H337.824L337.67 236.728ZM338.269 232.831L339.584 232.797C339.584 234.027 339.453 235.167 339.191 236.215C338.941 237.252 338.531 238.152 337.961 238.915C337.391 239.678 336.645 240.277 335.722 240.709C334.799 241.131 333.677 241.342 332.355 241.342C331.455 241.342 330.629 241.211 329.877 240.949C329.137 240.687 328.499 240.282 327.963 239.735C327.428 239.188 327.012 238.476 326.716 237.599C326.431 236.722 326.289 235.668 326.289 234.438V222.509H329.45V234.472C329.45 235.303 329.541 235.993 329.724 236.54C329.917 237.075 330.174 237.502 330.493 237.821C330.823 238.129 331.188 238.345 331.586 238.471C331.997 238.596 332.418 238.659 332.851 238.659C334.195 238.659 335.261 238.402 336.047 237.89C336.833 237.366 337.397 236.665 337.739 235.788C338.092 234.899 338.269 233.913 338.269 232.831ZM349.104 222.509V241H345.925V222.509H349.104ZM345.686 217.604C345.686 217.091 345.839 216.658 346.147 216.305C346.466 215.952 346.933 215.775 347.548 215.775C348.152 215.775 348.614 215.952 348.933 216.305C349.263 216.658 349.428 217.091 349.428 217.604C349.428 218.094 349.263 218.515 348.933 218.869C348.614 219.21 348.152 219.381 347.548 219.381C346.933 219.381 346.466 219.21 346.147 218.869C345.839 218.515 345.686 218.094 345.686 217.604ZM357.614 214.75V241H354.436V214.75H357.614ZM374.345 237.411V214.75H377.524V241H374.619L374.345 237.411ZM361.904 231.959V231.601C361.904 230.188 362.075 228.906 362.417 227.755C362.77 226.593 363.265 225.596 363.903 224.765C364.553 223.933 365.322 223.295 366.21 222.851C367.111 222.395 368.113 222.167 369.218 222.167C370.38 222.167 371.394 222.372 372.26 222.782C373.138 223.181 373.878 223.768 374.482 224.542C375.097 225.306 375.581 226.229 375.935 227.311C376.288 228.393 376.533 229.618 376.669 230.985V232.558C376.544 233.913 376.299 235.132 375.935 236.215C375.581 237.297 375.097 238.22 374.482 238.983C373.878 239.747 373.138 240.333 372.26 240.744C371.383 241.142 370.358 241.342 369.184 241.342C368.102 241.342 367.111 241.108 366.21 240.641C365.322 240.174 364.553 239.519 363.903 238.676C363.265 237.833 362.77 236.841 362.417 235.702C362.075 234.551 361.904 233.304 361.904 231.959ZM365.083 231.601V231.959C365.083 232.882 365.174 233.748 365.356 234.557C365.55 235.366 365.846 236.078 366.245 236.693C366.643 237.309 367.15 237.793 367.766 238.146C368.381 238.488 369.116 238.659 369.97 238.659C371.018 238.659 371.879 238.437 372.551 237.992C373.234 237.548 373.781 236.961 374.191 236.232C374.602 235.503 374.921 234.711 375.148 233.856V229.738C375.012 229.111 374.812 228.507 374.55 227.926C374.3 227.334 373.969 226.81 373.559 226.354C373.16 225.887 372.665 225.517 372.072 225.243C371.491 224.97 370.802 224.833 370.004 224.833C369.139 224.833 368.392 225.015 367.766 225.38C367.15 225.733 366.643 226.223 366.245 226.85C365.846 227.465 365.55 228.183 365.356 229.003C365.174 229.812 365.083 230.678 365.083 231.601ZM402.031 237.838V228.319C402.031 227.59 401.883 226.958 401.586 226.422C401.302 225.875 400.869 225.454 400.288 225.158C399.707 224.861 398.989 224.713 398.134 224.713C397.337 224.713 396.636 224.85 396.032 225.124C395.44 225.397 394.973 225.756 394.631 226.2C394.3 226.645 394.135 227.123 394.135 227.636H390.974C390.974 226.975 391.145 226.32 391.486 225.67C391.828 225.021 392.318 224.434 392.956 223.91C393.605 223.375 394.38 222.953 395.28 222.646C396.192 222.326 397.206 222.167 398.322 222.167C399.667 222.167 400.852 222.395 401.877 222.851C402.914 223.306 403.723 223.996 404.304 224.918C404.896 225.83 405.192 226.975 405.192 228.354V236.967C405.192 237.582 405.244 238.237 405.346 238.932C405.46 239.627 405.625 240.225 405.842 240.727V241H402.543C402.384 240.635 402.259 240.151 402.167 239.547C402.076 238.932 402.031 238.362 402.031 237.838ZM402.578 229.789L402.612 232.011H399.416C398.516 232.011 397.713 232.085 397.006 232.233C396.3 232.37 395.708 232.58 395.229 232.865C394.75 233.15 394.386 233.509 394.135 233.942C393.885 234.363 393.759 234.859 393.759 235.429C393.759 236.01 393.89 236.54 394.152 237.018C394.414 237.497 394.807 237.878 395.332 238.163C395.867 238.437 396.522 238.573 397.297 238.573C398.265 238.573 399.12 238.368 399.86 237.958C400.601 237.548 401.188 237.047 401.621 236.454C402.065 235.862 402.304 235.286 402.338 234.728L403.688 236.249C403.609 236.728 403.392 237.257 403.039 237.838C402.686 238.419 402.213 238.978 401.621 239.513C401.04 240.037 400.345 240.476 399.536 240.829C398.738 241.171 397.838 241.342 396.835 241.342C395.582 241.342 394.483 241.097 393.537 240.607C392.603 240.117 391.874 239.462 391.35 238.642C390.837 237.81 390.581 236.881 390.581 235.856C390.581 234.865 390.774 233.993 391.162 233.241C391.549 232.478 392.107 231.846 392.836 231.344C393.566 230.832 394.443 230.444 395.468 230.182C396.494 229.92 397.639 229.789 398.903 229.789H402.578ZM430.827 222.509H433.698V240.607C433.698 242.236 433.368 243.626 432.707 244.777C432.046 245.928 431.123 246.799 429.938 247.392C428.765 247.995 427.409 248.297 425.871 248.297C425.233 248.297 424.481 248.195 423.615 247.99C422.761 247.796 421.918 247.46 421.086 246.981C420.266 246.514 419.576 245.882 419.018 245.084L420.676 243.205C421.451 244.139 422.259 244.788 423.103 245.153C423.957 245.517 424.8 245.7 425.632 245.7C426.634 245.7 427.5 245.512 428.229 245.136C428.959 244.76 429.523 244.201 429.921 243.461C430.332 242.732 430.537 241.832 430.537 240.761V226.576L430.827 222.509ZM418.095 231.959V231.601C418.095 230.188 418.26 228.906 418.591 227.755C418.933 226.593 419.417 225.596 420.043 224.765C420.681 223.933 421.451 223.295 422.351 222.851C423.251 222.395 424.265 222.167 425.393 222.167C426.555 222.167 427.569 222.372 428.435 222.782C429.312 223.181 430.052 223.768 430.656 224.542C431.271 225.306 431.756 226.229 432.109 227.311C432.462 228.393 432.707 229.618 432.844 230.985V232.558C432.718 233.913 432.473 235.132 432.109 236.215C431.756 237.297 431.271 238.22 430.656 238.983C430.052 239.747 429.312 240.333 428.435 240.744C427.557 241.142 426.532 241.342 425.358 241.342C424.253 241.342 423.251 241.108 422.351 240.641C421.462 240.174 420.699 239.519 420.061 238.676C419.423 237.833 418.933 236.841 418.591 235.702C418.26 234.551 418.095 233.304 418.095 231.959ZM421.257 231.601V231.959C421.257 232.882 421.348 233.748 421.53 234.557C421.724 235.366 422.014 236.078 422.402 236.693C422.801 237.309 423.308 237.793 423.923 238.146C424.538 238.488 425.273 238.659 426.127 238.659C427.176 238.659 428.042 238.437 428.725 237.992C429.409 237.548 429.95 236.961 430.349 236.232C430.759 235.503 431.078 234.711 431.306 233.856V229.738C431.18 229.111 430.987 228.507 430.725 227.926C430.474 227.334 430.144 226.81 429.733 226.354C429.335 225.887 428.839 225.517 428.247 225.243C427.654 224.97 426.959 224.833 426.162 224.833C425.296 224.833 424.549 225.015 423.923 225.38C423.308 225.733 422.801 226.223 422.402 226.85C422.014 227.465 421.724 228.183 421.53 229.003C421.348 229.812 421.257 230.678 421.257 231.601ZM441.662 225.414V241H438.5V222.509H441.577L441.662 225.414ZM447.438 222.406L447.421 225.346C447.159 225.289 446.909 225.255 446.669 225.243C446.442 225.22 446.18 225.209 445.883 225.209C445.154 225.209 444.51 225.323 443.952 225.551C443.394 225.779 442.921 226.098 442.534 226.508C442.146 226.918 441.839 227.408 441.611 227.978C441.394 228.536 441.252 229.151 441.184 229.823L440.295 230.336C440.295 229.219 440.403 228.171 440.62 227.191C440.847 226.212 441.195 225.346 441.662 224.594C442.129 223.83 442.722 223.238 443.439 222.816C444.169 222.383 445.035 222.167 446.037 222.167C446.265 222.167 446.527 222.195 446.823 222.252C447.119 222.298 447.325 222.349 447.438 222.406ZM457.692 241.342C456.405 241.342 455.237 241.125 454.189 240.692C453.152 240.248 452.258 239.627 451.506 238.83C450.765 238.032 450.196 237.086 449.797 235.993C449.398 234.899 449.199 233.703 449.199 232.404V231.686C449.199 230.182 449.421 228.843 449.865 227.67C450.31 226.485 450.913 225.482 451.677 224.662C452.44 223.842 453.306 223.221 454.274 222.799C455.243 222.378 456.245 222.167 457.282 222.167C458.604 222.167 459.743 222.395 460.7 222.851C461.669 223.306 462.46 223.944 463.076 224.765C463.691 225.574 464.147 226.531 464.443 227.636C464.739 228.729 464.887 229.926 464.887 231.225V232.643H451.079V230.062H461.726V229.823C461.68 229.003 461.509 228.205 461.213 227.431C460.928 226.656 460.472 226.018 459.846 225.517C459.219 225.015 458.365 224.765 457.282 224.765C456.564 224.765 455.904 224.918 455.3 225.226C454.696 225.522 454.178 225.967 453.745 226.559C453.312 227.152 452.976 227.875 452.736 228.729C452.497 229.584 452.377 230.569 452.377 231.686V232.404C452.377 233.281 452.497 234.107 452.736 234.882C452.987 235.645 453.346 236.317 453.813 236.898C454.292 237.479 454.867 237.935 455.539 238.266C456.223 238.596 456.997 238.761 457.863 238.761C458.98 238.761 459.925 238.533 460.7 238.078C461.475 237.622 462.153 237.012 462.734 236.249L464.648 237.77C464.249 238.374 463.742 238.949 463.127 239.496C462.512 240.043 461.754 240.487 460.854 240.829C459.965 241.171 458.911 241.342 457.692 241.342ZM479.482 237.838V228.319C479.482 227.59 479.334 226.958 479.038 226.422C478.753 225.875 478.32 225.454 477.739 225.158C477.158 224.861 476.44 224.713 475.585 224.713C474.788 224.713 474.087 224.85 473.483 225.124C472.891 225.397 472.424 225.756 472.082 226.2C471.752 226.645 471.586 227.123 471.586 227.636H468.425C468.425 226.975 468.596 226.32 468.938 225.67C469.279 225.021 469.769 224.434 470.407 223.91C471.057 223.375 471.831 222.953 472.731 222.646C473.643 222.326 474.657 222.167 475.773 222.167C477.118 222.167 478.303 222.395 479.328 222.851C480.365 223.306 481.174 223.996 481.755 224.918C482.347 225.83 482.644 226.975 482.644 228.354V236.967C482.644 237.582 482.695 238.237 482.797 238.932C482.911 239.627 483.076 240.225 483.293 240.727V241H479.995C479.835 240.635 479.71 240.151 479.619 239.547C479.528 238.932 479.482 238.362 479.482 237.838ZM480.029 229.789L480.063 232.011H476.867C475.967 232.011 475.164 232.085 474.458 232.233C473.751 232.37 473.159 232.58 472.68 232.865C472.202 233.15 471.837 233.509 471.586 233.942C471.336 234.363 471.21 234.859 471.21 235.429C471.21 236.01 471.341 236.54 471.604 237.018C471.866 237.497 472.259 237.878 472.783 238.163C473.318 238.437 473.973 238.573 474.748 238.573C475.716 238.573 476.571 238.368 477.312 237.958C478.052 237.548 478.639 237.047 479.072 236.454C479.516 235.862 479.755 235.286 479.79 234.728L481.14 236.249C481.06 236.728 480.843 237.257 480.49 237.838C480.137 238.419 479.664 238.978 479.072 239.513C478.491 240.037 477.796 240.476 476.987 240.829C476.189 241.171 475.289 241.342 474.287 241.342C473.033 241.342 471.934 241.097 470.988 240.607C470.054 240.117 469.325 239.462 468.801 238.642C468.288 237.81 468.032 236.881 468.032 235.856C468.032 234.865 468.225 233.993 468.613 233.241C469 232.478 469.558 231.846 470.288 231.344C471.017 230.832 471.894 230.444 472.919 230.182C473.945 229.92 475.09 229.789 476.354 229.789H480.029ZM495.358 222.509V224.936H485.361V222.509H495.358ZM488.745 218.014H491.906V236.42C491.906 237.047 492.003 237.519 492.197 237.838C492.39 238.157 492.641 238.368 492.949 238.471C493.256 238.573 493.587 238.625 493.94 238.625C494.202 238.625 494.475 238.602 494.76 238.556C495.056 238.499 495.279 238.454 495.427 238.419L495.444 241C495.193 241.08 494.863 241.154 494.453 241.222C494.054 241.302 493.57 241.342 493 241.342C492.225 241.342 491.513 241.188 490.864 240.88C490.214 240.573 489.696 240.06 489.309 239.342C488.933 238.613 488.745 237.633 488.745 236.403V218.014ZM507.731 214.75H510.91V237.411L510.637 241H507.731V214.75ZM523.403 231.601V231.959C523.403 233.304 523.243 234.551 522.924 235.702C522.605 236.841 522.138 237.833 521.523 238.676C520.908 239.519 520.156 240.174 519.267 240.641C518.378 241.108 517.359 241.342 516.208 241.342C515.035 241.342 514.003 241.142 513.115 240.744C512.237 240.333 511.497 239.747 510.893 238.983C510.289 238.22 509.805 237.297 509.44 236.215C509.087 235.132 508.842 233.913 508.706 232.558V230.985C508.842 229.618 509.087 228.393 509.44 227.311C509.805 226.229 510.289 225.306 510.893 224.542C511.497 223.768 512.237 223.181 513.115 222.782C513.992 222.372 515.012 222.167 516.174 222.167C517.336 222.167 518.367 222.395 519.267 222.851C520.167 223.295 520.919 223.933 521.523 224.765C522.138 225.596 522.605 226.593 522.924 227.755C523.243 228.906 523.403 230.188 523.403 231.601ZM520.224 231.959V231.601C520.224 230.678 520.139 229.812 519.968 229.003C519.797 228.183 519.523 227.465 519.147 226.85C518.771 226.223 518.276 225.733 517.661 225.38C517.045 225.015 516.288 224.833 515.388 224.833C514.59 224.833 513.895 224.97 513.303 225.243C512.722 225.517 512.226 225.887 511.816 226.354C511.406 226.81 511.07 227.334 510.808 227.926C510.557 228.507 510.369 229.111 510.244 229.738V233.856C510.426 234.654 510.722 235.423 511.132 236.164C511.554 236.893 512.112 237.491 512.807 237.958C513.514 238.425 514.385 238.659 515.422 238.659C516.276 238.659 517.006 238.488 517.609 238.146C518.225 237.793 518.72 237.309 519.096 236.693C519.484 236.078 519.768 235.366 519.951 234.557C520.133 233.748 520.224 232.882 520.224 231.959ZM530.563 225.414V241H527.402V222.509H530.478L530.563 225.414ZM536.34 222.406L536.323 225.346C536.061 225.289 535.81 225.255 535.571 225.243C535.343 225.22 535.081 225.209 534.785 225.209C534.056 225.209 533.412 225.323 532.854 225.551C532.295 225.779 531.822 226.098 531.435 226.508C531.048 226.918 530.74 227.408 530.512 227.978C530.296 228.536 530.153 229.151 530.085 229.823L529.196 230.336C529.196 229.219 529.305 228.171 529.521 227.191C529.749 226.212 530.096 225.346 530.563 224.594C531.031 223.83 531.623 223.238 532.341 222.816C533.07 222.383 533.936 222.167 534.938 222.167C535.166 222.167 535.428 222.195 535.725 222.252C536.021 222.298 536.226 222.349 536.34 222.406ZM549.482 237.838V228.319C549.482 227.59 549.334 226.958 549.038 226.422C548.753 225.875 548.32 225.454 547.739 225.158C547.158 224.861 546.44 224.713 545.585 224.713C544.788 224.713 544.087 224.85 543.483 225.124C542.891 225.397 542.424 225.756 542.082 226.2C541.752 226.645 541.586 227.123 541.586 227.636H538.425C538.425 226.975 538.596 226.32 538.938 225.67C539.279 225.021 539.769 224.434 540.407 223.91C541.057 223.375 541.831 222.953 542.731 222.646C543.643 222.326 544.657 222.167 545.773 222.167C547.118 222.167 548.303 222.395 549.328 222.851C550.365 223.306 551.174 223.996 551.755 224.918C552.347 225.83 552.644 226.975 552.644 228.354V236.967C552.644 237.582 552.695 238.237 552.797 238.932C552.911 239.627 553.076 240.225 553.293 240.727V241H549.995C549.835 240.635 549.71 240.151 549.619 239.547C549.528 238.932 549.482 238.362 549.482 237.838ZM550.029 229.789L550.063 232.011H546.867C545.967 232.011 545.164 232.085 544.458 232.233C543.751 232.37 543.159 232.58 542.68 232.865C542.202 233.15 541.837 233.509 541.586 233.942C541.336 234.363 541.21 234.859 541.21 235.429C541.21 236.01 541.341 236.54 541.604 237.018C541.866 237.497 542.259 237.878 542.783 238.163C543.318 238.437 543.973 238.573 544.748 238.573C545.716 238.573 546.571 238.368 547.312 237.958C548.052 237.548 548.639 237.047 549.072 236.454C549.516 235.862 549.755 235.286 549.79 234.728L551.14 236.249C551.06 236.728 550.843 237.257 550.49 237.838C550.137 238.419 549.664 238.978 549.072 239.513C548.491 240.037 547.796 240.476 546.987 240.829C546.189 241.171 545.289 241.342 544.287 241.342C543.033 241.342 541.934 241.097 540.988 240.607C540.054 240.117 539.325 239.462 538.801 238.642C538.288 237.81 538.032 236.881 538.032 235.856C538.032 234.865 538.225 233.993 538.613 233.241C539 232.478 539.558 231.846 540.288 231.344C541.017 230.832 541.894 230.444 542.919 230.182C543.945 229.92 545.09 229.789 546.354 229.789H550.029ZM560.778 226.457V241H557.617V222.509H560.607L560.778 226.457ZM560.026 231.054L558.71 231.002C558.722 229.738 558.91 228.57 559.274 227.499C559.639 226.417 560.152 225.477 560.812 224.679C561.473 223.882 562.259 223.266 563.171 222.833C564.094 222.389 565.113 222.167 566.23 222.167C567.141 222.167 567.962 222.292 568.691 222.543C569.42 222.782 570.041 223.17 570.554 223.705C571.078 224.241 571.477 224.936 571.75 225.79C572.023 226.633 572.16 227.664 572.16 228.883V241H568.981V228.849C568.981 227.881 568.839 227.106 568.554 226.525C568.269 225.932 567.854 225.505 567.307 225.243C566.76 224.97 566.088 224.833 565.29 224.833C564.504 224.833 563.786 224.998 563.137 225.329C562.499 225.659 561.946 226.115 561.479 226.696C561.023 227.277 560.664 227.943 560.402 228.695C560.152 229.436 560.026 230.222 560.026 231.054ZM588.618 237.411V214.75H591.796V241H588.891L588.618 237.411ZM576.176 231.959V231.601C576.176 230.188 576.347 228.906 576.689 227.755C577.042 226.593 577.538 225.596 578.176 224.765C578.825 223.933 579.594 223.295 580.483 222.851C581.383 222.395 582.386 222.167 583.491 222.167C584.653 222.167 585.667 222.372 586.533 222.782C587.41 223.181 588.151 223.768 588.754 224.542C589.37 225.306 589.854 226.229 590.207 227.311C590.56 228.393 590.805 229.618 590.942 230.985V232.558C590.817 233.913 590.572 235.132 590.207 236.215C589.854 237.297 589.37 238.22 588.754 238.983C588.151 239.747 587.41 240.333 586.533 240.744C585.655 241.142 584.63 241.342 583.457 241.342C582.374 241.342 581.383 241.108 580.483 240.641C579.594 240.174 578.825 239.519 578.176 238.676C577.538 237.833 577.042 236.841 576.689 235.702C576.347 234.551 576.176 233.304 576.176 231.959ZM579.355 231.601V231.959C579.355 232.882 579.446 233.748 579.628 234.557C579.822 235.366 580.118 236.078 580.517 236.693C580.916 237.309 581.423 237.793 582.038 238.146C582.653 238.488 583.388 238.659 584.243 238.659C585.291 238.659 586.151 238.437 586.823 237.992C587.507 237.548 588.054 236.961 588.464 236.232C588.874 235.503 589.193 234.711 589.421 233.856V229.738C589.284 229.111 589.085 228.507 588.823 227.926C588.572 227.334 588.242 226.81 587.832 226.354C587.433 225.887 586.937 225.517 586.345 225.243C585.764 224.97 585.074 224.833 584.277 224.833C583.411 224.833 582.665 225.015 582.038 225.38C581.423 225.733 580.916 226.223 580.517 226.85C580.118 227.465 579.822 228.183 579.628 229.003C579.446 229.812 579.355 230.678 579.355 231.601ZM596.77 239.325C596.77 238.79 596.935 238.34 597.265 237.975C597.607 237.599 598.097 237.411 598.735 237.411C599.373 237.411 599.857 237.599 600.188 237.975C600.529 238.34 600.7 238.79 600.7 239.325C600.7 239.849 600.529 240.294 600.188 240.658C599.857 241.023 599.373 241.205 598.735 241.205C598.097 241.205 597.607 241.023 597.265 240.658C596.935 240.294 596.77 239.849 596.77 239.325Z" fill="#014786"/>
</svg>
