<?xml version="1.0" encoding="utf-8"?>
<!-- Generator: Adobe Illustrator 25.1.0, SVG Export Plug-In . SVG Version: 6.00 Build 0)  -->
<svg version="1.1" id="Capa_1" xmlns="http://www.w3.org/2000/svg" xmlns:xlink="http://www.w3.org/1999/xlink" x="0px" y="0px"
	 viewBox="0 0 512 512" style="enable-background:new 0 0 512 512;" xml:space="preserve">
<style type="text/css">
	.st0{fill:#FF1F3D;}
	.st1{fill:#F9F9F9;}
</style>
<circle class="st0" cx="256" cy="256" r="256"/>
<path class="st0" d="M512,256H0c0,141.4,114.6,256,256,256S512,397.4,512,256z"/>
<g>
	<g>
		<path class="st1" d="M186,401c-2.3,0-4.7-0.5-6.8-1.6c-5-2.6-8.2-7.7-8.2-13.4V126c0-5.6,3.2-10.8,8.2-13.4s11-2.1,15.6,1.2
			l180,130c3.9,2.8,6.2,7.3,6.2,12.2s-2.3,9.3-6.2,12.2l-180,130C192.2,400,189.1,401,186,401L186,401z"/>
	</g>
</g>
<g>
	<path class="st1" d="M171,256v130c0,5.6,3.2,10.8,8.2,13.4c2.2,1.1,4.5,1.6,6.8,1.6c3.1,0,6.2-1,8.8-2.8l180-130
		c3.9-2.8,6.2-7.3,6.2-12.2H171z"/>
</g>
</svg>
